<svg id="Layer_1" data-name="Layer 1" xmlns="http://www.w3.org/2000/svg" xmlns:xlink="http://www.w3.org/1999/xlink" viewBox="0 0 201.93 291"><defs><style>.cls-1,.cls-10,.cls-12,.cls-13,.cls-14,.cls-18,.cls-19,.cls-20,.cls-4,.cls-5,.cls-7,.cls-8{fill:none;}.cls-15,.cls-2{fill:#fcf8cd;}.cls-3{clip-path:url(#clip-path);}.cls-10,.cls-12,.cls-13,.cls-14,.cls-15,.cls-18,.cls-19,.cls-20,.cls-21,.cls-4,.cls-5,.cls-7,.cls-8{stroke:#231f20;}.cls-10,.cls-13,.cls-14,.cls-19,.cls-5{stroke-linecap:round;}.cls-5,.cls-7{stroke-width:0.35px;}.cls-6{fill:#fff;}.cls-13,.cls-8{stroke-width:0.5px;}.cls-9{fill:#d1d3d3;}.cls-11,.cls-21{fill:#231f20;}.cls-12{stroke-width:0.25px;}.cls-14{stroke-width:0.17px;}.cls-16{clip-path:url(#clip-path-5);}.cls-17{fill:#939597;}.cls-18,.cls-20{stroke-width:0.2px;}.cls-19{stroke-linejoin:round;stroke-width:0.75px;}.cls-20{stroke-dasharray:0.2 0.4;}</style><clipPath id="clip-path" transform="translate(-118.06 -18.93)"><rect id="SVGID" class="cls-1" x="214.01" y="53.61" width="105.5" height="254.48"/></clipPath><clipPath id="clip-path-5" transform="translate(-118.06 -18.93)"><path id="SVGID-5" data-name="SVGID" class="cls-1" d="M301.25,131.36c-2.46,5.28-6.18,13.25-7.53,20.16v2c0,.62-.08,1.33-.14,2,0,.17-.31,6.85-1.11,14.07-.56,3.66-1.07,7.12-1.47,9.81-.14.68-.28,1.33-.44,2l-69,7.75s-6.21,15.88-3.24,25.54.76,82,.76,82,12.2,3.6,19.63-.86c4-2.41,6.54-1.8,9-.76a29.65,29.65,0,0,1-3.21,10.72l3.23,1.83a31.68,31.68,0,0,0,3.5-10.8,34.57,34.57,0,0,0,4.21,1.4c6.68,2.22,17.66.8,20.39-1.72a25.79,25.79,0,0,1,8.9-5c-.4,2-.86,3.87-1.39,5.69l2.39,1c.7-2.42,1.71-5.4,2.19-8a23.41,23.41,0,0,1,9.15-.95s-1.28-90.86-4.38-106.52c.14-.57.54-1.63.67-2.23,4-4.6,10.66-11.64,14.48-15.11,5.45-4.95,4-9.62,4-9.62s-6.36-4.2-7.28-6.79c-.81-2.26-4.7-2.64-6.68-2.87a137.24,137.24,0,0,1,5.54-13.18,28.69,28.69,0,0,0,2.19-5.27l-2.47-.59a45.49,45.49,0,0,1-1.93,4.43"/></clipPath></defs><title>door open 2</title><path class="cls-2" d="M221.4,188.45s-6.46,16.35-3.48,26,.74,82.47.74,82.47,12.63,3.71,20.06-.74,9.66,0,16.34,2.23,18.08,1,20.81-1.49a29.21,29.21,0,0,1,21.67-7.42s-1.53-96.29-4.78-108.43" transform="translate(-118.06 -18.93)"/><g class="cls-3"><path class="cls-4" d="M221.4,188.45s-6.46,16.35-3.48,26,.74,82.47.74,82.47,12.63,3.71,20.06-.74,9.66,0,16.34,2.23,18.08,1,20.81-1.49a29.21,29.21,0,0,1,21.67-7.42s-1.53-96.29-4.78-108.43" transform="translate(-118.06 -18.93)"/></g><path class="cls-2" d="M311.88,155.63s1.63,5.09-3.82,10.05S291,182,290.23,184.74c0,0,5.46-39.11,6.95-38.86s6.49.36,7.42,3,7.28,6.8,7.28,6.8" transform="translate(-118.06 -18.93)"/><path class="cls-5" d="M311.88,155.63s1.63,5.09-3.82,10.05S291,182,290.23,184.74c0,0,5.46-39.11,6.95-38.86s6.49.36,7.42,3S311.88,155.63,311.88,155.63Z" transform="translate(-118.06 -18.93)"/><path class="cls-6" d="M281.81,127.56s12.13-.27,15.6-2,9.41.24,8.92,2.72S293,151.19,294.32,160l-7.8,2.17-4.71-34.65" transform="translate(-118.06 -18.93)"/><path class="cls-7" d="M281.81,127.56s12.13-.27,15.6-2,9.41.24,8.92,2.72S293,151.19,294.32,160l-7.8,2.17Z" transform="translate(-118.06 -18.93)"/><path class="cls-8" d="M292.47,126.76l-7.31,7.31m12.42-8.59-11.8,11.8m9.9,14-3.57,3.57m6.1-10-11,11M302,125l-15.72,15.71m16-4.29-15.1,15.11m19.1-23.06-19.35,19.34M304.84,126l-18.21,18.2m-2.79-16.7-1.12,1.12m5.34-1.38-3.8,3.8" transform="translate(-118.06 -18.93)"/><path class="cls-6" d="M244.66,106.49s-15.35,13.37-17.83,14.36-5,5.45-6.44,14.36-7.92,35.67-5.45,42.11,10.41,16.34,11.39,18.32,61.42-8.91,61.42-8.91.25-54.49-5.2-60.93-14.45-11.93-15.29-15.24-22.6-4.07-22.6-4.07" transform="translate(-118.06 -18.93)"/><path class="cls-9" d="M237.21,154.37a24,24,0,0,1-16.58,1.42A34.06,34.06,0,0,0,216,154a28.08,28.08,0,0,1,.83-12.74,133.5,133.5,0,0,1,5.85-15.68l2.91-4.06.64-.47,8.59-6.37,9.86-8.23s3,.43,4.15,1.54a16.85,16.85,0,0,0,8.12,3.82,15.65,15.65,0,0,0,8.53-1.4c1.66-.83,2.93,2.67,4.69,4s11.3,9.71,11.62,10.19a45.09,45.09,0,0,1,2.07,5.09c.42,1.35,2.86,19.26,2.86,19.26l-1.27.32-2.07-.16.95,7.81s1.44,2.54.48,4.13-1.75,3.19-7.64,1.28A56.65,56.65,0,0,0,262,160.09c-.64.16-4,4.93-2.71,7.64s2.71,5.57,2.39,6.05-2.07.16-3.82,0-10,3-10,3L244,178.88s-1.6-.48-3.19-1.12a76.68,76.68,0,0,1-7.09-4.41,14.24,14.24,0,0,0,1.68-5.46c0-2.39.64-8.91.64-8.91Z" transform="translate(-118.06 -18.93)"/><path class="cls-10" d="M216.59,154.9c-1.7,9.39-3,18.91-1.65,22.42,2.48,6.43,10.41,16.34,11.39,18.32s61.42-8.91,61.42-8.91.25-54.49-5.19-60.93-14.46-11.93-15.3-15.24-22.6-4.07-22.6-4.07-15.35,13.37-17.83,14.36c-1.24.5-2.48,1.86-3.59,4.21l-.58.56c-.72,1.08-5,12.84-6.56,19.23-1,3.81-1.08,8-.12,9.19,4.29,2,8,3,11.46,2.86,5.17-.18,10-1.66,9.77-2.53" transform="translate(-118.06 -18.93)"/><path class="cls-6" d="M264.44,107.33l5.72,2a4.11,4.11,0,0,0,5.5-2.25c.13-.3-.1-1.93.89-1.91a1.27,1.27,0,0,0,1.28-1.26c0-.56-.82-1.12-.82-1.12,2.17.37,1.87-.64,1.54-1.37-.61-1.32,1.64-.93,1.64-.93,1.06.15,1.24-.2,1.59-.71.85-1.26.39-7.82.39-7.82l.15-1.79s0-.62.93-2c1.3-1.81.9-9.55.9-9.55.9-9.55-6.06-13.21-14.2-18s-14-1.2-21.68,9.37S247.86,98,247.86,98s.26,7.71-3.2,8.49c3.46-.78,9.45,9.05,20.81,4l-1-3.12" transform="translate(-118.06 -18.93)"/><path class="cls-4" d="M264.44,107.33l5.72,2a4.11,4.11,0,0,0,5.5-2.25c.13-.3-.1-1.93.89-1.91a1.27,1.27,0,0,0,1.28-1.26c0-.56-.82-1.12-.82-1.12,2.17.37,1.87-.64,1.54-1.37-.61-1.32,1.64-.93,1.64-.93,1.06.15,1.24-.2,1.59-.71.85-1.26.39-7.82.39-7.82l.15-1.79s0-.62.93-2c1.3-1.81.9-9.55.9-9.55.9-9.55-6.06-13.21-14.2-18s-14-1.2-21.68,9.37S247.86,98,247.86,98s.26,7.71-3.2,8.49c3.46-.78,9.45,9.05,20.81,4Z" transform="translate(-118.06 -18.93)"/><path class="cls-11" d="M277.77,88.45c-.22.55-.15,1.1.15,1.22s.73-.23.95-.78.16-1.11-.15-1.23-.73.24-1,.79" transform="translate(-118.06 -18.93)"/><path class="cls-7" d="M277.77,88.45c-.22.55-.15,1.1.15,1.22s.73-.23.95-.78.16-1.11-.15-1.23S278,87.9,277.77,88.45Z" transform="translate(-118.06 -18.93)"/><path class="cls-6" d="M276.57,86.51s2.94-.79,3.13.38a3.45,3.45,0,0,1,0,1.64s.38.7-4.6-.53" transform="translate(-118.06 -18.93)"/><path class="cls-12" d="M280.08,89.23l-.38-.7m-1,1.58a4.59,4.59,0,0,1-2-.69,2.76,2.76,0,0,1-1.25-1.49m1.09-1.42s2.94-.79,3.13.38a3.45,3.45,0,0,1,0,1.64s.38.7-4.6-.53" transform="translate(-118.06 -18.93)"/><path class="cls-11" d="M279.89,84.38a4.77,4.77,0,0,1,2.17,1.92.43.43,0,0,1-.29.63.7.7,0,0,1-.8-.32,3.32,3.32,0,0,0-1.49-1.34c-1.08-.44-2.35-.15-4,.22l-.38.08a.72.72,0,0,1-.78-.36.43.43,0,0,1,.33-.61l.38-.08c1.77-.4,3.3-.75,4.81-.14" transform="translate(-118.06 -18.93)"/><path class="cls-11" d="M266,89.08c0-3,.78-5.92,3.29-7.66s6.27-6.08,9.12-5c1.81.69,3.17,3.25,5.1,3.08s.88.3,1.35-1.65a10.7,10.7,0,0,0-.48-6c-2-5.7-5.7-8.17-11.1-10.89s-8.58-4.28-14.25-2.16a26.64,26.64,0,0,0-15.1,14.45c-3.49,7.91-.62,14.84-.14,16.51,1.45,5.1,1.66,1.94,3.82,8.84,1.9-2.12,3.06-1.76,5.29-3.52s4.15-4.45,3.64-7.25a29.06,29.06,0,0,1-.7-2.86A3.67,3.67,0,0,1,263,83.63c.38,1.19.13,2.48.28,3.72s1.47,1.76,2.72,1.73" transform="translate(-118.06 -18.93)"/><path class="cls-13" d="M277,102.81a5,5,0,0,1-2.44-.46m3.09-5.93s-2.32,1.49-.88,2.81" transform="translate(-118.06 -18.93)"/><path class="cls-6" d="M264.44,107.33s-4.42-2.63-4.62-5.9" transform="translate(-118.06 -18.93)"/><path class="cls-10" d="M264.44,107.33s-4.42-2.63-4.62-5.9" transform="translate(-118.06 -18.93)"/><path class="cls-4" d="M236.24,127.29s7.93,7.43,4.95,14.36S235.74,162,235.74,162s0,10.9-2,11.39c5.94,4,14,20.11,14,20.11" transform="translate(-118.06 -18.93)"/><path class="cls-9" d="M264,211.22s4.42,8.23,5.76,9.42c0,0,2,1.81.65,2.52a34.92,34.92,0,0,0-9.05,7.38s-1.52,2.17-5.22-5.3c-2.92-5.91-4.24-6.75-4.24-6.75s3.84-8.12,12.1-7.27" transform="translate(-118.06 -18.93)"/><path class="cls-5" d="M264,211.22s4.42,8.23,5.76,9.42c0,0,2,1.81.65,2.52a34.92,34.92,0,0,0-9.05,7.38s-1.52,2.17-5.22-5.3c-2.92-5.91-4.24-6.75-4.24-6.75S255.72,210.37,264,211.22Z" transform="translate(-118.06 -18.93)"/><path class="cls-14" d="M254.83,219.53s3.29,6.56,5.47,8.15m-4.46-9.53,5.84,8.12M256.86,217l5.88,8.49m-4.48-9.72,5.5,8.52m-3.92-9.75,5.33,8.71m-3.52-9.42,5.15,8.74m-3.53-9.42s3.37,7.12,5.24,8.59" transform="translate(-118.06 -18.93)"/><path class="cls-2" d="M240.08,205.66c2.49,3,6.16,7.8,6.9,11.12,1.14,5.13,5.73,1.8,5.73,1.8s6.15-7.18,11.39-6.85" transform="translate(-118.06 -18.93)"/><path class="cls-7" d="M240.08,205.66c2.49,3,6.16,7.8,6.9,11.12,1.14,5.13,5.73,1.8,5.73,1.8s6.15-7.18,11.39-6.85" transform="translate(-118.06 -18.93)"/><path class="cls-10" d="M280.82,133.23s4,7.78,3.47,24.77" transform="translate(-118.06 -18.93)"/><path class="cls-9" d="M316.12,143.77s2.59,1.35-.38,5.81c-3.28,4.91-3.65,8-7.19,6.44-3.95-1.74-7.17-7.43-5.44-8.67a5.36,5.36,0,0,0,2.48-4.21c.2-1.73-.94-1.37.64-1.67s9.89,2.3,9.89,2.3" transform="translate(-118.06 -18.93)"/><g class="cls-3"><path class="cls-4" d="M316.12,143.77s2.59,1.35-.38,5.81c-3.28,4.91-3.65,8-7.19,6.44-3.95-1.74-7.17-7.43-5.44-8.67a5.36,5.36,0,0,0,2.48-4.21c.2-1.73-.94-1.37.64-1.67S316.12,143.77,316.12,143.77Z" transform="translate(-118.06 -18.93)"/></g><path class="cls-13" d="M308.47,148.1l-2.4,3.63m5.57-5.19-3.89,5.88m5.48-4.51-3.9,5.89m6.09-6.41-4.7,7.43" transform="translate(-118.06 -18.93)"/><g class="cls-3"><path class="cls-2" d="M235.35,206.58c.08.13,8,13.61,5.27,26.82-2.48,11.74,1.47,23.53,3.83,30.57.59,1.77,1.1,3.3,1.38,4.44,2.1,8.4,4.54,27-1.3,37.33l3.24,1.83c8-14.16,1.93-39,1.67-40.06-.32-1.28-.85-2.87-1.47-4.72-2.38-7.12-6-17.88-3.72-28.63,3.09-14.66-5.36-28.9-5.72-29.5l-3.18,1.92" transform="translate(-118.06 -18.93)"/><path class="cls-7" d="M235.35,206.58c.08.13,8,13.61,5.27,26.82-2.48,11.74,1.47,23.53,3.83,30.57.59,1.77,1.1,3.3,1.38,4.44,2.1,8.4,4.54,27-1.3,37.33l3.24,1.83c8-14.16,1.93-39,1.67-40.06-.32-1.28-.85-2.87-1.47-4.72-2.38-7.12-6-17.88-3.72-28.63,3.09-14.66-5.36-28.9-5.72-29.5Z" transform="translate(-118.06 -18.93)"/></g><path class="cls-6" d="M221.27,188.26S224.35,208,248.13,211s37.26,27.16,37.26,27.16.64-43.5,4.59-51.42,5.2-32.2,5.2-32.2-11.88,1-10.89,3.47,1.48,4.95-2.48,4.95S263,158.49,261,161a8.29,8.29,0,0,0,0,10.4c1.95,2.69-.56,3.16-.56,3.16s-1.92-3.65-17.27,4.77l-9.42-6s-6.93,2.48-6.93,6.44-5.56,8.47-5.56,8.47" transform="translate(-118.06 -18.93)"/><path class="cls-4" d="M221.27,188.26S224.35,208,248.13,211s37.26,27.16,37.26,27.16.64-43.5,4.59-51.42,5.2-32.2,5.2-32.2-11.88,1-10.89,3.47,1.48,4.95-2.48,4.95S263,158.49,261,161a8.29,8.29,0,0,0,0,10.4c1.95,2.69-.56,3.16-.56,3.16s-1.92-3.65-17.27,4.77l-9.42-6s-6.93,2.48-6.93,6.44S221.27,188.26,221.27,188.26Z" transform="translate(-118.06 -18.93)"/><path class="cls-8" d="M293.64,171.09l-41,40.83m40.27-36-37.31,37m30.35,1-11.11,10.94m11.24-7.43-9.34,9.35m9.15-5.21-7.81,7.81m7.39,4.33-2,2m2.1-6.05-3.88,3.87m4-7.95-5.09,5.09M292,180.6,258.3,214.05m32.12-28.28-29.51,29.61m27.68-23.88-25.27,25.3m24.55-20.89-22.19,22.46m21.4-9.67-14.87,14.88M286.85,205l-16.78,16.77m17.28-21.41-18.41,18.6m25.29-52.74-44.72,45m45.15-49.48-48.57,49m-3.52-31.77-17.89,17.89m40.48-36.54-5.62,5.62M249.12,176.3l-22.86,22.87m42.31-38.49-8.42,8.43m-5,5L228,201.26m43.94-40L261.25,172m-1.82,1.81L230,203.23m45.17-41.34-43,43.06m46.35-42.42-44,44M294.68,158l-52,52m51.15-55.11L239.72,209m49.75-53.69-4.58,4.58M282,162.84l-45,45m-1.5-33.44-14,14m18.81-11L223.33,194.3m14.46-18.4-15.62,15.62" transform="translate(-118.06 -18.93)"/><path class="cls-10" d="M284.72,161.84l-1.3,19.32m-21.11-19.63s-1.56,3.15,3.32,6,9.8,6.09,13,14.51a95.25,95.25,0,0,0,6.11,13.28m-24.3-20.83s6.69,1.12,11.64,10.16a64.6,64.6,0,0,0,11.66,15.62m-40.57-21a44.72,44.72,0,0,1,16.72,9.53c8.42,7.43,10.63,9.16,10.63,9.16s7.09,8.33,9.44,9.92,4.15,3.75,6.2,8m-59.42-35.33s3.37,6.92,10.35,7.71,17.3,10.11,19.64,11.71" transform="translate(-118.06 -18.93)"/><path class="cls-15" d="M301.25,131.36c-2.46,5.28-6.18,13.26-7.53,20.16v2h0c0,.61-.09,1.33-.15,2,0,.3-1,22-4.18,29.53-3.46,8.13-4,50.27-4,52.07v.12l0,.13A240,240,0,0,1,287,264.86c0,10.66-.82,22.6-3.64,32.25l2.39,1c3-10.12,3.82-22.4,3.82-33.3A233.12,233.12,0,0,0,287.89,237c.15-12.09,1.12-44.43,3.76-50.66,3.45-8.11,4.4-29.72,4.45-30.63.14-1.53.2-2.53.2-3.21,0-.27,0-.48,0-.67,1.33-6.43,4.84-14,7.2-19a28.8,28.8,0,0,0,2.18-5.27l-2.47-.59a45.49,45.49,0,0,1-1.93,4.43" transform="translate(-118.06 -18.93)"/><path class="cls-7" d="M301.25,131.36c-2.46,5.28-6.18,13.26-7.53,20.16v2h0c0,.61-.09,1.33-.15,2,0,.3-1,22-4.18,29.53-3.46,8.13-4,50.27-4,52.07v.12l0,.13A240,240,0,0,1,287,264.86c0,10.66-.82,22.6-3.64,32.25l2.39,1c3-10.12,3.82-22.4,3.82-33.3A233.12,233.12,0,0,0,287.89,237c.15-12.09,1.12-44.43,3.76-50.66,3.45-8.11,4.4-29.72,4.45-30.63.14-1.53.2-2.53.2-3.21,0-.27,0-.48,0-.67,1.33-6.43,4.84-14,7.2-19a28.8,28.8,0,0,0,2.18-5.27l-2.47-.59A45.49,45.49,0,0,1,301.25,131.36Z" transform="translate(-118.06 -18.93)"/><g class="cls-3"><path class="cls-6" d="M316.48,143.39s4.1-10.62,2.73-12.63a54.49,54.49,0,0,0-3.76-4.67s-.95-1.8-6-1.18-5.43-.42-7.09.94a1.4,1.4,0,0,0-.26,2.07s-1.24,2.91-.23,4.38l1,1.48-.75,2s1,2.25,4,1.48c0,0-1.16,4.7,1.7,5.87,0,0,4.7,4.7,8.66.25" transform="translate(-118.06 -18.93)"/><path class="cls-4" d="M316.48,143.39s4.1-10.62,2.73-12.63a54.49,54.49,0,0,0-3.76-4.67s-.95-1.8-6-1.18-5.43-.42-7.09.94a1.4,1.4,0,0,0-.26,2.07s-1.24,2.91-.23,4.38l1,1.48-.75,2s1,2.25,4,1.48c0,0-1.16,4.7,1.7,5.87C307.82,143.14,312.52,147.84,316.48,143.39Z" transform="translate(-118.06 -18.93)"/></g><path class="cls-5" d="M304.89,135a3.6,3.6,0,0,0,1.23,2.29M305,132.94s.44-.9-.39-1.07m-1.61-.38a7.59,7.59,0,0,0,1.61.38,19.61,19.61,0,0,0,2,.19l.14.78a9.25,9.25,0,0,0-3.91.94m4.7-4.61s-5.36-1.63-5.82-.19m7.8-2s-5.22-.15-5.89,0-1.27.07-1.56,1" transform="translate(-118.06 -18.93)"/><g class="cls-16"><path class="cls-17" d="M217.78,306.86a1.27,1.27,0,0,1-1.63.75,1.29,1.29,0,0,1-.76-1.65,1.28,1.28,0,0,1,2.39.9" transform="translate(-118.06 -18.93)"/><path class="cls-17" d="M223.17,308.86a1.27,1.27,0,0,1-1.64.75,1.29,1.29,0,0,1-.76-1.64,1.28,1.28,0,0,1,2.4.89" transform="translate(-118.06 -18.93)"/><path class="cls-17" d="M219.5,302.26a1.28,1.28,0,0,1-2.4-.89,1.28,1.28,0,0,1,2.4.89" transform="translate(-118.06 -18.93)"/><path class="cls-17" d="M224.88,304.26a1.28,1.28,0,1,1-.76-1.64,1.28,1.28,0,0,1,.76,1.64" transform="translate(-118.06 -18.93)"/><path class="cls-17" d="M230.26,306.27a1.28,1.28,0,1,1-2.39-.89,1.28,1.28,0,0,1,2.39.89" transform="translate(-118.06 -18.93)"/><path class="cls-17" d="M235.64,308.27a1.28,1.28,0,0,1-2.39-.89,1.28,1.28,0,1,1,2.39.89" transform="translate(-118.06 -18.93)"/><path class="cls-17" d="M215.82,295.66a1.28,1.28,0,1,1-.75-1.64,1.27,1.27,0,0,1,.75,1.64" transform="translate(-118.06 -18.93)"/><path class="cls-17" d="M221.2,297.66a1.28,1.28,0,1,1-.75-1.64,1.27,1.27,0,0,1,.75,1.64" transform="translate(-118.06 -18.93)"/><path class="cls-17" d="M226.59,299.66a1.28,1.28,0,1,1-2.4-.88,1.28,1.28,0,1,1,2.4.88" transform="translate(-118.06 -18.93)"/><path class="cls-17" d="M232,301.67a1.27,1.27,0,0,1-1.64.75,1.28,1.28,0,1,1,.89-2.39,1.27,1.27,0,0,1,.75,1.64" transform="translate(-118.06 -18.93)"/><path class="cls-17" d="M237.35,303.67a1.26,1.26,0,0,1-1.64.75,1.28,1.28,0,1,1,1.64-.75" transform="translate(-118.06 -18.93)"/><path class="cls-17" d="M242.74,305.68A1.28,1.28,0,1,1,242,304a1.29,1.29,0,0,1,.75,1.65" transform="translate(-118.06 -18.93)"/><path class="cls-17" d="M248.12,307.68a1.28,1.28,0,1,1-.75-1.64,1.28,1.28,0,0,1,.75,1.64" transform="translate(-118.06 -18.93)"/><path class="cls-17" d="M217.53,291.07a1.28,1.28,0,1,1-.75-1.65,1.28,1.28,0,0,1,.75,1.65" transform="translate(-118.06 -18.93)"/><path class="cls-17" d="M222.91,293.07a1.28,1.28,0,1,1-.75-1.64,1.27,1.27,0,0,1,.75,1.64" transform="translate(-118.06 -18.93)"/><path class="cls-17" d="M228.3,295.07a1.28,1.28,0,1,1-.75-1.64,1.28,1.28,0,0,1,.75,1.64" transform="translate(-118.06 -18.93)"/><path class="cls-17" d="M233.68,297.07a1.28,1.28,0,1,1-2.39-.89,1.28,1.28,0,0,1,2.39.89" transform="translate(-118.06 -18.93)"/><path class="cls-17" d="M239.06,299.08a1.28,1.28,0,1,1-.75-1.64,1.28,1.28,0,0,1,.75,1.64" transform="translate(-118.06 -18.93)"/><path class="cls-17" d="M244.44,301.08a1.26,1.26,0,0,1-1.63.75,1.28,1.28,0,1,1,.89-2.39,1.27,1.27,0,0,1,.74,1.64" transform="translate(-118.06 -18.93)"/><path class="cls-17" d="M249.83,303.08a1.28,1.28,0,1,1-.75-1.64,1.28,1.28,0,0,1,.75,1.64" transform="translate(-118.06 -18.93)"/><path class="cls-17" d="M255.21,305.09a1.28,1.28,0,1,1-2.39-.9,1.28,1.28,0,0,1,2.39.9" transform="translate(-118.06 -18.93)"/><path class="cls-17" d="M260.6,307.09a1.28,1.28,0,1,1-.76-1.64,1.28,1.28,0,0,1,.76,1.64" transform="translate(-118.06 -18.93)"/><path class="cls-17" d="M266,309.09a1.28,1.28,0,1,1-.75-1.64,1.27,1.27,0,0,1,.75,1.64" transform="translate(-118.06 -18.93)"/><path class="cls-17" d="M219.25,286.47a1.3,1.3,0,0,1-1.65.75,1.28,1.28,0,0,1,.89-2.39,1.28,1.28,0,0,1,.76,1.64" transform="translate(-118.06 -18.93)"/><path class="cls-17" d="M224.63,288.47a1.28,1.28,0,1,1-.76-1.64,1.28,1.28,0,0,1,.76,1.64" transform="translate(-118.06 -18.93)"/><path class="cls-17" d="M230,290.48a1.28,1.28,0,0,1-2.4-.89,1.28,1.28,0,1,1,2.4.89" transform="translate(-118.06 -18.93)"/><path class="cls-17" d="M235.39,292.48a1.28,1.28,0,1,1-.75-1.65,1.28,1.28,0,0,1,.75,1.65" transform="translate(-118.06 -18.93)"/><path class="cls-17" d="M240.78,294.48a1.28,1.28,0,0,1-1.65.75,1.28,1.28,0,1,1,.9-2.39,1.29,1.29,0,0,1,.75,1.64" transform="translate(-118.06 -18.93)"/><path class="cls-17" d="M246.16,296.49a1.28,1.28,0,1,1-.75-1.65,1.28,1.28,0,0,1,.75,1.65" transform="translate(-118.06 -18.93)"/><path class="cls-17" d="M251.54,298.49a1.28,1.28,0,1,1-.75-1.65,1.28,1.28,0,0,1,.75,1.65" transform="translate(-118.06 -18.93)"/><path class="cls-17" d="M256.92,300.49a1.28,1.28,0,1,1-.75-1.64,1.27,1.27,0,0,1,.75,1.64" transform="translate(-118.06 -18.93)"/><path class="cls-17" d="M262.31,302.5a1.27,1.27,0,0,1-1.64.74,1.27,1.27,0,1,1,1.64-.74" transform="translate(-118.06 -18.93)"/><path class="cls-17" d="M267.69,304.49a1.27,1.27,0,1,1-.75-1.64,1.28,1.28,0,0,1,.75,1.64" transform="translate(-118.06 -18.93)"/><path class="cls-17" d="M273.07,306.5a1.28,1.28,0,1,1-.75-1.64,1.27,1.27,0,0,1,.75,1.64" transform="translate(-118.06 -18.93)"/><path class="cls-17" d="M278.45,308.51a1.28,1.28,0,1,1-.75-1.65,1.27,1.27,0,0,1,.75,1.65" transform="translate(-118.06 -18.93)"/><path class="cls-17" d="M215.57,279.87a1.27,1.27,0,0,1-1.64.75,1.28,1.28,0,1,1,1.64-.75" transform="translate(-118.06 -18.93)"/><path class="cls-17" d="M221,281.87a1.28,1.28,0,1,1-.75-1.64,1.27,1.27,0,0,1,.75,1.64" transform="translate(-118.06 -18.93)"/><path class="cls-17" d="M226.33,283.88a1.28,1.28,0,1,1-2.39-.9,1.29,1.29,0,0,1,1.64-.75,1.28,1.28,0,0,1,.75,1.65" transform="translate(-118.06 -18.93)"/><path class="cls-17" d="M231.72,285.88a1.28,1.28,0,1,1-.75-1.64,1.29,1.29,0,0,1,.75,1.64" transform="translate(-118.06 -18.93)"/><path class="cls-17" d="M237.1,287.88a1.28,1.28,0,1,1-.75-1.64,1.27,1.27,0,0,1,.75,1.64" transform="translate(-118.06 -18.93)"/><path class="cls-17" d="M242.49,289.88a1.28,1.28,0,1,1-.76-1.64,1.29,1.29,0,0,1,.76,1.64" transform="translate(-118.06 -18.93)"/><path class="cls-17" d="M247.87,291.89a1.28,1.28,0,0,1-1.64.75,1.28,1.28,0,0,1,.89-2.39,1.28,1.28,0,0,1,.75,1.64" transform="translate(-118.06 -18.93)"/><path class="cls-17" d="M253.25,293.89a1.28,1.28,0,1,1-.75-1.64,1.27,1.27,0,0,1,.75,1.64" transform="translate(-118.06 -18.93)"/><path class="cls-17" d="M258.63,295.89a1.27,1.27,0,1,1-.75-1.64,1.27,1.27,0,0,1,.75,1.64" transform="translate(-118.06 -18.93)"/><path class="cls-17" d="M264,297.9a1.28,1.28,0,1,1-.75-1.64,1.29,1.29,0,0,1,.75,1.64" transform="translate(-118.06 -18.93)"/><path class="cls-17" d="M269.4,299.9a1.28,1.28,0,1,1-.75-1.64,1.27,1.27,0,0,1,.75,1.64" transform="translate(-118.06 -18.93)"/><path class="cls-17" d="M274.78,301.91a1.28,1.28,0,1,1-.75-1.65,1.29,1.29,0,0,1,.75,1.65" transform="translate(-118.06 -18.93)"/><path class="cls-17" d="M280.16,303.91a1.28,1.28,0,1,1-.75-1.64,1.26,1.26,0,0,1,.75,1.64" transform="translate(-118.06 -18.93)"/><path class="cls-17" d="M285.55,305.91a1.28,1.28,0,1,1-.75-1.64,1.27,1.27,0,0,1,.75,1.64" transform="translate(-118.06 -18.93)"/><path class="cls-17" d="M290.93,307.91a1.28,1.28,0,1,1-.75-1.64,1.28,1.28,0,0,1,.75,1.64" transform="translate(-118.06 -18.93)"/><path class="cls-17" d="M217.28,275.28a1.28,1.28,0,1,1-.75-1.65,1.29,1.29,0,0,1,.75,1.65" transform="translate(-118.06 -18.93)"/><path class="cls-17" d="M222.66,277.28a1.28,1.28,0,1,1-.75-1.65,1.28,1.28,0,0,1,.75,1.65" transform="translate(-118.06 -18.93)"/><path class="cls-17" d="M228.05,279.28a1.28,1.28,0,1,1-.76-1.64,1.27,1.27,0,0,1,.76,1.64" transform="translate(-118.06 -18.93)"/><path class="cls-17" d="M233.43,281.28a1.28,1.28,0,1,1-.75-1.64,1.28,1.28,0,0,1,.75,1.64" transform="translate(-118.06 -18.93)"/><path class="cls-17" d="M238.81,283.29a1.28,1.28,0,1,1-.75-1.64,1.27,1.27,0,0,1,.75,1.64" transform="translate(-118.06 -18.93)"/><path class="cls-17" d="M244.19,285.29a1.28,1.28,0,1,1-.75-1.64,1.27,1.27,0,0,1,.75,1.64" transform="translate(-118.06 -18.93)"/><path class="cls-17" d="M249.58,287.29a1.28,1.28,0,1,1-.76-1.64,1.27,1.27,0,0,1,.76,1.64" transform="translate(-118.06 -18.93)"/><path class="cls-17" d="M255,289.3a1.28,1.28,0,1,1-2.39-.89,1.28,1.28,0,0,1,2.39.89" transform="translate(-118.06 -18.93)"/><path class="cls-17" d="M260.34,291.3a1.28,1.28,0,1,1-.75-1.64,1.28,1.28,0,0,1,.75,1.64" transform="translate(-118.06 -18.93)"/><path class="cls-17" d="M265.72,293.3a1.28,1.28,0,1,1-2.39-.89,1.28,1.28,0,0,1,2.39.89" transform="translate(-118.06 -18.93)"/><path class="cls-17" d="M271.11,295.31a1.28,1.28,0,0,1-1.64.75,1.29,1.29,0,0,1-.76-1.65,1.28,1.28,0,0,1,2.4.9" transform="translate(-118.06 -18.93)"/><path class="cls-17" d="M276.49,297.31a1.28,1.28,0,1,1-.75-1.64,1.28,1.28,0,0,1,.75,1.64" transform="translate(-118.06 -18.93)"/><path class="cls-17" d="M281.87,299.31a1.28,1.28,0,1,1-.75-1.64,1.27,1.27,0,0,1,.75,1.64" transform="translate(-118.06 -18.93)"/><path class="cls-17" d="M287.26,301.31a1.27,1.27,0,0,1-1.64.75,1.28,1.28,0,1,1,1.64-.75" transform="translate(-118.06 -18.93)"/><path class="cls-17" d="M292.64,303.32a1.28,1.28,0,1,1-.75-1.64,1.28,1.28,0,0,1,.75,1.64" transform="translate(-118.06 -18.93)"/><path class="cls-17" d="M298,305.32a1.28,1.28,0,1,1-.75-1.64,1.28,1.28,0,0,1,.75,1.64" transform="translate(-118.06 -18.93)"/><path class="cls-17" d="M219,270.68a1.28,1.28,0,1,1-.75-1.64,1.28,1.28,0,0,1,.75,1.64" transform="translate(-118.06 -18.93)"/><path class="cls-17" d="M224.37,272.68a1.28,1.28,0,1,1-.75-1.64,1.27,1.27,0,0,1,.75,1.64" transform="translate(-118.06 -18.93)"/><path class="cls-17" d="M229.76,274.68A1.28,1.28,0,1,1,229,273a1.29,1.29,0,0,1,.75,1.64" transform="translate(-118.06 -18.93)"/><path class="cls-17" d="M235.14,276.69a1.28,1.28,0,1,1-.75-1.65,1.28,1.28,0,0,1,.75,1.65" transform="translate(-118.06 -18.93)"/><path class="cls-17" d="M240.52,278.69a1.28,1.28,0,1,1-.75-1.64,1.27,1.27,0,0,1,.75,1.64" transform="translate(-118.06 -18.93)"/><path class="cls-17" d="M245.91,280.7a1.28,1.28,0,1,1-.76-1.65,1.29,1.29,0,0,1,.76,1.65" transform="translate(-118.06 -18.93)"/><path class="cls-17" d="M251.29,282.7a1.28,1.28,0,1,1-.75-1.64,1.28,1.28,0,0,1,.75,1.64" transform="translate(-118.06 -18.93)"/><path class="cls-17" d="M256.67,284.7a1.28,1.28,0,1,1-.75-1.64,1.27,1.27,0,0,1,.75,1.64" transform="translate(-118.06 -18.93)"/><path class="cls-17" d="M262.05,286.71a1.28,1.28,0,1,1-.75-1.65,1.27,1.27,0,0,1,.75,1.65" transform="translate(-118.06 -18.93)"/><path class="cls-17" d="M267.44,288.71a1.28,1.28,0,0,1-2.4-.89,1.28,1.28,0,1,1,2.4.89" transform="translate(-118.06 -18.93)"/><path class="cls-17" d="M272.82,290.71a1.28,1.28,0,1,1-.75-1.64,1.28,1.28,0,0,1,.75,1.64" transform="translate(-118.06 -18.93)"/><path class="cls-17" d="M278.2,292.71a1.28,1.28,0,1,1-.75-1.64,1.27,1.27,0,0,1,.75,1.64" transform="translate(-118.06 -18.93)"/><path class="cls-17" d="M283.59,294.72a1.28,1.28,0,1,1-.76-1.65,1.29,1.29,0,0,1,.76,1.65" transform="translate(-118.06 -18.93)"/><path class="cls-17" d="M289,296.72a1.28,1.28,0,1,1-.75-1.64,1.27,1.27,0,0,1,.75,1.64" transform="translate(-118.06 -18.93)"/><path class="cls-17" d="M294.35,298.72a1.28,1.28,0,1,1-.75-1.64,1.27,1.27,0,0,1,.75,1.64" transform="translate(-118.06 -18.93)"/><path class="cls-17" d="M299.73,300.73a1.28,1.28,0,1,1-.75-1.65,1.28,1.28,0,0,1,.75,1.65" transform="translate(-118.06 -18.93)"/><path class="cls-17" d="M215.32,264.08a1.27,1.27,0,0,1-1.64.75,1.28,1.28,0,1,1,1.64-.75" transform="translate(-118.06 -18.93)"/><path class="cls-17" d="M220.7,266.08a1.27,1.27,0,0,1-1.64.75,1.26,1.26,0,0,1-.75-1.63,1.27,1.27,0,1,1,2.39.88" transform="translate(-118.06 -18.93)"/><path class="cls-17" d="M226.08,268.09a1.28,1.28,0,1,1-.75-1.65,1.28,1.28,0,0,1,.75,1.65" transform="translate(-118.06 -18.93)"/><path class="cls-17" d="M231.47,270.09a1.28,1.28,0,1,1-.76-1.64,1.27,1.27,0,0,1,.76,1.64" transform="translate(-118.06 -18.93)"/><path class="cls-17" d="M236.85,272.09a1.27,1.27,0,0,1-1.64.75,1.27,1.27,0,1,1,1.64-.75" transform="translate(-118.06 -18.93)"/><path class="cls-17" d="M242.23,274.09a1.28,1.28,0,1,1-.75-1.64,1.27,1.27,0,0,1,.75,1.64" transform="translate(-118.06 -18.93)"/><path class="cls-17" d="M247.62,276.1a1.28,1.28,0,0,1-2.4-.89,1.28,1.28,0,0,1,2.4.89" transform="translate(-118.06 -18.93)"/><path class="cls-17" d="M253,278.1a1.28,1.28,0,1,1-.75-1.64,1.27,1.27,0,0,1,.75,1.64" transform="translate(-118.06 -18.93)"/><path class="cls-17" d="M258.38,280.11a1.28,1.28,0,0,1-2.4-.89,1.28,1.28,0,1,1,2.4.89" transform="translate(-118.06 -18.93)"/><path class="cls-17" d="M263.76,282.11a1.27,1.27,0,0,1-1.64.75,1.29,1.29,0,0,1-.75-1.65,1.28,1.28,0,0,1,2.39.9" transform="translate(-118.06 -18.93)"/><path class="cls-17" d="M269.15,284.11a1.28,1.28,0,0,1-2.4-.89,1.28,1.28,0,0,1,2.4.89" transform="translate(-118.06 -18.93)"/><path class="cls-17" d="M274.53,286.11a1.28,1.28,0,1,1-.75-1.64,1.28,1.28,0,0,1,.75,1.64" transform="translate(-118.06 -18.93)"/><path class="cls-17" d="M279.91,288.12a1.28,1.28,0,1,1-.75-1.64,1.28,1.28,0,0,1,.75,1.64" transform="translate(-118.06 -18.93)"/><path class="cls-17" d="M285.29,290.12a1.28,1.28,0,1,1-.75-1.64,1.27,1.27,0,0,1,.75,1.64" transform="translate(-118.06 -18.93)"/><path class="cls-17" d="M290.68,292.12a1.28,1.28,0,0,1-2.4-.89,1.29,1.29,0,0,1,1.65-.75,1.28,1.28,0,0,1,.75,1.64" transform="translate(-118.06 -18.93)"/><path class="cls-17" d="M296.06,294.13a1.28,1.28,0,1,1-.75-1.65,1.28,1.28,0,0,1,.75,1.65" transform="translate(-118.06 -18.93)"/><path class="cls-17" d="M301.44,296.13a1.28,1.28,0,1,1-.75-1.64,1.27,1.27,0,0,1,.75,1.64" transform="translate(-118.06 -18.93)"/><path class="cls-17" d="M217,259.48a1.28,1.28,0,0,1-1.64.76,1.28,1.28,0,1,1,.89-2.39,1.27,1.27,0,0,1,.75,1.63" transform="translate(-118.06 -18.93)"/><path class="cls-17" d="M222.41,261.49a1.28,1.28,0,1,1-.75-1.65,1.28,1.28,0,0,1,.75,1.65" transform="translate(-118.06 -18.93)"/><path class="cls-17" d="M227.79,263.49a1.28,1.28,0,1,1-.75-1.64,1.27,1.27,0,0,1,.75,1.64" transform="translate(-118.06 -18.93)"/><path class="cls-17" d="M233.18,265.49a1.28,1.28,0,1,1-.76-1.64,1.28,1.28,0,0,1,.76,1.64" transform="translate(-118.06 -18.93)"/><path class="cls-17" d="M238.56,267.5a1.28,1.28,0,1,1-.75-1.64,1.27,1.27,0,0,1,.75,1.64" transform="translate(-118.06 -18.93)"/><path class="cls-17" d="M243.94,269.5a1.28,1.28,0,1,1-.75-1.64,1.27,1.27,0,0,1,.75,1.64" transform="translate(-118.06 -18.93)"/><path class="cls-17" d="M249.32,271.5a1.28,1.28,0,1,1-.75-1.64,1.27,1.27,0,0,1,.75,1.64" transform="translate(-118.06 -18.93)"/><path class="cls-17" d="M254.71,273.51a1.28,1.28,0,1,1-.75-1.64,1.29,1.29,0,0,1,.75,1.64" transform="translate(-118.06 -18.93)"/><path class="cls-17" d="M260.09,275.51a1.28,1.28,0,1,1-.75-1.64,1.27,1.27,0,0,1,.75,1.64" transform="translate(-118.06 -18.93)"/><path class="cls-17" d="M265.47,277.51a1.28,1.28,0,1,1-2.39-.89,1.28,1.28,0,0,1,2.39.89" transform="translate(-118.06 -18.93)"/><path class="cls-17" d="M270.86,279.52a1.28,1.28,0,1,1-.75-1.65,1.28,1.28,0,0,1,.75,1.65" transform="translate(-118.06 -18.93)"/><path class="cls-17" d="M276.24,281.52a1.28,1.28,0,1,1-.75-1.64,1.27,1.27,0,0,1,.75,1.64" transform="translate(-118.06 -18.93)"/><path class="cls-17" d="M281.62,283.52a1.28,1.28,0,1,1-.75-1.64,1.27,1.27,0,0,1,.75,1.64" transform="translate(-118.06 -18.93)"/><path class="cls-17" d="M287,285.53a1.28,1.28,0,1,1-.76-1.65,1.29,1.29,0,0,1,.76,1.65" transform="translate(-118.06 -18.93)"/><path class="cls-17" d="M292.39,287.53a1.28,1.28,0,1,1-.75-1.64,1.28,1.28,0,0,1,.75,1.64" transform="translate(-118.06 -18.93)"/><path class="cls-17" d="M297.77,289.53a1.28,1.28,0,1,1-.75-1.64,1.27,1.27,0,0,1,.75,1.64" transform="translate(-118.06 -18.93)"/><path class="cls-17" d="M218.74,254.89a1.28,1.28,0,1,1-.75-1.64,1.27,1.27,0,0,1,.75,1.64" transform="translate(-118.06 -18.93)"/><path class="cls-17" d="M224.12,256.89a1.28,1.28,0,1,1-.75-1.64,1.27,1.27,0,0,1,.75,1.64" transform="translate(-118.06 -18.93)"/><path class="cls-17" d="M229.5,258.89a1.27,1.27,0,0,1-1.64.76,1.28,1.28,0,0,1,.89-2.4,1.27,1.27,0,0,1,.75,1.64" transform="translate(-118.06 -18.93)"/><path class="cls-17" d="M234.89,260.9a1.28,1.28,0,1,1-.76-1.64,1.29,1.29,0,0,1,.76,1.64" transform="translate(-118.06 -18.93)"/><path class="cls-17" d="M240.27,262.9a1.27,1.27,0,0,1-1.64.75,1.28,1.28,0,1,1,1.64-.75" transform="translate(-118.06 -18.93)"/><path class="cls-17" d="M245.65,264.9a1.27,1.27,0,0,1-1.64.76,1.28,1.28,0,0,1,.89-2.4,1.27,1.27,0,0,1,.75,1.64" transform="translate(-118.06 -18.93)"/><path class="cls-17" d="M251,266.91a1.28,1.28,0,1,1-.76-1.65,1.29,1.29,0,0,1,.76,1.65" transform="translate(-118.06 -18.93)"/><path class="cls-17" d="M256.42,268.91a1.28,1.28,0,1,1-.76-1.64,1.27,1.27,0,0,1,.76,1.64" transform="translate(-118.06 -18.93)"/><path class="cls-17" d="M261.8,270.91a1.28,1.28,0,1,1-.75-1.64,1.27,1.27,0,0,1,.75,1.64" transform="translate(-118.06 -18.93)"/><path class="cls-17" d="M267.18,272.92a1.28,1.28,0,1,1-.75-1.65,1.28,1.28,0,0,1,.75,1.65" transform="translate(-118.06 -18.93)"/><path class="cls-17" d="M272.57,274.92a1.28,1.28,0,0,1-2.4-.89,1.28,1.28,0,0,1,2.4.89" transform="translate(-118.06 -18.93)"/><path class="cls-17" d="M278,276.92a1.28,1.28,0,1,1-.75-1.64,1.27,1.27,0,0,1,.75,1.64" transform="translate(-118.06 -18.93)"/><path class="cls-17" d="M283.33,278.92a1.27,1.27,0,1,1-.75-1.64,1.27,1.27,0,0,1,.75,1.64" transform="translate(-118.06 -18.93)"/><path class="cls-17" d="M288.71,280.93a1.28,1.28,0,1,1-.75-1.64,1.28,1.28,0,0,1,.75,1.64" transform="translate(-118.06 -18.93)"/><path class="cls-17" d="M294.1,282.93a1.28,1.28,0,1,1-.75-1.64,1.28,1.28,0,0,1,.75,1.64" transform="translate(-118.06 -18.93)"/><path class="cls-17" d="M299.48,284.94a1.28,1.28,0,1,1-.75-1.65,1.28,1.28,0,0,1,.75,1.65" transform="translate(-118.06 -18.93)"/><path class="cls-17" d="M220.45,250.29a1.28,1.28,0,0,1-2.4-.89,1.28,1.28,0,0,1,2.4.89" transform="translate(-118.06 -18.93)"/><path class="cls-17" d="M225.83,252.3a1.28,1.28,0,1,1-.75-1.65,1.28,1.28,0,0,1,.75,1.65" transform="translate(-118.06 -18.93)"/><path class="cls-17" d="M231.21,254.3a1.28,1.28,0,1,1-.75-1.64,1.27,1.27,0,0,1,.75,1.64" transform="translate(-118.06 -18.93)"/><path class="cls-17" d="M236.6,256.3a1.28,1.28,0,1,1-.76-1.64,1.28,1.28,0,0,1,.76,1.64" transform="translate(-118.06 -18.93)"/><path class="cls-17" d="M242,258.31a1.28,1.28,0,1,1-.75-1.65,1.28,1.28,0,0,1,.75,1.65" transform="translate(-118.06 -18.93)"/><path class="cls-17" d="M247.36,260.31a1.28,1.28,0,1,1-.75-1.64,1.28,1.28,0,0,1,.75,1.64" transform="translate(-118.06 -18.93)"/><path class="cls-17" d="M252.74,262.31a1.28,1.28,0,1,1-.75-1.64,1.27,1.27,0,0,1,.75,1.64" transform="translate(-118.06 -18.93)"/><path class="cls-17" d="M258.13,264.31a1.28,1.28,0,1,1-.75-1.64,1.28,1.28,0,0,1,.75,1.64" transform="translate(-118.06 -18.93)"/><path class="cls-17" d="M263.51,266.32a1.28,1.28,0,1,1-.75-1.64,1.28,1.28,0,0,1,.75,1.64" transform="translate(-118.06 -18.93)"/><path class="cls-17" d="M268.89,268.32a1.28,1.28,0,1,1-.75-1.64,1.27,1.27,0,0,1,.75,1.64" transform="translate(-118.06 -18.93)"/><path class="cls-17" d="M274.28,270.32a1.28,1.28,0,1,1-2.4-.88,1.28,1.28,0,0,1,2.4.88" transform="translate(-118.06 -18.93)"/><path class="cls-17" d="M279.66,272.33a1.28,1.28,0,1,1-2.39-.89,1.28,1.28,0,0,1,2.39.89" transform="translate(-118.06 -18.93)"/><path class="cls-17" d="M285,274.33a1.28,1.28,0,1,1-.75-1.64,1.27,1.27,0,0,1,.75,1.64" transform="translate(-118.06 -18.93)"/><path class="cls-17" d="M290.43,276.33a1.28,1.28,0,1,1-.75-1.64,1.29,1.29,0,0,1,.75,1.64" transform="translate(-118.06 -18.93)"/><path class="cls-17" d="M295.81,278.33a1.27,1.27,0,1,1-.75-1.64,1.28,1.28,0,0,1,.75,1.64" transform="translate(-118.06 -18.93)"/><path class="cls-17" d="M301.19,280.34a1.28,1.28,0,1,1-.75-1.64,1.27,1.27,0,0,1,.75,1.64" transform="translate(-118.06 -18.93)"/><path class="cls-17" d="M216.78,243.7a1.28,1.28,0,1,1-.76-1.65,1.29,1.29,0,0,1,.76,1.65" transform="translate(-118.06 -18.93)"/><path class="cls-17" d="M222.16,245.7a1.28,1.28,0,0,1-2.4-.89,1.28,1.28,0,1,1,2.4.89" transform="translate(-118.06 -18.93)"/><path class="cls-17" d="M227.54,247.7a1.28,1.28,0,1,1-.75-1.64,1.27,1.27,0,0,1,.75,1.64" transform="translate(-118.06 -18.93)"/><path class="cls-17" d="M232.92,249.7a1.27,1.27,0,0,1-1.64.76,1.28,1.28,0,0,1,.89-2.4,1.27,1.27,0,0,1,.75,1.64" transform="translate(-118.06 -18.93)"/><path class="cls-17" d="M238.31,251.7a1.28,1.28,0,1,1-.76-1.64,1.28,1.28,0,0,1,.76,1.64" transform="translate(-118.06 -18.93)"/><path class="cls-17" d="M243.69,253.71a1.28,1.28,0,1,1-.75-1.64,1.27,1.27,0,0,1,.75,1.64" transform="translate(-118.06 -18.93)"/><path class="cls-17" d="M249.07,255.71a1.28,1.28,0,1,1-.75-1.64,1.27,1.27,0,0,1,.75,1.64" transform="translate(-118.06 -18.93)"/><path class="cls-17" d="M254.46,257.72a1.3,1.3,0,0,1-1.65.75,1.28,1.28,0,0,1,.89-2.4,1.29,1.29,0,0,1,.76,1.65" transform="translate(-118.06 -18.93)"/><path class="cls-17" d="M259.84,259.72a1.28,1.28,0,1,1-.76-1.64,1.28,1.28,0,0,1,.76,1.64" transform="translate(-118.06 -18.93)"/><path class="cls-17" d="M265.22,261.72a1.28,1.28,0,1,1-.75-1.64,1.27,1.27,0,0,1,.75,1.64" transform="translate(-118.06 -18.93)"/><path class="cls-17" d="M270.6,263.73a1.28,1.28,0,1,1-.75-1.64,1.28,1.28,0,0,1,.75,1.64" transform="translate(-118.06 -18.93)"/><path class="cls-17" d="M276,265.73a1.29,1.29,0,0,1-1.65.75,1.28,1.28,0,1,1,1.65-.75" transform="translate(-118.06 -18.93)"/><path class="cls-17" d="M281.37,267.73a1.27,1.27,0,0,1-1.64.75,1.28,1.28,0,1,1,1.64-.75" transform="translate(-118.06 -18.93)"/><path class="cls-17" d="M286.75,269.74a1.28,1.28,0,1,1-.75-1.65,1.28,1.28,0,0,1,.75,1.65" transform="translate(-118.06 -18.93)"/><path class="cls-17" d="M292.13,271.74a1.28,1.28,0,1,1-.74-1.64,1.27,1.27,0,0,1,.74,1.64" transform="translate(-118.06 -18.93)"/><path class="cls-17" d="M297.52,273.74a1.28,1.28,0,1,1-.76-1.64,1.27,1.27,0,0,1,.76,1.64" transform="translate(-118.06 -18.93)"/><path class="cls-17" d="M218.48,239.1a1.28,1.28,0,1,1-.75-1.64,1.28,1.28,0,0,1,.75,1.64" transform="translate(-118.06 -18.93)"/><path class="cls-17" d="M223.87,241.1a1.28,1.28,0,1,1-2.4-.89,1.28,1.28,0,0,1,2.4.89" transform="translate(-118.06 -18.93)"/><path class="cls-17" d="M229.25,243.1a1.28,1.28,0,1,1-.75-1.64,1.27,1.27,0,0,1,.75,1.64" transform="translate(-118.06 -18.93)"/><path class="cls-17" d="M234.63,245.11a1.28,1.28,0,1,1-2.39-.89,1.28,1.28,0,1,1,2.39.89" transform="translate(-118.06 -18.93)"/><path class="cls-17" d="M240,247.11a1.28,1.28,0,1,1-.76-1.64,1.27,1.27,0,0,1,.76,1.64" transform="translate(-118.06 -18.93)"/><path class="cls-17" d="M245.4,249.11a1.28,1.28,0,1,1-.75-1.64,1.27,1.27,0,0,1,.75,1.64" transform="translate(-118.06 -18.93)"/><path class="cls-17" d="M250.78,251.12a1.28,1.28,0,1,1-.75-1.65,1.27,1.27,0,0,1,.75,1.65" transform="translate(-118.06 -18.93)"/><path class="cls-17" d="M256.16,253.12a1.28,1.28,0,1,1-.75-1.64,1.27,1.27,0,0,1,.75,1.64" transform="translate(-118.06 -18.93)"/><path class="cls-17" d="M261.55,255.12a1.28,1.28,0,0,1-1.64.76,1.28,1.28,0,1,1,.88-2.4,1.27,1.27,0,0,1,.76,1.64" transform="translate(-118.06 -18.93)"/><path class="cls-17" d="M266.93,257.13a1.28,1.28,0,1,1-.75-1.65,1.27,1.27,0,0,1,.75,1.65" transform="translate(-118.06 -18.93)"/><path class="cls-17" d="M272.31,259.13a1.28,1.28,0,1,1-.75-1.64,1.27,1.27,0,0,1,.75,1.64" transform="translate(-118.06 -18.93)"/><path class="cls-17" d="M277.7,261.13a1.28,1.28,0,1,1-.76-1.64,1.29,1.29,0,0,1,.76,1.64" transform="translate(-118.06 -18.93)"/><path class="cls-17" d="M283.08,263.14a1.28,1.28,0,1,1-.75-1.65,1.28,1.28,0,0,1,.75,1.65" transform="translate(-118.06 -18.93)"/><path class="cls-17" d="M288.46,265.14a1.28,1.28,0,1,1-.75-1.64,1.28,1.28,0,0,1,.75,1.64" transform="translate(-118.06 -18.93)"/><path class="cls-17" d="M293.85,267.14a1.28,1.28,0,1,1-.76-1.64,1.29,1.29,0,0,1,.76,1.64" transform="translate(-118.06 -18.93)"/><path class="cls-17" d="M299.23,269.14a1.28,1.28,0,1,1-.75-1.64,1.28,1.28,0,0,1,.75,1.64" transform="translate(-118.06 -18.93)"/><path class="cls-17" d="M220.19,234.5a1.28,1.28,0,1,1-.75-1.64,1.27,1.27,0,0,1,.75,1.64" transform="translate(-118.06 -18.93)"/><path class="cls-17" d="M225.58,236.51a1.28,1.28,0,1,1-.75-1.65,1.28,1.28,0,0,1,.75,1.65" transform="translate(-118.06 -18.93)"/><path class="cls-17" d="M231,238.51a1.28,1.28,0,1,1-.75-1.64,1.28,1.28,0,0,1,.75,1.64" transform="translate(-118.06 -18.93)"/><path class="cls-17" d="M236.34,240.51a1.28,1.28,0,1,1-2.39-.89,1.28,1.28,0,0,1,2.39.89" transform="translate(-118.06 -18.93)"/><path class="cls-17" d="M241.73,242.51a1.28,1.28,0,1,1-.75-1.64,1.29,1.29,0,0,1,.75,1.64" transform="translate(-118.06 -18.93)"/><path class="cls-17" d="M247.11,244.52a1.28,1.28,0,1,1-.75-1.64,1.28,1.28,0,0,1,.75,1.64" transform="translate(-118.06 -18.93)"/><path class="cls-17" d="M252.49,246.52a1.28,1.28,0,1,1-.75-1.64,1.27,1.27,0,0,1,.75,1.64" transform="translate(-118.06 -18.93)"/><path class="cls-17" d="M257.88,248.52a1.28,1.28,0,1,1-.76-1.64,1.29,1.29,0,0,1,.76,1.64" transform="translate(-118.06 -18.93)"/><path class="cls-17" d="M263.26,250.53a1.28,1.28,0,1,1-.75-1.64,1.28,1.28,0,0,1,.75,1.64" transform="translate(-118.06 -18.93)"/><path class="cls-17" d="M268.64,252.53a1.28,1.28,0,1,1-.75-1.64,1.27,1.27,0,0,1,.75,1.64" transform="translate(-118.06 -18.93)"/><path class="cls-17" d="M274,254.53a1.27,1.27,0,0,1-1.64.75,1.28,1.28,0,1,1,1.64-.75" transform="translate(-118.06 -18.93)"/><path class="cls-17" d="M279.41,256.54a1.28,1.28,0,1,1-.75-1.65,1.29,1.29,0,0,1,.75,1.65" transform="translate(-118.06 -18.93)"/><path class="cls-17" d="M284.79,258.54a1.28,1.28,0,1,1-.75-1.64,1.28,1.28,0,0,1,.75,1.64" transform="translate(-118.06 -18.93)"/><path class="cls-17" d="M290.17,260.54a1.27,1.27,0,1,1-.75-1.64,1.28,1.28,0,0,1,.75,1.64" transform="translate(-118.06 -18.93)"/><path class="cls-17" d="M295.56,262.55a1.28,1.28,0,0,1-2.4-.9,1.28,1.28,0,0,1,2.4.9" transform="translate(-118.06 -18.93)"/><path class="cls-17" d="M300.94,264.55a1.28,1.28,0,1,1-.75-1.64,1.28,1.28,0,0,1,.75,1.64" transform="translate(-118.06 -18.93)"/><path class="cls-17" d="M216.52,227.91a1.28,1.28,0,1,1-.75-1.65,1.28,1.28,0,0,1,.75,1.65" transform="translate(-118.06 -18.93)"/><path class="cls-17" d="M221.9,229.91a1.28,1.28,0,1,1-.75-1.65,1.28,1.28,0,0,1,.75,1.65" transform="translate(-118.06 -18.93)"/><path class="cls-17" d="M227.29,231.91a1.28,1.28,0,0,1-1.64.75,1.27,1.27,0,1,1,1.64-.75" transform="translate(-118.06 -18.93)"/><path class="cls-17" d="M232.67,233.92a1.28,1.28,0,1,1-.75-1.65,1.27,1.27,0,0,1,.75,1.65" transform="translate(-118.06 -18.93)"/><path class="cls-17" d="M238.06,235.92a1.28,1.28,0,1,1-.76-1.65,1.29,1.29,0,0,1,.76,1.65" transform="translate(-118.06 -18.93)"/><path class="cls-17" d="M243.44,237.92a1.28,1.28,0,1,1-.75-1.64,1.28,1.28,0,0,1,.75,1.64" transform="translate(-118.06 -18.93)"/><path class="cls-17" d="M248.82,239.92a1.28,1.28,0,1,1-.75-1.64,1.27,1.27,0,0,1,.75,1.64" transform="translate(-118.06 -18.93)"/><path class="cls-17" d="M254.2,241.93a1.28,1.28,0,1,1-.75-1.65,1.28,1.28,0,0,1,.75,1.65" transform="translate(-118.06 -18.93)"/><path class="cls-17" d="M259.58,243.93a1.26,1.26,0,0,1-1.63.75,1.27,1.27,0,1,1,1.63-.75" transform="translate(-118.06 -18.93)"/><path class="cls-17" d="M265,245.93a1.28,1.28,0,1,1-.76-1.64,1.27,1.27,0,0,1,.76,1.64" transform="translate(-118.06 -18.93)"/><path class="cls-17" d="M270.35,247.94a1.28,1.28,0,1,1-.75-1.65,1.28,1.28,0,0,1,.75,1.65" transform="translate(-118.06 -18.93)"/><path class="cls-17" d="M275.73,249.94a1.28,1.28,0,0,1-2.39-.89,1.28,1.28,0,1,1,2.39.89" transform="translate(-118.06 -18.93)"/><path class="cls-17" d="M281.12,251.94a1.28,1.28,0,0,1-1.65.75,1.28,1.28,0,0,1,.9-2.39,1.28,1.28,0,0,1,.75,1.64" transform="translate(-118.06 -18.93)"/><path class="cls-17" d="M286.5,254a1.28,1.28,0,1,1-.75-1.65,1.29,1.29,0,0,1,.75,1.65" transform="translate(-118.06 -18.93)"/><path class="cls-17" d="M291.89,256a1.29,1.29,0,0,1-1.65.75,1.28,1.28,0,0,1,.89-2.4,1.29,1.29,0,0,1,.76,1.65" transform="translate(-118.06 -18.93)"/><path class="cls-17" d="M297.26,258a1.27,1.27,0,1,1-.74-1.64,1.27,1.27,0,0,1,.74,1.64" transform="translate(-118.06 -18.93)"/><path class="cls-17" d="M302.65,260a1.28,1.28,0,0,1-1.64.76,1.28,1.28,0,1,1,.89-2.4,1.28,1.28,0,0,1,.75,1.64" transform="translate(-118.06 -18.93)"/><path class="cls-17" d="M218.23,223.31a1.28,1.28,0,1,1-.75-1.64,1.28,1.28,0,0,1,.75,1.64" transform="translate(-118.06 -18.93)"/><path class="cls-17" d="M223.61,225.31a1.28,1.28,0,1,1-.74-1.64,1.27,1.27,0,0,1,.74,1.64" transform="translate(-118.06 -18.93)"/><path class="cls-17" d="M229,227.32a1.28,1.28,0,0,1-2.4-.9,1.28,1.28,0,0,1,2.4.9" transform="translate(-118.06 -18.93)"/><path class="cls-17" d="M234.38,229.32a1.28,1.28,0,1,1-.75-1.64,1.27,1.27,0,0,1,.75,1.64" transform="translate(-118.06 -18.93)"/><path class="cls-17" d="M239.76,231.32a1.27,1.27,0,0,1-1.64.75,1.29,1.29,0,0,1-.75-1.64,1.28,1.28,0,0,1,2.39.89" transform="translate(-118.06 -18.93)"/><path class="cls-17" d="M245.15,233.32a1.28,1.28,0,0,1-1.64.76,1.28,1.28,0,1,1,.89-2.4,1.28,1.28,0,0,1,.75,1.64" transform="translate(-118.06 -18.93)"/><path class="cls-17" d="M250.53,235.33a1.28,1.28,0,1,1-.75-1.64,1.28,1.28,0,0,1,.75,1.64" transform="translate(-118.06 -18.93)"/><path class="cls-17" d="M255.91,237.33a1.28,1.28,0,1,1-.75-1.64,1.28,1.28,0,0,1,.75,1.64" transform="translate(-118.06 -18.93)"/><path class="cls-17" d="M261.3,239.33a1.27,1.27,0,0,1-1.64.75,1.27,1.27,0,1,1,1.64-.75" transform="translate(-118.06 -18.93)"/><path class="cls-17" d="M266.68,241.34a1.28,1.28,0,1,1-.75-1.65,1.28,1.28,0,0,1,.75,1.65" transform="translate(-118.06 -18.93)"/><path class="cls-17" d="M288.21,249.35a1.28,1.28,0,1,1-.75-1.64,1.28,1.28,0,0,1,.75,1.64" transform="translate(-118.06 -18.93)"/><path class="cls-17" d="M293.59,251.35a1.28,1.28,0,1,1-.75-1.64,1.27,1.27,0,0,1,.75,1.64" transform="translate(-118.06 -18.93)"/><path class="cls-17" d="M299,253.35a1.27,1.27,0,1,1-.75-1.64,1.26,1.26,0,0,1,.75,1.64" transform="translate(-118.06 -18.93)"/><path class="cls-17" d="M219.94,218.71a1.28,1.28,0,1,1-.75-1.64,1.27,1.27,0,0,1,.75,1.64" transform="translate(-118.06 -18.93)"/><path class="cls-17" d="M225.32,220.72a1.27,1.27,0,0,1-1.64.75,1.29,1.29,0,0,1-.75-1.65,1.28,1.28,0,0,1,2.39.9" transform="translate(-118.06 -18.93)"/><path class="cls-17" d="M230.71,222.72a1.28,1.28,0,1,1-.76-1.65,1.28,1.28,0,0,1,.76,1.65" transform="translate(-118.06 -18.93)"/><path class="cls-17" d="M236.09,224.72a1.28,1.28,0,1,1-.75-1.64,1.26,1.26,0,0,1,.75,1.64" transform="translate(-118.06 -18.93)"/><path class="cls-17" d="M241.47,226.72a1.28,1.28,0,1,1-.75-1.64,1.27,1.27,0,0,1,.75,1.64" transform="translate(-118.06 -18.93)"/><path class="cls-17" d="M246.85,228.73a1.28,1.28,0,1,1-2.39-.89,1.28,1.28,0,1,1,2.39.89" transform="translate(-118.06 -18.93)"/><path class="cls-17" d="M252.24,230.73a1.28,1.28,0,1,1-.75-1.64,1.28,1.28,0,0,1,.75,1.64" transform="translate(-118.06 -18.93)"/><path class="cls-17" d="M257.62,232.74a1.28,1.28,0,1,1-.75-1.65,1.28,1.28,0,0,1,.75,1.65" transform="translate(-118.06 -18.93)"/><path class="cls-17" d="M263,234.74a1.28,1.28,0,1,1-2.4-.9,1.28,1.28,0,0,1,2.4.9" transform="translate(-118.06 -18.93)"/><path class="cls-17" d="M289.92,244.75a1.28,1.28,0,1,1-.75-1.64,1.27,1.27,0,0,1,.75,1.64" transform="translate(-118.06 -18.93)"/><path class="cls-17" d="M295.31,246.76a1.28,1.28,0,1,1-.76-1.65,1.29,1.29,0,0,1,.76,1.65" transform="translate(-118.06 -18.93)"/><path class="cls-17" d="M300.69,248.76a1.28,1.28,0,1,1-2.39-.89,1.28,1.28,0,0,1,2.39.89" transform="translate(-118.06 -18.93)"/><path class="cls-17" d="M216.27,212.11a1.28,1.28,0,1,1-.75-1.64,1.28,1.28,0,0,1,.75,1.64" transform="translate(-118.06 -18.93)"/><path class="cls-17" d="M221.65,214.12a1.28,1.28,0,1,1-.75-1.65,1.28,1.28,0,0,1,.75,1.65" transform="translate(-118.06 -18.93)"/><path class="cls-17" d="M227,216.12a1.28,1.28,0,1,1-.76-1.64,1.28,1.28,0,0,1,.76,1.64" transform="translate(-118.06 -18.93)"/><path class="cls-17" d="M232.42,218.12a1.28,1.28,0,1,1-.75-1.64,1.29,1.29,0,0,1,.75,1.64" transform="translate(-118.06 -18.93)"/><path class="cls-17" d="M237.8,220.13a1.28,1.28,0,1,1-.75-1.65,1.28,1.28,0,0,1,.75,1.65" transform="translate(-118.06 -18.93)"/><path class="cls-17" d="M243.18,222.13a1.28,1.28,0,1,1-.75-1.64,1.27,1.27,0,0,1,.75,1.64" transform="translate(-118.06 -18.93)"/><path class="cls-17" d="M248.57,224.13a1.28,1.28,0,1,1-.76-1.64,1.27,1.27,0,0,1,.76,1.64" transform="translate(-118.06 -18.93)"/><path class="cls-17" d="M254,226.13a1.28,1.28,0,1,1-2.4-.88,1.3,1.3,0,0,1,1.65-.76,1.27,1.27,0,0,1,.75,1.64" transform="translate(-118.06 -18.93)"/><path class="cls-17" d="M291.63,240.16a1.28,1.28,0,1,1-.75-1.64,1.28,1.28,0,0,1,.75,1.64" transform="translate(-118.06 -18.93)"/><path class="cls-17" d="M297,242.16a1.28,1.28,0,1,1-.75-1.64,1.27,1.27,0,0,1,.75,1.64" transform="translate(-118.06 -18.93)"/><path class="cls-17" d="M302.4,244.17a1.28,1.28,0,1,1-.75-1.65,1.28,1.28,0,0,1,.75,1.65" transform="translate(-118.06 -18.93)"/><path class="cls-17" d="M218,207.52a1.28,1.28,0,1,1-.75-1.64,1.28,1.28,0,0,1,.75,1.64" transform="translate(-118.06 -18.93)"/><path class="cls-17" d="M223.36,209.52a1.28,1.28,0,1,1-.75-1.64,1.27,1.27,0,0,1,.75,1.64" transform="translate(-118.06 -18.93)"/><path class="cls-17" d="M228.75,211.52a1.28,1.28,0,1,1-.76-1.64,1.29,1.29,0,0,1,.76,1.64" transform="translate(-118.06 -18.93)"/><path class="cls-17" d="M234.13,213.53a1.28,1.28,0,1,1-2.39-.9,1.28,1.28,0,0,1,2.39.9" transform="translate(-118.06 -18.93)"/><path class="cls-17" d="M239.51,215.53a1.27,1.27,0,0,1-1.64.75,1.28,1.28,0,1,1,1.64-.75" transform="translate(-118.06 -18.93)"/><path class="cls-17" d="M244.9,217.53a1.28,1.28,0,1,1-.76-1.64,1.28,1.28,0,0,1,.76,1.64" transform="translate(-118.06 -18.93)"/><path class="cls-17" d="M250.28,219.54a1.29,1.29,0,0,1-1.65.75,1.28,1.28,0,0,1,.9-2.4,1.29,1.29,0,0,1,.75,1.65" transform="translate(-118.06 -18.93)"/><path class="cls-17" d="M288,233.56a1.28,1.28,0,1,1-.75-1.64,1.27,1.27,0,0,1,.75,1.64" transform="translate(-118.06 -18.93)"/><path class="cls-17" d="M293.34,235.56a1.28,1.28,0,1,1-2.39-.89,1.28,1.28,0,0,1,2.39.89" transform="translate(-118.06 -18.93)"/><path class="cls-17" d="M298.73,237.57a1.29,1.29,0,0,1-1.65.75,1.28,1.28,0,0,1,.89-2.4,1.29,1.29,0,0,1,.76,1.65" transform="translate(-118.06 -18.93)"/><path class="cls-17" d="M219.69,202.92a1.28,1.28,0,1,1-.75-1.64,1.28,1.28,0,0,1,.75,1.64" transform="translate(-118.06 -18.93)"/><path class="cls-17" d="M225.07,204.93a1.28,1.28,0,1,1-2.39-.9,1.28,1.28,0,0,1,2.39.9" transform="translate(-118.06 -18.93)"/><path class="cls-17" d="M230.45,206.93a1.28,1.28,0,0,1-2.39-.89,1.28,1.28,0,1,1,2.39.89" transform="translate(-118.06 -18.93)"/><path class="cls-17" d="M235.84,208.93a1.28,1.28,0,1,1-.75-1.64,1.27,1.27,0,0,1,.75,1.64" transform="translate(-118.06 -18.93)"/><path class="cls-17" d="M241.41,211.51a1.28,1.28,0,1,1-.75-1.65,1.28,1.28,0,0,1,.75,1.65" transform="translate(-118.06 -18.93)"/><path class="cls-17" d="M246.6,212.94a1.28,1.28,0,1,1-.75-1.64,1.27,1.27,0,0,1,.75,1.64" transform="translate(-118.06 -18.93)"/><path class="cls-17" d="M252,214.94a1.28,1.28,0,1,1-.75-1.64,1.28,1.28,0,0,1,.75,1.64" transform="translate(-118.06 -18.93)"/><path class="cls-17" d="M289.67,229a1.28,1.28,0,1,1-.75-1.64,1.28,1.28,0,0,1,.75,1.64" transform="translate(-118.06 -18.93)"/><path class="cls-17" d="M295.05,231a1.28,1.28,0,1,1-.75-1.65,1.28,1.28,0,0,1,.75,1.65" transform="translate(-118.06 -18.93)"/><path class="cls-17" d="M300.43,233a1.28,1.28,0,1,1-.75-1.64,1.28,1.28,0,0,1,.75,1.64" transform="translate(-118.06 -18.93)"/><path class="cls-17" d="M216,196.32a1.28,1.28,0,1,1-.76-1.64,1.27,1.27,0,0,1,.76,1.64" transform="translate(-118.06 -18.93)"/><path class="cls-17" d="M221.4,198.33a1.28,1.28,0,1,1-.75-1.64,1.27,1.27,0,0,1,.75,1.64" transform="translate(-118.06 -18.93)"/><path class="cls-17" d="M226.78,200.33a1.28,1.28,0,1,1-.75-1.64,1.27,1.27,0,0,1,.75,1.64" transform="translate(-118.06 -18.93)"/><path class="cls-17" d="M291.38,224.37a1.28,1.28,0,1,1-.75-1.65,1.28,1.28,0,0,1,.75,1.65" transform="translate(-118.06 -18.93)"/><path class="cls-17" d="M296.76,226.37a1.28,1.28,0,1,1-.75-1.64,1.28,1.28,0,0,1,.75,1.64" transform="translate(-118.06 -18.93)"/><path class="cls-17" d="M302.14,228.37a1.28,1.28,0,1,1-.75-1.64,1.27,1.27,0,0,1,.75,1.64" transform="translate(-118.06 -18.93)"/><path class="cls-17" d="M217.72,191.73a1.27,1.27,0,0,1-1.63.75,1.28,1.28,0,1,1,.89-2.39,1.26,1.26,0,0,1,.74,1.64" transform="translate(-118.06 -18.93)"/><path class="cls-17" d="M223.11,193.73a1.27,1.27,0,0,1-1.64.75,1.28,1.28,0,1,1,.89-2.39,1.27,1.27,0,0,1,.75,1.64" transform="translate(-118.06 -18.93)"/><path class="cls-17" d="M287.71,217.77a1.28,1.28,0,1,1-.76-1.64,1.29,1.29,0,0,1,.76,1.64" transform="translate(-118.06 -18.93)"/><path class="cls-17" d="M293.09,219.77a1.27,1.27,0,0,1-1.64.75,1.28,1.28,0,1,1,1.64-.75" transform="translate(-118.06 -18.93)"/><path class="cls-17" d="M298.47,221.77a1.28,1.28,0,1,1-2.39-.89,1.28,1.28,0,0,1,2.39.89" transform="translate(-118.06 -18.93)"/><path class="cls-17" d="M219.44,187.13a1.28,1.28,0,0,1-2.4-.89,1.28,1.28,0,0,1,2.4.89" transform="translate(-118.06 -18.93)"/><path class="cls-17" d="M289.42,213.17a1.28,1.28,0,1,1-.76-1.64,1.28,1.28,0,0,1,.76,1.64" transform="translate(-118.06 -18.93)"/><path class="cls-17" d="M294.8,215.18a1.28,1.28,0,1,1-.75-1.65,1.28,1.28,0,0,1,.75,1.65" transform="translate(-118.06 -18.93)"/><path class="cls-17" d="M300.18,217.18a1.28,1.28,0,1,1-.75-1.64,1.28,1.28,0,0,1,.75,1.64" transform="translate(-118.06 -18.93)"/><path class="cls-17" d="M291.13,208.57a1.28,1.28,0,1,1-.76-1.64,1.29,1.29,0,0,1,.76,1.64" transform="translate(-118.06 -18.93)"/><path class="cls-17" d="M296.51,210.58a1.28,1.28,0,1,1-.75-1.64,1.27,1.27,0,0,1,.75,1.64" transform="translate(-118.06 -18.93)"/><path class="cls-17" d="M301.89,212.58a1.28,1.28,0,1,1-.75-1.64,1.27,1.27,0,0,1,.75,1.64" transform="translate(-118.06 -18.93)"/><path class="cls-17" d="M292.84,204a1.28,1.28,0,1,1-.76-1.64,1.28,1.28,0,0,1,.76,1.64" transform="translate(-118.06 -18.93)"/><path class="cls-17" d="M298.22,206a1.28,1.28,0,1,1-.75-1.65,1.28,1.28,0,0,1,.75,1.65" transform="translate(-118.06 -18.93)"/><path class="cls-17" d="M289.17,197.38a1.28,1.28,0,0,1-1.65.75,1.28,1.28,0,1,1,1.65-.75" transform="translate(-118.06 -18.93)"/><path class="cls-17" d="M294.55,199.38a1.28,1.28,0,1,1-.76-1.64,1.29,1.29,0,0,1,.76,1.64" transform="translate(-118.06 -18.93)"/><path class="cls-17" d="M299.93,201.39a1.28,1.28,0,1,1-.75-1.64,1.28,1.28,0,0,1,.75,1.64" transform="translate(-118.06 -18.93)"/><path class="cls-17" d="M290.87,192.79a1.28,1.28,0,1,1-.75-1.64,1.27,1.27,0,0,1,.75,1.64" transform="translate(-118.06 -18.93)"/><path class="cls-17" d="M296.25,194.79a1.28,1.28,0,1,1-.75-1.64,1.27,1.27,0,0,1,.75,1.64" transform="translate(-118.06 -18.93)"/><path class="cls-17" d="M301.64,196.79a1.28,1.28,0,1,1-.75-1.64,1.27,1.27,0,0,1,.75,1.64" transform="translate(-118.06 -18.93)"/><path class="cls-17" d="M292.58,188.19a1.28,1.28,0,0,1-2.39-.89,1.28,1.28,0,0,1,2.39.89" transform="translate(-118.06 -18.93)"/><path class="cls-17" d="M298,190.19a1.28,1.28,0,0,1-1.64.76,1.3,1.3,0,0,1-.76-1.65,1.28,1.28,0,0,1,2.4.89" transform="translate(-118.06 -18.93)"/><path class="cls-17" d="M294.3,183.59a1.28,1.28,0,1,1-.76-1.64,1.29,1.29,0,0,1,.76,1.64" transform="translate(-118.06 -18.93)"/><path class="cls-17" d="M299.67,185.6a1.27,1.27,0,1,1-.74-1.65,1.27,1.27,0,0,1,.74,1.65" transform="translate(-118.06 -18.93)"/><path class="cls-17" d="M294.67,176.62a1.28,1.28,0,1,1-.75-1.65,1.28,1.28,0,0,1,.75,1.65" transform="translate(-118.06 -18.93)"/><path class="cls-17" d="M301.39,181a1.28,1.28,0,1,1-.76-1.64,1.28,1.28,0,0,1,.76,1.64" transform="translate(-118.06 -18.93)"/><path class="cls-17" d="M292.33,172.4a1.28,1.28,0,1,1-.75-1.64,1.27,1.27,0,0,1,.75,1.64" transform="translate(-118.06 -18.93)"/><path class="cls-17" d="M297.72,174.4a1.28,1.28,0,1,1-.76-1.64,1.29,1.29,0,0,1,.76,1.64" transform="translate(-118.06 -18.93)"/><path class="cls-17" d="M303.1,176.41a1.28,1.28,0,1,1-2.39-.89,1.26,1.26,0,0,1,1.64-.75,1.27,1.27,0,0,1,.75,1.64" transform="translate(-118.06 -18.93)"/><path class="cls-17" d="M308.48,178.41a1.28,1.28,0,1,1-.75-1.64,1.28,1.28,0,0,1,.75,1.64" transform="translate(-118.06 -18.93)"/><path class="cls-17" d="M294,167.8a1.28,1.28,0,1,1-.75-1.64,1.28,1.28,0,0,1,.75,1.64" transform="translate(-118.06 -18.93)"/><path class="cls-17" d="M299.43,169.81a1.29,1.29,0,0,1-1.64.75,1.28,1.28,0,1,1,.89-2.39,1.29,1.29,0,0,1,.75,1.64" transform="translate(-118.06 -18.93)"/><path class="cls-17" d="M304.81,171.81a1.28,1.28,0,1,1-.75-1.64,1.27,1.27,0,0,1,.75,1.64" transform="translate(-118.06 -18.93)"/><path class="cls-17" d="M310.19,173.81a1.28,1.28,0,1,1-.75-1.64,1.28,1.28,0,0,1,.75,1.64" transform="translate(-118.06 -18.93)"/><path class="cls-17" d="M315.58,175.82a1.29,1.29,0,0,1-1.65.75,1.28,1.28,0,1,1,1.65-.75" transform="translate(-118.06 -18.93)"/><path class="cls-17" d="M295.75,163.21a1.28,1.28,0,1,1-.75-1.64,1.27,1.27,0,0,1,.75,1.64" transform="translate(-118.06 -18.93)"/><path class="cls-17" d="M301.14,165.21a1.29,1.29,0,0,1-1.65.75,1.28,1.28,0,1,1,1.65-.75" transform="translate(-118.06 -18.93)"/><path class="cls-17" d="M306.52,167.22a1.28,1.28,0,1,1-.75-1.65,1.3,1.3,0,0,1,.75,1.65" transform="translate(-118.06 -18.93)"/><path class="cls-17" d="M311.9,169.22a1.28,1.28,0,1,1-2.39-.89,1.28,1.28,0,0,1,2.39.89" transform="translate(-118.06 -18.93)"/><path class="cls-17" d="M297.46,158.61a1.28,1.28,0,1,1-.75-1.64,1.27,1.27,0,0,1,.75,1.64" transform="translate(-118.06 -18.93)"/><path class="cls-17" d="M302.84,160.61a1.27,1.27,0,1,1-.75-1.64,1.27,1.27,0,0,1,.75,1.64" transform="translate(-118.06 -18.93)"/><path class="cls-17" d="M308.23,162.62a1.28,1.28,0,1,1-.75-1.64,1.28,1.28,0,0,1,.75,1.64" transform="translate(-118.06 -18.93)"/><path class="cls-17" d="M313.61,164.62a1.28,1.28,0,1,1-.75-1.64,1.28,1.28,0,0,1,.75,1.64" transform="translate(-118.06 -18.93)"/><path class="cls-17" d="M293.79,152a1.27,1.27,0,0,1-2.39-.88,1.27,1.27,0,0,1,1.64-.76,1.29,1.29,0,0,1,.75,1.64" transform="translate(-118.06 -18.93)"/><path class="cls-17" d="M299.17,154a1.28,1.28,0,1,1-.75-1.64,1.28,1.28,0,0,1,.75,1.64" transform="translate(-118.06 -18.93)"/><path class="cls-17" d="M304.56,156a1.28,1.28,0,1,1-2.4-.89,1.28,1.28,0,0,1,2.4.89" transform="translate(-118.06 -18.93)"/><path class="cls-17" d="M309.94,158a1.28,1.28,0,1,1-.75-1.64,1.27,1.27,0,0,1,.75,1.64" transform="translate(-118.06 -18.93)"/><path class="cls-17" d="M295.25,153.21a1.28,1.28,0,1,1-.75-1.63,1.26,1.26,0,0,1,.75,1.63" transform="translate(-118.06 -18.93)"/><path class="cls-17" d="M296.11,147.88a1.28,1.28,0,1,1-2.39-.89,1.28,1.28,0,0,1,2.39.89" transform="translate(-118.06 -18.93)"/><path class="cls-17" d="M300.88,149.42a1.28,1.28,0,1,1-.75-1.64,1.27,1.27,0,0,1,.75,1.64" transform="translate(-118.06 -18.93)"/><path class="cls-17" d="M306.27,151.42a1.28,1.28,0,1,1-.76-1.64,1.29,1.29,0,0,1,.76,1.64" transform="translate(-118.06 -18.93)"/><path class="cls-17" d="M311.65,153.43a1.28,1.28,0,1,1-.76-1.64,1.28,1.28,0,0,1,.76,1.64" transform="translate(-118.06 -18.93)"/><path class="cls-17" d="M297.92,143.12a1.28,1.28,0,1,1-.76-1.65,1.28,1.28,0,0,1,.76,1.65" transform="translate(-118.06 -18.93)"/><path class="cls-17" d="M302.59,144.82a1.27,1.27,0,1,1-.75-1.63,1.26,1.26,0,0,1,.75,1.63" transform="translate(-118.06 -18.93)"/><path class="cls-17" d="M308,146.83a1.28,1.28,0,1,1-2.39-.89,1.28,1.28,0,1,1,2.39.89" transform="translate(-118.06 -18.93)"/><path class="cls-17" d="M313.36,148.83a1.28,1.28,0,1,1-.75-1.64,1.28,1.28,0,0,1,.75,1.64" transform="translate(-118.06 -18.93)"/><path class="cls-17" d="M299.49,138.42a1.28,1.28,0,1,1-.75-1.64,1.28,1.28,0,0,1,.75,1.64" transform="translate(-118.06 -18.93)"/><path class="cls-17" d="M304.3,140.23a1.28,1.28,0,1,1-.75-1.64,1.27,1.27,0,0,1,.75,1.64" transform="translate(-118.06 -18.93)"/><path class="cls-17" d="M309.69,142.23a1.28,1.28,0,1,1-2.4-.89,1.28,1.28,0,0,1,2.4.89" transform="translate(-118.06 -18.93)"/><path class="cls-17" d="M315.07,144.24a1.27,1.27,0,0,1-1.64.75,1.28,1.28,0,1,1,.89-2.39,1.27,1.27,0,0,1,.75,1.64" transform="translate(-118.06 -18.93)"/><path class="cls-17" d="M295.25,131.63a1.29,1.29,0,0,1-1.65.75,1.28,1.28,0,1,1,1.65-.75" transform="translate(-118.06 -18.93)"/><path class="cls-17" d="M300.63,133.63a1.28,1.28,0,1,1-.75-1.64,1.27,1.27,0,0,1,.75,1.64" transform="translate(-118.06 -18.93)"/><path class="cls-17" d="M306,135.63a1.28,1.28,0,1,1-.75-1.64,1.27,1.27,0,0,1,.75,1.64" transform="translate(-118.06 -18.93)"/><path class="cls-17" d="M311.39,137.64a1.28,1.28,0,1,1-.75-1.64,1.27,1.27,0,0,1,.75,1.64" transform="translate(-118.06 -18.93)"/><path class="cls-17" d="M297,127a1.28,1.28,0,1,1-.76-1.64A1.28,1.28,0,0,1,297,127" transform="translate(-118.06 -18.93)"/><path class="cls-17" d="M302.34,129a1.27,1.27,0,1,1-.75-1.64,1.28,1.28,0,0,1,.75,1.64" transform="translate(-118.06 -18.93)"/><path class="cls-17" d="M307.72,131a1.28,1.28,0,1,1-.75-1.64,1.28,1.28,0,0,1,.75,1.64" transform="translate(-118.06 -18.93)"/><path class="cls-17" d="M313.11,133a1.28,1.28,0,1,1-.76-1.64,1.28,1.28,0,0,1,.76,1.64" transform="translate(-118.06 -18.93)"/><path class="cls-17" d="M309.43,126.44a1.28,1.28,0,1,1-.75-1.64,1.27,1.27,0,0,1,.75,1.64" transform="translate(-118.06 -18.93)"/><path class="cls-17" d="M314.81,128.45a1.27,1.27,0,1,1-.74-1.65,1.28,1.28,0,0,1,.74,1.65" transform="translate(-118.06 -18.93)"/></g><g class="cls-3"><path class="cls-4" d="M243.62,210.27a20.89,20.89,0,0,1,3.36,6.51c1.14,5.13,5.73,1.8,5.73,1.8a29.48,29.48,0,0,1,5.48-4.83m43.06-82.39c-2.46,5.28-6.18,13.26-7.53,20.16v2h0c0,.61-.1,1.33-.15,2,0,.3-1,22-4.18,29.53-3.46,8.13-4,50.28-4,52.07v.12l0,.13A240,240,0,0,1,287,264.86c0,10.66-.82,22.6-3.64,32.25l2.39,1c2.95-10.12,3.82-22.4,3.82-33.3A233.12,233.12,0,0,0,287.89,237c.15-12.09,1.12-44.43,3.77-50.66,3.44-8.11,4.4-29.72,4.44-30.63.14-1.53.2-2.53.2-3.21a6,6,0,0,0,0-.67c1.24-5.94,4.33-12.85,6.65-17.83m-67,73.63c1.8,3.42,7,14.69,4.7,25.77-2.48,11.74,1.47,23.52,3.82,30.57.6,1.77,1.11,3.3,1.39,4.44,2.1,8.4,4.54,27-1.3,37.34l3.23,1.82c8-14.16,1.94-39,1.68-40.06-.32-1.28-.86-2.87-1.47-4.72-2.38-7.12-6-17.87-3.72-28.62,2.08-9.88-1.07-19.56-3.46-25" transform="translate(-118.06 -18.93)"/></g><path class="cls-6" d="M270.94,245.27s-1,.59-2.84-5.1c-1-3-2.91-2.38-6.76-9.64a8.47,8.47,0,0,1,3.35-5c2.76-1.89,5.92-3,7-1.94h0c2.05.64,5.69,2.16,7.62,5.64s4.48,7.33,6.67,7.61c0,0,1,2.44-1.6,2.21s-4.68-4-4.68-4l1.38,1.89a7.39,7.39,0,0,0,2.37,2s4.84.12,4.55,2.53c-.15,1.24-3,.53-3,.53s2.66,1.45,2.05,3.12c-.25.71-3.65-.62-3.65-.62s1.24,1.81-2.52,1.48c-2.57-.23-3.5,0-4.88-1.37s-4.29-3.83-4.29-3.83l.87,2.8s4,.75,4,3.24c0,0,0,.89-1.48.26l-4.22-1.82" transform="translate(-118.06 -18.93)"/><path class="cls-10" d="M283.45,244.51a32.74,32.74,0,0,0-3.82-1c-1.42-.22-1.82-.76-3-2.09s-2.78-2.79-2.78-2.79M285.05,242s-3.64-1.22-4.29-1.35-1.12-.21-2.56-1.73a26.24,26.24,0,0,1-2.36-2.84m1.31-5.29a12.64,12.64,0,0,1,2.57,4.21m-8.78,10.26s-1,.59-2.84-5.1c-1-3-2.91-2.38-6.76-9.64a8.47,8.47,0,0,1,3.35-5c2.76-1.89,5.92-3,7-1.94h0c2.05.64,5.69,2.16,7.62,5.64s4.48,7.33,6.67,7.61c0,0,1,2.44-1.6,2.21s-4.68-4-4.68-4l1.38,1.89a7.39,7.39,0,0,0,2.37,2s4.84.12,4.55,2.53c-.15,1.24-3,.53-3,.53s2.66,1.45,2.05,3.12c-.25.71-3.65-.62-3.65-.62s1.24,1.81-2.52,1.48c-2.57-.23-3.5,0-4.88-1.37s-4.29-3.83-4.29-3.83l.87,2.8s4,.75,4,3.24c0,0,0,.89-1.48.26Z" transform="translate(-118.06 -18.93)"/><path class="cls-9" d="M244.72,92.79l-.73.58c2.76,1.95,19.34,13.81,23.09,14.78l.13-1c-3.75-1-19.61-12.94-22.57-14.56-.37-.2.08.15.08.15" transform="translate(-118.06 -18.93)"/><path class="cls-18" d="M244.72,92.79l-.73.58c2.76,1.95,19.34,13.81,23.09,14.78l.13-1c-3.75-1-19.61-12.94-22.57-14.56C244.27,92.44,244.72,92.79,244.72,92.79Z" transform="translate(-118.06 -18.93)"/><path class="cls-9" d="M260.35,84.4a12.78,12.78,0,0,1,4,2.78c4.2,4.2,6.91,5.49,6.91,5.49l.23-1.32s-2.83-1.09-7-5.29a12.73,12.73,0,0,0-4.06-2.81" transform="translate(-118.06 -18.93)"/><path class="cls-18" d="M260.35,84.4a12.78,12.78,0,0,1,4,2.78c4.2,4.2,6.91,5.49,6.91,5.49l.23-1.32s-2.83-1.09-7-5.29a12.73,12.73,0,0,0-4.06-2.81" transform="translate(-118.06 -18.93)"/><path class="cls-9" d="M260.35,84.4A27.46,27.46,0,0,0,254.24,81c-5.52-2.2-11.36-7-11.36-7l.56-.51s6.26,4.78,11.78,7a27.47,27.47,0,0,1,6.17,3.5" transform="translate(-118.06 -18.93)"/><path class="cls-18" d="M260.35,84.4A27.46,27.46,0,0,0,254.24,81c-5.52-2.2-11.36-7-11.36-7l.56-.51s6.26,4.78,11.78,7a27.47,27.47,0,0,1,6.17,3.5" transform="translate(-118.06 -18.93)"/><path class="cls-9" d="M282.37,91.23a38.75,38.75,0,0,1,1,6.28c.07,1.5-.08,2.77-.72,3.12-1.83,1-2.15,4-2.15,4l-.86.29s-.91,2.36-1.09,3-1.75,1.13-1.75,1.13a4.61,4.61,0,0,1-6,3.37c-5-1.28-8.39-7.17-8.39-7.17s4.71-3,6.09-6.2a38.43,38.43,0,0,0,2.07-8.15s1.78,2.17,11.81.41" transform="translate(-118.06 -18.93)"/><path class="cls-8" d="M266,104.8s6.08,3.87,10.81,4.17m-8.5-6.44s6.71,2.85,11.34,2.35m-8.76-8.16s8.25,1.9,12.49.79m-1-6.28a38.75,38.75,0,0,1,1,6.28c.07,1.5-.08,2.77-.72,3.12-1.83,1-2.15,4-2.15,4l-.86.29s-.91,2.36-1.09,3-1.75,1.13-1.75,1.13a4.61,4.61,0,0,1-6,3.37c-5-1.28-8.39-7.17-8.39-7.17s4.71-3,6.09-6.2a38.43,38.43,0,0,0,2.07-8.15S272.34,93,282.37,91.23Z" transform="translate(-118.06 -18.93)"/><path class="cls-6" d="M270.87,112.36c-5-1.28-9.14-6.76-9.14-6.76s5.45-3.4,6.84-6.61a38.93,38.93,0,0,0,2.07-8.14s1.77,2.16,11.81.41l0-.09.45,2.57a31.71,31.71,0,0,1-10.3.49c-.2,1-.46,2.06-.78,3.15a22.25,22.25,0,0,1-.92,2.61,16.86,16.86,0,0,1-4.92,5.78c1.3,1.62,3.23,6.13,5.46,6.7l-.55-.11" transform="translate(-118.06 -18.93)"/><path class="cls-19" d="M270.87,112.36c-5-1.28-9.14-6.76-9.14-6.76s5.45-3.4,6.84-6.61a38.93,38.93,0,0,0,2.07-8.14s1.77,2.16,11.81.41l0-.09.45,2.57a31.71,31.71,0,0,1-10.3.49c-.2,1-.46,2.06-.78,3.15a22.25,22.25,0,0,1-.92,2.61,16.86,16.86,0,0,1-4.92,5.78c1.3,1.62,3.23,6.13,5.46,6.7l-.55-.11" transform="translate(-118.06 -18.93)"/><path class="cls-20" d="M282.7,92.74s-7.45,1.71-10.78.28c0,0-.69,8.83-6.94,12.41a27,27,0,0,0,4.7,6.53M282.6,92.18s-7.12,1.9-11.15,0c0,0-1,9.77-6.94,12.4l-1,.61s3.17,6.14,6.19,6.77" transform="translate(-118.06 -18.93)"/><path class="cls-9" d="M245,92.49a12.79,12.79,0,0,0-6.31,2.66c-2.51,2.25-7.38,6.41-9.54,9.62l.85.44c2.58-3.83,7.2-7.44,9.16-9.2A21.61,21.61,0,0,1,245,92.49" transform="translate(-118.06 -18.93)"/><path class="cls-18" d="M245,92.49a12.79,12.79,0,0,0-6.31,2.66c-2.51,2.25-7.38,6.41-9.54,9.62l.85.44c2.58-3.83,7.2-7.44,9.16-9.2A21.61,21.61,0,0,1,245,92.49Z" transform="translate(-118.06 -18.93)"/><path class="cls-9" d="M245.23,92.64a12.08,12.08,0,0,0-5.49,4.09c-1.9,2.79-5.64,8-7,11.62l.95.23c1.32-3.64,4.78-8.34,6.69-11.13a21.55,21.55,0,0,1,4.82-4.81" transform="translate(-118.06 -18.93)"/><path class="cls-18" d="M245.23,92.64a12.08,12.08,0,0,0-5.49,4.09c-1.9,2.79-5.64,8-7,11.62l.95.23c1.32-3.64,4.78-8.34,6.69-11.13A21.55,21.55,0,0,1,245.23,92.64Z" transform="translate(-118.06 -18.93)"/><path class="cls-9" d="M245.42,92.29s-8.29-2.11-8.81-1.08l-.53,1s-.46,1.67,9,.52l.31-.48" transform="translate(-118.06 -18.93)"/><path class="cls-18" d="M237.41,91.49s0,.82,8,.8m0,0s-8.29-2.11-8.81-1.08l-.53,1s-.46,1.67,9,.52Z" transform="translate(-118.06 -18.93)"/><path class="cls-9" d="M245.1,92.39s6.69,7.76,5.39,8.39l-1.3.63s-2.27.66-4.66-8.66l.57-.36" transform="translate(-118.06 -18.93)"/><path class="cls-18" d="M249.75,100s-1.22.12-4.65-7.65m0,0s6.69,7.76,5.39,8.39l-1.3.63s-2.27.66-4.66-8.66Z" transform="translate(-118.06 -18.93)"/><path class="cls-6" d="M244.09,92.63a.5.5,0,1,0,.52.85l.87-.53a.5.5,0,1,0-.52-.85l-.87.53" transform="translate(-118.06 -18.93)"/><path class="cls-18" d="M244.09,92.63a.5.5,0,1,0,.52.85l.87-.53a.5.5,0,1,0-.52-.85Z" transform="translate(-118.06 -18.93)"/><path class="cls-9" d="M243.55,73.46a9.07,9.07,0,0,0-4.38,3c-2.24,2.52-6.6,7.21-8.38,10.65l.9.34c2.12-4.1,6.3-8.22,8.05-10.2a34.61,34.61,0,0,1,3.81-3.77" transform="translate(-118.06 -18.93)"/><path class="cls-18" d="M243.55,73.46a9.07,9.07,0,0,0-4.38,3c-2.24,2.52-6.6,7.21-8.38,10.65l.9.34c2.12-4.1,6.3-8.22,8.05-10.2A34.61,34.61,0,0,1,243.55,73.46Z" transform="translate(-118.06 -18.93)"/><path class="cls-9" d="M243.55,73.46s-8.29-2.11-8.81-1.07l-.52,1s-.47,1.67,9,.52l.3-.48" transform="translate(-118.06 -18.93)"/><path class="cls-18" d="M235.54,72.66s0,.83,8,.8m0,0s-8.29-2.11-8.81-1.07l-.52,1s-.47,1.67,9,.52Z" transform="translate(-118.06 -18.93)"/><path class="cls-9" d="M243.34,73.84a12.08,12.08,0,0,0-5,4.64c-1.61,3-4.78,8.53-5.73,12.28l1,.13c.95-3.76,3.91-8.79,5.51-11.76a21.36,21.36,0,0,1,4.31-5.29" transform="translate(-118.06 -18.93)"/><path class="cls-18" d="M243.34,73.84a12.08,12.08,0,0,0-5,4.64c-1.61,3-4.78,8.53-5.73,12.28l1,.13c.95-3.76,3.91-8.79,5.51-11.76A21.36,21.36,0,0,1,243.34,73.84Z" transform="translate(-118.06 -18.93)"/><path class="cls-9" d="M243.23,73.57s6.69,7.75,5.4,8.39l-1.3.63s-2.28.66-4.67-8.66l.57-.36" transform="translate(-118.06 -18.93)"/><path class="cls-18" d="M247.88,81.22s-1.21.12-4.65-7.65m0,0s6.69,7.75,5.4,8.39l-1.3.63s-2.28.66-4.67-8.66Z" transform="translate(-118.06 -18.93)"/><path class="cls-6" d="M242.23,73.8a.5.5,0,0,0-.17.69.51.51,0,0,0,.69.17l.87-.53a.5.5,0,0,0-.52-.86l-.87.53" transform="translate(-118.06 -18.93)"/><path class="cls-18" d="M242.23,73.8a.5.5,0,0,0-.17.69.51.51,0,0,0,.69.17l.87-.53a.5.5,0,0,0-.52-.86Z" transform="translate(-118.06 -18.93)"/><path class="cls-6" d="M262.81,85.85s-.25-4.47-3.07-4.73-4.82,3.33-4.12,5.94a29.36,29.36,0,0,1,1.06,5.38c.1,1.2.86,3,2.92,1.45" transform="translate(-118.06 -18.93)"/><path class="cls-7" d="M260.85,85.65a1.86,1.86,0,0,0-.85-3c-2.31-1-3.57,2.37-3,3.78s1.66,2.41,1.41,3.76m4.37-4.37s-.25-4.47-3.07-4.73-4.82,3.33-4.12,5.94a29.36,29.36,0,0,1,1.06,5.38c.1,1.2.86,3,2.92,1.45" transform="translate(-118.06 -18.93)"/><path class="cls-9" d="M247.1,66.65l-3.87,5.1S289.77,82.28,294.6,79l0,0a4.56,4.56,0,0,0-4.76-6.07,59.63,59.63,0,0,1-14.81-.78s-11.38-2-14.33-2.64Z" transform="translate(-118.06 -18.93)"/><path class="cls-11" d="M294.31,79s-1,41.67-.84,48.14l0,.37c-.16.77-1,1.53-2.39,2.13-4.23,1.83-13.3,2.2-21.94.29-7.18-1.58-14.08-4.73-17.79-9.8l-.24.17.3.06,8.11-45a.29.29,0,0,0-.24-.34.3.3,0,0,0-.35.24l-8.11,45,.05.23c3.85,5.26,10.88,8.43,18.15,10a52.28,52.28,0,0,0,16.48,1,21.1,21.1,0,0,0,5.81-1.35c1.48-.64,2.5-1.47,2.74-2.55a1.77,1.77,0,0,0,.05-.51c-.05-3.21.15-15.25.38-26.47.11-5.61.23-11,.32-15s.14-6.61.14-6.61a.29.29,0,0,0-.29-.31.3.3,0,0,0-.3.29Z" transform="translate(-118.06 -18.93)"/><path class="cls-11" d="M286.45,83.15l-1.89,41.21a.3.3,0,0,0,.6,0L287,83.17a.3.3,0,1,0-.59,0Z" transform="translate(-118.06 -18.93)"/><path class="cls-11" d="M283.46,87.37l-1.08,17.75a.3.3,0,1,0,.59,0l1.09-17.75a.3.3,0,0,0-.28-.31.3.3,0,0,0-.32.28Z" transform="translate(-118.06 -18.93)"/><path class="cls-11" d="M287.91,127.05l.31-10.73a.32.32,0,0,0-.29-.31.3.3,0,0,0-.3.29L287.32,127a.3.3,0,0,0,.59,0Z" transform="translate(-118.06 -18.93)"/><polyline class="cls-10" points="78.52 280.95 78.52 37.78 78.52 30.71 12.05 0.77 12.05 37.78 12.05 67.82 12.05 67.86 12.05 73.82 12.05 76.71 12.05 78.77 12.05 94.62 12.05 190.24 12.05 280.75 12.05 280.87 12.05 281.2 78.52 281.2 78.52 280.87"/><rect class="cls-10" x="0.5" y="0.77" width="11.55" height="280.18"/><polygon class="cls-10" points="78.52 36.71 12.05 6.74 12.05 0.77 78.52 30.74 78.52 36.71"/><circle class="cls-11" cx="18.72" cy="155.17" r="4.65"/><line class="cls-21" x1="105.89" y1="203.89" x2="105.89" y2="232.6"/><line class="cls-21" x1="71.49" y1="215.6" x2="71.49" y2="276.28"/><line class="cls-21" x1="17.71" y1="50.15" x2="17.71" y2="78.63"/><line class="cls-21" x1="22.76" y1="31.59" x2="22.76" y2="63.36"/><line class="cls-21" x1="69.48" y1="63.04" x2="69.48" y2="94.82"/></svg>