<svg id="Layer_1" data-name="Layer 1" xmlns="http://www.w3.org/2000/svg" xmlns:xlink="http://www.w3.org/1999/xlink" viewBox="0 0 161.29 102.92"><defs><style>.cls-1,.cls-12,.cls-15,.cls-19,.cls-22,.cls-6,.cls-7,.cls-9{fill:none;}.cls-2{clip-path:url(#clip-path);}.cls-3{fill:#9d9b9d;}.cls-4{clip-path:url(#clip-path-2);}.cls-5{fill:#dbdbdc;}.cls-12,.cls-15,.cls-19,.cls-22,.cls-6,.cls-7,.cls-9{stroke:#2b2523;}.cls-12,.cls-15,.cls-6,.cls-7,.cls-9{stroke-miterlimit:10;}.cls-6{stroke-width:0.3px;}.cls-7{stroke-width:0.33px;}.cls-8{clip-path:url(#clip-path-3);}.cls-9{stroke-width:0.34px;}.cls-10,.cls-24{fill:#fff;}.cls-11{fill:#2b2523;}.cls-12{stroke-width:0.17px;}.cls-13{fill:#fefefe;}.cls-14{fill:#fffad4;}.cls-15{stroke-width:0.68px;}.cls-16{fill:url(#Unnamed_Pattern_5);}.cls-17{clip-path:url(#clip-path-4);}.cls-18{clip-path:url(#clip-path-5);}.cls-19{stroke-width:0.16px;}.cls-20{clip-path:url(#clip-path-6);}.cls-21{fill:#24a5df;}.cls-22{stroke-width:0.08px;}.cls-23{fill:#00539f;}.cls-24{font-size:9.19px;font-family:UniversLTStd-Bold, UniversLTStd Bold;font-weight:700;}</style><clipPath id="clip-path"><rect class="cls-1" width="35.05" height="35.03"/></clipPath><clipPath id="clip-path-2"><rect class="cls-1" x="-51.94" y="-120.37" width="253.12" height="114.46"/></clipPath><clipPath id="clip-path-3"><rect class="cls-1" x="-2.54" y="1.12" width="159.59" height="98.78"/></clipPath><pattern id="Unnamed_Pattern_5" data-name="Unnamed Pattern 5" width="35.05" height="35.03" patternTransform="translate(5399.31 4676) scale(0.34)" patternUnits="userSpaceOnUse" viewBox="0 0 35.05 35.03"><rect class="cls-1" width="35.05" height="35.03"/><g class="cls-2"><path class="cls-3" d="M26.13-.11a1.69,1.69,0,0,1-2.19,1,1.68,1.68,0,0,1-1-2.18,1.7,1.7,0,0,1,2.19-1,1.7,1.7,0,0,1,1,2.19"/><path class="cls-3" d="M33.14,2.7a1.71,1.71,0,0,1-3.2-1.19,1.71,1.71,0,0,1,3.2,1.19"/><path class="cls-3" d="M26.13,6.9a1.7,1.7,0,1,1-1-2.19,1.7,1.7,0,0,1,1,2.19"/><path class="cls-3" d="M19.12,4.1a1.7,1.7,0,1,1-1-2.19,1.69,1.69,0,0,1,1,2.19"/><path class="cls-3" d="M12.11,1.3A1.7,1.7,0,0,1,8.92.11a1.7,1.7,0,0,1,2.19-1,1.71,1.71,0,0,1,1,2.2"/><path class="cls-3" d="M5.1,5.5a1.7,1.7,0,1,1-1-2.19,1.7,1.7,0,0,1,1,2.19"/><path class="cls-3" d="M33.14,9.7a1.71,1.71,0,0,1-3.2-1.18,1.71,1.71,0,1,1,3.2,1.18"/><path class="cls-3" d="M26.13,13.91a1.7,1.7,0,1,1-1-2.19,1.69,1.69,0,0,1,1,2.19"/><path class="cls-3" d="M19.12,11.11a1.7,1.7,0,1,1-1-2.2,1.71,1.71,0,0,1,1,2.2"/><path class="cls-3" d="M12.11,8.3a1.7,1.7,0,1,1-1-2.19,1.7,1.7,0,0,1,1,2.19"/><path class="cls-3" d="M5.1,12.51a1.7,1.7,0,1,1-1-2.2,1.71,1.71,0,0,1,1,2.2"/><path class="cls-3" d="M33.14,16.71a1.71,1.71,0,1,1-1-2.19,1.7,1.7,0,0,1,1,2.19"/><path class="cls-3" d="M26.13,20.91a1.7,1.7,0,1,1-1-2.19,1.69,1.69,0,0,1,1,2.19"/><path class="cls-3" d="M19.12,18.11a1.7,1.7,0,1,1-1-2.19,1.7,1.7,0,0,1,1,2.19"/><path class="cls-3" d="M12.11,15.31a1.7,1.7,0,1,1-1-2.19,1.69,1.69,0,0,1,1,2.19"/><path class="cls-3" d="M5.1,19.51a1.7,1.7,0,1,1-1-2.19,1.7,1.7,0,0,1,1,2.19"/><path class="cls-3" d="M33.14,23.72a1.71,1.71,0,0,1-3.2-1.19,1.71,1.71,0,1,1,3.2,1.19"/><path class="cls-3" d="M26.13,27.92a1.7,1.7,0,1,1-1-2.19,1.7,1.7,0,0,1,1,2.19"/><path class="cls-3" d="M19.12,25.12a1.7,1.7,0,1,1-1-2.19,1.69,1.69,0,0,1,1,2.19"/><path class="cls-3" d="M12.11,22.32a1.7,1.7,0,1,1-1-2.2,1.71,1.71,0,0,1,1,2.2"/><path class="cls-3" d="M5.1,26.52a1.7,1.7,0,1,1-1-2.19,1.7,1.7,0,0,1,1,2.19"/><path class="cls-3" d="M33.14,30.72a1.71,1.71,0,1,1-1-2.19,1.7,1.7,0,0,1,1,2.19"/><path class="cls-3" d="M26.13,34.93a1.7,1.7,0,1,1-1-2.2,1.71,1.71,0,0,1,1,2.2"/><path class="cls-3" d="M19.12,32.12a1.7,1.7,0,1,1-1-2.19,1.69,1.69,0,0,1,1,2.19"/><path class="cls-3" d="M12.11,29.32a1.7,1.7,0,1,1-1-2.19,1.7,1.7,0,0,1,1,2.19"/><path class="cls-3" d="M5.1,33.53a1.7,1.7,0,1,1-1-2.2,1.71,1.71,0,0,1,1,2.2"/><path class="cls-3" d="M12.11,36.33a1.7,1.7,0,1,1-1-2.19,1.69,1.69,0,0,1,1,2.19"/></g></pattern><clipPath id="clip-path-4"><path class="cls-1" d="M113.48,45.24a6.27,6.27,0,0,0-1.14.35l.22,3.37-3.25,2.12a.7.7,0,0,1-.43.15c-.31,0-.78-.38-.79-.07A22.79,22.79,0,0,0,112.54,57a5,5,0,0,1-1.42,1.11l-.7-.79a13.74,13.74,0,0,0,1.91,7.61,1.54,1.54,0,0,0,.63.66c.26.11.56.07.83.19a1.83,1.83,0,0,1,.64.6,4.55,4.55,0,0,0,4.22,1.55s9.91.65,11.37.88a11.33,11.33,0,0,0,1.66,0c2,0,5.07,0,7.24,1.41,1.92,1.26,2.73,1.21,3.73,1.15a7.19,7.19,0,0,1,1.9.09c2.36.45,3.37-3,3.59-4.16S150.6,67,150.6,67c.62.39,1.31-.33,1.78-.9a6,6,0,0,1,2.56-1.78,1.54,1.54,0,0,0,.69-.37,1.22,1.22,0,0,0,.21-.65c.19-2.34-1.58-4.34-3.23-6A5.57,5.57,0,0,0,151,56a1.93,1.93,0,0,0-2,.16,6.46,6.46,0,0,0,0-2.32,2.19,2.19,0,0,0-1.45-1.68c-.46-.12-1,0-1.37-.3a5.51,5.51,0,0,1-.7-.81c-.78-.79-2.1-.43-3.16-.08a26.79,26.79,0,0,1-8.52,1.36.92.92,0,0,0,.05-1.14,2.18,2.18,0,0,1-2.37-.48c-.65-.56-1.14-1.3-1.85-1.8a6.57,6.57,0,0,0-1.61-.75,68.36,68.36,0,0,0-9.32-2.56,18.48,18.48,0,0,0-3.63-.45,8.93,8.93,0,0,0-1.55.13"/></clipPath><clipPath id="clip-path-5"><rect class="cls-1" x="-376.3" y="-241.78" width="612" height="792"/></clipPath><clipPath id="clip-path-6"><path class="cls-1" d="M31.08,42.92a65.42,65.42,0,0,0-6.54,3,2,2,0,0,0-.66.49c-.56.71-.16,2.09-1,2.41a1.43,1.43,0,0,1-.55,0,1.86,1.86,0,0,0-.41,0c-1,.16-1.16,1.43-1.13,2.4.06,2.82-1.72,11-.5,8.43a2.79,2.79,0,0,1,3.9-1.28c.51.37,2.13,2.36,3.65,2.63a6.92,6.92,0,0,0,1.58.08,9.32,9.32,0,0,1,2.53.22,5.6,5.6,0,0,1,3.38,2.14c.41.17,1-.39,1.62-1a3.3,3.3,0,0,1,2.21-1c2.93,2.59,7.77,1.13,9.21.56s1.83-.11,2.39.68,1.58-.67,2.7-1.12,3.94-6.31,5.06-7.37a3.62,3.62,0,0,1,3.06-.54L62.06,50a5.34,5.34,0,0,0,0-1.91c-.43-1.85-2.56-2.66-4.39-3.17l-3.87-1.09a4.7,4.7,0,0,0-2.91-.18c-.3.12-.64.29-.92.13s-.28-.43-.48-.6-.81-.12-1.2.06l-7.08,3.28a8.38,8.38,0,0,0-5.76-2.45c-.89,0-1.92.07-2.53-.58-.21-.23-.35-.53-.62-.68a.81.81,0,0,0-.43-.11,2.4,2.4,0,0,0-.82.2"/></clipPath></defs><g class="cls-4"><path class="cls-5" d="M92.68.28H78.09L78.4-7,77.15,0,64.93.28a22.62,22.62,0,0,1-.21-8.23c1-5.78-.64-13.35-.64-13.35l.85-7.56H93.68s-1.27,7.34-.43,4.89a89.79,89.79,0,0,1-.57,16.69c-.64,5.78,0,7.56,0,7.56"/><path class="cls-6" d="M92.68.28H78.09L78.4-7,77.15,0,64.93.28a22.62,22.62,0,0,1-.21-8.23c1-5.78-.64-13.35-.64-13.35l.85-7.56H93.68s-1.27,7.34-.43,4.9a89.71,89.71,0,0,1-.57,16.68C92-1.5,92.68.28,92.68.28Z"/><path class="cls-7" d="M78.76-25.08c.73,1.09.58,4,.39,5.28s-.6,2.54-.74,3.84a43.07,43.07,0,0,0,.14,5.32,31.31,31.31,0,0,1-.35,4.2L77.36.05"/><path class="cls-7" d="M79-18.4c-.91,6.32-.13,12-.89,18.68"/><path class="cls-5" d="M184.75.28H171.17L171.48-7l-1.25,7L158,.28a22.75,22.75,0,0,1-.22-8.23c1.06-5.78-.63-13.35-.63-13.35l.85-7.56h28.75s-1.27,7.34-.43,4.89c.43,5.12-.28,10.9-.91,16.69s-.67,7.56-.67,7.56"/><path class="cls-6" d="M184.75.28H171.17L171.48-7l-1.25,7L158,.28a22.75,22.75,0,0,1-.22-8.23c1.06-5.78-.63-13.35-.63-13.35l.85-7.56h28.75s-1.27,7.34-.43,4.9c.43,5.11-.28,10.89-.91,16.68S184.75.28,184.75.28Z"/></g><g class="cls-8"><path class="cls-5" d="M64.71,76.9c-.22-3.59.25-7.89-.22-9.43,0-.23.07-.37.07-.37h-.18c-.72-2.15-1.45-2.49-1.45-2.49L35,64.23l-.11,8-.29,2.54s.1.44.23,1.18l-.17,12.78.17,21.11.5,13H48.5l-.68-13,.31-1.73-.1,1.78c.2-1.49.39-16.49.58-18l.56-12.19-.39,30.4-.28,12.73H62.69l1-12.84,1.69-21.11s-.09-2.62-.68-12"/><path class="cls-9" d="M64.71,76.9c-.22-3.59.25-7.89-.22-9.43,0-.23.07-.37.07-.37h-.18c-.72-2.15-1.45-2.49-1.45-2.49L35,64.23l-.11,8-.29,2.54s.1.44.23,1.18l-.17,12.78.17,21.11.5,13H48.5l-.68-13,.31-1.73-.1,1.78c.2-1.49.39-16.49.58-18l.56-12.19-.39,30.4-.28,12.73H62.69l1-12.84,1.69-21.11S65.3,86.27,64.71,76.9Z"/><path class="cls-10" d="M26.1,43.3c.45-1.94.32-4,.91-5.89a2.85,2.85,0,0,1,1.57-2,3.42,3.42,0,0,1,.9-.12,8.09,8.09,0,0,1,3.35.47A3.6,3.6,0,0,1,35,38.21,17,17,0,0,0,32.8,44a2.92,2.92,0,0,1,1.32.7.93.93,0,0,1,.3.41,1.21,1.21,0,0,1-.11.83c-.61,1.6-1.45,3.42-3.11,3.81-1.47.36-2.92-.58-4.08-1.55a4,4,0,0,1-1.3-1.56c-.41-1.05,0-2.2.28-3.29"/><path class="cls-9" d="M26.1,43.3c.45-1.94.32-4,.91-5.89a2.85,2.85,0,0,1,1.57-2,3.42,3.42,0,0,1,.9-.12,8.09,8.09,0,0,1,3.35.47A3.6,3.6,0,0,1,35,38.21,17,17,0,0,0,32.8,44a2.92,2.92,0,0,1,1.32.7.93.93,0,0,1,.3.41,1.21,1.21,0,0,1-.11.83c-.61,1.6-1.45,3.42-3.11,3.81-1.47.36-2.92-.58-4.08-1.55a4,4,0,0,1-1.3-1.56C25.41,45.54,25.85,44.39,26.1,43.3Z"/><path class="cls-5" d="M68.88,35.74l-1.24-2.65s1.86.4,1.86.74.39,1.35-.62,1.91"/><path class="cls-9" d="M68.88,35.74l-1.24-2.65s1.86.4,1.86.74S69.89,35.18,68.88,35.74Z"/><path class="cls-5" d="M52.55,23.44c-.33-.12-.84.07-1.1-.17-.42-.41-.32.05-.36-.54a13.21,13.21,0,0,1,.8-4.83.75.75,0,0,0,.9-.06,8.18,8.18,0,0,0,2-3.21,3.64,3.64,0,0,0,.07-1.43c-.11-.37-.66-.58-.87-.27A10.94,10.94,0,0,0,51.8,7.4a8.64,8.64,0,0,0-2.17-2.26,6.18,6.18,0,0,0-8,1.17A12.31,12.31,0,0,0,40.59,8a14.61,14.61,0,0,0-1.78,4.84c-.56-.79-1.05.16-1.25.51a1.79,1.79,0,0,0-.27.64c-.1.68.5,1.22.83,1.81.55,1,.66,2.44,1.74,2.62a.65.65,0,0,1,.37.12.45.45,0,0,1,.11.23c.39,1.41.79,2.83,1.19,4.25.16.6.2,1.44-.39,1.62-.25.08-.89.9-1.14.86-.44,0-.5-.86-.92-.76-2.53.64-.55.23-2.24.4A3.14,3.14,0,0,0,33.41,25c-.16.16-.68-.79-1.18.67-.09.25-1.32.95-1.52,1.13-1.67,1.47-3.53,7.85-3.58,10.08a6.74,6.74,0,0,1,5.83,0c.94.56.85.79,1.27,1.52-.68,2.28-.51,6.25-.43,7.85-2.11,9.63.47,25.14,4.48,24.58,1.34-.19,15.37.42,20.1-1.36,2.25.16,4-2.75,4.2-4.6a.29.29,0,0,1,.35-.25c.72.13.87-2.51,0-3.92a3.12,3.12,0,0,1-.38-2.19c.92-4.61-1.45-19.22-1.52-20.54.59-1.35,3.65-3.41,6.62-4.19s1.08,2.89,1.35,2.42c.59-1,.77-1.21.45-2.36-.45-1.6-4.11-6.51-5.13-7.94-.28-.41-.52-1.35-1-1.44-.78-.14-1.75-1-2.53-1.18-.32-.06-1.13-.51-1.44-.42s-.94-.19-1.18-.09c-.58.26-1.66.89-2.28.76-1.31-.26-2.13.38-3.38-.08"/><path class="cls-9" d="M52.55,23.44c-.33-.12-.84.07-1.1-.17-.42-.41-.32.05-.36-.54a13.21,13.21,0,0,1,.8-4.83.75.75,0,0,0,.9-.06,8.18,8.18,0,0,0,2-3.21,3.64,3.64,0,0,0,.07-1.43c-.11-.37-.66-.58-.87-.27A10.94,10.94,0,0,0,51.8,7.4a8.64,8.64,0,0,0-2.17-2.26,6.18,6.18,0,0,0-8,1.17A12.31,12.31,0,0,0,40.59,8a14.61,14.61,0,0,0-1.78,4.84c-.56-.79-1.05.16-1.25.51a1.79,1.79,0,0,0-.27.64c-.1.68.5,1.22.83,1.81.55,1,.66,2.44,1.74,2.62a.65.65,0,0,1,.37.12.45.45,0,0,1,.11.23c.39,1.41.79,2.83,1.19,4.25.16.6.2,1.44-.39,1.62-.25.08-.89.9-1.14.86-.44,0-.5-.86-.92-.76-2.53.64-.55.23-2.24.4A3.14,3.14,0,0,0,33.41,25c-.16.16-.68-.79-1.18.67-.09.25-1.32.95-1.52,1.13-1.67,1.47-3.53,7.85-3.58,10.08a6.74,6.74,0,0,1,5.83,0c.94.56.85.79,1.27,1.52-.68,2.28-.51,6.25-.43,7.85-2.11,9.63.47,25.14,4.48,24.58,1.34-.19,15.37.42,20.1-1.36,2.25.16,4-2.75,4.2-4.6a.29.29,0,0,1,.35-.25c.72.13.87-2.51,0-3.92a3.12,3.12,0,0,1-.38-2.19c.92-4.61-1.45-19.22-1.52-20.54.59-1.35,3.65-3.41,6.62-4.19s1.08,2.89,1.35,2.42c.59-1,.77-1.21.45-2.36-.45-1.6-4.11-6.51-5.13-7.94-.28-.41-.52-1.35-1-1.44-.78-.14-1.75-1-2.53-1.18-.32-.06-1.13-.51-1.44-.42s-.94-.19-1.18-.09c-.58.26-1.66.89-2.28.76C54.62,23.26,53.8,23.9,52.55,23.44Z"/><path class="cls-10" d="M70.44,42a31.33,31.33,0,0,0-2.77-8.25c-2.83.75-5.72,2.66-6.49,4L63.48,44a1.23,1.23,0,0,1,0,.76c-.16.52-.55.53-.91.53-.19,0-2.65.39-2.85.4.25,2.11,1.54,4,1.69,6.19a29.38,29.38,0,0,0,3.38-.13,47.73,47.73,0,0,0,5.4-.86c1.15-2.78.81-5.94.21-8.88"/><path class="cls-9" d="M70.44,42a31.33,31.33,0,0,0-2.77-8.25c-2.83.75-5.72,2.66-6.49,4L63.48,44a1.23,1.23,0,0,1,0,.76c-.16.52-.55.53-.91.53-.19,0-2.65.39-2.85.4.25,2.11,1.54,4,1.69,6.19a29.38,29.38,0,0,0,3.38-.13,47.73,47.73,0,0,0,5.4-.86C71.38,48.13,71,45,70.44,42Z"/><path class="cls-10" d="M52.33,27.13c-.17-1.13.11-1.19-.23-1.58s.11-.7-.15-.95a4.16,4.16,0,0,1-.81-2.09,12.19,12.19,0,0,1,.75-4.61.75.75,0,0,0,.9-.06c.6-1.18,1.56-1.47,2-3.21a3.64,3.64,0,0,0,.07-1.43c-.11-.37-.66-.58-.87-.26A10.94,10.94,0,0,0,51.8,7.4a8.64,8.64,0,0,0-2.17-2.26,6.18,6.18,0,0,0-8,1.17A12.31,12.31,0,0,0,40.59,8c-.75,1.33-1,3.51-1.78,4.84-.26.46-.67-.9-1.26.51a2,2,0,0,0-.26.64c-.1.68.5,1.22.83,1.81.54,1,.66,2.44,1.74,2.62.13,0,.28,0,.37.12a.49.49,0,0,1,.11.23c.39,1.41.79,2.83,1.18,4.25.17.6.21,1.44-.38,1.62a11.13,11.13,0,0,1-2.06.1,10.93,10.93,0,0,0-1.81.23,7.61,7.61,0,0,0,1.3.91c2.68,1.1,6.07,8.37,9,8.24C50.06,34,51,32,52,28.14a5.16,5.16,0,0,1,.29-1"/><path class="cls-9" d="M52.33,27.13c-.17-1.13.11-1.19-.23-1.58s.11-.7-.15-.95a4.16,4.16,0,0,1-.81-2.09,12.19,12.19,0,0,1,.75-4.61.75.75,0,0,0,.9-.06c.6-1.18,1.56-1.47,2-3.21a3.64,3.64,0,0,0,.07-1.43c-.11-.37-.66-.58-.87-.26A10.94,10.94,0,0,0,51.8,7.4a8.64,8.64,0,0,0-2.17-2.26,6.18,6.18,0,0,0-8,1.17A12.31,12.31,0,0,0,40.59,8c-.75,1.33-1,3.51-1.78,4.84-.26.46-.67-.9-1.26.51a2,2,0,0,0-.26.64c-.1.68.5,1.22.83,1.81.54,1,.66,2.44,1.74,2.62.13,0,.28,0,.37.12a.49.49,0,0,1,.11.23c.39,1.41.79,2.83,1.18,4.25.17.6.21,1.44-.38,1.62a11.13,11.13,0,0,1-2.06.1,10.93,10.93,0,0,0-1.81.23,7.61,7.61,0,0,0,1.3.91c2.68,1.1,6.07,8.37,9,8.24C50.06,34,51,32,52,28.14A5.16,5.16,0,0,1,52.33,27.13Z"/><path class="cls-11" d="M38.62,10.42a15.53,15.53,0,0,1,0-3.34,6,6,0,0,1,2-2.91,7.11,7.11,0,0,1,3.94-2,7.57,7.57,0,0,1,2.12.17A11.68,11.68,0,0,1,51.11,4a7.75,7.75,0,0,1,2.37,9.76c-.12.22-.33.47-.57.4a.54.54,0,0,1-.31-.32c-1-2-.66-4.63-2.2-6.25-.45-.46-1.07-.86-1.16-1.5A37.53,37.53,0,0,0,44,6.63a4.81,4.81,0,0,0-1.82.59,4.75,4.75,0,0,0-1.75,3.34,7.88,7.88,0,0,1-1.22,3.65c-.91-1-.57-2.47-.55-3.79"/><path class="cls-9" d="M47.23,11.86a.78.78,0,0,1,.66-.29,2.81,2.81,0,0,1,2.33.6"/><path class="cls-9" d="M44.1,12c-.21-.36-.71-.4-1.13-.39a3.54,3.54,0,0,0-2.22.59"/><path class="cls-9" d="M45,12.73a1.12,1.12,0,0,1,.45.94"/><path class="cls-12" d="M53.74,13.57c.15-.2.48-.08.6.14a1.15,1.15,0,0,1-.28,1.19,3.63,3.63,0,0,0-.75,1c0,.12-.05.24-.09.36a2,2,0,0,1-.34.51H52.5a.93.93,0,0,1,.08-.78.34.34,0,0,0,.2-.46"/><path class="cls-12" d="M38.58,15.25a1.81,1.81,0,0,0-.3-1.34c-.13,0-.2-.2-.33-.18a.22.22,0,0,0-.15.12,3.56,3.56,0,0,0-.39.78"/><path class="cls-9" d="M40.23,17.78a.83.83,0,0,1-.4.51"/><path class="cls-9" d="M51.89,17.17a.86.86,0,0,0,.08.68"/><path class="cls-10" d="M40,18.17a1.78,1.78,0,0,1,.06-.51,3.57,3.57,0,0,1,2.61-2.54,7.33,7.33,0,0,0,.81-.19A5.51,5.51,0,0,0,44.83,14a1.63,1.63,0,0,1,1.49-.34,3,3,0,0,1,.87.8c.67.66,1.64.93,2.34,1.56.29.26.53.59.84.84a1.24,1.24,0,0,0,1.1.32l-.33,3.34a4,4,0,0,0,.2,2.19,8.5,8.5,0,0,0-2.92,1.83,4,4,0,0,1-3.19,1c-1.28-.33-2-1.66-3.17-2.29a2.4,2.4,0,0,1-.61-.38c-.33-.37-.25-.94-.25-1.44a4,4,0,0,0-.58-2.12A2.77,2.77,0,0,1,40,18.17"/><path class="cls-9" d="M40,18.17a1.78,1.78,0,0,1,.06-.51,3.57,3.57,0,0,1,2.61-2.54,7.33,7.33,0,0,0,.81-.19A5.51,5.51,0,0,0,44.83,14a1.63,1.63,0,0,1,1.49-.34,3,3,0,0,1,.87.8c.67.66,1.64.93,2.34,1.56.29.26.53.59.84.84a1.24,1.24,0,0,0,1.1.32l-.33,3.34a4,4,0,0,0,.2,2.19,8.5,8.5,0,0,0-2.92,1.83,4,4,0,0,1-3.19,1c-1.28-.33-2-1.66-3.17-2.29a2.4,2.4,0,0,1-.61-.38c-.33-.37-.25-.94-.25-1.44a4,4,0,0,0-.58-2.12A2.77,2.77,0,0,1,40,18.17Z"/><path class="cls-5" d="M45.84,25.13a2,2,0,0,1-.88-.38C43.88,24,43,22.8,41.73,22.65A5.83,5.83,0,0,0,40.81,18a.68.68,0,0,1-.17-.4.63.63,0,0,1,.23-.37,4.42,4.42,0,0,1,1-.78c.83-.4,1.89-.24,2.62-.8a3.45,3.45,0,0,1,.61-.49c.64-.3,1.82-.15,2,.5.23.85,1.82,1.67,2.95,2.12a1.21,1.21,0,0,1,.56.33,1.24,1.24,0,0,1,.11.95,15.88,15.88,0,0,0-.12,3.23c-1.47.22-2.28,1.83-3.57,2.57a1.85,1.85,0,0,1-1.18.29"/><path class="cls-12" d="M45.84,25.13a2,2,0,0,1-.88-.38C43.88,24,43,22.8,41.73,22.65A5.83,5.83,0,0,0,40.81,18a.68.68,0,0,1-.17-.4.63.63,0,0,1,.23-.37,4.42,4.42,0,0,1,1-.78c.83-.4,1.89-.24,2.62-.8a3.45,3.45,0,0,1,.61-.49c.64-.3,1.82-.15,2,.5.23.85,1.82,1.67,2.95,2.12a1.21,1.21,0,0,1,.56.33,1.24,1.24,0,0,1,.11.95,15.88,15.88,0,0,0-.12,3.23c-1.47.22-2.28,1.83-3.57,2.57A1.85,1.85,0,0,1,45.84,25.13Z"/><path class="cls-12" d="M42.16,19.34A3.14,3.14,0,0,1,43.34,19c1-.07,1.93.84,3,.82a9,9,0,0,0,1.49-.37,2.82,2.82,0,0,1,1.93.25"/><path class="cls-12" d="M42.5,21.4a.8.8,0,0,1,.94.05c.29.19.5.46.78.65a3,3,0,0,0,2.63,0,3.91,3.91,0,0,1,2.65-.28"/><path class="cls-13" d="M40.09,17.29c-.18-.57-.67-1.82-1.1-2.93-.26-.67-.51-1.31-.64-1.67l.48-.17c.12.35.37,1,.63,1.66.44,1.11.74,1.94.93,2.53Z"/><path class="cls-9" d="M40.09,17.29c-.18-.57-.67-1.82-1.1-2.93-.26-.67-.51-1.31-.64-1.67l.48-.17c.12.35.37,1,.63,1.66.44,1.11.74,1.94.93,2.53Z"/><path class="cls-13" d="M51.85,17.5l-.35-.36a6.6,6.6,0,0,0,1-2.21,12,12,0,0,1,1.21-2.75l.38-.2A25.11,25.11,0,0,1,53,15.1a6.45,6.45,0,0,1-1.16,2.4"/><path class="cls-9" d="M51.85,17.5l-.35-.36a6.6,6.6,0,0,0,1-2.21,12,12,0,0,1,1.21-2.75l.38-.2A25.11,25.11,0,0,1,53,15.1,6.45,6.45,0,0,1,51.85,17.5Z"/><path class="cls-9" d="M63.2,26.91a1.76,1.76,0,0,0-1.13.9l-.55.77a4.77,4.77,0,0,0-.66,1.13c-.34,1,0,2-.15,3"/><path class="cls-9" d="M63.11,28.66l-.62,1.23a3.16,3.16,0,0,0-.43,1.32c0,.25,0,.49,0,.74a.93.93,0,0,1-.23.68"/><path class="cls-9" d="M36.58,27.91A27,27,0,0,1,36.64,31a4.19,4.19,0,0,1-.4,1.92"/><path class="cls-9" d="M35.56,28.32a4.91,4.91,0,0,0,0-1.53,1.64,1.64,0,0,0-.87-1.19"/><path class="cls-14" d="M32.33,42.83c.27.15.41.45.62.68.61.65,1.64.57,2.53.58a8.38,8.38,0,0,1,5.76,2.45l7.08-3.28c.39-.18.89-.34,1.2-.06s.26.47.48.6.62,0,.92-.13a4.7,4.7,0,0,1,2.91.18l3.87,1.09c1.83.51,4,1.32,4.39,3.17a5.57,5.57,0,0,1,0,1.91l-1.5,11.32a53.48,53.48,0,0,1-2.15,10.59,1.85,1.85,0,0,0-.14.65c0,.91,1.5,1.6,1,2.37-1,1.14-2.69,1.35-4.21,1.47q-15.61,1.27-31.25,2.22c-1.07.06-2.29.06-3-.73a3.54,3.54,0,0,1-.67-2.17l-.7-7.94a21,21,0,0,1-.11-3.45,38.91,38.91,0,0,1,.94-4.64,38.31,38.31,0,0,0,.5-8.43c0-1,.17-2.24,1.13-2.4a5.06,5.06,0,0,0,1-.06c.85-.32.45-1.7,1-2.41a1.94,1.94,0,0,1,.67-.49,64.24,64.24,0,0,1,6.53-3,1.46,1.46,0,0,1,1.25-.09"/><path class="cls-15" d="M32.33,42.83c.27.15.41.45.62.68.61.65,1.64.57,2.53.58a8.38,8.38,0,0,1,5.76,2.45l7.08-3.28c.39-.18.89-.34,1.2-.06s.26.47.48.6.62,0,.92-.13a4.7,4.7,0,0,1,2.91.18l3.87,1.09c1.83.51,4,1.32,4.39,3.17a5.57,5.57,0,0,1,0,1.91l-1.5,11.32a53.48,53.48,0,0,1-2.15,10.59,1.85,1.85,0,0,0-.14.65c0,.91,1.5,1.6,1,2.37-1,1.14-2.69,1.35-4.21,1.47q-15.61,1.27-31.25,2.22c-1.07.06-2.29.07-3-.73a3.54,3.54,0,0,1-.67-2.17l-.7-7.94a21,21,0,0,1-.11-3.45,39.32,39.32,0,0,1,.94-4.64,38.31,38.31,0,0,0,.5-8.43c0-1,.17-2.24,1.13-2.4a5.06,5.06,0,0,0,1-.06c.85-.32.45-1.7,1-2.41a1.79,1.79,0,0,1,.67-.48,62.21,62.21,0,0,1,6.53-3A1.46,1.46,0,0,1,32.33,42.83Z"/><path class="cls-9" d="M32.47,27.55a6.37,6.37,0,0,1,2.43,3.17"/><path class="cls-10" d="M20.28,59.71c-1.22,2.55.56-5.61.5-8.43,0-1,.17-2.24,1.13-2.4a4.35,4.35,0,0,0,1-.07c.85-.31.45-1.69,1-2.4a1.94,1.94,0,0,1,.67-.49,63.25,63.25,0,0,1,6.53-3,1.46,1.46,0,0,1,1.25-.09c.27.15.41.45.62.68.61.65,1.64.57,2.53.58a8.38,8.38,0,0,1,5.76,2.45l7.08-3.28c.39-.18.89-.34,1.2-.06s.26.47.48.6.62,0,.92-.13a4.7,4.7,0,0,1,2.91.18l3.87,1.09c1.83.51,4,1.32,4.39,3.17a5.57,5.57,0,0,1,0,1.91l-.5,3.77a3.62,3.62,0,0,0-3.06.54c-1.12,1.06-3.93,6.91-5.06,7.37s-2.14,1.91-2.7,1.12-1-1.25-2.39-.68-6.28,2-9.21-.56c-1.8-.11-3,2.25-3.83,1.92a5.6,5.6,0,0,0-3.38-2.14c-2.25-.45-2.59,0-4.11-.3s-3.14-2.26-3.66-2.63a2.78,2.78,0,0,0-3.89,1.28"/><path class="cls-16" d="M38.53,62.26c2.13,0,2.46,0,4,1.5,2.36-1.09,4.2-.24,6.45-2.46.31-.3,1.6,2,2.55,2.22,1.29.36,6.08-7.59,7-9.19s.53-.9,1.68-.4c.58.25,1.46-.77,1.37-.14-.49,3.77-.49,3.77-1,7.55a52.76,52.76,0,0,1-2.14,10.59,1.85,1.85,0,0,0-.14.65c0,.91,1.5,1.6,1,2.37-1,1.14-2.69,1.35-4.21,1.47q-15.61,1.27-31.25,2.22c-1.07.06-2.29.07-3-.73a3.54,3.54,0,0,1-.67-2.17l-.7-7.94a21,21,0,0,1-.11-3.45,38.91,38.91,0,0,1,.94-4.64c.15-.74-.19-2.9,1.89-2,1.68.69,3.48,4.85,9.48,2.2,1.21.73-.79,2.52.09,2.74a13.39,13.39,0,0,0,6.79-.35"/><path class="cls-9" d="M58.34,72.24A8.16,8.16,0,0,0,56.09,69c-2.75-2.79-5.75-5.72-6.52-9.56A18.65,18.65,0,0,0,49,56.69a2.75,2.75,0,0,0-1.94-1.9"/><path class="cls-12" d="M49.38,53.43c.33.94.67,1.87,1,2.8a1.75,1.75,0,0,0,.4.73A1.35,1.35,0,0,0,52,57.2a2.83,2.83,0,0,0,1.6-.9"/><path class="cls-12" d="M50.59,52.38A2.22,2.22,0,0,1,51.9,54a5.56,5.56,0,0,1,0,2.15"/><path class="cls-9" d="M58.62,52a5,5,0,0,0-.18-2.32c-.32-.76-1-1.34-1.22-2.13a1.25,1.25,0,0,0-.19-.46.58.58,0,0,0-.71-.05,1.64,1.64,0,0,0-.52.56A21.32,21.32,0,0,1,47,54.88"/><path class="cls-9" d="M52,63a22.43,22.43,0,0,0,4.6-5.38,18.9,18.9,0,0,0,1-1.65,6.51,6.51,0,0,1,.93-1.6,1.44,1.44,0,0,1,1.68-.4"/><path class="cls-12" d="M45.37,55c.17-.82.33-1.65.47-2.48a30.3,30.3,0,0,0,.55-6.37"/><path class="cls-12" d="M46.25,58.14a5,5,0,0,1-2.79-2.48,5.07,5.07,0,0,1-.27-3.73,17.47,17.47,0,0,1,1.11-2.31,11.36,11.36,0,0,0,1-3.21"/><path class="cls-9" d="M42.1,57.71a8.33,8.33,0,0,0-1.89-2.43,16.31,16.31,0,0,1-1.67-1.19c-.58-.58-.9-1.4-1.55-1.9a4.12,4.12,0,0,1,.78-2"/><path class="cls-12" d="M38.8,47.18a6.42,6.42,0,0,1-1.62,1.5"/><path class="cls-12" d="M37.69,47.75a3.46,3.46,0,0,0-3.92,3.18,2,2,0,0,0,.51,1.59"/><path class="cls-12" d="M40.87,62.49a7.94,7.94,0,0,0-1.34-.66,1.31,1.31,0,0,1-.84-1.14,4,4,0,0,0,.08-.48c0-.47-.38-.83-.75-1.12"/><path class="cls-12" d="M33.94,56.9A13.17,13.17,0,0,1,29,50.35a4.47,4.47,0,0,0-.4-1,2.13,2.13,0,0,0-1.93-1"/><path class="cls-12" d="M29.67,44.28l1.09.06a1.07,1.07,0,0,1-.14.65,4.14,4.14,0,0,1-2.35,1.75,18.25,18.25,0,0,0-2.81,1.06"/><path class="cls-12" d="M24.87,52.65a5.71,5.71,0,0,1,2.66,2.29,12.57,12.57,0,0,0,4,3.64c2,1,4.4,1.12,6.68,1.18"/><path class="cls-12" d="M37.17,63.73c.35.61.17,1.4.38,2.07a3.51,3.51,0,0,0,.61,1,53.56,53.56,0,0,1,5.51,9.43"/><path class="cls-12" d="M56.52,70.51a3,3,0,0,0-1.94-.9,88.73,88.73,0,0,1-12.23-3.22"/><path class="cls-9" d="M22.07,57.9c-.11,0,0-.2.1-.23a1.75,1.75,0,0,1,1.49.39,19.1,19.1,0,0,1,1.89,1.82,3.68,3.68,0,0,0,2.28,1.18,4.47,4.47,0,0,0,1.49-.28l1.22-.37a2.62,2.62,0,0,0,1.11-.54"/><path class="cls-9" d="M30.34,60.62c.15.26.31.52.46.79a1.72,1.72,0,0,0,.81.85"/><path class="cls-9" d="M32,59.42l.25.08a7.54,7.54,0,0,1-.43,2.57,1.49,1.49,0,0,0-.11.54,1.36,1.36,0,0,0,.78,1,1.89,1.89,0,0,1,.91.85"/><path class="cls-9" d="M32.83,63.1c1.35-.5,2.78.76,4.2.58"/><path class="cls-9" d="M36.23,63.76a8.31,8.31,0,0,1-.51,5.68A20.79,20.79,0,0,0,34,75c-.1,1.14,0,2.45-.84,3.22"/><path class="cls-12" d="M44.44,63.72a1.44,1.44,0,0,0,.88-.17c.81-.35,1.62-.7,2.43-1.07a3.29,3.29,0,0,0,.61-.34A1.66,1.66,0,0,0,49,61.3"/><path class="cls-12" d="M40,62c.13-.37.36-.7.5-1.07a2.83,2.83,0,0,0-.06-1.84,8.1,8.1,0,0,0-.86-1.65"/><path class="cls-12" d="M50.56,44.34a5.28,5.28,0,0,0,2.77,1.06,2.92,2.92,0,0,1,.78.09.84.84,0,0,1,.58.5"/><path class="cls-9" d="M41.38,46.7a4.58,4.58,0,0,0-1.16.9l-1.74,1.67a3.13,3.13,0,0,0-.76.95"/><path class="cls-9" d="M61.08,38.37l-.63-4.71"/><path class="cls-9" d="M34.3,38.21a16.53,16.53,0,0,0,1.38-3.87"/><path class="cls-5" d="M134.53,23.64a5.46,5.46,0,0,1-1.38-.71c-.43-.4-.32.05-.37-.53a13.44,13.44,0,0,1,.8-4.84.78.78,0,0,0,.91,0,8.15,8.15,0,0,0,1.95-3.22,3.85,3.85,0,0,0,.08-1.43c-.11-.37-.67-.58-.88-.26a10.94,10.94,0,0,0-2.15-5.54,8.77,8.77,0,0,0-2.16-2.26,6.18,6.18,0,0,0-8,1.17,11.07,11.07,0,0,0-1.09,1.69,14.25,14.25,0,0,0-1.77,4.83c-.57-.79-1.06.16-1.26.52a1.9,1.9,0,0,0-.27.64c-.1.67.5,1.21.84,1.81.54.95.65,2.43,1.74,2.62a.61.61,0,0,1,.36.11.49.49,0,0,1,.11.23l1.19,4.25c.16.6.2,1.45-.39,1.62-.25.08-.88.9-1.14.87-.43-.06-.25-2.53-.68-2.43-2.52.64-.78-.28-2.47-.11a3.28,3.28,0,0,0-3.49-.22,4.74,4.74,0,0,0-3.27,1.24c-.21.16-2.42.78-3,1.46-1.5,1.64-4.23.93-4.28,3.15.93-.59,2.42,2.7,3.77,8.33.26,1.07,4.56-1.46,5.24-3-.68,2.28,1.94,10.76,2,12.36C113.38,55.53,116,71,120,70.48c1.34-.19,15.37.42,20.1-1.35,2.25.15,4-2.76,4.21-4.61a.28.28,0,0,1,.34-.24c.95.16-2.67-3.89-4.58-4.27,2.37-1.19-.55-21.34-.63-22.86.59-1.35,2.66-2.59,6.26-3.15,3.05-.48,1.2,3.73,1.47,3.26.59-1,2.12-1.77,1.8-2.93-.45-1.59-1.13-5.91-2.14-7.34-.29-.41-.53-1.35-1-1.44-.79-.14-.91-1.33-1.69-1.46a13.21,13.21,0,0,0-2.26-.68c-.25.08-2-.22-2.25-.11-.58.25-1.62,1-2.25.9a13.85,13.85,0,0,1-2.81-.56"/><path class="cls-9" d="M134.53,23.64a5.46,5.46,0,0,1-1.38-.71c-.43-.4-.32.05-.37-.53a13.44,13.44,0,0,1,.8-4.84.78.78,0,0,0,.91,0,8.15,8.15,0,0,0,1.95-3.22,3.85,3.85,0,0,0,.08-1.43c-.11-.37-.67-.58-.88-.26a10.94,10.94,0,0,0-2.15-5.54,8.77,8.77,0,0,0-2.16-2.26,6.18,6.18,0,0,0-8,1.17,11.07,11.07,0,0,0-1.09,1.69,14.25,14.25,0,0,0-1.77,4.83c-.57-.79-1.06.16-1.26.52a1.9,1.9,0,0,0-.27.64c-.1.67.5,1.21.84,1.81.54.95.65,2.43,1.74,2.62a.61.61,0,0,1,.36.11.49.49,0,0,1,.11.23l1.19,4.25c.16.6.2,1.45-.39,1.62-.25.08-.88.9-1.14.87-.43-.06-.25-2.53-.68-2.43-2.52.64-.78-.28-2.47-.11a3.28,3.28,0,0,0-3.49-.22,4.74,4.74,0,0,0-3.27,1.24c-.21.16-2.42.78-3,1.46-1.5,1.64-4.23.93-4.28,3.15.93-.59,2.42,2.7,3.77,8.33.26,1.07,4.56-1.46,5.24-3-.68,2.28,1.94,10.76,2,12.36C113.38,55.53,116,71,120,70.48c1.34-.19,15.37.42,20.1-1.35,2.25.15,4-2.76,4.21-4.61a.28.28,0,0,1,.34-.24c.95.16-2.67-3.89-4.58-4.27,2.37-1.19-.55-21.34-.63-22.86.59-1.35,2.66-2.59,6.26-3.15,3.05-.48,1.2,3.73,1.47,3.26.59-1,2.12-1.77,1.8-2.93-.45-1.59-1.13-5.91-2.14-7.34-.29-.41-.53-1.35-1-1.44-.79-.14-.91-1.33-1.69-1.46a13.21,13.21,0,0,0-2.26-.68c-.25.08-2-.22-2.25-.11-.58.25-1.62,1-2.25.9A13.85,13.85,0,0,1,134.53,23.64Z"/><path class="cls-5" d="M143.17,75A33.66,33.66,0,0,0,142,67.47c0-.23.06-.37.06-.37h-.18c-.72-2.15-1.44-2.49-1.44-2.49l-27.95-.38-.45,8-.28,2.54s.1.44.23,1.18l.16,12.78.17,21.11,1.35,15,13.52,1-.51-16L127,98l-.1,11.91c.19-1.49.39-16.49.58-18L127,83.15l.62,27-.45,15.77,14.19.67L142.92,110l.33-21.11A90.19,90.19,0,0,0,143.17,75"/><path class="cls-9" d="M143.17,75A33.66,33.66,0,0,0,142,67.47c0-.23.06-.37.06-.37h-.18c-.72-2.15-1.44-2.49-1.44-2.49l-27.95-.38-.45,8-.28,2.54s.1.44.23,1.18l.16,12.78.17,21.11,1.35,15,13.52,1-.51-16L127,98l-.1,11.91c.19-1.49.39-16.49.58-18L127,83.15l.62,27-.45,15.77,14.19.67L142.92,110l.33-21.11A90.19,90.19,0,0,0,143.17,75Z"/><path class="cls-10" d="M133.91,27.13c-.17-1.13.11-1.19-.23-1.58s.11-.7-.15-.95a4.16,4.16,0,0,1-.81-2.09,12.19,12.19,0,0,1,.75-4.61.77.77,0,0,0,.91-.06c.59-1.18,1.55-1.47,2-3.21a3.64,3.64,0,0,0,.07-1.43c-.11-.37-.66-.58-.87-.26a10.94,10.94,0,0,0-2.15-5.54,8.64,8.64,0,0,0-2.17-2.26,6.18,6.18,0,0,0-8,1.17A12.31,12.31,0,0,0,122.17,8c-.75,1.33-1,3.51-1.78,4.84-.26.46-.67-.9-1.25.51a1.79,1.79,0,0,0-.27.64c-.1.68.5,1.22.83,1.81.55,1,.66,2.44,1.74,2.62.13,0,.28,0,.37.12a.49.49,0,0,1,.11.23c.39,1.41.79,2.83,1.19,4.25.16.6,0,.67-.63.85-.25.08-.55-.2-1.13-.22s.7,1.17,0,1.23c.49.33.37,1.28.79,1.69,2.25,2.26,4.09,7.68,7,7.55,2.52-.11,3.44-2.14,4.51-6a4.54,4.54,0,0,1,.28-1"/><path class="cls-9" d="M133.91,27.13c-.17-1.13.11-1.19-.23-1.58s.11-.7-.15-.95a4.16,4.16,0,0,1-.81-2.09,12.19,12.19,0,0,1,.75-4.61.77.77,0,0,0,.91-.06c.59-1.18,1.55-1.47,2-3.21a3.64,3.64,0,0,0,.07-1.43c-.11-.37-.66-.58-.87-.26a10.94,10.94,0,0,0-2.15-5.54,8.64,8.64,0,0,0-2.17-2.26,6.18,6.18,0,0,0-8,1.17A12.31,12.31,0,0,0,122.17,8c-.75,1.33-1,3.51-1.78,4.84-.26.46-.67-.9-1.25.51a1.79,1.79,0,0,0-.27.64c-.1.68.5,1.22.83,1.81.55,1,.66,2.44,1.74,2.62.13,0,.28,0,.37.12a.49.49,0,0,1,.11.23c.39,1.41.79,2.83,1.19,4.25.16.6,0,.67-.63.85-.25.08-.55-.2-1.13-.22s.7,1.17,0,1.23c.49.33.37,1.28.79,1.69,2.25,2.26,4.09,7.68,7,7.55,2.52-.11,3.44-2.14,4.51-6A4.54,4.54,0,0,1,133.91,27.13Z"/><path class="cls-11" d="M120.2,10.42a16.2,16.2,0,0,1,0-3.34,6,6,0,0,1,2-2.91,7.11,7.11,0,0,1,3.94-2,7.57,7.57,0,0,1,2.12.17A11.68,11.68,0,0,1,132.69,4a7.74,7.74,0,0,1,2.37,9.76c-.12.22-.33.47-.57.4a.54.54,0,0,1-.31-.32c-1-2-.66-4.63-2.2-6.25-.45-.46-1.06-.86-1.16-1.5a37.53,37.53,0,0,0-5.28.56,4.81,4.81,0,0,0-1.82.59A4.83,4.83,0,0,0,122,10.56a7.88,7.88,0,0,1-1.22,3.65c-.91-1-.57-2.47-.55-3.79"/><path class="cls-9" d="M128.81,11.86a.78.78,0,0,1,.66-.29,2.83,2.83,0,0,1,2.34.6"/><path class="cls-9" d="M125.68,12c-.21-.36-.71-.4-1.13-.39a3.54,3.54,0,0,0-2.22.59"/><path class="cls-9" d="M126.58,12.73a1.12,1.12,0,0,1,.45.94"/><path class="cls-9" d="M123.27,13.39c0-.09.38,0,.47.06.9.16.76.31,1.36.11.22-.08.44-.53.6-.37a1.29,1.29,0,0,1-1.76.66"/><path class="cls-9" d="M131.67,13.53a3.59,3.59,0,0,1-1.59.08c-.39-.12-.47-.29-.85-.14,0,.27,0,.21.24.38a.76.76,0,0,0,.77.09,1.46,1.46,0,0,0,.85-.16"/><path class="cls-9" d="M41.52,13.39c0-.09.38,0,.47.06.91.16.76.31,1.36.11.22-.08.44-.53.6-.37a1.29,1.29,0,0,1-1.76.66"/><path class="cls-9" d="M49.92,13.53a3.58,3.58,0,0,1-1.59.08c-.38-.12-.47-.29-.85-.14,0,.27,0,.21.24.38a.77.77,0,0,0,.77.09,1.46,1.46,0,0,0,.85-.16"/><path class="cls-12" d="M135.32,13.57c.15-.2.48-.08.6.14a1.15,1.15,0,0,1-.28,1.19,3.63,3.63,0,0,0-.75,1c0,.12,0,.24-.09.36a2,2,0,0,1-.34.51h-.38a.93.93,0,0,1,.08-.78.34.34,0,0,0,.2-.46"/><path class="cls-12" d="M120.16,15.25a1.81,1.81,0,0,0-.3-1.34c-.13,0-.2-.2-.33-.18a.22.22,0,0,0-.15.12,3.56,3.56,0,0,0-.39.78"/><path class="cls-9" d="M121.81,17.78a.77.77,0,0,1-.4.51"/><path class="cls-9" d="M133.47,17.17a.86.86,0,0,0,.08.68"/><path class="cls-10" d="M121.62,18.17a1.78,1.78,0,0,1,.06-.51,3.57,3.57,0,0,1,2.61-2.54,7.33,7.33,0,0,0,.81-.19,5.72,5.72,0,0,0,1.31-.89,1.63,1.63,0,0,1,1.49-.34,3,3,0,0,1,.87.8c.67.66,1.64.93,2.34,1.56.29.26.53.59.84.84a1.24,1.24,0,0,0,1.1.32l-.33,3.34a4,4,0,0,0,.2,2.19A8.5,8.5,0,0,0,130,24.58a4,4,0,0,1-3.19,1c-1.28-.33-2-1.66-3.17-2.29a2.4,2.4,0,0,1-.61-.38c-.33-.37-.25-.94-.25-1.44a4,4,0,0,0-.58-2.12,2.77,2.77,0,0,1-.58-1.21"/><path class="cls-9" d="M121.62,18.17a1.78,1.78,0,0,1,.06-.51,3.57,3.57,0,0,1,2.61-2.54,7.33,7.33,0,0,0,.81-.19,5.72,5.72,0,0,0,1.31-.89,1.63,1.63,0,0,1,1.49-.34,3,3,0,0,1,.87.8c.67.66,1.64.93,2.34,1.56.29.26.53.59.84.84a1.24,1.24,0,0,0,1.1.32l-.33,3.34a4,4,0,0,0,.2,2.19A8.5,8.5,0,0,0,130,24.58a4,4,0,0,1-3.19,1c-1.28-.33-2-1.66-3.17-2.29a2.4,2.4,0,0,1-.61-.38c-.33-.37-.25-.94-.25-1.44a4,4,0,0,0-.58-2.12A2.77,2.77,0,0,1,121.62,18.17Z"/><path class="cls-5" d="M127.42,25.13a2,2,0,0,1-.88-.38c-1.08-.73-1.93-1.95-3.23-2.1a5.83,5.83,0,0,0-.92-4.67.68.68,0,0,1-.17-.4.63.63,0,0,1,.23-.37,4.42,4.42,0,0,1,1-.78c.83-.4,1.89-.24,2.62-.8a3.45,3.45,0,0,1,.61-.49c.64-.3,1.82-.15,2,.5.23.85,1.82,1.67,3,2.12a1.21,1.21,0,0,1,.56.33,1.24,1.24,0,0,1,.11.95,15.88,15.88,0,0,0-.12,3.23c-1.47.22-2.28,1.83-3.57,2.57a1.85,1.85,0,0,1-1.18.29"/><path class="cls-12" d="M127.42,25.13a2,2,0,0,1-.88-.38c-1.08-.73-1.93-1.95-3.23-2.1a5.83,5.83,0,0,0-.92-4.67.68.68,0,0,1-.17-.4.63.63,0,0,1,.23-.37,4.42,4.42,0,0,1,1-.78c.83-.4,1.89-.24,2.62-.8a3.45,3.45,0,0,1,.61-.49c.64-.3,1.82-.15,2,.5.23.85,1.82,1.67,3,2.12a1.21,1.21,0,0,1,.56.33,1.24,1.24,0,0,1,.11.95,15.88,15.88,0,0,0-.12,3.23c-1.47.22-2.28,1.83-3.57,2.57A1.85,1.85,0,0,1,127.42,25.13Z"/><path class="cls-12" d="M123.74,19.34a3.14,3.14,0,0,1,1.18-.38c1-.07,1.93.84,3,.82a8.77,8.77,0,0,0,1.49-.37,2.82,2.82,0,0,1,1.93.25"/><path class="cls-12" d="M124.08,21.4a.8.8,0,0,1,.94.05c.29.19.5.46.78.65a3,3,0,0,0,2.63,0,3.91,3.91,0,0,1,2.65-.28"/><path class="cls-13" d="M121.67,17.29c-.18-.57-.67-1.82-1.1-2.93-.26-.67-.51-1.31-.64-1.67l.48-.17.63,1.66c.44,1.11.75,1.94.93,2.53Z"/><path class="cls-9" d="M121.67,17.29c-.18-.57-.67-1.82-1.1-2.93-.26-.67-.51-1.31-.64-1.67l.48-.17.63,1.66c.44,1.11.75,1.94.93,2.53Z"/><path class="cls-13" d="M133.43,17.5l-.35-.36a6.6,6.6,0,0,0,1-2.21,13,13,0,0,1,1.21-2.75l.38-.2a26.8,26.8,0,0,1-1.11,3.12,6.6,6.6,0,0,1-1.17,2.4"/><path class="cls-9" d="M133.43,17.5l-.35-.36a6.6,6.6,0,0,0,1-2.21,13,13,0,0,1,1.21-2.75l.38-.2a26.8,26.8,0,0,1-1.11,3.12A6.6,6.6,0,0,1,133.43,17.5Z"/><path class="cls-12" d="M120.38,47.18a6.42,6.42,0,0,1-1.62,1.5"/><path class="cls-12" d="M132.14,44.34a5.28,5.28,0,0,0,2.77,1.06,3,3,0,0,1,.79.09.84.84,0,0,1,.57.5"/><path class="cls-10" d="M104.62,28.6c-4.08,2.23-8,4.81-11.86,7.38a9.68,9.68,0,0,0-2.94,2.56,3.22,3.22,0,0,0-.67,3.11c.33,1.13,3.23,2,4.75,1.62C97.32,42.45,100,39.93,103,38c1.72,3.24,4.63,5.66,7.46,8a2.05,2.05,0,0,0,.91.5.68.68,0,0,0,.8-.51,1.73,1.73,0,0,0,.84.58.64.64,0,0,0,.79-.46,1.51,1.51,0,0,0,1.15.24.84.84,0,0,0,.24-1c-.25-.49-.41-.6-.67-1.09a2.21,2.21,0,0,0,1,1c.45.14,1.07-.18,1-.66a1.13,1.13,0,0,0-.35-.6c-1.49-1.71-2.81-5.76-3.3-6.4a14.94,14.94,0,0,0-4.2-2.91c-.75-.13.87-.28.72-.72-1.13-3.38-3.9-5.15-4.81-5.31"/><path class="cls-9" d="M104.62,28.6c-4.08,2.23-8,4.81-11.86,7.38a9.68,9.68,0,0,0-2.94,2.56,3.22,3.22,0,0,0-.67,3.11c.33,1.13,3.23,2,4.75,1.62C97.32,42.45,100,39.93,103,38c1.72,3.24,4.63,5.66,7.46,8a2.05,2.05,0,0,0,.91.5.68.68,0,0,0,.8-.51,1.73,1.73,0,0,0,.84.58.64.64,0,0,0,.79-.46,1.51,1.51,0,0,0,1.15.24.84.84,0,0,0,.24-1c-.25-.49-.41-.6-.67-1.09a2.21,2.21,0,0,0,1,1c.45.14,1.07-.18,1-.66a1.13,1.13,0,0,0-.35-.6c-1.49-1.71-2.81-5.76-3.3-6.4a14.94,14.94,0,0,0-4.2-2.91c-.75-.13.87-.28.72-.72C108.3,30.53,105.53,28.76,104.62,28.6Z"/><path class="cls-9" d="M108.58,34.59a16.51,16.51,0,0,0-3.37-1.94,11.16,11.16,0,0,0-2.52-.24,3.77,3.77,0,0,0-1,.07,5.11,5.11,0,0,0-1.43.82c-1.87,1.22-4.33,1.26-6.21,2.48"/><path class="cls-9" d="M114.58,44.42a45.89,45.89,0,0,1-3.19-4.68"/><path class="cls-9" d="M114,46.22l-3.24-3.51a2.62,2.62,0,0,1-.75-1.17"/><path class="cls-9" d="M112.15,46c-.34-.61.12-.24-1.1-1.49a9.48,9.48,0,0,1-1.13-.9,5.51,5.51,0,0,1-1.66-1.95"/><path class="cls-9" d="M103,38c-.18-.4-.3-.8-.47-1.2"/><path class="cls-10" d="M140.74,35.87a9.75,9.75,0,0,1,5.07-1.64,1.85,1.85,0,0,1,1.25.3,2,2,0,0,1,.46,1.65,49.9,49.9,0,0,1-1.23,9.26,13,13,0,0,0-.54,4c.09,1.07.41,2.34-.38,3.05a2.69,2.69,0,0,1-1.13.5l-2.39.63c-1.38.37-2.9.72-4.18.1a50.74,50.74,0,0,1,.86-8.25,23.3,23.3,0,0,0,.69-5.68,5.78,5.78,0,0,1,.07-2.31,3.63,3.63,0,0,1,1.45-1.61"/><path class="cls-9" d="M140.74,35.87a9.75,9.75,0,0,1,5.07-1.64,1.85,1.85,0,0,1,1.25.3,2,2,0,0,1,.46,1.65,49.9,49.9,0,0,1-1.23,9.26,13,13,0,0,0-.54,4c.09,1.07.41,2.34-.38,3.05a2.69,2.69,0,0,1-1.13.5l-2.39.63c-1.38.37-2.9.72-4.18.1a50.74,50.74,0,0,1,.86-8.25,23.3,23.3,0,0,0,.69-5.68,5.78,5.78,0,0,1,.07-2.31A3.63,3.63,0,0,1,140.74,35.87Z"/><path class="cls-14" d="M113.48,45.24a14.17,14.17,0,0,1,5.18.32A68.36,68.36,0,0,1,128,48.12a6.57,6.57,0,0,1,1.61.75c.71.5,1.2,1.24,1.85,1.8a2.18,2.18,0,0,0,2.37.48.92.92,0,0,1-.05,1.14,26.79,26.79,0,0,0,8.52-1.36c1.06-.35,2.38-.71,3.16.09.25.25.41.6.7.8s.91.18,1.37.3A2.19,2.19,0,0,1,149,53.8a6.46,6.46,0,0,1,0,2.32,1.93,1.93,0,0,1,2-.16,5.57,5.57,0,0,1,1.66,1.32c1.65,1.68,3.42,3.68,3.23,6a1.22,1.22,0,0,1-.21.65,1.56,1.56,0,0,1-.68.37,6,6,0,0,0-2.57,1.78c-.47.57-1.16,1.3-1.78.9-.08,1,1.24,1.48,1.59,2.41a2.76,2.76,0,0,1-.13,1.72l-1.23,4.1a3.53,3.53,0,0,1-.36.9,4.09,4.09,0,0,1-2.17,1.3,14.36,14.36,0,0,0-4.92,3.12A9,9,0,0,1,139.64,83a29,29,0,0,0-3.36.69,12.2,12.2,0,0,0-1.87,1,7.23,7.23,0,0,1-5.58,1.16c-3.11-.88-4.49-4.5-7.1-6.41-.63-.47-1.41-.92-1.58-1.69a3.91,3.91,0,0,1,.38-1.93c.57-1.89-.19-3.89-.94-5.72-.31-.75-.62-1.51-.94-2.27a4.55,4.55,0,0,1-4.22-1.55,1.83,1.83,0,0,0-.64-.6c-.27-.12-.57-.08-.83-.19a1.54,1.54,0,0,1-.63-.66,13.74,13.74,0,0,1-1.91-7.61l.7.79A5,5,0,0,0,112.54,57a22.79,22.79,0,0,1-4.45-5.82c0-.31.48,0,.79.07a.7.7,0,0,0,.43-.15L112.56,49l-.22-3.37a6.53,6.53,0,0,1,1.14-.35"/><path class="cls-15" d="M113.48,45.24a14.17,14.17,0,0,1,5.18.32A68.36,68.36,0,0,1,128,48.12a6.57,6.57,0,0,1,1.61.75c.71.5,1.2,1.24,1.85,1.8a2.18,2.18,0,0,0,2.37.48.92.92,0,0,1-.05,1.14,26.79,26.79,0,0,0,8.52-1.36c1.06-.35,2.38-.71,3.16.09.25.25.41.6.7.8s.91.18,1.37.3A2.19,2.19,0,0,1,149,53.8a6.46,6.46,0,0,1,0,2.32,1.93,1.93,0,0,1,2-.16,5.57,5.57,0,0,1,1.66,1.32c1.65,1.68,3.42,3.68,3.23,6a1.22,1.22,0,0,1-.21.65,1.56,1.56,0,0,1-.68.37,6,6,0,0,0-2.57,1.78c-.47.57-1.16,1.3-1.78.9-.08,1,1.24,1.48,1.59,2.41a2.76,2.76,0,0,1-.13,1.72l-1.23,4.1a3.53,3.53,0,0,1-.36.9,4.09,4.09,0,0,1-2.17,1.3,14.36,14.36,0,0,0-4.92,3.12A9,9,0,0,1,139.64,83a29,29,0,0,0-3.36.69,12.2,12.2,0,0,0-1.87,1,7.23,7.23,0,0,1-5.58,1.16c-3.11-.88-4.49-4.5-7.1-6.41-.63-.47-1.41-.92-1.58-1.69a3.91,3.91,0,0,1,.38-1.93c.57-1.89-.19-3.89-.94-5.72-.31-.75-.62-1.51-.94-2.27a4.55,4.55,0,0,1-4.22-1.55,1.83,1.83,0,0,0-.64-.6c-.27-.12-.57-.08-.83-.19a1.54,1.54,0,0,1-.63-.66,13.74,13.74,0,0,1-1.91-7.61l.7.79A5,5,0,0,0,112.54,57a22.79,22.79,0,0,1-4.45-5.82c0-.31.48,0,.79.07a.7.7,0,0,0,.43-.15L112.56,49l-.22-3.37A6.53,6.53,0,0,1,113.48,45.24Z"/><path class="cls-10" d="M118.65,67.91a4.55,4.55,0,0,1-4.22-1.55,1.83,1.83,0,0,0-.64-.6c-.27-.12-.57-.08-.83-.19a1.47,1.47,0,0,1-.62-.66,13.66,13.66,0,0,1-1.92-7.61l.7.79A5,5,0,0,0,112.54,57a22.79,22.79,0,0,1-4.45-5.82c0-.31.48,0,.79.07a.7.7,0,0,0,.43-.15L112.56,49l-.22-3.37a6.53,6.53,0,0,1,1.14-.35,14.17,14.17,0,0,1,5.18.32A68.36,68.36,0,0,1,128,48.12a6.57,6.57,0,0,1,1.61.75c.71.5,1.2,1.24,1.85,1.8a2.18,2.18,0,0,0,2.37.48.92.92,0,0,1-.05,1.14,26.79,26.79,0,0,0,8.52-1.36c1.06-.35,2.38-.71,3.16.09.25.25.41.6.7.8s.91.18,1.37.3A2.19,2.19,0,0,1,149,53.8a6.46,6.46,0,0,1,0,2.32,2,2,0,0,1,2-.16,5.57,5.57,0,0,1,1.66,1.32c1.65,1.68,3.42,3.68,3.23,6a1.22,1.22,0,0,1-.21.65,1.56,1.56,0,0,1-.68.37,6,6,0,0,0-2.57,1.78c-.47.57-1.16,1.3-1.78.9,0,0-2.24-.78-2.46.34s-1.23,4.6-3.59,4.15-2.71.68-5.63-1.24S131.49,69,130,68.79s-11.37-.88-11.37-.88"/><path class="cls-16" d="M118.65,67.91c.71.49,11.89,1,12.64.61.25.33,4.7.62,4.42.93,2.89,0,4.29,2.64,7.15,2.22,4.82-.7,4.82-6.49,7.74-4.67-.08,1,1.24,1.48,1.59,2.41a2.69,2.69,0,0,1-.13,1.72l-1.23,4.1a3.53,3.53,0,0,1-.36.9,4.09,4.09,0,0,1-2.17,1.3,14.36,14.36,0,0,0-4.92,3.12A9,9,0,0,1,139.64,83a29,29,0,0,0-3.36.69,12.2,12.2,0,0,0-1.87,1,7.23,7.23,0,0,1-5.58,1.16c-3.11-.88-4.49-4.5-7.1-6.41-.63-.47-1.41-.92-1.58-1.69a4,4,0,0,1,.38-1.93c.57-1.89-.19-3.89-.94-5.72-.31-.75-.62-1.51-.94-2.27-1.54.28-.48-.34,0,0"/><path class="cls-9" d="M118.65,67.91c4.51-.1,8.15,1.09,12.64.61"/><path class="cls-12" d="M124.69,77.79a12.3,12.3,0,0,1,1.49-4.08,7.24,7.24,0,0,1,2.15-2.65,2.75,2.75,0,0,1,4.47,1.58,9,9,0,0,1,.25,2.19l.14,4"/><path class="cls-12" d="M140.13,67.2c-.26-1.53-.45-3.08-.57-4.63,0-.34,0-.78.31-.92a13.93,13.93,0,0,0,1.92,1.41,2.5,2.5,0,0,0,2.28.16"/><path class="cls-9" d="M128.52,60.6c-.21-.13-.47,0-.68.19a5.73,5.73,0,0,1-2.15.74l-3.78.74"/><path class="cls-12" d="M113.24,55.14a8.45,8.45,0,0,1,5.63.31c1.67.68,3.18,1.88,5,2"/><path class="cls-12" d="M126.2,54.7a17.78,17.78,0,0,0,5.13,2.19.94.94,0,0,1,.55.28,1,1,0,0,1,.13.37l.25,1.24c0,.18,0,.46-.2.41"/><path class="cls-9" d="M114.15,64.06a4.23,4.23,0,0,1,.57.75.81.81,0,0,0,.83.34c.35-.13.43-.6.41-1a6.33,6.33,0,0,0-.84-2.91"/><path class="cls-12" d="M141.28,73.07l-.32,0a23.54,23.54,0,0,1,5.54-.81c.44,0,1,0,1.16.42A16,16,0,0,0,145.27,74a4,4,0,0,1-2.12,1,7.2,7.2,0,0,1-1.28-.24C141.44,74.69,141.6,72.77,141.28,73.07Z"/><path class="cls-9" d="M150.38,67.11c.17,0,.36-.22.2-.27a2,2,0,0,0-2.44.49c-.33.44-.46,1-.81,1.43"/><path class="cls-12" d="M143.4,70.45a1.65,1.65,0,0,0,.94-.26,4,4,0,0,0,1.49-3,7.93,7.93,0,0,1,.79-3.39,4.16,4.16,0,0,1,1.06-.75"/><path class="cls-12" d="M133.62,53.13c-.93,0-1.88,0-2.81,0a4.49,4.49,0,0,0,1.07,1.06,3.55,3.55,0,0,1,1.15,2.7"/><path class="cls-12" d="M153.89,60.46a3.12,3.12,0,0,0-1.32-.13,1.12,1.12,0,0,0-.94.84c-.06.41.17.93-.15,1.21a.82.82,0,0,1-.72.07,3.7,3.7,0,0,1-1.34-.68"/><path class="cls-9" d="M147.37,68.79a4.14,4.14,0,0,1-2.45,2.34,4.93,4.93,0,0,1-4.53,0"/><path class="cls-9" d="M112.1,57.51a6.08,6.08,0,0,1,2.53-1.09,11,11,0,0,1,3,0c1,.09,1.94.19,2.91.32"/><path class="cls-9" d="M143.71,60a9.35,9.35,0,0,1,3.9-1.34,1.07,1.07,0,0,0,.7-.25,1,1,0,0,0,.18-.38,11.79,11.79,0,0,0,.35-1.94"/><path class="cls-9" d="M108.58,31.86A10.71,10.71,0,0,1,109.7,35"/><path class="cls-9" d="M145.45,34.23a9.92,9.92,0,0,1,2.31.1c.47.08,1,.32,1,.79"/><path class="cls-9" d="M139.1,38.15a11.73,11.73,0,0,1-.07-4,4,4,0,0,0,.09-.91c-.05-.57-.4-1.09-.43-1.67"/><path class="cls-9" d="M143.55,24.67A6.77,6.77,0,0,0,140,30.16"/><path class="cls-9" d="M140,24.66a23,23,0,0,0-.36,6.41"/><path class="cls-9" d="M113.93,23.07c.3,0,.5.3.6.59a11.65,11.65,0,0,1,.13,6.72"/><path class="cls-9" d="M112.32,28a11.67,11.67,0,0,1,.63,4.17c.09,1.42.07,1.39,1.08,2.38"/><path class="cls-15" d="M32.33,42.83c.27.15.41.45.62.68.61.65,1.64.57,2.53.58a8.38,8.38,0,0,1,5.76,2.45l7.08-3.28c.39-.18.89-.34,1.2-.06s.26.47.48.6.62,0,.92-.13a4.7,4.7,0,0,1,2.91.18l3.87,1.09c1.83.51,4,1.32,4.39,3.17a5.57,5.57,0,0,1,0,1.91l-1.5,11.32a53.48,53.48,0,0,1-2.15,10.59,1.85,1.85,0,0,0-.14.65c0,.91,1.5,1.6,1,2.37-1,1.14-2.69,1.35-4.21,1.47q-15.61,1.27-31.25,2.22c-1.07.06-2.29.07-3-.73a3.54,3.54,0,0,1-.67-2.17l-.7-7.94a21,21,0,0,1-.11-3.45,39.32,39.32,0,0,1,.94-4.64,38.31,38.31,0,0,0,.5-8.43c0-1,.17-2.24,1.13-2.4a5.06,5.06,0,0,0,1-.06c.85-.32.45-1.7,1-2.41a1.79,1.79,0,0,1,.67-.48,62.21,62.21,0,0,1,6.53-3A1.46,1.46,0,0,1,32.33,42.83Z"/><path class="cls-15" d="M113.48,45.24a14.17,14.17,0,0,1,5.18.32A68.36,68.36,0,0,1,128,48.12a6.57,6.57,0,0,1,1.61.75c.71.5,1.2,1.24,1.85,1.8a2.18,2.18,0,0,0,2.37.48.92.92,0,0,1-.05,1.14,26.79,26.79,0,0,0,8.52-1.36c1.06-.35,2.38-.71,3.16.09.25.25.41.6.7.8s.91.18,1.37.3A2.19,2.19,0,0,1,149,53.8a6.46,6.46,0,0,1,0,2.32,1.93,1.93,0,0,1,2-.16,5.57,5.57,0,0,1,1.66,1.32c1.65,1.68,3.42,3.68,3.23,6a1.22,1.22,0,0,1-.21.65,1.56,1.56,0,0,1-.68.37,6,6,0,0,0-2.57,1.78c-.47.57-1.16,1.3-1.78.9-.08,1,1.24,1.48,1.59,2.41a2.76,2.76,0,0,1-.13,1.72l-1.23,4.1a3.53,3.53,0,0,1-.36.9,4.09,4.09,0,0,1-2.17,1.3,14.36,14.36,0,0,0-4.92,3.12A9,9,0,0,1,139.64,83a29,29,0,0,0-3.36.69,12.2,12.2,0,0,0-1.87,1,7.23,7.23,0,0,1-5.58,1.16c-3.11-.88-4.49-4.5-7.1-6.41-.63-.47-1.41-.92-1.58-1.69a3.91,3.91,0,0,1,.38-1.93c.57-1.89-.19-3.89-.94-5.72-.31-.75-.62-1.51-.94-2.27a4.55,4.55,0,0,1-4.22-1.55,1.83,1.83,0,0,0-.64-.6c-.27-.12-.57-.08-.83-.19a1.54,1.54,0,0,1-.63-.66,13.74,13.74,0,0,1-1.91-7.61l.7.79A5,5,0,0,0,112.54,57a22.79,22.79,0,0,1-4.45-5.82c0-.31.48,0,.79.07a.7.7,0,0,0,.43-.15L112.56,49l-.22-3.37A6.53,6.53,0,0,1,113.48,45.24Z"/></g><g class="cls-17"><g class="cls-18"><path class="cls-19" d="M154.88,53,137.74,70.13m17.43-15.7-16,16m16.13-14.45-14.9,14.91m14.87-13.14L141.53,71.49m13.64-12L142.45,72.25m12.73-11L143,73.41m12.43-9L142.85,77m12.43-14.16L142.94,75.18M158.15,36,124.84,69.69M158,37.88,128,68.11m29.29-27.79-4.37,4.37m-.52.52L128.9,68.9m28-26.51-2.36,2.37m-1.73,1.73L130.13,69.13m23.16-21.41L131.82,69.35M153.74,49,133.17,69.47m21.37-17.84L136,70.15m18.13-19.86L135.22,69.22M151.42,29,140.17,40.3M152,30.19l-12.2,12.2m12.91-11.23-13.2,13.2M153.58,32,139.32,46.3M154.5,32.8,115.38,72.28m40.11-38.74L118.31,70.82M157.41,35,123.49,69.13m33-34.87L121.91,69m22.43-44.84-5.3,5.3m6.77-5.08-5.7,5.7m7-5.26-4.38,4.37m5.41-3.72-7.86,7.86m8.83-7.1-8.36,8.36m10-6.6L140.57,38.2M150,27.07,141.06,36"/><path class="cls-19" d="M127.07,46,109.93,63.14m17.43-15.69-16,16m17.95-15.68L112.62,63.87m18.19-16.25L113.72,64.51m18.22-16.44-17.3,17.2m18.54-17-18,18.13M135,49.2,115,70m20.61-20.15L115.72,70.69m18.69-21.94L115.13,68.2m15.2-39.14L111.19,48.21m19-17.31L110.76,50.37m18.71-17-4.37,4.37m-.52.52L109.66,53.16m19.47-17.75-2.37,2.37M125,39.51,108.79,55.75m16.69-15L108.23,58m17.7-16L107.78,60.18m19-15.53L108.2,63.17M126.34,43.3,107.41,62.24m16.2-40.18L112.36,33.32M124.2,23.21,112,35.41m12.91-11.23-13.2,13.2m14.06-12.32L111.51,39.32m15.17-13.5L111.5,41m16.18-14.45L111.55,42.69m18-14.63L111.41,46.24m17.24-19L111.52,44.4m5-27.2-5.3,5.3M118,17.41l-5.7,5.7m7-5.26-4.38,4.38m5.41-3.72-7.86,7.86m8.83-7.1-8.36,8.36M123,21,112.76,31.22m9.39-11.13-8.9,8.9"/></g></g><g class="cls-20"><g class="cls-18"><path class="cls-19" d="M65.93,46.91,48.79,64.05m17.42-15.7-15.95,16M66.39,49.86,51.48,64.77M66.36,51.63,52.57,65.41m13.64-12L53.5,66.17m12.72-11L54.07,67.33m12.44-9L53.9,70.92M66.33,56.76,54,69.1M69.19,30,35.89,63.61M69.08,31.8,39,62M68.32,34.24,64,38.61m-.52.52L39.94,62.82M68,36.31l-2.36,2.37m-1.73,1.73L41.18,63.05M64.34,41.64,42.87,63.27M64.78,42.93,44.22,63.38M65.59,45.55,47.06,64.07M65.19,44.21,46.26,63.14M62.47,23,51.21,34.22M63.06,24.11,50.85,36.31M63.76,25.08,50.57,38.28M64.62,26,50.36,40.22m15.18-13.5L26.43,66.2m40.1-38.74L29.35,64.74M68.45,29,34.53,63.05m33-34.88L33,62.93M55.38,18.1l-5.3,5.3m6.77-5.09L51.15,24m7-5.26-4.37,4.38m5.4-3.72-7.86,7.86m8.84-7.1-8.37,8.36m10-6.6L51.61,32.12M61,21l-8.91,8.9"/><path class="cls-19" d="M38.11,39.92,21,57.06M38.4,41.37l-16,16m18-15.68L23.67,57.79M41.85,41.54,24.76,58.43M43,42l-17.3,17.2m18.54-17-18,18.13M46,43.12,26.08,63.94M46.7,43.79,26.76,64.61m18.7-21.94L26.17,62.12M41.38,23,22.23,42.13m19-17.31L21.8,44.29m18.71-17-4.36,4.37m-.53.52L20.7,47.08M40.17,29.33,37.81,31.7m-1.73,1.73L19.83,49.67m16.7-15L19.28,51.91M37,36,18.82,54.1m19-15.53L19.25,57.09M37.38,37.22,18.45,56.16M34.65,16,23.4,27.24M35.24,17.13,23,29.33M36,18.1,22.76,31.3M36.81,19,22.55,33.24m15.18-13.5L22.54,34.93M38.72,20.48,22.6,36.61M40.64,22,22.46,40.16m17.23-19L22.56,38.32m5-27.2-5.3,5.3M29,11.33,23.34,17m7-5.26L26,16.15m5.41-3.72L23.5,20.29m8.83-7.1L24,21.55M34,15,23.8,25.14M33.2,14l-8.91,8.9"/></g></g><g class="cls-8"><path class="cls-12" d="M55.31,12.83l1,7.65s.43,5-.67,5.24A39.7,39.7,0,0,1,46,27,45.73,45.73,0,0,1,36,25.47c-.51-.09-.76-2-.71-4.14a66.37,66.37,0,0,1,1.47-9.85s1.46-2.43,3.77-2.43,9.63.57,9.85.57a15.48,15.48,0,0,1,3,.84C53.68,10.69,55.14,11.64,55.31,12.83Z"/><path class="cls-21" d="M55.31,12.83s-.45-3.33-1.46-4.42-3.78-2.06-10-1.72S38.14,8,38.14,8l-.51.6-.84,2.89,1.07-.67a41,41,0,0,1,9.79-.62c4.11.45,7.1,1.63,7.66,2.65"/><path class="cls-9" d="M55.31,12.83s-.45-3.33-1.46-4.42-3.78-2.06-10-1.72S38.14,8,38.14,8l-.51.6-.84,2.9,1.07-.68a41,41,0,0,1,9.79-.62C51.76,10.63,54.75,11.81,55.31,12.83Z"/><path class="cls-21" d="M37.29,11a4.83,4.83,0,0,1,2.62-2.11,35.61,35.61,0,0,1,7.6-.25c3,.17,4.56.51,6.34,1.86a4.35,4.35,0,0,1,.76,1.18s-.31-.28-3.64-.9a25.8,25.8,0,0,0-7.88-.56,28.91,28.91,0,0,0-5.8.78"/><path class="cls-9" d="M37.29,11a4.83,4.83,0,0,1,2.62-2.11,35.61,35.61,0,0,1,7.6-.25c3,.17,4.56.51,6.34,1.86a4.35,4.35,0,0,1,.76,1.18s-.31-.28-3.64-.9a25.8,25.8,0,0,0-7.88-.56A28.91,28.91,0,0,0,37.29,11Z"/><path class="cls-22" d="M40.25,24.38a17.7,17.7,0,0,1-2.93-3m2.12,1.32a12,12,0,0,1-1.62-1.85m2.08,1.32a13.13,13.13,0,0,1-2.69-3.36"/><path class="cls-12" d="M136.89,12.83l1,7.65s.42,5-.68,5.24A39.7,39.7,0,0,1,127.54,27a45.73,45.73,0,0,1-9.93-1.54c-.51-.09-.76-2-.71-4.14a66.37,66.37,0,0,1,1.47-9.85s1.46-2.43,3.77-2.43,9.63.57,9.85.57a15.48,15.48,0,0,1,3,.84C135.26,10.69,136.72,11.64,136.89,12.83Z"/><path class="cls-21" d="M136.89,12.83s-.45-3.33-1.46-4.42-3.78-2.06-10-1.72S119.72,8,119.72,8l-.51.6-.84,2.89,1.07-.67a41,41,0,0,1,9.79-.62c4.11.45,7.1,1.63,7.66,2.65"/><path class="cls-9" d="M136.89,12.83s-.45-3.33-1.46-4.42-3.78-2.06-10-1.72S119.72,8,119.72,8l-.51.6-.84,2.9,1.07-.68a41,41,0,0,1,9.79-.62C133.34,10.63,136.33,11.81,136.89,12.83Z"/><path class="cls-21" d="M118.87,11a4.83,4.83,0,0,1,2.62-2.11,35.61,35.61,0,0,1,7.6-.25c3,.17,4.56.51,6.34,1.86a4.35,4.35,0,0,1,.76,1.18s-.31-.28-3.64-.9a25.8,25.8,0,0,0-7.88-.56,28.91,28.91,0,0,0-5.8.78"/><path class="cls-9" d="M118.87,11a4.83,4.83,0,0,1,2.62-2.11,35.61,35.61,0,0,1,7.6-.25c3,.17,4.56.51,6.34,1.86a4.35,4.35,0,0,1,.76,1.18s-.31-.28-3.64-.9a25.8,25.8,0,0,0-7.88-.56A28.91,28.91,0,0,0,118.87,11Z"/><path class="cls-22" d="M121.83,24.38a17.7,17.7,0,0,1-2.93-3M121,22.71a12,12,0,0,1-1.62-1.85m2.08,1.32a13.13,13.13,0,0,1-2.69-3.36"/></g><polygon class="cls-11" points="82.56 62.48 82.56 59.92 88.94 59.92 88.94 58.32 92.57 61.2 88.94 64.08 88.94 62.48 82.56 62.48"/><polygon class="cls-11" points="1.84 62.48 1.84 59.92 8.23 59.92 8.23 58.32 11.85 61.2 8.23 64.08 8.23 62.48 1.84 62.48"/><path class="cls-23" d="M18.87,24.77a6,6,0,1,0-6-6,6,6,0,0,0,6,6"/><text class="cls-24" transform="translate(15.54 22.08)">D</text><path class="cls-23" d="M97.35,24.77a6,6,0,1,0-6-6,6,6,0,0,0,6,6"/><text class="cls-24" transform="translate(94.53 22.08)">E</text></svg>