<svg id="Layer_1" data-name="Layer 1" xmlns="http://www.w3.org/2000/svg" xmlns:xlink="http://www.w3.org/1999/xlink" viewBox="0 0 261.65 127.43"><defs><style>.cls-1,.cls-11,.cls-12,.cls-13,.cls-18,.cls-20,.cls-6,.cls-9{fill:none;}.cls-2{clip-path:url(#clip-path);}.cls-3{fill:#9d9b9d;}.cls-4{clip-path:url(#clip-path-2);}.cls-5{fill:#dbdbdc;}.cls-11,.cls-12,.cls-13,.cls-18,.cls-20,.cls-6,.cls-9{stroke:#2b2523;}.cls-11,.cls-13,.cls-18,.cls-6,.cls-9{stroke-miterlimit:10;}.cls-12,.cls-6{stroke-width:0.33px;}.cls-24,.cls-7{fill:#fff;}.cls-8{fill:#fffad4;}.cls-9{stroke-width:0.3px;}.cls-10{fill:url(#Unnamed_Pattern_5);}.cls-11{stroke-width:0.67px;}.cls-12{stroke-linejoin:round;}.cls-13{stroke-width:0.17px;}.cls-14{fill:#1d1d1b;}.cls-15{fill:#fefefe;}.cls-16{fill:#2b2523;}.cls-17{fill:#b1cbe4;}.cls-18{stroke-width:0.5px;}.cls-19{fill:#24a5df;}.cls-20{stroke-width:0.08px;}.cls-21{clip-path:url(#clip-path-3);}.cls-22{clip-path:url(#clip-path-4);}.cls-23{fill:#00539f;}.cls-24{font-size:9.19px;font-family:UniversLTStd-Bold, UniversLTStd Bold;font-weight:700;}</style><clipPath id="clip-path"><rect class="cls-1" width="35.05" height="35.03"/></clipPath><clipPath id="clip-path-2"><rect class="cls-1" x="4.65" y="7.06" width="253.12" height="114.46"/></clipPath><pattern id="Unnamed_Pattern_5" data-name="Unnamed Pattern 5" width="35.05" height="35.03" patternTransform="translate(5642.09 4583.68) scale(0.33)" patternUnits="userSpaceOnUse" viewBox="0 0 35.05 35.03"><rect class="cls-1" width="35.05" height="35.03"/><g class="cls-2"><path class="cls-3" d="M26.13-.11a1.69,1.69,0,0,1-2.19,1,1.68,1.68,0,0,1-1-2.18,1.7,1.7,0,0,1,2.19-1,1.7,1.7,0,0,1,1,2.19"/><path class="cls-3" d="M33.14,2.7a1.71,1.71,0,0,1-3.2-1.19,1.71,1.71,0,0,1,3.2,1.19"/><path class="cls-3" d="M26.13,6.9a1.7,1.7,0,1,1-1-2.19,1.7,1.7,0,0,1,1,2.19"/><path class="cls-3" d="M19.12,4.1a1.7,1.7,0,1,1-1-2.19,1.69,1.69,0,0,1,1,2.19"/><path class="cls-3" d="M12.11,1.3A1.7,1.7,0,0,1,8.92.11a1.7,1.7,0,0,1,2.19-1,1.71,1.71,0,0,1,1,2.2"/><path class="cls-3" d="M5.1,5.5a1.7,1.7,0,1,1-1-2.19,1.7,1.7,0,0,1,1,2.19"/><path class="cls-3" d="M33.14,9.7a1.71,1.71,0,0,1-3.2-1.18,1.71,1.71,0,1,1,3.2,1.18"/><path class="cls-3" d="M26.13,13.91a1.7,1.7,0,1,1-1-2.19,1.69,1.69,0,0,1,1,2.19"/><path class="cls-3" d="M19.12,11.11a1.7,1.7,0,1,1-1-2.2,1.71,1.71,0,0,1,1,2.2"/><path class="cls-3" d="M12.11,8.3a1.7,1.7,0,1,1-1-2.19,1.7,1.7,0,0,1,1,2.19"/><path class="cls-3" d="M5.1,12.51a1.7,1.7,0,1,1-1-2.2,1.71,1.71,0,0,1,1,2.2"/><path class="cls-3" d="M33.14,16.71a1.71,1.71,0,1,1-1-2.19,1.7,1.7,0,0,1,1,2.19"/><path class="cls-3" d="M26.13,20.91a1.7,1.7,0,1,1-1-2.19,1.69,1.69,0,0,1,1,2.19"/><path class="cls-3" d="M19.12,18.11a1.7,1.7,0,1,1-1-2.19,1.7,1.7,0,0,1,1,2.19"/><path class="cls-3" d="M12.11,15.31a1.7,1.7,0,1,1-1-2.19,1.69,1.69,0,0,1,1,2.19"/><path class="cls-3" d="M5.1,19.51a1.7,1.7,0,1,1-1-2.19,1.7,1.7,0,0,1,1,2.19"/><path class="cls-3" d="M33.14,23.72a1.71,1.71,0,0,1-3.2-1.19,1.71,1.71,0,1,1,3.2,1.19"/><path class="cls-3" d="M26.13,27.92a1.7,1.7,0,1,1-1-2.19,1.7,1.7,0,0,1,1,2.19"/><path class="cls-3" d="M19.12,25.12a1.7,1.7,0,1,1-1-2.19,1.69,1.69,0,0,1,1,2.19"/><path class="cls-3" d="M12.11,22.32a1.7,1.7,0,1,1-1-2.2,1.71,1.71,0,0,1,1,2.2"/><path class="cls-3" d="M5.1,26.52a1.7,1.7,0,1,1-1-2.19,1.7,1.7,0,0,1,1,2.19"/><path class="cls-3" d="M33.14,30.72a1.71,1.71,0,1,1-1-2.19,1.7,1.7,0,0,1,1,2.19"/><path class="cls-3" d="M26.13,34.93a1.7,1.7,0,1,1-1-2.2,1.71,1.71,0,0,1,1,2.2"/><path class="cls-3" d="M19.12,32.12a1.7,1.7,0,1,1-1-2.19,1.69,1.69,0,0,1,1,2.19"/><path class="cls-3" d="M12.11,29.32a1.7,1.7,0,1,1-1-2.19,1.7,1.7,0,0,1,1,2.19"/><path class="cls-3" d="M5.1,33.53a1.7,1.7,0,1,1-1-2.2,1.71,1.71,0,0,1,1,2.2"/><path class="cls-3" d="M12.11,36.33a1.7,1.7,0,1,1-1-2.19,1.69,1.69,0,0,1,1,2.19"/></g></pattern><clipPath id="clip-path-3"><path class="cls-1" d="M170.07,172.67a5.8,5.8,0,0,0-1.14.36l.22,3.36-3.25,2.12a.68.68,0,0,1-.42.15c-.32,0-.79-.38-.79-.06a22.47,22.47,0,0,0,4.45,5.81,5,5,0,0,1-1.43,1.11c-.23-.26-.46-.53-.7-.79a13.66,13.66,0,0,0,1.92,7.61,1.53,1.53,0,0,0,.62.66c.26.11.57.07.83.19a1.93,1.93,0,0,1,.64.6,4.53,4.53,0,0,0,4.23,1.55s9.9.66,11.37.88a12.45,12.45,0,0,0,1.66.06c2,0,5.06,0,7.23,1.41,1.93,1.26,2.73,1.2,3.73,1.14a7.19,7.19,0,0,1,1.9.09c2.37.45,3.38-3,3.6-4.15s2.46-.34,2.46-.34c.61.4,1.31-.33,1.78-.89a5.91,5.91,0,0,1,2.56-1.79,1.56,1.56,0,0,0,.68-.37,1.11,1.11,0,0,0,.21-.64c.2-2.35-1.58-4.35-3.22-6a5.5,5.5,0,0,0-1.66-1.31,1.93,1.93,0,0,0-2,.15,6.46,6.46,0,0,0,0-2.32,2.19,2.19,0,0,0-1.46-1.68c-.45-.12-1,0-1.36-.3s-.46-.55-.71-.8c-.78-.8-2.1-.44-3.16-.09a26.79,26.79,0,0,1-8.52,1.36.92.92,0,0,0,.06-1.14,2.14,2.14,0,0,1-2.37-.48c-.66-.56-1.15-1.3-1.85-1.8a6.35,6.35,0,0,0-1.61-.74,68.8,68.8,0,0,0-9.32-2.57,18.67,18.67,0,0,0-3.63-.45,9.12,9.12,0,0,0-1.56.13"/></clipPath><clipPath id="clip-path-4"><path class="cls-1" d="M87.67,170.35a63.16,63.16,0,0,0-6.53,3,2,2,0,0,0-.66.48c-.57.71-.16,2.09-1,2.41a1.51,1.51,0,0,1-.56.05,2.81,2.81,0,0,0-.41,0c-1,.16-1.15,1.43-1.13,2.4.06,2.82-1.72,11-.5,8.43a2.79,2.79,0,0,1,3.9-1.28c.51.37,2.14,2.37,3.66,2.63a6.88,6.88,0,0,0,1.58.08,10.29,10.29,0,0,1,2.53.22,5.65,5.65,0,0,1,3.38,2.14c.41.18.94-.38,1.61-.94a3.27,3.27,0,0,1,2.21-1c2.93,2.59,7.77,1.13,9.22.56s1.82-.11,2.38.68,1.58-.67,2.71-1.12,3.94-6.31,5.06-7.37a3.59,3.59,0,0,1,3-.54l.5-3.77a5.33,5.33,0,0,0,0-1.91c-.43-1.85-2.55-2.66-4.38-3.17l-3.88-1.09a4.75,4.75,0,0,0-2.9-.18c-.3.12-.65.3-.93.13s-.28-.43-.47-.6-.82-.12-1.2.06L97.83,174a8.36,8.36,0,0,0-5.76-2.45c-.89,0-1.92.07-2.52-.58a3.66,3.66,0,0,0-.62-.68.87.87,0,0,0-.44-.11,2.4,2.4,0,0,0-.82.2"/></clipPath></defs><g class="cls-4"><path class="cls-5" d="M250.12,41.25l-1.22-2.62s1.83.39,1.83.73.39,1.33-.61,1.89"/><path class="cls-6" d="M250.12,41.25l-1.22-2.62s1.83.39,1.83.73S251.12,40.69,250.12,41.25Z"/><path class="cls-5" d="M234.32,30.74a2.55,2.55,0,0,1-.92-.49,3.37,3.37,0,0,1-.85-1.85,13.28,13.28,0,0,1,.79-4.77.75.75,0,0,0,.89-.06,8,8,0,0,0,1.93-3.17,3.8,3.8,0,0,0,.08-1.42c-.11-.36-.66-.57-.87-.25a10.85,10.85,0,0,0-2.12-5.47A8.41,8.41,0,0,0,231.11,11a6.1,6.1,0,0,0-7.86,1.15,10.77,10.77,0,0,0-1.07,1.67,14.27,14.27,0,0,0-1.75,4.77c-.56-.78-1.05.16-1.25.51a1.83,1.83,0,0,0-.26.63c-.1.67.49,1.2.83,1.79.53.94.65,2.41,1.71,2.59a.65.65,0,0,1,.37.11.44.44,0,0,1,.1.22l1.17,4.21c.17.59.21,1.42-.38,1.6-.24.07-.87.88-1.13.85-.42-.06-.49-.86-.9-.75-2.5.63-.93.53-2.6.69-1.08-.9-2.56-.89-3-.44-.16.16-.67-.78-1.17.66-.08.25-1.3.94-1.5,1.12-1.65,1.45-2.07,3.69-2.11,5.89a5.83,5.83,0,0,0,2.12,5c1.86,1.79,4.44,2.58,6.94,3.21,3.88,1,7.9,1.76,11.87,1.2a36.05,36.05,0,0,0,9.43-3.18,24.82,24.82,0,0,0,3.17-1.61c1.19-.75,2.18-2.8,5.11-3.58s1.07,2.85,1.33,2.39c.59-1,.77-1.19.45-2.33-.44-1.57-3.95-6.65-5.45-7.29a5.32,5.32,0,0,0-1.33-.16c-.78-.14-1.43-.84-2.2-1a2.18,2.18,0,0,0-.95,0,5.83,5.83,0,0,0-.71.35,3.1,3.1,0,0,1-1.86,0c-1.29-.26-2.68-.06-3.91-.52"/><path class="cls-6" d="M234.32,30.74a2.55,2.55,0,0,1-.92-.49,3.37,3.37,0,0,1-.85-1.85,13.28,13.28,0,0,1,.79-4.77.75.75,0,0,0,.89-.06,8,8,0,0,0,1.93-3.17,3.8,3.8,0,0,0,.08-1.42c-.11-.36-.66-.57-.87-.25a10.85,10.85,0,0,0-2.12-5.47A8.41,8.41,0,0,0,231.11,11a6.1,6.1,0,0,0-7.86,1.15,10.77,10.77,0,0,0-1.07,1.67,14.27,14.27,0,0,0-1.75,4.77c-.56-.78-1.05.16-1.25.51a1.83,1.83,0,0,0-.26.63c-.1.67.49,1.2.83,1.79.53.94.65,2.41,1.71,2.59a.65.65,0,0,1,.37.11.44.44,0,0,1,.1.22l1.17,4.21c.17.59.21,1.42-.38,1.6-.24.07-.87.88-1.13.85-.42-.06-.49-.86-.9-.75-2.5.63-.93.53-2.6.69-1.08-.9-2.56-.89-3-.44-.16.16-.67-.78-1.17.66-.08.25-1.3.94-1.5,1.12-1.65,1.45-2.07,3.69-2.11,5.89a5.83,5.83,0,0,0,2.12,5c1.86,1.79,4.44,2.58,6.94,3.21,3.88,1,7.9,1.76,11.87,1.2a36.05,36.05,0,0,0,9.43-3.18,24.82,24.82,0,0,0,3.17-1.61c1.19-.75,2.18-2.8,5.11-3.58s1.07,2.85,1.33,2.39c.59-1,.77-1.19.45-2.33-.44-1.57-3.95-6.65-5.45-7.29a5.32,5.32,0,0,0-1.33-.16c-.78-.14-1.43-.84-2.2-1a2.18,2.18,0,0,0-.95,0,5.83,5.83,0,0,0-.71.35,3.1,3.1,0,0,1-1.86,0C236.94,31,235.55,31.2,234.32,30.74Z"/><path class="cls-7" d="M233.77,32.74c-.17-1.11.11-1.17-.22-1.56s.1-.69-.15-.93a4.08,4.08,0,0,1-.8-2.07,12.08,12.08,0,0,1,.74-4.55.75.75,0,0,0,.89-.06c.59-1.17,1.54-1.45,1.93-3.17a3.6,3.6,0,0,0,.08-1.42c-.11-.36-.66-.57-.87-.25a10.85,10.85,0,0,0-2.12-5.47A8.41,8.41,0,0,0,231.11,11a6.1,6.1,0,0,0-7.86,1.15,10.77,10.77,0,0,0-1.07,1.67c-.74,1.3-1,3.46-1.75,4.77-.26.45-.67-.89-1.25.51a1.83,1.83,0,0,0-.26.63c-.1.67.49,1.2.83,1.79.53.94.65,2.41,1.71,2.59a.65.65,0,0,1,.37.11.44.44,0,0,1,.1.22l1.17,4.21c.17.59.21,1.42-.38,1.6-.24.07-.87.88-1.13.85-.42-.06-.33-.72-.9-.75a12.88,12.88,0,0,0-2.05.33,8.69,8.69,0,0,0,1.55.79c2.64,1.08,6,8.26,8.86,8.14,2.49-.12,3.39-2.12,4.44-5.9a5.84,5.84,0,0,1,.28-1"/><path class="cls-6" d="M233.77,32.74c-.17-1.11.11-1.17-.22-1.56s.1-.69-.15-.93a4.08,4.08,0,0,1-.8-2.07,12.08,12.08,0,0,1,.74-4.55.75.75,0,0,0,.89-.06c.59-1.17,1.54-1.45,1.93-3.17a3.6,3.6,0,0,0,.08-1.42c-.11-.36-.66-.57-.87-.25a10.85,10.85,0,0,0-2.12-5.47A8.41,8.41,0,0,0,231.11,11a6.1,6.1,0,0,0-7.86,1.15,10.77,10.77,0,0,0-1.07,1.67c-.74,1.3-1,3.46-1.75,4.77-.26.45-.67-.89-1.25.51a1.83,1.83,0,0,0-.26.63c-.1.67.49,1.2.83,1.79.53.94.65,2.41,1.71,2.59a.65.65,0,0,1,.37.11.44.44,0,0,1,.1.22l1.17,4.21c.17.59.21,1.42-.38,1.6-.24.07-.87.88-1.13.85-.42-.06-.33-.72-.9-.75a12.88,12.88,0,0,0-2.05.33,8.69,8.69,0,0,0,1.55.79c2.64,1.08,6,8.26,8.86,8.14,2.49-.12,3.39-2.12,4.44-5.9A5.84,5.84,0,0,1,233.77,32.74Z"/><path class="cls-8" d="M253.25,84.89a24.83,24.83,0,0,0,1-7.73,28.57,28.57,0,0,1,.07-5.47c.14-1.18.34-2.35.39-3.53a26.36,26.36,0,0,0-.13-3c-.2-2.34-1.46-4.86-.65-7.07a14.85,14.85,0,0,0,1.23-5,15.47,15.47,0,0,0-.3-2.62l-.37-2.16a19,19,0,0,0-1.68-5.86,2.7,2.7,0,0,0-.67-.86c-.85-.62-2-.17-3,.06a6.66,6.66,0,0,1-4.37-.51c-1.05-.51-2.09-1.33-3.24-1.12a11.28,11.28,0,0,0-2.22,1.12,6.14,6.14,0,0,1-3,.24.84.84,0,0,1-.42-.1,1.9,1.9,0,0,1-.3-.33,1.41,1.41,0,0,0-1.25-.33c-.44.07-.86.26-1.29.37a.7.7,0,0,1-.63-.07.72.72,0,0,1-.18-.37l-.31-1.08a2.06,2.06,0,0,0-.48-1,1.29,1.29,0,0,0-1.61,0,2.8,2.8,0,0,0-.87,1.48,4,4,0,0,1-.52,1.32,1,1,0,0,1-1.25.32,1.46,1.46,0,0,0-.11.8c-.67-.16-1.35-.24-2-.39a1.37,1.37,0,0,1-.67-.3,2.62,2.62,0,0,1-.24-.34c-.45-.56-1.3-.5-2-.47a14.73,14.73,0,0,1-6.33-1.58,15.14,15.14,0,0,1-1.93-1,5.2,5.2,0,0,0-1-.56,4,4,0,0,0-2.15.06,9.42,9.42,0,0,0-3.59,1.2A14.31,14.31,0,0,0,205.06,41l-1.5,1.62a4,4,0,0,0-.6.77c-.12.24-.19.51-.31.75a6.67,6.67,0,0,1-.48.7,10.66,10.66,0,0,0-1,1.91,1.28,1.28,0,0,0-.16,1c.23.56,1.14.59,1.35,1.15a1.23,1.23,0,0,1,0,.54,28.89,28.89,0,0,1-1.12,5.67c-.15.48-.39,1-.58,1.45a9.13,9.13,0,0,0-.67,2c-.4,2.44,1.16,4.83,1,7.3-.1,1.32-.22,2.68-.36,4a43.6,43.6,0,0,0-.12,5.94l.13,5"/><path class="cls-5" d="M54.41,127.71H38.83l.3-7.28-1.25,7-12.22.28a22.6,22.6,0,0,1-.21-8.23c1.06-5.78-.63-13.34-.63-13.34l.84-7.57H54.41s-1.27,7.34-.42,4.9c.42,5.11,1.06,10.89.42,16.68s0,7.56,0,7.56"/><path class="cls-9" d="M54.41,127.71H38.83l.3-7.28-1.25,7-12.22.28a22.6,22.6,0,0,1-.21-8.23c1.06-5.78-.63-13.34-.63-13.34l.84-7.57H54.41s-1.27,7.34-.42,4.9c.42,5.11,1.06,10.89.42,16.68S54.41,127.71,54.41,127.71Z"/><path class="cls-6" d="M39.5,102.35c.73,1.09.58,4,.39,5.28s-.61,2.54-.75,3.84a47.38,47.38,0,0,0,.14,5.32,31,31,0,0,1-.35,4.2l-.84,6.49"/><path class="cls-6" d="M39.72,109c-.91,6.32-.14,12-.89,18.68"/><path class="cls-8" d="M83.33,68a19.11,19.11,0,0,0,3-5A6.41,6.41,0,0,0,86,57.38c-.64-1-1.7-2.06-1.16-3.1.09-.18.24-.34.32-.54a1.44,1.44,0,0,0-.43-1.48c-.39-.38-.89-.64-1.31-1-1.47-1.21-1.77-3.31-2-5.21-1.19,0-1.83,1.44-2.91,1.92-1.39.6-2.89-.49-4-1.51l-5.49-5a2.49,2.49,0,0,1-.41-.45,4.18,4.18,0,0,1-.27-.8,5,5,0,0,0-1.68-2.13l-1.75-1.53a9.83,9.83,0,0,0-1.41-1.09,9.56,9.56,0,0,0-2.45-.88c-4.1-1.08-8.15-2.37-12.13-3.84a2.63,2.63,0,0,1-.92-.49,3.37,3.37,0,0,1-.85-1.85A13.31,13.31,0,0,1,48,23.63a.77.77,0,0,0,.9-.06,8.08,8.08,0,0,0,1.92-3.17A3.6,3.6,0,0,0,50.86,19c-.11-.36-.66-.57-.87-.25a10.76,10.76,0,0,0-2.12-5.47A8.41,8.41,0,0,0,45.73,11a6.1,6.1,0,0,0-7.86,1.15,11.57,11.57,0,0,0-1.07,1.67,14.27,14.27,0,0,0-1.75,4.77c-.56-.78-1,.16-1.25.51a2,2,0,0,0-.26.63c-.1.67.5,1.2.83,1.79.53.94.65,2.41,1.72,2.59a.64.64,0,0,1,.36.11.44.44,0,0,1,.1.22l1.18,4.21c.16.59.2,1.42-.39,1.6a1.81,1.81,0,0,1-.76-.06,3.47,3.47,0,0,0-1.27.16c-2.5.63-5.1.26-7.56,1a11,11,0,0,0-6.21,4.31,16.58,16.58,0,0,0-1.46,3.21l-2.19,5.88a5.43,5.43,0,0,1-1.42,2.42,11.06,11.06,0,0,1-2.54,1.16,5.72,5.72,0,0,0-3,3.33c-.31.9-.38,1.85-.62,2.76a21.07,21.07,0,0,1-1.15,2.94,39.92,39.92,0,0,0-2.45,7.48c1.83.18,3.19,1.81,4.4,3.2s2.81,2.81,4.63,2.55c-.93,3.32-2.28,28.45-2.24,31.9,10.19,3.72,21.29,3.78,32.13,3.81,8.59,0,17.41,0,25.44-3.07a3.55,3.55,0,0,0,1.51-.92c.52-.65,1.42-23.23,1.41-24.06q-.12-6.42-.23-12.83a4.79,4.79,0,0,0,2.2,4,12.44,12.44,0,0,0,4.38,1.71,2.86,2.86,0,0,0,1.12.12c1.25-.2,1.77-2,1.92-3.24"/><path class="cls-6" d="M83.33,68a19.11,19.11,0,0,0,3-5A6.41,6.41,0,0,0,86,57.38c-.64-1-1.7-2.06-1.16-3.1.09-.18.24-.34.32-.54a1.44,1.44,0,0,0-.43-1.48c-.39-.38-.89-.64-1.31-1-1.47-1.21-1.77-3.31-2-5.21-1.19,0-1.83,1.44-2.91,1.92-1.39.6-2.89-.49-4-1.51l-5.49-5a2.49,2.49,0,0,1-.41-.45,4.18,4.18,0,0,1-.27-.8,5.11,5.11,0,0,0-1.68-2.13l-1.75-1.53a9.83,9.83,0,0,0-1.41-1.09,9.56,9.56,0,0,0-2.45-.88c-4.1-1.08-8.15-2.37-12.13-3.84a2.55,2.55,0,0,1-.92-.49,3.37,3.37,0,0,1-.85-1.85A13.31,13.31,0,0,1,48,23.63a.75.75,0,0,0,.89-.06,8,8,0,0,0,1.93-3.17A3.6,3.6,0,0,0,50.86,19c-.11-.36-.66-.57-.87-.25a10.76,10.76,0,0,0-2.12-5.47A8.41,8.41,0,0,0,45.73,11a6.1,6.1,0,0,0-7.86,1.15,10.77,10.77,0,0,0-1.07,1.67,14.27,14.27,0,0,0-1.75,4.77c-.56-.78-1,.16-1.25.51a2,2,0,0,0-.26.63c-.1.67.5,1.2.83,1.79.53.94.65,2.41,1.71,2.59a.65.65,0,0,1,.37.11.44.44,0,0,1,.1.22c.39,1.4.78,2.81,1.18,4.21.16.59.2,1.42-.39,1.6a1.81,1.81,0,0,1-.76-.06,3.44,3.44,0,0,0-1.27.16c-2.5.63-5.1.26-7.56,1a11,11,0,0,0-6.21,4.31,17.24,17.24,0,0,0-1.47,3.21Q19,41.83,17.89,44.77a5.43,5.43,0,0,1-1.42,2.42,10.94,10.94,0,0,1-2.55,1.16,5.73,5.73,0,0,0-3,3.33c-.31.9-.38,1.85-.62,2.76a21.07,21.07,0,0,1-1.15,2.94,39.92,39.92,0,0,0-2.45,7.48c1.83.18,3.19,1.81,4.4,3.2s2.81,2.81,4.63,2.55c-.93,3.32-2.28,28.45-2.24,31.9,10.19,3.72,21.29,3.78,32.13,3.81,8.59,0,17.41,0,25.44-3.07a3.55,3.55,0,0,0,1.51-.92c.52-.65,1.42-23.23,1.41-24.06q-.12-6.42-.23-12.83a4.81,4.81,0,0,0,2.19,4,12.57,12.57,0,0,0,4.39,1.71,2.84,2.84,0,0,0,1.12.12C82.66,71,83.18,69.25,83.33,68Z"/><path class="cls-10" d="M83.33,68a19.11,19.11,0,0,0,3-5A6.41,6.41,0,0,0,86,57.38c-.64-1-1.7-2.06-1.16-3.1.09-.18.24-.34.32-.54a1.44,1.44,0,0,0-.43-1.48c-.39-.38-.89-.64-1.31-1-1.47-1.21-1.77-3.31-2-5.21-1.19,0-1.83,1.44-2.91,1.92-1.39.6-2.89-.49-4-1.51l-5.49-5a2.49,2.49,0,0,1-.41-.45,4.18,4.18,0,0,1-.27-.8,5,5,0,0,0-1.68-2.13l-1.75-1.53a9.83,9.83,0,0,0-1.41-1.09,9.56,9.56,0,0,0-2.45-.88c-4.1-1.08-8.15-2.37-12.13-3.84a2.63,2.63,0,0,1-.92-.49,3.37,3.37,0,0,1-.85-1.85A13.31,13.31,0,0,1,48,23.63a.77.77,0,0,0,.9-.06,8.08,8.08,0,0,0,1.92-3.17A3.6,3.6,0,0,0,50.86,19c-.11-.36-.66-.57-.87-.25a10.76,10.76,0,0,0-2.12-5.47A8.41,8.41,0,0,0,45.73,11a6.1,6.1,0,0,0-7.86,1.15,11.57,11.57,0,0,0-1.07,1.67,14.27,14.27,0,0,0-1.75,4.77c-.56-.78-1,.16-1.25.51a2,2,0,0,0-.26.63c-.1.67.5,1.2.83,1.79.53.94.65,2.41,1.72,2.59a.64.64,0,0,1,.36.11.44.44,0,0,1,.1.22l1.18,4.21c.16.59.2,1.42-.39,1.6a1.81,1.81,0,0,1-.76-.06,3.47,3.47,0,0,0-1.27.16c-2.5.63-5.1.26-7.56,1a11,11,0,0,0-6.21,4.31,16.58,16.58,0,0,0-1.46,3.21l-2.19,5.88a5.43,5.43,0,0,1-1.42,2.42,11.06,11.06,0,0,1-2.54,1.16,5.72,5.72,0,0,0-3,3.33c-.31.9-.38,1.85-.62,2.76a21.07,21.07,0,0,1-1.15,2.94,39.92,39.92,0,0,0-2.45,7.48c1.83.18,3.19,1.81,4.4,3.2s2.81,2.81,4.63,2.55c-.93,3.32-2.28,28.45-2.24,31.9,10.19,3.72,21.29,3.78,32.13,3.81,8.59,0,17.41,0,25.44-3.07a3.55,3.55,0,0,0,1.51-.92c.52-.65,1.42-23.23,1.41-24.06q-.12-6.42-.23-12.83a4.79,4.79,0,0,0,2.2,4,12.44,12.44,0,0,0,4.38,1.71,2.86,2.86,0,0,0,1.12.12c1.25-.2,1.77-2,1.92-3.24"/><path class="cls-11" d="M83.33,68a19.11,19.11,0,0,0,3-5A6.41,6.41,0,0,0,86,57.38c-.64-1-1.7-2.06-1.16-3.1.09-.18.24-.34.32-.54a1.44,1.44,0,0,0-.43-1.48c-.39-.38-.89-.64-1.31-1-1.47-1.21-1.77-3.31-2-5.21-1.19,0-1.83,1.44-2.91,1.92-1.39.6-2.89-.49-4-1.51l-5.49-5a2.49,2.49,0,0,1-.41-.45,4.18,4.18,0,0,1-.27-.8,5.11,5.11,0,0,0-1.68-2.13l-1.75-1.53a9.83,9.83,0,0,0-1.41-1.09,9.56,9.56,0,0,0-2.45-.88c-4.1-1.08-8.15-2.37-12.13-3.84a2.55,2.55,0,0,1-.92-.49,3.37,3.37,0,0,1-.85-1.85A13.31,13.31,0,0,1,48,23.63a.75.75,0,0,0,.89-.06,8,8,0,0,0,1.93-3.17A3.6,3.6,0,0,0,50.86,19c-.11-.36-.66-.57-.87-.25a10.76,10.76,0,0,0-2.12-5.47A8.41,8.41,0,0,0,45.73,11a6.1,6.1,0,0,0-7.86,1.15,10.77,10.77,0,0,0-1.07,1.67,14.27,14.27,0,0,0-1.75,4.77c-.56-.78-1,.16-1.25.51a2,2,0,0,0-.26.63c-.1.67.5,1.2.83,1.79.53.94.65,2.41,1.71,2.59a.65.65,0,0,1,.37.11.44.44,0,0,1,.1.22c.39,1.4.78,2.81,1.18,4.21.16.59.2,1.42-.39,1.6a1.81,1.81,0,0,1-.76-.06,3.44,3.44,0,0,0-1.27.16c-2.5.63-5.1.26-7.56,1a11,11,0,0,0-6.21,4.31,17.24,17.24,0,0,0-1.47,3.21Q19,41.83,17.89,44.77a5.43,5.43,0,0,1-1.42,2.42,10.94,10.94,0,0,1-2.55,1.16,5.73,5.73,0,0,0-3,3.33c-.31.9-.38,1.85-.62,2.76a21.07,21.07,0,0,1-1.15,2.94,39.92,39.92,0,0,0-2.45,7.48c1.83.18,3.19,1.81,4.4,3.2s2.81,2.81,4.63,2.55c-.93,3.32-2.28,28.45-2.24,31.9,10.19,3.72,21.29,3.78,32.13,3.81,8.59,0,17.41,0,25.44-3.07a3.55,3.55,0,0,0,1.51-.92c.52-.65,1.42-23.23,1.41-24.06q-.12-6.42-.23-12.83a4.81,4.81,0,0,0,2.19,4,12.57,12.57,0,0,0,4.39,1.71,2.84,2.84,0,0,0,1.12.12C82.66,71,83.18,69.25,83.33,68Z"/><path class="cls-5" d="M149.27,127.71H134.69l.3-7.28-1.25,7-12.22.28a22.6,22.6,0,0,1-.21-8.23c1.06-5.78-.63-13.34-.63-13.34l.84-7.57h28.75s-1.27,7.34-.42,4.9a90.62,90.62,0,0,1-.58,16.68c-.63,5.78,0,7.56,0,7.56"/><path class="cls-9" d="M149.27,127.71H134.69l.3-7.28-1.25,7-12.22.28a22.6,22.6,0,0,1-.21-8.23c1.06-5.78-.63-13.34-.63-13.34l.84-7.57h28.75s-1.27,7.34-.42,4.9a90.62,90.62,0,0,1-.58,16.68C148.64,125.93,149.27,127.71,149.27,127.71Z"/><path class="cls-6" d="M135.35,102.35c.73,1.09.59,4,.4,5.28s-.61,2.54-.75,3.84a47.38,47.38,0,0,0,.14,5.32,31,31,0,0,1-.35,4.2l-.84,6.49"/><path class="cls-6" d="M135.57,109c-.9,6.32-.13,12-.88,18.68"/><path class="cls-6" d="M143.07,31.39l-1.83-.65a2.63,2.63,0,0,1-.92-.49,4.08,4.08,0,0,1-.8-2.07,12.11,12.11,0,0,1,.74-4.55.77.77,0,0,0,.9-.06c.58-1.17,1.53-1.45,1.92-3.17a3.6,3.6,0,0,0,.08-1.42c-.11-.36-.66-.57-.87-.25a10.76,10.76,0,0,0-2.12-5.47A8.41,8.41,0,0,0,138,11a6.1,6.1,0,0,0-7.86,1.15,10.77,10.77,0,0,0-1.07,1.67c-.74,1.3-1,3.46-1.75,4.77-.26.45-.67-.89-1.25.51a2,2,0,0,0-.26.63c-.1.67.49,1.2.83,1.79.53.94.65,2.41,1.72,2.59a.64.64,0,0,1,.36.11.44.44,0,0,1,.1.22L130,28.68c.16.59.2,1.42-.39,1.6a1.81,1.81,0,0,1-.76-.06,3.47,3.47,0,0,0-1.27.16,14.57,14.57,0,0,1-2,.33,8.69,8.69,0,0,0,1.55.79c2.64,1.08,5.16,12.38,8,12.25,2.49-.11,5.32-11.52,7.7-12.28Z"/><path class="cls-5" d="M152.59,32.18a9.71,9.71,0,0,0-1.59-.84l-2.33-.41a2.18,2.18,0,0,0-.95,0,5.83,5.83,0,0,0-.71.35,3.07,3.07,0,0,1-1.85,0c-1.3-.26-2.68-.06-3.92-.52a2.55,2.55,0,0,1-.92-.49,2.94,2.94,0,0,1-.52-.78,1.72,1.72,0,0,0-.33.61,4.64,4.64,0,0,0,.12,1.81c.4,2.81-1.61,5.35-3.64,7.33a1.63,1.63,0,0,1-.71.49c-.65.16-1.21-.45-1.58-1A24.51,24.51,0,0,1,130.58,32a7.78,7.78,0,0,0-.67-1.84l0-.05a.63.63,0,0,1-.24.14,1.81,1.81,0,0,1-.76-.06,3.47,3.47,0,0,0-1.27.16c-2.5.63-1.79-.45-3.46-.28a2.48,2.48,0,0,0-3.6.31c-.13.18-.23.39-.37.56a3.71,3.71,0,0,1-.57.55,8,8,0,0,0-.25,11.74c1.85,1.79,4.43,2.58,6.93,3.21,3.88,1,7.9,1.76,11.87,1.2a35.93,35.93,0,0,0,9.43-3.18,24.82,24.82,0,0,0,3.17-1.61A23.76,23.76,0,0,0,154,40.22a5.28,5.28,0,0,0,1-1.18,4.57,4.57,0,0,0,.07-3.47,4.55,4.55,0,0,0-2.55-3.39"/><path class="cls-6" d="M152.59,32.18a9.71,9.71,0,0,0-1.59-.84l-2.33-.41a2.18,2.18,0,0,0-.95,0,5.83,5.83,0,0,0-.71.35,3.07,3.07,0,0,1-1.85,0c-1.3-.26-2.68-.06-3.92-.52a2.55,2.55,0,0,1-.92-.49,2.94,2.94,0,0,1-.52-.78,1.72,1.72,0,0,0-.33.61,4.64,4.64,0,0,0,.12,1.81c.4,2.81-1.61,5.35-3.64,7.33a1.63,1.63,0,0,1-.71.49c-.65.16-1.21-.45-1.58-1A24.51,24.51,0,0,1,130.58,32a7.78,7.78,0,0,0-.67-1.84l0-.05a.63.63,0,0,1-.24.14,1.81,1.81,0,0,1-.76-.06,3.47,3.47,0,0,0-1.27.16c-2.5.63-1.79-.45-3.46-.28a2.48,2.48,0,0,0-3.6.31c-.13.18-.23.39-.37.56a3.71,3.71,0,0,1-.57.55,8,8,0,0,0-.25,11.74c1.85,1.79,4.43,2.58,6.93,3.21,3.88,1,7.9,1.76,11.87,1.2a35.93,35.93,0,0,0,9.43-3.18,24.82,24.82,0,0,0,3.17-1.61A23.76,23.76,0,0,0,154,40.22a5.28,5.28,0,0,0,1-1.18,4.57,4.57,0,0,0,.07-3.47A4.55,4.55,0,0,0,152.59,32.18Z"/><path class="cls-5" d="M37.8,29.54s.14.5-.2.67a1.45,1.45,0,0,1-.8.08s0-.75.28-.77a4.26,4.26,0,0,1,.72,0"/><path class="cls-12" d="M37.8,29.54s.14.5-.2.67a1.45,1.45,0,0,1-.8.08s0-.75.28-.77A4.26,4.26,0,0,1,37.8,29.54Z"/><path class="cls-6" d="M67.5,41.63A6.44,6.44,0,0,0,66.84,46a23.72,23.72,0,0,0,1.87,4.42A5.44,5.44,0,0,1,69,55.09"/><path class="cls-6" d="M71.45,58c-.1-1-.1-2.28.76-2.86a2.85,2.85,0,0,1,1.35-.38,13.58,13.58,0,0,1,3.6-.05,4.55,4.55,0,0,1,3.06,1.73c.67.95.87,2.24,1.79,2.93a4.22,4.22,0,0,1,.9.65,1.83,1.83,0,0,1,.34.75,8.86,8.86,0,0,1-.07,4.79"/><path class="cls-6" d="M73.54,59.54c.14-.51.35-1.09.85-1.27a1.88,1.88,0,0,1,1.48.42,12,12,0,0,0,4.88,1.66,1.13,1.13,0,0,1,.6.17,1.12,1.12,0,0,1,.31.82,36.64,36.64,0,0,1,.08,4.32"/><path class="cls-6" d="M72.35,55c.84-.53.2-2.08,1-2.71.4-.33,1.08-.27,1.37-.71a1.18,1.18,0,0,0,.12-.81,1.63,1.63,0,0,1,.07-.82.49.49,0,0,1,.69-.24"/><path class="cls-13" d="M67.14,57.94a32.06,32.06,0,0,1-3.64-7.55"/><path class="cls-6" d="M25.23,35.15c-.18,7.38-3.06,14.49-3.34,21.86"/><path class="cls-13" d="M22,51.66a36.16,36.16,0,0,1-.94-10.47"/><path class="cls-13" d="M20.9,49.9a9.38,9.38,0,0,1-2-2.31"/><path class="cls-6" d="M23.12,62.92C35,63,46.69,66,58.54,65.58"/><path class="cls-13" d="M69.35,63.38c-1.11-.08-1.54.31-2.4,1"/><path class="cls-6" d="M68,62.78c-.78,0-1.35.74-2.07,1-.46.19-1,.19-1.43.37s-.88.67-.71,1.13h.43"/><path class="cls-6" d="M70.31,64.39c-.27-.11-.55.1-.75.31-1,1.15-1.44,2.92-2.81,3.65-.87.46-2,.4-2.75,1A4,4,0,0,0,62.91,71"/><path class="cls-6" d="M18.81,65.35a.44.44,0,0,0-.64-.18,1.1,1.1,0,0,0-.39.63c-.67,2.13.16,4.44,1.19,6.42s2.32,3.91,2.62,6.13"/><path class="cls-6" d="M19.29,65.4c-.11,0,0-.2.08-.25a1.09,1.09,0,0,1,1.17.4c.3.33.48.75.76,1.08a4.54,4.54,0,0,0,2.58,1.21l2.95.66"/><path class="cls-13" d="M24.61,69a.52.52,0,0,0-.69,0,.53.53,0,0,0-.07.69,5.4,5.4,0,0,1,2.52,2.23A16.21,16.21,0,0,1,27.78,75"/><path class="cls-6" d="M21.09,57.26A14.31,14.31,0,0,0,18.56,55,7.09,7.09,0,0,0,17,54.13a6.33,6.33,0,0,0-5.65,1"/><path class="cls-13" d="M16.17,53.46a.73.73,0,0,0-.19-.69,3.91,3.91,0,0,0-3.62-1.45"/><path class="cls-13" d="M15.37,50.38a7.58,7.58,0,0,1,3.05,1.18,7.11,7.11,0,0,1,1.38.93,7,7,0,0,1,1.41,2.28"/><path class="cls-13" d="M14.23,56.64c.07,0,0-.17,0-.21a.34.34,0,0,0-.26,0c-.59.22-1.17.47-1.74.74s-1.07.58-1.13,1.14a1.54,1.54,0,0,1-.06.48.9.9,0,0,1-.3.28,2.58,2.58,0,0,0-.95,1.3"/><path class="cls-6" d="M13.85,61.77a31.47,31.47,0,0,0-1.67,6.46c.7.22,1.23-.86,2-.81"/><path class="cls-13" d="M47.09,34.76a45.78,45.78,0,0,0-5.16,11.13"/><path class="cls-13" d="M52.87,50.47a3.82,3.82,0,0,1,4-.91,5.8,5.8,0,0,1,2.15,2l2.12,2.77"/><path class="cls-7" d="M50.77,31.39l-1.83-.65a2.63,2.63,0,0,1-.92-.49,4.08,4.08,0,0,1-.8-2.07A12.11,12.11,0,0,1,48,23.63a.77.77,0,0,0,.9-.06c.58-1.17,1.53-1.45,1.92-3.17A3.6,3.6,0,0,0,50.86,19c-.11-.36-.66-.57-.87-.25a10.76,10.76,0,0,0-2.12-5.47A8.41,8.41,0,0,0,45.73,11a6.1,6.1,0,0,0-7.86,1.15,10.77,10.77,0,0,0-1.07,1.67c-.74,1.3-1,3.46-1.75,4.77-.26.45-.67-.89-1.25.51a2,2,0,0,0-.26.63c-.1.67.5,1.2.83,1.79.53.94.65,2.41,1.72,2.59a.64.64,0,0,1,.36.11.44.44,0,0,1,.1.22l1.18,4.21c.16.59.2,1.42-.39,1.6a1.81,1.81,0,0,1-.76-.06,3.47,3.47,0,0,0-1.27.16,14.57,14.57,0,0,1-2.05.33,8.69,8.69,0,0,0,1.55.79c4.95,2,10.62,1.59,15.72,0l.24-.08"/><path class="cls-6" d="M50.77,31.39l-1.83-.65a2.63,2.63,0,0,1-.92-.49,4.08,4.08,0,0,1-.8-2.07A12.11,12.11,0,0,1,48,23.63a.77.77,0,0,0,.9-.06c.58-1.17,1.53-1.45,1.92-3.17A3.6,3.6,0,0,0,50.86,19c-.11-.36-.66-.57-.87-.25a10.76,10.76,0,0,0-2.12-5.47A8.41,8.41,0,0,0,45.73,11a6.1,6.1,0,0,0-7.86,1.15,10.77,10.77,0,0,0-1.07,1.67c-.74,1.3-1,3.46-1.75,4.77-.26.45-.67-.89-1.25.51a2,2,0,0,0-.26.63c-.1.67.5,1.2.83,1.79.53.94.65,2.41,1.72,2.59a.64.64,0,0,1,.36.11.44.44,0,0,1,.1.22l1.18,4.21c.16.59.2,1.42-.39,1.6a1.81,1.81,0,0,1-.76-.06,3.47,3.47,0,0,0-1.27.16,14.57,14.57,0,0,1-2.05.33,8.69,8.69,0,0,0,1.55.79c4.95,2,10.62,1.59,15.72,0Z"/><path class="cls-6" d="M43.36,17.67a.77.77,0,0,1,.65-.3,2.81,2.81,0,0,1,2.31.6"/><path class="cls-6" d="M40.26,17.79c-.2-.36-.69-.41-1.11-.4A3.52,3.52,0,0,0,37,18"/><path class="cls-6" d="M41.15,18.52a1.07,1.07,0,0,1,.45.93"/><path class="cls-6" d="M37.89,19.17c0-.09,0-.17.13-.22a1.75,1.75,0,0,1,1.72-.4,2.1,2.1,0,0,1,.55.43,1.28,1.28,0,0,1-1.74.65"/><path class="cls-6" d="M46.18,19.31a2.67,2.67,0,0,0-.66-.68,1.1,1.1,0,0,0-.91-.18,8.17,8.17,0,0,0-.87.47.75.75,0,0,0,.27.71.77.77,0,0,0,.76.09,1.43,1.43,0,0,0,.84-.16"/><path class="cls-13" d="M49.79,19.35c.14-.2.48-.07.59.14a1.13,1.13,0,0,1-.27,1.17,3.37,3.37,0,0,0-.74,1c0,.12-.06.24-.1.36a1.67,1.67,0,0,1-.33.5h-.38a1,1,0,0,1,.08-.77.34.34,0,0,0,.21-.45"/><path class="cls-13" d="M34.81,21a1.71,1.71,0,0,0-.29-1.32c-.12,0-.2-.2-.33-.18s-.1.06-.14.12a3.71,3.71,0,0,0-.39.77"/><path class="cls-14" d="M39.83,19.26a.53.53,0,0,1-.47.58.6.6,0,1,1,.47-.58"/><path class="cls-6" d="M39.83,19.26a.53.53,0,0,1-.47.58.6.6,0,1,1,.47-.58Z"/><path class="cls-14" d="M45.42,19.26a.49.49,0,1,1-.48-.59.53.53,0,0,1,.48.59"/><path class="cls-6" d="M45.42,19.26a.49.49,0,1,1-.48-.59A.53.53,0,0,1,45.42,19.26Z"/><path class="cls-6" d="M36.45,23.51a.81.81,0,0,1-.4.5"/><path class="cls-6" d="M48,22.9a.85.85,0,0,0,.08.68"/><path class="cls-5" d="M37.3,29.38a.69.69,0,0,1,.4.11c.11.09.1.15,0,.28-.05-.22-.23-.25-.45-.19a.69.69,0,0,0-.44.47,1.73,1.73,0,0,0,0,.68,5.79,5.79,0,0,0,.37,1.4,8,8,0,0,1-3.64-1.53c0-.14.16-.13.27-.19a1.78,1.78,0,0,1,.5-.14,4.28,4.28,0,0,0,1.58-.4c.24-.11.47-.27.72-.37a1.58,1.58,0,0,1,.68-.12"/><path class="cls-12" d="M37.3,29.38a.69.69,0,0,1,.4.11c.11.09.1.15,0,.28-.05-.22-.23-.25-.45-.19a.69.69,0,0,0-.44.47,1.73,1.73,0,0,0,0,.68,5.79,5.79,0,0,0,.37,1.4,8,8,0,0,1-3.64-1.53c0-.14.16-.13.27-.19a1.78,1.78,0,0,1,.5-.14,4.28,4.28,0,0,0,1.58-.4c.24-.11.47-.27.72-.37A1.58,1.58,0,0,1,37.3,29.38Z"/><path class="cls-5" d="M50.77,31.39c0,.17-.11.1-.28.13l-1.81.38a1.12,1.12,0,0,0,.55-.82c0-.34-.46-.65-.78-.76a3.23,3.23,0,0,1,1.2.26c.38.26.66.69,1.12.81"/><path class="cls-12" d="M50.77,31.39c0,.17-.11.1-.28.13l-1.81.38a1.12,1.12,0,0,0,.55-.82c0-.34-.46-.65-.78-.76a3.23,3.23,0,0,1,1.2.26C50,30.84,50.31,31.27,50.77,31.39Z"/><path class="cls-7" d="M36.26,23.89a1.71,1.71,0,0,1,.06-.5,3.53,3.53,0,0,1,2.58-2.51,7.13,7.13,0,0,0,.8-.18A5.56,5.56,0,0,0,41,19.82a1.59,1.59,0,0,1,1.47-.34,3.1,3.1,0,0,1,.87.79c.65.65,1.61.92,2.3,1.54.29.26.53.58.83.83a1.21,1.21,0,0,0,1.09.31c-.11,1.11-.22,2.21-.32,3.31a3.86,3.86,0,0,0,.19,2.16,8.44,8.44,0,0,0-2.89,1.8,3.85,3.85,0,0,1-3.15,1c-1.26-.32-2-1.64-3.13-2.26a1.93,1.93,0,0,1-.59-.38c-.34-.36-.26-.93-.25-1.42a3.88,3.88,0,0,0-.58-2.09,2.83,2.83,0,0,1-.57-1.2"/><path class="cls-6" d="M36.26,23.89a1.43,1.43,0,0,1,.06-.5,3.53,3.53,0,0,1,2.58-2.51,7.13,7.13,0,0,0,.8-.18A5.56,5.56,0,0,0,41,19.82a1.59,1.59,0,0,1,1.47-.34,3.1,3.1,0,0,1,.87.79c.65.65,1.61.92,2.3,1.54.29.26.53.58.83.83a1.21,1.21,0,0,0,1.09.31c-.11,1.11-.22,2.21-.32,3.31a3.86,3.86,0,0,0,.19,2.16,8.44,8.44,0,0,0-2.89,1.8,3.86,3.86,0,0,1-3.15,1c-1.26-.32-2-1.64-3.13-2.26a1.93,1.93,0,0,1-.59-.38c-.34-.36-.26-.93-.25-1.42a4,4,0,0,0-.58-2.09A2.83,2.83,0,0,1,36.26,23.89Z"/><path class="cls-5" d="M42,30.77a2,2,0,0,1-.86-.37c-1.07-.73-1.91-1.94-3.19-2.08A5.76,5.76,0,0,0,37,23.71a.68.68,0,0,1-.17-.4.64.64,0,0,1,.23-.36,4.06,4.06,0,0,1,1-.77c.82-.4,1.87-.24,2.59-.8a3.42,3.42,0,0,1,.6-.48c.63-.29,1.79-.14,2,.5.22.83,1.8,1.64,2.92,2.09a1.23,1.23,0,0,1,.55.33,1.26,1.26,0,0,1,.11.94A15.44,15.44,0,0,0,46.68,28c-1.45.22-2.26,1.8-3.53,2.53a1.8,1.8,0,0,1-1.17.29"/><path class="cls-13" d="M42,30.77a2,2,0,0,1-.86-.37c-1.07-.73-1.91-1.94-3.19-2.08A5.76,5.76,0,0,0,37,23.71a.68.68,0,0,1-.17-.4.64.64,0,0,1,.23-.36,3.88,3.88,0,0,1,1-.77c.82-.4,1.87-.24,2.58-.8a3.9,3.9,0,0,1,.61-.48c.63-.29,1.79-.14,2,.5.22.83,1.8,1.64,2.92,2.09a1.29,1.29,0,0,1,.55.33,1.26,1.26,0,0,1,.11.94A15.44,15.44,0,0,0,46.68,28c-1.45.22-2.26,1.8-3.53,2.53A1.82,1.82,0,0,1,42,30.77Z"/><path class="cls-13" d="M38.36,25.05a3.32,3.32,0,0,1,1.15-.38c1-.06,1.92.84,2.94.81a7.69,7.69,0,0,0,1.47-.36,2.88,2.88,0,0,1,1.91.25"/><path class="cls-13" d="M38.68,27.08a.8.8,0,0,1,.94.05c.28.19.49.46.77.65a3,3,0,0,0,2.6,0,3.82,3.82,0,0,1,2.62-.28"/><path class="cls-15" d="M36.31,23c-.18-.57-.66-1.81-1.09-2.9-.26-.66-.5-1.29-.63-1.65l.47-.17c.13.35.37,1,.63,1.64.43,1.1.73,1.92.92,2.5Z"/><path class="cls-6" d="M36.31,23c-.18-.57-.66-1.81-1.09-2.9-.26-.66-.5-1.29-.63-1.65l.47-.17c.13.35.37,1,.63,1.64.43,1.1.73,1.92.92,2.5Z"/><path class="cls-15" d="M47.92,23.24l-.35-.37a6.26,6.26,0,0,0,1-2.17A12.24,12.24,0,0,1,49.8,18l.37-.2a23.9,23.9,0,0,1-1.1,3.08,6.42,6.42,0,0,1-1.15,2.38"/><path class="cls-6" d="M47.92,23.24l-.35-.37a6.26,6.26,0,0,0,1-2.17A12.24,12.24,0,0,1,49.8,18l.37-.2a23.9,23.9,0,0,1-1.1,3.08A6.42,6.42,0,0,1,47.92,23.24Z"/><path class="cls-16" d="M127.16,16.25a15.15,15.15,0,0,1,0-3.3,5.87,5.87,0,0,1,2-2.88,7,7,0,0,1,3.9-2,7.7,7.7,0,0,1,2.08.17,11.58,11.58,0,0,1,4.36,1.6,7.64,7.64,0,0,1,2.34,9.64c-.12.22-.32.46-.56.4a.57.57,0,0,1-.31-.32c-1-2-.65-4.58-2.17-6.17-.44-.46-1-.86-1.14-1.49a38,38,0,0,0-5.22.56,4.94,4.94,0,0,0-1.8.58,4.77,4.77,0,0,0-1.73,3.3,7.67,7.67,0,0,1-1.2,3.6c-.9-.93-.57-2.44-.54-3.73"/><path class="cls-6" d="M135.66,17.67a.77.77,0,0,1,.65-.3,2.8,2.8,0,0,1,2.31.6"/><path class="cls-6" d="M132.57,17.79c-.21-.36-.7-.41-1.12-.4a3.54,3.54,0,0,0-2.19.59"/><path class="cls-6" d="M133.45,18.52a1.07,1.07,0,0,1,.45.93"/><path class="cls-6" d="M130.19,19.17c0-.09.05-.17.13-.22a1.82,1.82,0,0,1,1.8-.19c.21.1.31.06.47.22a1.28,1.28,0,0,1-1.74.65"/><path class="cls-6" d="M138.48,19.31c-.19-.25-.39-.17-.66-.35a1.1,1.1,0,0,0-.91-.18c-.38.12-.5,0-.87.14a.75.75,0,0,0,.27.71.77.77,0,0,0,.76.09,1.43,1.43,0,0,0,.84-.16"/><path class="cls-13" d="M142.09,19.35c.14-.2.48-.07.59.14a1.13,1.13,0,0,1-.27,1.17,3.37,3.37,0,0,0-.74,1c0,.12-.06.24-.1.36a1.67,1.67,0,0,1-.33.5h-.38a1,1,0,0,1,.08-.77.34.34,0,0,0,.21-.45"/><path class="cls-13" d="M127.12,21a1.76,1.76,0,0,0-.3-1.32c-.12,0-.2-.2-.33-.18s-.1.06-.14.12a3.71,3.71,0,0,0-.39.77"/><path class="cls-14" d="M132.13,19.38a.46.46,0,0,1-.47.46.47.47,0,0,1-.48-.46.48.48,0,0,1,.48-.46.47.47,0,0,1,.47.46"/><path class="cls-14" d="M137.72,19.38a.48.48,0,1,1-.48-.46.47.47,0,0,1,.48.46"/><path class="cls-6" d="M128.75,23.51a.81.81,0,0,1-.4.5"/><path class="cls-6" d="M140.26,22.9a.85.85,0,0,0,.08.68"/><path class="cls-7" d="M128.56,23.89a1.71,1.71,0,0,1,.06-.5,3.53,3.53,0,0,1,2.58-2.51,7.13,7.13,0,0,0,.8-.18,5.56,5.56,0,0,0,1.29-.88,1.59,1.59,0,0,1,1.47-.34,3.1,3.1,0,0,1,.87.79c.65.65,1.61.92,2.3,1.54.29.26.53.58.83.83a1.21,1.21,0,0,0,1.09.31c-.11,1.11-.22,2.21-.32,3.31a3.86,3.86,0,0,0,.19,2.16,8.44,8.44,0,0,0-2.89,1.8,3.85,3.85,0,0,1-3.15,1c-1.26-.32-2-1.64-3.13-2.26a1.93,1.93,0,0,1-.59-.38c-.34-.36-.26-.93-.25-1.42a3.88,3.88,0,0,0-.58-2.09,2.83,2.83,0,0,1-.57-1.2"/><path class="cls-6" d="M128.56,23.89a1.71,1.71,0,0,1,.06-.5,3.53,3.53,0,0,1,2.58-2.51,7.13,7.13,0,0,0,.8-.18,5.56,5.56,0,0,0,1.29-.88,1.59,1.59,0,0,1,1.47-.34,3.1,3.1,0,0,1,.87.79c.65.65,1.61.92,2.3,1.54.29.26.53.58.83.83a1.21,1.21,0,0,0,1.09.31c-.11,1.11-.22,2.21-.32,3.31a3.86,3.86,0,0,0,.19,2.16,8.44,8.44,0,0,0-2.89,1.8,3.85,3.85,0,0,1-3.15,1c-1.26-.32-2-1.64-3.13-2.26a1.93,1.93,0,0,1-.59-.38c-.34-.36-.26-.93-.25-1.42a3.88,3.88,0,0,0-.58-2.09A2.83,2.83,0,0,1,128.56,23.89Z"/><path class="cls-5" d="M134.28,30.77a2,2,0,0,1-.86-.37c-1.07-.73-1.91-1.94-3.19-2.08a5.76,5.76,0,0,0-.91-4.61.68.68,0,0,1-.17-.4.64.64,0,0,1,.23-.36,4.06,4.06,0,0,1,1-.77c.82-.4,1.87-.24,2.59-.8a3.42,3.42,0,0,1,.6-.48c.63-.29,1.79-.14,2,.5.22.83,1.8,1.64,2.92,2.09a1.23,1.23,0,0,1,.55.33,1.26,1.26,0,0,1,.11.94A15.44,15.44,0,0,0,139,28c-1.45.22-2.26,1.8-3.53,2.53a1.8,1.8,0,0,1-1.17.29"/><path class="cls-13" d="M134.28,30.77a2,2,0,0,1-.86-.37c-1.07-.73-1.91-1.94-3.19-2.08a5.76,5.76,0,0,0-.91-4.61.68.68,0,0,1-.17-.4.64.64,0,0,1,.23-.36,4.06,4.06,0,0,1,1-.77c.82-.4,1.87-.24,2.59-.8a3.42,3.42,0,0,1,.6-.48c.63-.29,1.79-.14,2,.5.22.83,1.8,1.64,2.92,2.09a1.23,1.23,0,0,1,.55.33,1.26,1.26,0,0,1,.11.94A15.44,15.44,0,0,0,139,28c-1.45.22-2.26,1.8-3.53,2.53A1.8,1.8,0,0,1,134.28,30.77Z"/><path class="cls-13" d="M130.66,25.05a3.32,3.32,0,0,1,1.15-.38c1-.06,1.92.84,2.94.81a7.69,7.69,0,0,0,1.47-.36,2.88,2.88,0,0,1,1.91.25"/><path class="cls-13" d="M131,27.08a.8.8,0,0,1,.94.05c.28.19.49.46.77.65a3,3,0,0,0,2.6,0,3.82,3.82,0,0,1,2.62-.28"/><path class="cls-15" d="M128.61,23c-.18-.57-.66-1.81-1.09-2.9-.26-.66-.5-1.29-.63-1.65l.47-.17c.13.35.37,1,.63,1.64.43,1.1.73,1.92.92,2.5Z"/><path class="cls-6" d="M128.61,23c-.18-.57-.66-1.81-1.09-2.9-.26-.66-.5-1.29-.63-1.65l.47-.17c.13.35.37,1,.63,1.64.43,1.1.73,1.92.92,2.5Z"/><path class="cls-15" d="M140.22,23.24l-.35-.37a6.26,6.26,0,0,0,1-2.17A12.72,12.72,0,0,1,142.1,18l.37-.2a23.9,23.9,0,0,1-1.1,3.08,6.27,6.27,0,0,1-1.15,2.38"/><path class="cls-6" d="M140.22,23.24l-.35-.37a6.26,6.26,0,0,0,1-2.17A12.72,12.72,0,0,1,142.1,18l.37-.2a23.9,23.9,0,0,1-1.1,3.08A6.27,6.27,0,0,1,140.22,23.24Z"/><path class="cls-6" d="M81.85,65.43c0,.32-.36.49-.66.6a6.62,6.62,0,0,1-2.34.52,2.52,2.52,0,0,1-2.09-1"/><path class="cls-6" d="M24.46,59.35c1.45-.47,2.91-.94,4.33-1.49a36.33,36.33,0,0,0,4.2-2"/><path class="cls-6" d="M23.8,58.69c1.15-1.13,2.89-1.36,4.34-2.07s2.47-1.75,3.92-2.07"/><path class="cls-17" d="M17.88,57.46a1.45,1.45,0,0,1,1-.38,5.53,5.53,0,0,1,4.53,1.86A1.49,1.49,0,0,1,23.86,60a1.73,1.73,0,0,1-.3.68l-.91,1.44a2.41,2.41,0,0,1-.83.93,1.28,1.28,0,0,1-.62,1.13,1.29,1.29,0,0,1-1.29,0,1.39,1.39,0,0,1-1.13,1.19c-.59.06-1.18-.58-1-1.12a4,4,0,0,1-1.24,0l.43.23c.12.12,0,.32-.15.39s-.34.1-.43.24a2.63,2.63,0,0,0-.09.3c-.13.36-.71.34-1,0a1.64,1.64,0,0,1-.25-1.1,26.06,26.06,0,0,1,.27-3.3,2.78,2.78,0,0,1,1-2c.32-.21.74-.29,1-.59s.27-.72.52-1"/><path class="cls-6" d="M17.88,57.46a1.45,1.45,0,0,1,1-.38,5.53,5.53,0,0,1,4.53,1.86A1.49,1.49,0,0,1,23.86,60a1.73,1.73,0,0,1-.3.68l-.91,1.44a2.41,2.41,0,0,1-.83.93,1.27,1.27,0,0,1-1.91,1.13,1.39,1.39,0,0,1-1.13,1.19c-.59.06-1.19-.58-1-1.12a4,4,0,0,1-1.24,0l.43.23c.12.12,0,.32-.15.39s-.34.1-.43.24a2.63,2.63,0,0,0-.09.3c-.13.36-.71.34-1,0a1.64,1.64,0,0,1-.25-1.1,26.06,26.06,0,0,1,.27-3.3,2.78,2.78,0,0,1,1-2c.32-.21.74-.29,1-.59S17.63,57.75,17.88,57.46Z"/><path class="cls-13" d="M17.59,62c.67.3,1,1,1.69,1.36a2,2,0,0,1,.47.26.38.38,0,0,1,.09.48"/><path class="cls-13" d="M19.75,61a3.07,3.07,0,0,0,.95,1.07c.22.12.46.2.67.34a.66.66,0,0,1,.35.61"/><path class="cls-13" d="M21.49,60l.58.28a2.3,2.3,0,0,1,.7.44.78.78,0,0,1,.23.77"/><path class="cls-13" d="M21.71,59.71a1.07,1.07,0,0,1,.15-1.24"/><path class="cls-13" d="M16.5,65s.07,0,.07,0,0-.07-.08-.09l-.35-.17"/><path class="cls-17" d="M70,57.87a2.54,2.54,0,0,1,2.17.84,7.65,7.65,0,0,0,2.07,1.21,1.41,1.41,0,0,0,.52.15,2.25,2.25,0,0,0,.68-.16,3,3,0,0,1,2.46,1,4,4,0,0,1,1.63,2.54,2.26,2.26,0,0,1-2.37,2.31c-.57,0-1.09-.33-1.65-.43s-1,0-1.53-.1a1.41,1.41,0,0,1-1.18-.85,1.89,1.89,0,0,0-.83.89c-.13.28-.19.58-.34.84a.73.73,0,0,1-.74.41c-.39-.09-.51-.61-.41-1a5.41,5.41,0,0,0,.32-1.16.73.73,0,0,1-1.09-.18,1.91,1.91,0,0,1-.19-1.25c-.26.45-.59.33-1,0a1.81,1.81,0,0,1-.89-1.16,2.55,2.55,0,0,1-.14-1c.1.34-.08,1-.54.73a1.9,1.9,0,0,1,.63-2.73A6.09,6.09,0,0,1,70,57.87"/><path class="cls-6" d="M70,57.87a2.54,2.54,0,0,1,2.17.84,7.65,7.65,0,0,0,2.07,1.21,1.41,1.41,0,0,0,.52.15,2.25,2.25,0,0,0,.68-.16,3,3,0,0,1,2.46,1,4,4,0,0,1,1.63,2.54,2.26,2.26,0,0,1-2.37,2.31c-.57,0-1.09-.33-1.65-.43s-1,0-1.53-.1a1.41,1.41,0,0,1-1.18-.85,1.89,1.89,0,0,0-.83.89c-.13.28-.19.58-.34.84a.73.73,0,0,1-.74.41c-.39-.09-.51-.61-.41-1a5.41,5.41,0,0,0,.32-1.16.73.73,0,0,1-1.09-.18,1.91,1.91,0,0,1-.19-1.25c-.26.45-.59.33-1,0a1.81,1.81,0,0,1-.89-1.16,2.55,2.55,0,0,1-.14-1c.1.34-.08,1-.54.73a1.9,1.9,0,0,1,.63-2.73A6.09,6.09,0,0,1,70,57.87Z"/><path class="cls-13" d="M74.87,60.13a.65.65,0,0,1,.56.15,1.7,1.7,0,0,1,.38.46l.55.81"/><path class="cls-13" d="M74.75,64.66a4.6,4.6,0,0,1,2.11-.33"/><path class="cls-13" d="M73.13,64.26a3.46,3.46,0,0,1,1.56-.5"/><path class="cls-13" d="M72.41,62.38l.09-.15-.86.57a1.8,1.8,0,0,0-.37.3,1.86,1.86,0,0,0-.38,1.05"/><path class="cls-13" d="M71.23,61a3.45,3.45,0,0,1-1.09.53.85.85,0,0,0-.31.13.7.7,0,0,0-.17.38,6.11,6.11,0,0,0-.09.86"/><path class="cls-13" d="M69.45,59.61l-1.35.51a1.22,1.22,0,0,0-.45.24.45.45,0,0,0-.14.46"/><path class="cls-13" d="M17.25,58.65a1.35,1.35,0,0,0-.5,1.13A1.89,1.89,0,0,1,16.43,61c-.09.09-.19.16-.28.24a1.41,1.41,0,0,0-.47,1"/><path class="cls-13" d="M17.92,57.45l-3.23-.51"/><path class="cls-13" d="M15.7,70.33a2.07,2.07,0,0,1,1.89-.12"/><path class="cls-6" d="M59.17,69.77a94.19,94.19,0,0,1-33.76-4.84"/><path class="cls-6" d="M37.66,69.54c-3.11-.19-6.23-.24-9.34-.14"/><path class="cls-13" d="M65.54,48.53a3.46,3.46,0,0,0-.77-1.88,65,65,0,0,1-4.54-8.26,1.89,1.89,0,0,0-.85-1.06c-.51,1.67,1.22,3.28,1.15,5"/><path class="cls-6" d="M69.31,51.79a4.15,4.15,0,0,1,3.19-.09"/><path class="cls-6" d="M70.67,57.34a2.9,2.9,0,0,1,0-2,6.4,6.4,0,0,0,.73-2"/><path class="cls-6" d="M141.24,30.74a2.55,2.55,0,0,1-.92-.49,3.37,3.37,0,0,1-.85-1.85,13.28,13.28,0,0,1,.79-4.77.75.75,0,0,0,.89-.06,8,8,0,0,0,1.93-3.17,3.6,3.6,0,0,0,.08-1.42c-.11-.36-.66-.57-.87-.25a10.76,10.76,0,0,0-2.12-5.47A8.41,8.41,0,0,0,138,11a6.1,6.1,0,0,0-7.86,1.15,10.77,10.77,0,0,0-1.07,1.67,14.27,14.27,0,0,0-1.75,4.77c-.56-.78-1,.16-1.25.51a2,2,0,0,0-.26.63c-.1.67.49,1.2.83,1.79.53.94.65,2.41,1.71,2.59a.65.65,0,0,1,.37.11.44.44,0,0,1,.1.22c.39,1.4.78,2.81,1.18,4.21.16.59.2,1.42-.39,1.6a1.81,1.81,0,0,1-.76-.06,3.47,3.47,0,0,0-1.27.16c-2.5.63-1.79-.45-3.46-.28a2.5,2.5,0,0,0-3.61.31,6.65,6.65,0,0,1-.36.56,3.71,3.71,0,0,1-.57.55,8,8,0,0,0-.26,11.74c1.86,1.79,4.44,2.58,6.94,3.21,3.88,1,7.9,1.76,11.87,1.2a36.05,36.05,0,0,0,9.43-3.18,24.82,24.82,0,0,0,3.17-1.61A23.76,23.76,0,0,0,154,40.22a5.28,5.28,0,0,0,1-1.18,4.57,4.57,0,0,0,.07-3.47,4.53,4.53,0,0,0-2.55-3.39,9.71,9.71,0,0,0-1.59-.84l-2.33-.41a2.18,2.18,0,0,0-.95,0,5.83,5.83,0,0,0-.71.35,3.1,3.1,0,0,1-1.86,0C143.86,31,142.47,31.2,141.24,30.74Z"/><path class="cls-8" d="M119.66,33.05a6.89,6.89,0,0,1,4.74,3.05,1.43,1.43,0,0,0,.58.61,1.16,1.16,0,0,0,.64,0c1.5-.31,3.11-1,4.48-.32,1,.49,1.5,1.54,2.35,2.2a6.28,6.28,0,0,0,2.93,1,37.41,37.41,0,0,0,4,.41,3.69,3.69,0,0,1,1.15.18,3.61,3.61,0,0,0,.61.26c.54.11,1-.31,1.42-.69a22,22,0,0,1,3.16-2.62,25,25,0,0,1,2.93-1.58l2.73-1.32a2.78,2.78,0,0,1,.79-.29,2.37,2.37,0,0,1,.65,0,6.09,6.09,0,0,1,2.71,1.1c1,.78,1.8,2,3,2.5a6.64,6.64,0,0,0,1.4.41l3.72.79c1.52.33,3,.26,4.56.58a.82.82,0,0,1,.48.22,1.29,1.29,0,0,1,.17.5c.2.85,1.13,1.38,1.34,2.23a2.65,2.65,0,0,1-.06,1.25,20.81,20.81,0,0,1-3.63,7.94c-.37.5-.76,1-1.15,1.45l-1.79,2.19a2.53,2.53,0,0,0-.48.78,2.3,2.3,0,0,0-.09.64c0,3.12,1.87,6.24.92,9.21-.51,1.61.33,3.23.87,4.84.88,2.63.8,5.48.81,8.25s.11,5.27.31,7.89c.12,1.61.28,13.28,1,14.72-.08.4-.77.56-1.18.61-1.38.18-2.77.26-4.15.45-3.08.42-6.08,1.34-9.12,2a23.19,23.19,0,0,1-9.26.52c-4.58-.87-9.24-2.14-13.77-1-1.22.3-2.4.75-3.63,1-3.22.68-6.55,0-9.77-.7a4.62,4.62,0,0,1-3.37-3.6c-.33-1.7,0-13.45.41-15.13.29-1.32.58-2.64.86-4a7.59,7.59,0,0,0,.25-1.7,15.72,15.72,0,0,0-.3-2.26,8.36,8.36,0,0,1,.18-3.23c.28-1.1.79-2.12,1.06-3.22a49,49,0,0,0,.55-5.16c.11-.73.29-1.45.35-2.19a13.3,13.3,0,0,0-.11-2.44c-.08-.79-.31-1.77-1.09-1.93A5.09,5.09,0,0,1,111.26,57a10.7,10.7,0,0,0-1.11-2.28c-.27-.32-.62-.56-.91-.86A7.16,7.16,0,0,1,108.05,52l-1.17-2.37a21.25,21.25,0,0,1-1.95-5,2.16,2.16,0,0,1,0-1.26,2.58,2.58,0,0,1,.61-.75,18.16,18.16,0,0,0,2.49-3,5.77,5.77,0,0,0,2-1,27.27,27.27,0,0,1,6.14-2.81,1.22,1.22,0,0,1,.11-1.45,3.35,3.35,0,0,1,1.28-.87,4.05,4.05,0,0,1,2.06-.45"/><path class="cls-6" d="M119.66,33.05a6.89,6.89,0,0,1,4.74,3.05,1.43,1.43,0,0,0,.58.61,1.16,1.16,0,0,0,.64,0c1.5-.31,3.11-1,4.48-.32,1,.49,1.5,1.54,2.35,2.2a6.28,6.28,0,0,0,2.93,1,37.41,37.41,0,0,0,4,.41,3.69,3.69,0,0,1,1.15.18,3.61,3.61,0,0,0,.61.26c.54.11,1-.31,1.42-.69a22,22,0,0,1,3.16-2.62,25,25,0,0,1,2.93-1.58l2.73-1.32a2.78,2.78,0,0,1,.79-.29,2.37,2.37,0,0,1,.65,0,6.09,6.09,0,0,1,2.71,1.1c1,.78,1.8,2,3,2.5a6.64,6.64,0,0,0,1.4.41l3.72.79c1.52.33,3,.26,4.56.58a.82.82,0,0,1,.48.22,1.29,1.29,0,0,1,.17.5c.2.85,1.13,1.38,1.34,2.23a2.65,2.65,0,0,1-.06,1.25,20.81,20.81,0,0,1-3.63,7.94c-.37.5-.76,1-1.15,1.45l-1.79,2.19a2.53,2.53,0,0,0-.48.78,2.3,2.3,0,0,0-.09.64c0,3.12,1.87,6.24.92,9.21-.51,1.61.33,3.23.87,4.84.88,2.63.8,5.48.81,8.25s.11,5.27.31,7.89c.12,1.61.28,13.28,1,14.72-.08.4-.77.56-1.18.61-1.38.18-2.77.26-4.15.45-3.08.42-6.08,1.34-9.12,2a23.19,23.19,0,0,1-9.26.52c-4.58-.87-9.24-2.14-13.77-1-1.22.3-2.4.75-3.63,1-3.22.68-6.55,0-9.77-.7a4.62,4.62,0,0,1-3.37-3.6c-.33-1.7,0-13.45.41-15.13.29-1.32.58-2.64.86-4a7.59,7.59,0,0,0,.25-1.7,15.72,15.72,0,0,0-.3-2.26,8.36,8.36,0,0,1,.18-3.23c.28-1.1.79-2.12,1.06-3.22a49,49,0,0,0,.55-5.16c.11-.73.29-1.45.35-2.19a13.3,13.3,0,0,0-.11-2.44c-.08-.79-.31-1.77-1.09-1.93A5.09,5.09,0,0,1,111.26,57a10.7,10.7,0,0,0-1.11-2.28c-.27-.32-.62-.56-.91-.86A7.16,7.16,0,0,1,108.05,52l-1.17-2.37a21.25,21.25,0,0,1-1.95-5,2.16,2.16,0,0,1,0-1.26,2.58,2.58,0,0,1,.61-.75,18.16,18.16,0,0,0,2.49-3,5.77,5.77,0,0,0,2-1,27.27,27.27,0,0,1,6.14-2.81,1.22,1.22,0,0,1,.11-1.45,3.35,3.35,0,0,1,1.28-.87A4.05,4.05,0,0,1,119.66,33.05Z"/><path class="cls-10" d="M119.66,33.05a6.89,6.89,0,0,1,4.74,3.05,1.43,1.43,0,0,0,.58.61,1.16,1.16,0,0,0,.64,0c1.5-.31,3.11-1,4.48-.32,1,.49,1.5,1.54,2.35,2.2a6.28,6.28,0,0,0,2.93,1,37.41,37.41,0,0,0,4,.41,3.69,3.69,0,0,1,1.15.18,3.61,3.61,0,0,0,.61.26c.54.11,1-.31,1.42-.69a22,22,0,0,1,3.16-2.62,25,25,0,0,1,2.93-1.58l2.73-1.32a2.78,2.78,0,0,1,.79-.29,2.37,2.37,0,0,1,.65,0,6.09,6.09,0,0,1,2.71,1.1c1,.78,1.8,2,3,2.5a6.64,6.64,0,0,0,1.4.41l3.72.79c1.52.33,3,.26,4.56.58a.82.82,0,0,1,.48.22,1.29,1.29,0,0,1,.17.5c.2.85,1.13,1.38,1.34,2.23a2.65,2.65,0,0,1-.06,1.25,20.81,20.81,0,0,1-3.63,7.94c-.37.5-.76,1-1.15,1.45l-1.79,2.19a2.53,2.53,0,0,0-.48.78,2.3,2.3,0,0,0-.09.64c0,3.12,1.87,6.24.92,9.21-.51,1.61.33,3.23.87,4.84.88,2.63.8,5.48.81,8.25s.11,5.27.31,7.89c.12,1.61.28,13.28,1,14.72-.08.4-.77.56-1.18.61-1.38.18-2.77.26-4.15.45-3.08.42-6.08,1.34-9.12,2a23.19,23.19,0,0,1-9.26.52c-4.58-.87-9.24-2.14-13.77-1-1.22.3-2.4.75-3.63,1-3.22.68-6.55,0-9.77-.7a4.62,4.62,0,0,1-3.37-3.6c-.33-1.7,0-13.45.41-15.13.29-1.32.58-2.64.86-4a7.59,7.59,0,0,0,.25-1.7,15.72,15.72,0,0,0-.3-2.26,8.36,8.36,0,0,1,.18-3.23c.28-1.1.79-2.12,1.06-3.22a49,49,0,0,0,.55-5.16c.11-.73.29-1.45.35-2.19a13.3,13.3,0,0,0-.11-2.44c-.08-.79-.31-1.77-1.09-1.93A5.09,5.09,0,0,1,111.26,57a10.7,10.7,0,0,0-1.11-2.28c-.27-.32-.62-.56-.91-.86A7.16,7.16,0,0,1,108.05,52l-1.17-2.37a21.25,21.25,0,0,1-1.95-5,2.16,2.16,0,0,1,0-1.26,2.58,2.58,0,0,1,.61-.75,18.16,18.16,0,0,0,2.49-3,5.77,5.77,0,0,0,2-1,27.27,27.27,0,0,1,6.14-2.81,1.22,1.22,0,0,1,.11-1.45,3.35,3.35,0,0,1,1.28-.87,4.05,4.05,0,0,1,2.06-.45"/><path class="cls-11" d="M119.66,33.05a6.89,6.89,0,0,1,4.74,3.05,1.43,1.43,0,0,0,.58.61,1.16,1.16,0,0,0,.64,0c1.5-.31,3.11-1,4.48-.32,1,.49,1.5,1.54,2.35,2.2a6.28,6.28,0,0,0,2.93,1,37.41,37.41,0,0,0,4,.41,3.69,3.69,0,0,1,1.15.18,3.61,3.61,0,0,0,.61.26c.54.11,1-.31,1.42-.69a22,22,0,0,1,3.16-2.62,25,25,0,0,1,2.93-1.58l2.73-1.32a2.78,2.78,0,0,1,.79-.29,2.37,2.37,0,0,1,.65,0,6.09,6.09,0,0,1,2.71,1.1c1,.78,1.8,2,3,2.5a6.64,6.64,0,0,0,1.4.41l3.72.79c1.52.33,3,.26,4.56.58a.82.82,0,0,1,.48.22,1.29,1.29,0,0,1,.17.5c.2.85,1.13,1.38,1.34,2.23a2.65,2.65,0,0,1-.06,1.25,20.81,20.81,0,0,1-3.63,7.94c-.37.5-.76,1-1.15,1.45l-1.79,2.19a2.53,2.53,0,0,0-.48.78,2.3,2.3,0,0,0-.09.64c0,3.12,1.87,6.24.92,9.21-.51,1.61.33,3.23.87,4.84.88,2.63.8,5.48.81,8.25s.11,5.27.31,7.89c.12,1.61.28,13.28,1,14.72-.08.4-.77.56-1.18.61-1.38.18-2.77.26-4.15.45-3.08.42-6.08,1.34-9.12,2a23.19,23.19,0,0,1-9.26.52c-4.58-.87-9.24-2.14-13.77-1-1.22.3-2.4.75-3.63,1-3.22.68-6.55,0-9.77-.7a4.62,4.62,0,0,1-3.37-3.6c-.33-1.7,0-13.45.41-15.13.29-1.32.58-2.64.86-4a7.59,7.59,0,0,0,.25-1.7,15.72,15.72,0,0,0-.3-2.26,8.36,8.36,0,0,1,.18-3.23c.28-1.1.79-2.12,1.06-3.22a49,49,0,0,0,.55-5.16c.11-.73.29-1.45.35-2.19a13.3,13.3,0,0,0-.11-2.44c-.08-.79-.31-1.77-1.09-1.93A5.09,5.09,0,0,1,111.26,57a10.7,10.7,0,0,0-1.11-2.28c-.27-.32-.62-.56-.91-.86A7.16,7.16,0,0,1,108.05,52l-1.17-2.37a21.25,21.25,0,0,1-1.95-5,2.16,2.16,0,0,1,0-1.26,2.58,2.58,0,0,1,.61-.75,18.16,18.16,0,0,0,2.49-3,5.77,5.77,0,0,0,2-1,27.27,27.27,0,0,1,6.14-2.81,1.22,1.22,0,0,1,.11-1.45,3.35,3.35,0,0,1,1.28-.87A4.05,4.05,0,0,1,119.66,33.05Z"/><path class="cls-18" d="M150.39,49.45a53.37,53.37,0,0,0,.46,5.78,2.17,2.17,0,0,0,.6,1.42,3.17,3.17,0,0,0,1.11.43,4,4,0,0,1,1.69,1c.35.34.77.79,1.23.64a1.3,1.3,0,0,0,.44-.29c1.84-1.63,4.37-2.19,6.78-2.69"/><path class="cls-18" d="M148.52,42.7c.45-.74,0-2.06.45-2.8a3.73,3.73,0,0,1,1-1l2.3-1.81a1.38,1.38,0,0,1,.94-.4,1.61,1.61,0,0,1,.55.21,3.54,3.54,0,0,0,1.69.37"/><path class="cls-13" d="M154.68,40.94a2.64,2.64,0,0,1,1.22,1.64,10.52,10.52,0,0,0,.68,2c.19.34.44.64.65,1a4.72,4.72,0,0,1,.64,3.73,2.16,2.16,0,0,1-.81,1.35c-.37.25-.86.33-1.15.67"/><path class="cls-13" d="M162.13,40a8.68,8.68,0,0,0-1,5.76c.11.58.28,1.16.36,1.75a5.68,5.68,0,0,1-1.23,4.25"/><path class="cls-13" d="M164.4,51.24a2.62,2.62,0,0,0,.46-1.58,8.68,8.68,0,0,0-.78-3.92c-.22-.46-.46-1-.13-1.43a6.15,6.15,0,0,0,2.22,1.27"/><path class="cls-18" d="M144,45a2,2,0,0,0-1.63-1.26,5.2,5.2,0,0,0-2.14.2c-.81.19-1.61.42-2.39.68"/><path class="cls-13" d="M145,50c-.55,0-.77.73-.83,1.28a21.84,21.84,0,0,0,1.3,10.22c.9,2.35,2.24,4.73,1.81,7.21A21.86,21.86,0,0,0,147.1,71a13.3,13.3,0,0,0,.21,2.43c.34,2.75-1.58,12.54-2.56,15.14"/><path class="cls-18" d="M127.15,44.59a1.28,1.28,0,0,0,1.3.32,2.89,2.89,0,0,0,.77-.47,8.13,8.13,0,0,1,5.34-1.56"/><path class="cls-18" d="M127.5,42.75a.14.14,0,0,1,0-.26,1,1,0,0,1,1,0,1,1,0,0,1,.54.83"/><path class="cls-13" d="M121.68,39.75c-.76-1.67-1.82-1.8-2.18-3.59"/><path class="cls-18" d="M127.63,39.18c.2-.27.4-.55.61-.82a1.15,1.15,0,0,0,.24-.48.39.39,0,0,0-.23-.44"/><path class="cls-18" d="M125.66,47.21c.15-.1.45,0,.47.18.27,1.93,1.13,2,1.06,3.11a3.16,3.16,0,0,0,0,1.37"/><path class="cls-18" d="M125.46,50.84a8.53,8.53,0,0,0,.06,1.34,5.4,5.4,0,0,0,.9,1.6,2,2,0,0,1,.35,1.74"/><path class="cls-18" d="M127.57,47.28a2.59,2.59,0,0,1,1.82.45,2.05,2.05,0,0,1,.87,1.63,1.13,1.13,0,0,0,0,.45,1.34,1.34,0,0,0,.27.31A1.38,1.38,0,0,1,131,51"/><path class="cls-18" d="M140.87,45.61c-1.71,0-2.74.82-4,1.31a6.83,6.83,0,0,1-1.3.43c-1.33.22-2.66-.54-4-.4"/><path class="cls-6" d="M138.94,54.8a6.08,6.08,0,0,0,.08-2.21,2.66,2.66,0,0,0-.55-1.52,4,4,0,0,0-1.89-.89c-.67-.21-1.4-.63-1.5-1.33"/><path class="cls-18" d="M123.78,51.94a3.05,3.05,0,0,1,1.92,3.26,1.21,1.21,0,0,1-.19.53,1.74,1.74,0,0,1-1.42.54,1.69,1.69,0,0,1,.59,1.18,5,5,0,0,1-.11,1.34l-.57-.07a1.94,1.94,0,0,0-.48.72"/><path class="cls-13" d="M122.39,58l-2.43.2a5.31,5.31,0,0,1-1.26,0,5.14,5.14,0,0,1-1.45-.61,6.29,6.29,0,0,1-1-.63,8.54,8.54,0,0,1-1.56-2.13,3.47,3.47,0,0,0-2-1.68"/><path class="cls-13" d="M119.62,44a18.46,18.46,0,0,1-.59,4.13c-.15.56-.33,1.12-.44,1.69a15.18,15.18,0,0,0-.18,2.52,2.55,2.55,0,0,0,.48,1.85c.65.64,1.73.38,2.61.6"/><path class="cls-13" d="M120.23,42.42a4.39,4.39,0,0,0-3.56,1,6.39,6.39,0,0,0-1,1l-4.57,5.39a1.27,1.27,0,0,1,.13-1.09"/><path class="cls-13" d="M115,37.88a3.25,3.25,0,0,0-1.13,2.45.66.66,0,0,0,.06.31,1.14,1.14,0,0,0,.25.24,1.32,1.32,0,0,1,.48,1.22"/><path class="cls-13" d="M107.61,41.51c.19-.36.67-.44,1.07-.48a1.35,1.35,0,0,1,.6,0c.35.13.53.51.77.79a1.8,1.8,0,0,0,1.67.58"/><path class="cls-13" d="M112.34,44.29a2.55,2.55,0,0,1-.41,2.22c-.18.24-.4.44-.57.68a4.36,4.36,0,0,0-.33.6,28.22,28.22,0,0,0-1.6,4.15"/><path class="cls-13" d="M141.65,42.39a1.46,1.46,0,0,0-1.57-2"/><path class="cls-13" d="M127.25,54.72a1,1,0,0,1,1.18.19A2.43,2.43,0,0,1,129,56c.81,2.8.25,5.79-.32,8.65A81.41,81.41,0,0,0,126.85,77"/><path class="cls-13" d="M134.52,54.8c0-.59.93-.78,1.39-.4a2,2,0,0,1,.54,1.63,13.55,13.55,0,0,1-.53,3c-1.32,5.19-3.68,18.5-3,25.84"/><path class="cls-6" d="M123.65,59.12v-.24a2.62,2.62,0,0,0-2.15-.13l-2.21.51a8.67,8.67,0,0,0-1,.28c-.49.18-.94.45-1.44.59a1.69,1.69,0,0,1-1.47-.2"/><path class="cls-6" d="M150.74,50a3,3,0,0,0,3.1,1.94"/><path class="cls-17" d="M127.9,39.77c.39,1.12-.08,1.76-.6,1.81.21.53.3.7.44,1.14a1.65,1.65,0,0,1-.24,1.48c-.13.13-.26.33-.43.36a2.1,2.1,0,0,1-.21,1.31c-.15.5-.84.56-1,.51.37,1.55-.25,2-.67,1.93-.16,0-.42-.18-.26-.08s1.21,2.12.28,2.86a1.68,1.68,0,0,1-1.65.22c-1.34-.5-1.83-.38-2.76-1.07a2.55,2.55,0,0,1-.83-.93,2.79,2.79,0,0,1-.13-1.22,16.94,16.94,0,0,1,1-4.77,5,5,0,0,1,2-2.78,3.28,3.28,0,0,0,.84-.52c.68-.72.15-2.21,1.23-2.6a1.26,1.26,0,0,1,1.18.21,4.89,4.89,0,0,1,1.78,2.14"/><path class="cls-18" d="M127.9,39.77c.39,1.12-.08,1.76-.6,1.81.21.53.3.7.44,1.14a1.65,1.65,0,0,1-.24,1.48c-.13.13-.26.33-.43.36a2.1,2.1,0,0,1-.21,1.31c-.15.5-.84.56-1,.51.37,1.55-.25,2-.67,1.93-.16,0-.42-.18-.26-.08s1.21,2.12.28,2.86a1.68,1.68,0,0,1-1.65.22c-1.34-.5-1.83-.38-2.76-1.07a2.55,2.55,0,0,1-.83-.93,2.79,2.79,0,0,1-.13-1.22,16.94,16.94,0,0,1,1-4.77,5,5,0,0,1,2-2.78,3.28,3.28,0,0,0,.84-.52c.68-.72.15-2.21,1.23-2.6a1.26,1.26,0,0,1,1.18.21A4.89,4.89,0,0,1,127.9,39.77Z"/><path class="cls-13" d="M124.56,40.22a3.19,3.19,0,0,1,2,.56c.46.32.38.56.73,1"/><path class="cls-13" d="M124.16,42.05a4.74,4.74,0,0,1,2.13.89,6.68,6.68,0,0,1,.84,1.84"/><path class="cls-13" d="M123.47,43.81l1.24.53a1.18,1.18,0,0,1,.49.3,1.53,1.53,0,0,1,.26.66,5.19,5.19,0,0,0,.4,1.08"/><path class="cls-13" d="M122.57,45.13a1.42,1.42,0,0,1,1.28.33c.14.61.28,1.22.43,1.83a1.56,1.56,0,0,0,.23.6c.13.17.25.2.45.42"/><path class="cls-6" d="M153.33,48.7a9.87,9.87,0,0,1-.33-2.42"/><path class="cls-13" d="M125.61,40.27a1.46,1.46,0,0,1,0-.75"/><path class="cls-13" d="M124.91,38.93a2.92,2.92,0,0,1,.12,1.18c.09.07.25-.24.37-.25"/><path class="cls-17" d="M142.29,45.49a7,7,0,0,0,2.84-.67c.44-.2,1-.76,1.5-.92a9.94,9.94,0,0,0,2-.62c.72-.43.86-1,1.65-1.25a3.12,3.12,0,0,1,1-.11,2.29,2.29,0,0,1,1,.16,2.22,2.22,0,0,1,.64.46,8.09,8.09,0,0,1,1.82,2.14,4.69,4.69,0,0,1,.48,2.87,1.9,1.9,0,0,1-.64,1.26.89.89,0,0,1-1.27-.15c0,.45-.55.68-1,.61A4.6,4.6,0,0,0,151,49c-.6.08-1,.67-1.47,1a4.4,4.4,0,0,1-1.34.61c-.54.18-.8.42-1.51.17-.24-.09-.48-.53-.7-.67-.43-.29-1.05-.16-1.48-.45s-.53-.67-.93-.69a1.82,1.82,0,0,0-.45.1,1,1,0,0,1-.89-.21A.78.78,0,0,1,142,48a2,2,0,0,1-1.51-.65,1.12,1.12,0,0,1,.07-1.52,4.34,4.34,0,0,1,1.76-.38"/><path class="cls-18" d="M142.29,45.49a7,7,0,0,0,2.84-.67c.44-.2,1-.76,1.5-.92a9.94,9.94,0,0,0,2-.62c.72-.43.86-1,1.65-1.25a3.12,3.12,0,0,1,1-.11,2.29,2.29,0,0,1,1,.16,2.22,2.22,0,0,1,.64.46,8.09,8.09,0,0,1,1.82,2.14,4.69,4.69,0,0,1,.48,2.87,1.9,1.9,0,0,1-.64,1.26.89.89,0,0,1-1.27-.15c0,.45-.55.68-1,.61A4.6,4.6,0,0,0,151,49c-.6.08-1,.67-1.47,1a4.4,4.4,0,0,1-1.34.61c-.54.18-.8.42-1.51.17-.24-.09-.48-.53-.7-.67-.43-.29-1.05-.16-1.48-.45s-.53-.67-.93-.69a1.82,1.82,0,0,0-.45.1,1,1,0,0,1-.89-.21A.78.78,0,0,1,142,48a2,2,0,0,1-1.51-.65,1.12,1.12,0,0,1,.07-1.52A4.34,4.34,0,0,1,142.29,45.49Z"/><path class="cls-13" d="M143.72,47.5a2.46,2.46,0,0,0-1,.07c-.51.11-.74.23-1.25.34"/><path class="cls-13" d="M145.13,49c-.39,0-1.22,0-1.61,0"/><path class="cls-13" d="M146.88,50.05c-.27,0-.82-.08-1.09-.06"/><path class="cls-13" d="M153.22,48.45c-.21-.52,0-1.12-.08-1.68a2.61,2.61,0,0,0-1.41-1.65"/><path class="cls-5" d="M241.35,127.71H227.77l.3-7.28-1.25,7-12.22.28a22.6,22.6,0,0,1-.21-8.23c1.06-5.78-.64-13.34-.64-13.34l.85-7.57h28.75s-1.27,7.34-.42,4.9c.42,5.11-.28,10.89-.92,16.68s-.66,7.56-.66,7.56"/><path class="cls-9" d="M241.35,127.71H227.77l.3-7.28-1.25,7-12.22.28a22.6,22.6,0,0,1-.21-8.23c1.06-5.78-.64-13.34-.64-13.34l.85-7.57h28.75s-1.27,7.34-.42,4.9c.42,5.11-.28,10.89-.92,16.68S241.35,127.71,241.35,127.71Z"/><path class="cls-8" d="M253.25,84.89a24.83,24.83,0,0,0,1-7.73,28.57,28.57,0,0,1,.07-5.47c.14-1.18.34-2.35.39-3.53a26.36,26.36,0,0,0-.13-3c-.2-2.34-1.46-4.86-.65-7.07a14.85,14.85,0,0,0,1.23-5,15.47,15.47,0,0,0-.3-2.62l-.37-2.16a19,19,0,0,0-1.68-5.86,2.7,2.7,0,0,0-.67-.86c-.85-.62-2-.17-3,.06a6.66,6.66,0,0,1-4.37-.51c-1.05-.51-2.09-1.33-3.24-1.12a11.28,11.28,0,0,0-2.22,1.12,6.14,6.14,0,0,1-3,.24.84.84,0,0,1-.42-.1,1.9,1.9,0,0,1-.3-.33,1.41,1.41,0,0,0-1.25-.33c-.44.07-.86.26-1.29.37a.7.7,0,0,1-.63-.07.72.72,0,0,1-.18-.37l-.31-1.08a2.06,2.06,0,0,0-.48-1,1.29,1.29,0,0,0-1.61,0,2.8,2.8,0,0,0-.87,1.48,4,4,0,0,1-.52,1.32,1,1,0,0,1-1.25.32,1.46,1.46,0,0,0-.11.8c-.67-.16-1.35-.24-2-.39a1.37,1.37,0,0,1-.67-.3,2.62,2.62,0,0,1-.24-.34c-.45-.56-1.3-.5-2-.47a14.73,14.73,0,0,1-6.33-1.58,15.14,15.14,0,0,1-1.93-1,5.2,5.2,0,0,0-1-.56,4,4,0,0,0-2.15.06,9.42,9.42,0,0,0-3.59,1.2A14.31,14.31,0,0,0,205.06,41l-1.5,1.62a4,4,0,0,0-.6.77c-.12.24-.19.51-.31.75a6.67,6.67,0,0,1-.48.7,10.66,10.66,0,0,0-1,1.91,1.28,1.28,0,0,0-.16,1c.23.56,1.14.59,1.35,1.15a1.23,1.23,0,0,1,0,.54,28.89,28.89,0,0,1-1.12,5.67c-.15.48-.39,1-.58,1.45a9.13,9.13,0,0,0-.67,2c-.4,2.44,1.16,4.83,1,7.3-.1,1.32-.22,2.68-.36,4a43.6,43.6,0,0,0-.12,5.94l.13,5s-1.88,10.9-1.66,13.79-.22,5.56.89,5.56H217a64.69,64.69,0,0,1,11.34.89c4.67.67,8.45,1.33,14,.89s9.57-.89,9.57-.89a8.92,8.92,0,0,0,2-7.34,67.23,67.23,0,0,1-.65-8.79"/><path class="cls-6" d="M229,101.24a32.19,32.19,0,0,1-.17,6.39c-.19,1.29-.6,2.54-.74,3.84a47.38,47.38,0,0,0,.14,5.32,31,31,0,0,1-.35,4.2l-.84,6.49"/><path class="cls-6" d="M228.65,109c-.9,6.32-.13,12-.88,18.68"/><path class="cls-16" d="M220.24,16.25a15.15,15.15,0,0,1,0-3.3,5.87,5.87,0,0,1,2-2.88,7,7,0,0,1,3.89-2,7.74,7.74,0,0,1,2.09.17,11.58,11.58,0,0,1,4.36,1.6,7.65,7.65,0,0,1,2.34,9.64c-.12.22-.32.46-.56.4a.57.57,0,0,1-.31-.32c-1-2-.65-4.58-2.17-6.17-.45-.46-1.05-.86-1.14-1.49a38,38,0,0,0-5.22.56,4.94,4.94,0,0,0-1.8.58,4.77,4.77,0,0,0-1.73,3.3,7.67,7.67,0,0,1-1.2,3.6c-.9-.93-.57-2.44-.54-3.73"/><path class="cls-6" d="M228.74,17.67a.77.77,0,0,1,.65-.3,2.81,2.81,0,0,1,2.31.6"/><path class="cls-6" d="M225.64,17.79c-.2-.36-.69-.41-1.11-.4a3.52,3.52,0,0,0-2.19.59"/><path class="cls-6" d="M226.53,18.52a1.07,1.07,0,0,1,.45.93"/><path class="cls-6" d="M223.26,19.17c0-.09.06-.17.14-.22a1.8,1.8,0,0,1,1.79-.19c.22.1.31.06.48.22a1.28,1.28,0,0,1-1.74.65"/><path class="cls-6" d="M231.56,19.31c-.19-.25-.39-.17-.66-.35a1.1,1.1,0,0,0-.91-.18c-.38.12-.51,0-.87.14a.75.75,0,0,0,.27.71.77.77,0,0,0,.76.09,1.43,1.43,0,0,0,.84-.16"/><path class="cls-13" d="M235.17,19.35c.14-.2.48-.07.59.14a1.13,1.13,0,0,1-.27,1.17,3.37,3.37,0,0,0-.74,1c0,.12-.06.24-.1.36a1.67,1.67,0,0,1-.33.5h-.38a1,1,0,0,1,.08-.77.34.34,0,0,0,.2-.45"/><path class="cls-13" d="M220.19,21a1.71,1.71,0,0,0-.29-1.32c-.13,0-.2-.2-.33-.18a.21.21,0,0,0-.14.12,3.71,3.71,0,0,0-.39.77"/><path class="cls-14" d="M225.21,19.38a.48.48,0,0,1-1,0,.48.48,0,0,1,1,0"/><path class="cls-14" d="M230.8,19.38a.47.47,0,0,1-.48.46.46.46,0,0,1-.47-.46.47.47,0,0,1,.47-.46.48.48,0,0,1,.48.46"/><path class="cls-6" d="M221.83,23.51a.81.81,0,0,1-.4.5"/><path class="cls-6" d="M233.34,22.9a.85.85,0,0,0,.08.68"/><path class="cls-7" d="M221.64,23.89a1.43,1.43,0,0,1,.06-.5,3.53,3.53,0,0,1,2.58-2.51,7.13,7.13,0,0,0,.8-.18,5.56,5.56,0,0,0,1.29-.88,1.59,1.59,0,0,1,1.47-.34,2.93,2.93,0,0,1,.86.79c.66.65,1.62.92,2.31,1.54.29.26.53.58.83.83a1.2,1.2,0,0,0,1.09.31l-.33,3.31a4,4,0,0,0,.2,2.16,8.44,8.44,0,0,0-2.89,1.8,3.86,3.86,0,0,1-3.15,1c-1.26-.32-2-1.64-3.13-2.26a2,2,0,0,1-.6-.38c-.33-.36-.25-.93-.24-1.42a4,4,0,0,0-.58-2.09,2.83,2.83,0,0,1-.57-1.2"/><path class="cls-6" d="M221.64,23.89a1.43,1.43,0,0,1,.06-.5,3.53,3.53,0,0,1,2.58-2.51,7.13,7.13,0,0,0,.8-.18,5.56,5.56,0,0,0,1.29-.88,1.59,1.59,0,0,1,1.47-.34,2.93,2.93,0,0,1,.86.79c.66.65,1.62.92,2.31,1.54.29.26.53.58.83.83a1.2,1.2,0,0,0,1.09.31l-.33,3.31a4,4,0,0,0,.2,2.16,8.44,8.44,0,0,0-2.89,1.8,3.86,3.86,0,0,1-3.15,1c-1.26-.32-2-1.64-3.13-2.26a2,2,0,0,1-.6-.38c-.33-.36-.25-.93-.24-1.42a4,4,0,0,0-.58-2.09A2.83,2.83,0,0,1,221.64,23.89Z"/><path class="cls-5" d="M227.36,30.77a2,2,0,0,1-.86-.37c-1.07-.73-1.91-1.94-3.19-2.08a5.76,5.76,0,0,0-.91-4.61.68.68,0,0,1-.17-.4.64.64,0,0,1,.23-.36,3.88,3.88,0,0,1,1-.77c.82-.4,1.87-.24,2.58-.8a3.9,3.9,0,0,1,.61-.48c.63-.29,1.79-.14,2,.5.22.83,1.8,1.64,2.92,2.09a1.29,1.29,0,0,1,.55.33,1.26,1.26,0,0,1,.11.94,15.44,15.44,0,0,0-.12,3.19c-1.46.22-2.26,1.8-3.53,2.53a1.82,1.82,0,0,1-1.17.29"/><path class="cls-13" d="M227.36,30.77a2,2,0,0,1-.86-.37c-1.07-.73-1.91-1.94-3.19-2.08a5.76,5.76,0,0,0-.91-4.61.68.68,0,0,1-.17-.4.64.64,0,0,1,.23-.36,3.88,3.88,0,0,1,1-.77c.82-.4,1.87-.24,2.58-.8a3.9,3.9,0,0,1,.61-.48c.63-.29,1.79-.14,2,.5.22.83,1.8,1.64,2.92,2.09a1.29,1.29,0,0,1,.55.33,1.26,1.26,0,0,1,.11.94,15.44,15.44,0,0,0-.12,3.19c-1.46.22-2.26,1.8-3.53,2.53A1.82,1.82,0,0,1,227.36,30.77Z"/><path class="cls-13" d="M223.73,25.05a3.44,3.44,0,0,1,1.16-.38c1-.06,1.91.84,2.94.81a7.88,7.88,0,0,0,1.47-.36,2.84,2.84,0,0,1,1.9.25"/><path class="cls-13" d="M224.06,27.08a.8.8,0,0,1,.94.05c.28.19.49.46.77.65a3,3,0,0,0,2.6,0,3.79,3.79,0,0,1,2.61-.28"/><path class="cls-15" d="M221.69,23c-.18-.57-.66-1.81-1.09-2.9-.26-.66-.5-1.29-.63-1.65l.47-.17c.13.35.37,1,.63,1.64.43,1.1.73,1.92.91,2.5Z"/><path class="cls-6" d="M221.69,23c-.18-.57-.66-1.81-1.09-2.9-.26-.66-.5-1.29-.63-1.65l.47-.17c.13.35.37,1,.63,1.64.43,1.1.73,1.92.91,2.5Z"/><path class="cls-15" d="M233.3,23.24l-.35-.37a6.26,6.26,0,0,0,1-2.17A12.68,12.68,0,0,1,235.17,18l.38-.2a23.9,23.9,0,0,1-1.1,3.08,6.58,6.58,0,0,1-1.15,2.38"/><path class="cls-6" d="M233.3,23.24l-.35-.37a6.26,6.26,0,0,0,1-2.17A12.68,12.68,0,0,1,235.17,18l.38-.2a23.9,23.9,0,0,1-1.1,3.08A6.58,6.58,0,0,1,233.3,23.24Z"/><path class="cls-16" d="M34.86,16.25a15.15,15.15,0,0,1,0-3.3,5.87,5.87,0,0,1,2-2.88,7,7,0,0,1,3.9-2,7.7,7.7,0,0,1,2.08.17,11.58,11.58,0,0,1,4.36,1.6,7.64,7.64,0,0,1,2.34,9.64c-.12.22-.32.46-.56.4a.57.57,0,0,1-.31-.32c-1-2-.65-4.58-2.17-6.17-.44-.46-1.05-.86-1.14-1.49a38,38,0,0,0-5.22.56,4.94,4.94,0,0,0-1.8.58,4.77,4.77,0,0,0-1.73,3.3A7.67,7.67,0,0,1,35.4,20c-.9-.93-.57-2.44-.54-3.73"/><path class="cls-6" d="M244.51,32.53a1.77,1.77,0,0,0-1.12.88l-.54.77a5,5,0,0,0-.65,1.11c-.34,1,0,2-.15,3"/><path class="cls-6" d="M244.42,34.26c-.2.4-.41.8-.61,1.21a3.08,3.08,0,0,0-.43,1.3c0,.25.05.49.05.73a.87.87,0,0,1-.22.68"/><path class="cls-6" d="M218.22,33.52a26.22,26.22,0,0,1,.06,3.07,4.07,4.07,0,0,1-.4,1.89"/><path class="cls-6" d="M217.21,33.92a4.78,4.78,0,0,0,0-1.51,1.61,1.61,0,0,0-.85-1.18"/><path class="cls-6" d="M214.16,33.16a6.22,6.22,0,0,1,2.4,3.13"/><path class="cls-10" d="M253.25,84.89a24.83,24.83,0,0,0,1-7.73,28.57,28.57,0,0,1,.07-5.47c.14-1.18.34-2.35.39-3.53a26.36,26.36,0,0,0-.13-3c-.2-2.34-1.46-4.86-.65-7.07a14.85,14.85,0,0,0,1.23-5,15.47,15.47,0,0,0-.3-2.62l-.37-2.16a19,19,0,0,0-1.68-5.86,2.7,2.7,0,0,0-.67-.86c-.85-.62-2-.17-3,.06a6.66,6.66,0,0,1-4.37-.51c-1.05-.51-2.09-1.33-3.24-1.12a11.28,11.28,0,0,0-2.22,1.12,6.14,6.14,0,0,1-3,.24.84.84,0,0,1-.42-.1,1.9,1.9,0,0,1-.3-.33,1.41,1.41,0,0,0-1.25-.33c-.44.07-.86.26-1.29.37a.7.7,0,0,1-.63-.07.72.72,0,0,1-.18-.37l-.31-1.08a2.06,2.06,0,0,0-.48-1,1.29,1.29,0,0,0-1.61,0,2.8,2.8,0,0,0-.87,1.48,4,4,0,0,1-.52,1.32,1,1,0,0,1-1.25.32,1.46,1.46,0,0,0-.11.8c-.67-.16-1.35-.24-2-.39a1.37,1.37,0,0,1-.67-.3,2.62,2.62,0,0,1-.24-.34c-.45-.56-1.3-.5-2-.47a14.73,14.73,0,0,1-6.33-1.58,15.14,15.14,0,0,1-1.93-1,5.2,5.2,0,0,0-1-.56,4,4,0,0,0-2.15.06,9.42,9.42,0,0,0-3.59,1.2A14.31,14.31,0,0,0,205.06,41l-1.5,1.62a4,4,0,0,0-.6.77c-.12.24-.19.51-.31.75a6.67,6.67,0,0,1-.48.7,10.66,10.66,0,0,0-1,1.91,1.28,1.28,0,0,0-.16,1c.23.56,1.14.59,1.35,1.15a1.23,1.23,0,0,1,0,.54,28.89,28.89,0,0,1-1.12,5.67c-.15.48-.39,1-.58,1.45a9.13,9.13,0,0,0-.67,2c-.4,2.44,1.16,4.83,1,7.3-.1,1.32-.22,2.68-.36,4a43.6,43.6,0,0,0-.12,5.94l.13,5s-1.88,10.9-1.66,13.79-.22,5.56.89,5.56H217a64.69,64.69,0,0,1,11.34.89c4.67.67,8.45,1.33,14,.89s9.57-.89,9.57-.89a8.92,8.92,0,0,0,2-7.34,67.23,67.23,0,0,1-.65-8.79"/><path class="cls-11" d="M253.25,84.89a24.83,24.83,0,0,0,1-7.73,28.57,28.57,0,0,1,.07-5.47c.14-1.18.34-2.35.39-3.53a26.36,26.36,0,0,0-.13-3c-.2-2.34-1.46-4.86-.65-7.07a14.85,14.85,0,0,0,1.23-5,15.47,15.47,0,0,0-.3-2.62l-.37-2.16a19,19,0,0,0-1.68-5.86,2.7,2.7,0,0,0-.67-.86c-.85-.62-2-.17-3,.06a6.66,6.66,0,0,1-4.37-.51c-1.05-.51-2.09-1.33-3.24-1.12a11.28,11.28,0,0,0-2.22,1.12,6.14,6.14,0,0,1-3,.24.84.84,0,0,1-.42-.1,1.9,1.9,0,0,1-.3-.33,1.41,1.41,0,0,0-1.25-.33c-.44.07-.86.26-1.29.37a.7.7,0,0,1-.63-.07.72.72,0,0,1-.18-.37l-.31-1.08a2.06,2.06,0,0,0-.48-1,1.29,1.29,0,0,0-1.61,0,2.8,2.8,0,0,0-.87,1.48,4,4,0,0,1-.52,1.32,1,1,0,0,1-1.25.32,1.46,1.46,0,0,0-.11.8c-.67-.16-1.35-.24-2-.39a1.37,1.37,0,0,1-.67-.3,2.62,2.62,0,0,1-.24-.34c-.45-.56-1.3-.5-2-.47a14.73,14.73,0,0,1-6.33-1.58,15.14,15.14,0,0,1-1.93-1,5.2,5.2,0,0,0-1-.56,4,4,0,0,0-2.15.06,9.42,9.42,0,0,0-3.59,1.2A14.31,14.31,0,0,0,205.06,41l-1.5,1.62a4,4,0,0,0-.6.77c-.12.24-.19.51-.31.75a6.67,6.67,0,0,1-.48.7,10.66,10.66,0,0,0-1,1.91,1.28,1.28,0,0,0-.16,1c.23.56,1.14.59,1.35,1.15a1.23,1.23,0,0,1,0,.54,28.89,28.89,0,0,1-1.12,5.67c-.15.48-.39,1-.58,1.45a9.13,9.13,0,0,0-.67,2c-.4,2.44,1.16,4.83,1,7.3-.1,1.32-.22,2.68-.36,4a43.6,43.6,0,0,0-.12,5.94l.13,5s-1.88,10.9-1.66,13.79-.22,5.56.89,5.56H217a64.69,64.69,0,0,1,11.34.89c4.67.67,8.45,1.33,14,.89s9.57-.89,9.57-.89a8.92,8.92,0,0,0,2-7.34A67.23,67.23,0,0,1,253.25,84.89Z"/><path class="cls-6" d="M202.67,49.76c.33,1.45-.67,3.06,0,4.4a4,4,0,0,0,.9,1.12l4.32,4.16a4,4,0,0,0,4.71,1.08l3.45-.75a2.79,2.79,0,0,0,1.4-.59,6.92,6.92,0,0,0,.88-1.55,14.08,14.08,0,0,0,1.09-1.48,3.59,3.59,0,0,0,0-2.31,13.77,13.77,0,0,0-.91-2.9,5.52,5.52,0,0,1-.82-2.08"/><path class="cls-13" d="M206.11,52.71c.43-.06.82.24,1.21.42a4.73,4.73,0,0,0,2.91.08,4,4,0,0,0,1.12-.3,1.41,1.41,0,0,0,.78-.81"/><path class="cls-13" d="M211.75,47.44c.17,0,.27.19.31.35a9.07,9.07,0,0,1,.12,4.57,12.12,12.12,0,0,0-.37,1.69.38.38,0,0,0,.07.33.42.42,0,0,0,.29.06c.69,0,1.37-.22,2.07-.26a9.5,9.5,0,0,1,2.84.43"/><path class="cls-13" d="M203.1,49.66a6.3,6.3,0,0,1,2.18,2.05"/><path class="cls-18" d="M219.43,56.66a1,1,0,0,1,1,.29,4.78,4.78,0,0,1,.44.46,5.5,5.5,0,0,0,1.35,1.15,2.48,2.48,0,0,0,1.7.3,1.85,1.85,0,0,0,1-.63"/><path class="cls-13" d="M228.54,42.75c.4.61.78,1.24,1.15,1.87a7,7,0,0,1,1.07,2.75"/><path class="cls-18" d="M231.63,45.47A6.7,6.7,0,0,0,232,47.3a2.88,2.88,0,0,1,.17.64.82.82,0,0,1-.2.62.92.92,0,0,1-.45.2,1.91,1.91,0,0,1-2-1.22.85.85,0,0,0-1.08-.46,3.06,3.06,0,0,0-.47.33,1.28,1.28,0,0,1-1.2,0,4.83,4.83,0,0,1-1-.72,7.34,7.34,0,0,0-7.26-1.13,3.29,3.29,0,0,0-1.77,1.59"/><path class="cls-18" d="M233.8,43.19c0-.19-.26-.28-.41-.17a.48.48,0,0,0-.1.51,3.8,3.8,0,0,0,.26.49,2.92,2.92,0,0,1,.15,1.53c-.16,1.74-.31,3.48-.46,5.22a5.7,5.7,0,0,0,.08,2.18c.31,0,.68,0,1,0a82.39,82.39,0,0,1-1.16,15.93"/><path class="cls-6" d="M234.22,44.78c.42-.07.81-.29,1.23-.35s1,.06,1.44,0"/><path class="cls-6" d="M238.33,56.2c.12-.78.92-1.23,1.37-1.87.35-.49.48-1.1.79-1.62a5.61,5.61,0,0,1,2.06-1.77.61.61,0,0,0-.4-.56,2.21,2.21,0,0,1-.64-.36,1.54,1.54,0,0,1-.3-.76,3.78,3.78,0,0,0-2.39-2.63,2.09,2.09,0,0,0-1.15-.14"/><path class="cls-6" d="M237.07,58.64l.32,1.75a5.77,5.77,0,0,0,.63,2A4.27,4.27,0,0,0,240,64a4.21,4.21,0,0,0,4-.13c.45-.32.8-.77,1.28-1a10.19,10.19,0,0,1,2.12-.64,8.8,8.8,0,0,0,1.73-.88,12.23,12.23,0,0,1,4.27-1.74"/><path class="cls-13" d="M245.76,46.2c0-.29-.49-.35-.7-.15a1.09,1.09,0,0,0-.24.81,11.89,11.89,0,0,0,.35,2.38q.71,3.19,1.5,6.36a2.64,2.64,0,0,0,.87,1.61.92.92,0,0,0,.24-.73"/><path class="cls-13" d="M247.4,53.92a2.26,2.26,0,0,0,.23,1,18.92,18.92,0,0,1,.72,2.08,1.8,1.8,0,0,1,.1.65,2,2,0,0,1-.43.94l-2.55,3.72"/><path class="cls-6" d="M242.83,49.89c.38.31.82.73.72,1.22s-.54.67-.86,1c-.8.75-.83,2-1.18,3-.6,1.8-2.21,3.18-2.51,5"/><path class="cls-6" d="M223.33,46.12l-.68,2c-.08.21-.19.46-.42.48a1.15,1.15,0,0,1-.36-.07.83.83,0,0,0-.82.31,2,2,0,0,0-.4.83,3.23,3.23,0,0,1-.23.66.76.76,0,0,1-.55.39"/><path class="cls-17" d="M228.35,47.08l1.14,1.45s.95.72.95,1.14-.12,1.11-.84,1.06a7.5,7.5,0,0,1-.83-.09l.14.45,1.25,1.47.64.67.52.56,0,.61-.34.25-1.39-.39-.68-.4.29,1.18,1,.8,1.11.17.55.39,0,.64-.81.3-.28-.11.14.56s-.17.42-.42.5a3.27,3.27,0,0,1-1.69-.42,12.19,12.19,0,0,1-1.37-.94,4.73,4.73,0,0,1-.91-1.36,1.89,1.89,0,0,0-.59-1,2.41,2.41,0,0,1-.44-1.19c-.08-.45-.17-1-.33-1.06a3.7,3.7,0,0,1-1.23-.81c-.37-.38-.61-.25-.8-.47a6.42,6.42,0,0,1-.56-1.63c-.06-.26-.39-.29-.19-.87a7.36,7.36,0,0,1,.83-2.06,3.61,3.61,0,0,1,1.19-.64,7.72,7.72,0,0,1,1.45.92,3,3,0,0,0,1.11.72,1.57,1.57,0,0,0,1.42-.42"/><path class="cls-6" d="M228.35,47.08l1.14,1.45s.95.72.95,1.14-.12,1.11-.84,1.06a7.5,7.5,0,0,1-.83-.09l.14.45,1.25,1.47.64.67.52.56,0,.61-.34.25-1.39-.39-.68-.4.29,1.18,1,.8,1.11.17.55.39,0,.64-.81.3-.28-.11.14.56s-.17.42-.42.5a3.27,3.27,0,0,1-1.69-.42,12.19,12.19,0,0,1-1.37-.94,4.73,4.73,0,0,1-.91-1.36,1.89,1.89,0,0,0-.59-1,2.41,2.41,0,0,1-.44-1.19c-.08-.45-.17-1-.33-1.06a3.7,3.7,0,0,1-1.23-.81c-.37-.38-.61-.25-.8-.47a6.42,6.42,0,0,1-.56-1.63c-.06-.26-.39-.29-.19-.87a7.36,7.36,0,0,1,.83-2.06,3.61,3.61,0,0,1,1.19-.64,7.72,7.72,0,0,1,1.45.92,3,3,0,0,0,1.11.72A1.57,1.57,0,0,0,228.35,47.08Z"/><path class="cls-17" d="M240.58,47.86a4.33,4.33,0,0,0-2.71-1.37c-1.29-1-2-.92-2.21-.88,0,0-1,.59-1.5.84s-.54,0-.54,0l-.46,6a1.47,1.47,0,0,0,.63.09c.29,0,1.45-.38,1.45-.38l.66.22,1,.28s.71,1.17.92,1.17,2.09.12,2.3-.34A5.58,5.58,0,0,1,242,51.28c.92-.54.61-.51.38-.7a7.65,7.65,0,0,0-.88-.56s-.46-1.82-.92-2.16"/><path class="cls-18" d="M240.58,47.86a4.33,4.33,0,0,0-2.71-1.37c-1.29-1-2-.92-2.21-.88,0,0-1,.59-1.5.84s-.54,0-.54,0l-.46,6a1.47,1.47,0,0,0,.63.09c.29,0,1.45-.38,1.45-.38l.66.22,1,.28s.71,1.17.92,1.17,2.09.12,2.3-.34A5.58,5.58,0,0,1,242,51.28c.92-.54.61-.51.38-.7a7.65,7.65,0,0,0-.88-.56S241,48.2,240.58,47.86Z"/><path class="cls-18" d="M225.59,52.25a.9.9,0,0,1-1.07-.12c-.31-.24-.51-.59-.8-.85a.36.36,0,0,0-.19-.13,2.13,2.13,0,0,1-.25,0,.43.43,0,0,1-.23-.19,2.61,2.61,0,0,1-.51-1.5c0-.14,0-.33-.16-.37a6,6,0,0,1,.43-1.77,2.86,2.86,0,0,1,1.84-1.52"/><path class="cls-18" d="M225.08,52.46c.65.32.28,1.38.69,2,.15.2.37.33.52.52.31.38.29.93.54,1.35a2.37,2.37,0,0,0,.86.77l1.29.82a2.67,2.67,0,0,0,.9.43.9.9,0,0,0,.91-.28.57.57,0,0,0-.19-.84,2,2,0,0,0,.87,0,.65.65,0,0,0,.47-.65.67.67,0,0,0-.52-.5,4.64,4.64,0,0,0-.76-.11,2.16,2.16,0,0,1-1.77-2.09,6.78,6.78,0,0,0,1.52.71,1,1,0,0,0,.74,0c.4-.23.26-.88-.11-1.16a7.13,7.13,0,0,1-1.16-1.17c-.94-1.32-1.55-1.49-1.31-1.7a2.5,2.5,0,0,0,1.18.08.88.88,0,0,0,.71-.85,1.32,1.32,0,0,0-.41-.71l-1.68-1.84"/><path class="cls-17" d="M228.62,50.61a3.33,3.33,0,0,1-.86-1.28,1.8,1.8,0,0,0-1.09-1"/><path class="cls-13" d="M228.62,50.61a3.33,3.33,0,0,1-.86-1.28,1.8,1.8,0,0,0-1.09-1"/><path class="cls-13" d="M226.27,51.42a2.51,2.51,0,0,1,.64,1.13,1.09,1.09,0,0,0,.16.4.92.92,0,0,0,.35.26,13,13,0,0,0,1.39.55"/><path class="cls-13" d="M227.48,55.73a5.54,5.54,0,0,0,1.08.63,2.17,2.17,0,0,1,.53.26c.12.09.22.2.34.3a1.48,1.48,0,0,0,1.06.31"/><path class="cls-13" d="M223.74,50.83c.11-.92-.59-1.88-.23-2.74"/><path class="cls-13" d="M226.24,51.94a2.5,2.5,0,0,0-.13,1.48"/><path class="cls-13" d="M235,52.21a.9.9,0,0,0,.68-.07,5,5,0,0,0,1.07-.51,1.68,1.68,0,0,0,.69-.93"/><path class="cls-13" d="M235.52,52.48a.34.34,0,0,1,.38-.1c.13,0,.24.13.37.18a1.58,1.58,0,0,0,1.17,0,4.74,4.74,0,0,1,1.15-.34.77.77,0,0,0,.3-.06.55.55,0,0,0,.21-.19,3.19,3.19,0,0,0,.49-2.68"/><path class="cls-13" d="M238.63,51c-.15-.48.18-1,.32-1.44a2.44,2.44,0,0,0-.22-1.85,3.76,3.76,0,0,0-1.29-1.37,3.33,3.33,0,0,0-1.54-.73,1.42,1.42,0,0,0-.75.16c-.22.13-.39.35-.6.5a2.53,2.53,0,0,1-1.12.34"/><path class="cls-6" d="M236.29,52.51a1,1,0,0,1,1,.38c.08.11.14.25.22.37a1.51,1.51,0,0,0,1.16.64,3,3,0,0,0,1.32-.26"/><path class="cls-6" d="M235.38,52.08a5.92,5.92,0,0,1-1.94.51"/><path class="cls-13" d="M235,50.62a6,6,0,0,1-1.59.61"/><path class="cls-13" d="M234.36,49a2.34,2.34,0,0,1-.92.38"/><path class="cls-6" d="M233.28,53.17c-.31.19-.14.83-.49.93s-.38-.16-.49-.34-.26-.4-.47-.38a17.1,17.1,0,0,0-2.26-1.51"/><path class="cls-6" d="M238.75,45.87a2.61,2.61,0,0,0-.09-.69c-.14-.53-.43-1-.54-1.54a1.2,1.2,0,0,1,.56-1.39,1.27,1.27,0,0,1,1,.13,5.59,5.59,0,0,0,1,.47,11.18,11.18,0,0,1,1.64.24"/><path class="cls-13" d="M246.79,47.45a1.21,1.21,0,0,1,.76.78,3,3,0,0,1,.11,1.11,1.41,1.41,0,0,0,0,.46.46.46,0,0,0,.31.31c.28,0,.48-.27.6-.53l.36-.87"/><path class="cls-13" d="M226.29,55c-.51,1.58-3.24,9.75-3.75,11.33a22.82,22.82,0,0,1-1,2.79,25.26,25.26,0,0,1-1.38,2.37c-1.9,3.09-3.53,6.33-5.16,9.57"/><path class="cls-13" d="M216.27,60.66q-1.68,7.57-3.83,15"/><path class="cls-13" d="M229,62.36a46.41,46.41,0,0,1-5.22,13.78"/><path class="cls-13" d="M229.51,62.63c-.12-.29.36-.54.62-.36a1.1,1.1,0,0,1,.36.86,42.05,42.05,0,0,1,0,8.32c-.06.59-.13,1.18-.16,1.78a22.52,22.52,0,0,0,.11,2.6"/><path class="cls-13" d="M237,63.57l2.67,7.58a11.58,11.58,0,0,0,.7,1.71c.25.48.56.92.81,1.4a5.78,5.78,0,0,1,.57,3.35"/><path class="cls-13" d="M251.11,61.25l-1.69,4.26a12.82,12.82,0,0,0-.67,2c-.14.68-.18,1.38-.32,2.06a14.69,14.69,0,0,1-.61,2c-1.06,2.88-2.17,5.83-4.19,8.13"/><path class="cls-13" d="M51.62,18.62l1,7.56s.42,4.92-.67,5.17a27.3,27.3,0,0,1-10.09,2.06c-3.76-.06-8.83-2.24-9.26-2.31s-.75-2-.69-4.09a66.46,66.46,0,0,1,1.44-9.73s1.45-2.39,3.73-2.39,9.51.56,9.73.56a15.27,15.27,0,0,1,3,.83C50,16.5,51.45,17.45,51.62,18.62Z"/><path class="cls-19" d="M51.62,18.62s-.45-3.28-1.45-4.37-3.72-2-9.84-1.69-5.67,1.28-5.67,1.28l-.5.58-.84,2.86,1.06-.66A40.71,40.71,0,0,1,44.06,16c4,.45,7,1.62,7.56,2.62"/><path class="cls-6" d="M51.62,18.62s-.45-3.28-1.45-4.37-3.72-2-9.84-1.69-5.67,1.28-5.67,1.28l-.5.58-.84,2.86,1.06-.66A40.71,40.71,0,0,1,44.06,16C48.11,16.45,51.06,17.62,51.62,18.62Z"/><path class="cls-19" d="M33.82,16.84a4.76,4.76,0,0,1,2.59-2.09,36.1,36.1,0,0,1,7.51-.25c2.92.17,4.5.5,6.25,1.84a4.09,4.09,0,0,1,.75,1.17s-.3-.28-3.58-.89a25.53,25.53,0,0,0-7.79-.56,27.58,27.58,0,0,0-5.73.78"/><path class="cls-6" d="M33.82,16.84a4.76,4.76,0,0,1,2.59-2.09,36.1,36.1,0,0,1,7.51-.25c2.92.17,4.5.5,6.25,1.84a4.09,4.09,0,0,1,.75,1.17s-.3-.28-3.58-.89a25.53,25.53,0,0,0-7.79-.56A27.58,27.58,0,0,0,33.82,16.84Z"/><path class="cls-20" d="M36.74,30a17.56,17.56,0,0,1-2.89-3m2.09,1.31a11.76,11.76,0,0,1-1.6-1.83m2.06,1.31a13.06,13.06,0,0,1-2.66-3.32"/><path class="cls-13" d="M143.92,18.62l1,7.56s.42,4.92-.67,5.17a39,39,0,0,1-9.53,1.28,45.07,45.07,0,0,1-9.82-1.53c-.5-.08-.75-2-.69-4.09a66.46,66.46,0,0,1,1.44-9.73s1.45-2.39,3.73-2.39,9.51.56,9.73.56a15.27,15.27,0,0,1,3,.83C142.31,16.5,143.75,17.45,143.92,18.62Z"/><path class="cls-19" d="M143.92,18.62s-.45-3.28-1.45-4.37-3.72-2-9.84-1.69S127,13.84,127,13.84l-.5.58-.84,2.86,1.06-.66a40.71,40.71,0,0,1,9.68-.62c4,.45,7,1.62,7.56,2.62"/><path class="cls-6" d="M143.92,18.62s-.45-3.28-1.45-4.37-3.72-2-9.84-1.69S127,13.84,127,13.84l-.5.58-.84,2.86,1.06-.66a40.71,40.71,0,0,1,9.68-.62C140.41,16.45,143.36,17.62,143.92,18.62Z"/><path class="cls-19" d="M126.12,16.84a4.76,4.76,0,0,1,2.59-2.09,36.1,36.1,0,0,1,7.51-.25c2.92.17,4.5.5,6.25,1.84a4.09,4.09,0,0,1,.75,1.17s-.3-.28-3.58-.89a25.53,25.53,0,0,0-7.79-.56,27.58,27.58,0,0,0-5.73.78"/><path class="cls-6" d="M126.12,16.84a4.76,4.76,0,0,1,2.59-2.09,36.1,36.1,0,0,1,7.51-.25c2.92.17,4.5.5,6.25,1.84a4.09,4.09,0,0,1,.75,1.17s-.3-.28-3.58-.89a25.53,25.53,0,0,0-7.79-.56A27.58,27.58,0,0,0,126.12,16.84Z"/><path class="cls-20" d="M129,30a17.56,17.56,0,0,1-2.89-3m2.09,1.31a11.76,11.76,0,0,1-1.6-1.83m2.06,1.31A13.06,13.06,0,0,1,126,24.54"/><path class="cls-13" d="M237,18.62l1,7.56s.42,4.92-.67,5.17a39,39,0,0,1-9.53,1.28A45.07,45.07,0,0,1,218,31.1c-.5-.08-.75-2-.69-4.09a66.46,66.46,0,0,1,1.44-9.73s1.45-2.39,3.73-2.39,9.51.56,9.73.56a15.27,15.27,0,0,1,3,.83C235.38,16.5,236.83,17.45,237,18.62Z"/><path class="cls-19" d="M237,18.62s-.45-3.28-1.45-4.37-3.72-2-9.84-1.69S220,13.84,220,13.84l-.5.58-.84,2.86,1.06-.66a40.66,40.66,0,0,1,9.67-.62c4.06.45,7,1.62,7.57,2.62"/><path class="cls-6" d="M237,18.62s-.45-3.28-1.45-4.37-3.72-2-9.84-1.69S220,13.84,220,13.84l-.5.58-.84,2.86,1.06-.66a40.66,40.66,0,0,1,9.67-.62C233.49,16.45,236.44,17.62,237,18.62Z"/><path class="cls-19" d="M219.2,16.84a4.76,4.76,0,0,1,2.59-2.09,36.1,36.1,0,0,1,7.51-.25c2.91.17,4.5.5,6.25,1.84a4.09,4.09,0,0,1,.75,1.17s-.3-.28-3.59-.89a25.47,25.47,0,0,0-7.78-.56,27.58,27.58,0,0,0-5.73.78"/><path class="cls-6" d="M219.2,16.84a4.76,4.76,0,0,1,2.59-2.09,36.1,36.1,0,0,1,7.51-.25c2.91.17,4.5.5,6.25,1.84a4.09,4.09,0,0,1,.75,1.17s-.3-.28-3.59-.89a25.47,25.47,0,0,0-7.78-.56A27.58,27.58,0,0,0,219.2,16.84Z"/><path class="cls-20" d="M222.12,30a17.56,17.56,0,0,1-2.89-3m2.09,1.31a11.76,11.76,0,0,1-1.6-1.83m2.06,1.31a13.06,13.06,0,0,1-2.66-3.32"/></g><polygon class="cls-16" points="93.06 67.66 93.06 65.13 99.37 65.13 99.37 63.55 102.95 66.39 99.37 69.23 99.37 67.66 93.06 67.66"/><polygon class="cls-16" points="177.27 67.66 177.27 65.13 183.57 65.13 183.57 63.55 187.15 66.39 183.57 69.23 183.57 67.66 177.27 67.66"/><path class="cls-23" d="M18.38,27.41a6,6,0,1,0-6-6,6,6,0,0,0,6,6"/><text class="cls-24" transform="translate(15.06 24.72)">A</text><path class="cls-23" d="M110.69,27.41a6,6,0,1,0-6-6,6,6,0,0,0,6,6"/><text class="cls-24" transform="translate(107.61 24.72)">B</text><path class="cls-23" d="M204.14,27.41a6,6,0,1,0-6-6,6,6,0,0,0,6,6"/><text class="cls-24" transform="translate(201.07 24.72)">C</text></svg>