<svg id="Layer_1" data-name="Layer 1" xmlns="http://www.w3.org/2000/svg" viewBox="0 0 377.01 250.21"><defs><style>.cls-1,.cls-2,.cls-3,.cls-4,.cls-5,.cls-6{fill-rule:evenodd;}.cls-2{fill:#fff;}.cls-3{fill:#fedab6;}.cls-4{fill:#c4c4c4;}.cls-5{fill:#ccf8ff;}.cls-6{fill:#89d2ef;}</style></defs><title>hand wash 1</title><path class="cls-1" d="M392.18,85.43c0-.1,0-.2,0-.3-.67.08-1.46-.51-1.2-1.28.18-.5.3-.83.43-1.14,1-3.23,0-7.63-.54-10.7s-1.07-6.12-1.69-9.16a129.61,129.61,0,0,1-2.86-17.16.87.87,0,0,1,.42-.83.34.34,0,0,0,0-.1,18.47,18.47,0,0,0,4.81-1.7c-3.4-.85-7.26.47-10.71.56-2.17.06-4.33-.35-6.57-.18-5.17.37-10.32,2-15.6,2.44a89.74,89.74,0,0,0-9.58.94c-3.27.6-6.47,1.35-9.58,1.13-1.18-.09-2.34-.49-3.56-.57-7.58-.47-15.26.34-22.92,0-3.33-.15-5.77-.17-8.83-.37-10.51-.72-18.8-4.51-30.43-3.76-2.7,2.12-5.15,3.74-8.83,4.32-1.1.17-2.18,0-3.38.19-3.65.72-7.26,2.42-11.09,3.57a110.11,110.11,0,0,1-11.64,3.19c-5.88,1.06-11.76,2.56-17.66,2.82-1,0-1.87-.05-2.82,0-5.61.29-9.31,2.16-13.53,3.75-2.63,1-5.65,1.22-8.26,2.07-.87.28-1.64.88-2.44,1.13-6,1.87-12.86,2.53-19.35,3.94-4.77,1-9.87,1.86-14.28,3.2-1.43.43-2.82,1.5-4.13,1.69a20.1,20.1,0,0,1-2.63-.19c-5,0-9.75,2.31-13.9,2.25-.62,1.13-1.94,1.32-2.25,2.45-.6,2.12.75,3.78,1.68,5.26,1.74,2.73,4.31,5.19,7,6-3.06,3-1,6.48,1.69,8.07,1.12.67,3.22.8,3.38,2.45-3.56.3-7.74-.2-12.21,0-4.23.18-9,.5-11.83.18-7.83,1-13,4.53-18.23,8.08-.18-.32-.51-.48-1.12-.37-2.16,3.89.85,9.47,4.69,8.07,6-2.18,10.09-5.81,17.85-6.2,7.09-.35,14.2-.41,21-.18-.56,2.94,2.28,4.09,4.69,4.69-.51.56.15,2.28-.37,2.82-7.06-.17-13.15.63-18,2.63-1.46,5.71-.62,15.77-.18,20.66a24.74,24.74,0,0,0,7.7,4.51,4.16,4.16,0,0,0,.18,1.69c-6.21.36-11.16,2-16.71,3-.31,1.71-2.09,2-3.2,3.19a13.47,13.47,0,0,0-3,7.89c-.18,3.86-.57,8.35-.38,12.21.24,4.65-.12,10.27-.37,16-.69,15.64,1.29,30.52.56,46.58-.62,13.64-.35,27.17-.38,39.27a28.49,28.49,0,0,0-.18,3.56,13.59,13.59,0,0,0,6.95,10.15c6.53,3.14,15.89,4,25,4.69,17.39,1.42,35.86-.15,44-8.83-.18-1.69.6-3.34.75-5.07,1.34-15.52-.26-33.91.56-52,.72-15.78.44-31.41-.19-45.65-.47-10.83,1.85-22.32-3-28.17-.95-1.16-2.6-1.79-3.2-3.39-2.21-.15-3.81-2.13-6.19-2.44s-4.92.76-7.7,0a16.75,16.75,0,0,1,.18-3.76,57.51,57.51,0,0,0,5.26-2.44c2.18-4.43.58-12.74,1.13-18.22.08-.77.56-1.51.37-2.25-.43-1.77-4.88-2.94-6.57-3.2-3.89-.58-8.92-1.32-12.77-.56.09-1.09-.14-2.66,0-3.19a14.76,14.76,0,0,0,5.44-2.45c.33-4,.23-8.42.57-12.39,3.23-1.28,7.16-4.71,4.51-9,11.43-.39,23.44-1.19,32.87-4.13,1.33,1,4.46.93,6.76.75a114.07,114.07,0,0,0,13-1.32c7.21-1.41,13-2.57,18,0a37.51,37.51,0,0,0-5.07,11.84c-1.07,4.74-.51,6.43,1.88,9.58,3.09,4.07,6,9.18,8.45,13a87.91,87.91,0,0,0-12.4,5.82c-5.93,3.43-12.38,6.23-11.27,15,1.65,1.41,2.26,4,4.32,5.07.88.47,2.42.82,3.75,1.32,4.91,1.84,9.46.65,13.53-.94,1.78-.7,3.58-1.33,5.26-1.88a73.32,73.32,0,0,0,10.14-4.13c1.79-.88,4-1.79,5.64-1.5,2.51.44,4.22,3,6.39,3.56a7.27,7.27,0,0,0,2.06-.19c.81.16.73.81,1.5.76,1.57-.11,2.57-1.54,3.95-2.26.1-1.64,2.05-2.74,2.44-4.51s-.18-3.47.57-4.69c4.59,5.8,16.55,1.58,14.65-6.2,9-2.43,18-4.57,26.67-6.39a104.53,104.53,0,0,0,24.42-8.83,227,227,0,0,0,21.42-11.64c5.13-3.24,10.25-6.43,15.41-9.4,1.72-1,3.64-1.87,4.88-3.56C394.73,84.82,393.43,85.1,392.18,85.43Z" transform="translate(-19.06 -42.78)"/><path class="cls-2" d="M274,46.63c3.77-2.82,10.12.33,13.53.75C282.42,47.54,278.17,47.58,274,46.63Z" transform="translate(-19.06 -42.78)"/><path class="cls-2" d="M237.33,72.93c-2.62,2-5.11,4.38-7.88,6.76-1.65,1.41-2.62,2.81-5.83,2.44,1.65-1.48,3.48-3,5.45-4.69C231.38,75.42,233.42,72.5,237.33,72.93Z" transform="translate(-19.06 -42.78)"/><path class="cls-2" d="M242,72.93c-1.56,1.23-3.05,2.54-4.7,3.94-2.48,2.12-3.91,4.37-8.26,4.51,3.48-2.84,6.83-5.81,10.52-8.45Z" transform="translate(-19.06 -42.78)"/><path class="cls-2" d="M246.54,73.12a37.83,37.83,0,0,0-7.14,6.76c-1.45.05-2.54.46-4,.56-.15-.81,1-1.3,1.69-1.87s1.61-1.2,2.45-1.88C241.57,75.06,243.27,72.37,246.54,73.12Z" transform="translate(-19.06 -42.78)"/><path class="cls-2" d="M252,73.3c-2.57,2.13-5.15,4.25-7.69,6.39-.57-.43-1.46-.55-2.07-.94C245,76.54,246.79,72.49,252,73.3Z" transform="translate(-19.06 -42.78)"/><path class="cls-2" d="M258.75,74.06c-3.74,1.77-6.58,4.44-9.58,7-1.23-.16-2.16-.6-3.39-.76C249.32,77.37,252.13,72.73,258.75,74.06Z" transform="translate(-19.06 -42.78)"/><path class="cls-2" d="M261.76,74.81c-2.05,1.41-4.62,3.4-7,5.26-1.38,1.1-2.24,2.23-4.32,1.31,2.81-2.64,6.25-4.64,9.4-6.95A4.25,4.25,0,0,1,261.76,74.81Z" transform="translate(-19.06 -42.78)"/><path class="cls-2" d="M207.84,75.37c-2.49.85-6,4.66-8.64,6.95-1.58,1.37-2.18,2.45-4.7,2.44a69.73,69.73,0,0,0,5.27-4.88C202.08,77.78,204.62,74.9,207.84,75.37Z" transform="translate(-19.06 -42.78)"/><path class="cls-2" d="M266.26,75.56c-2.84,2.23-6.23,3.91-8.26,7,4.39-1.11,7.26-7.77,13.52-5.82-2.79,1.9-5.83,3.56-8.07,6,1.74-.15,3.22-1.6,4.69-2.63s3-2.19,4.51-3.2a4.71,4.71,0,0,0,1.5.38c-2.88,2.31-6.34,4-8.64,7,3.43-2,6.06-4.71,9.58-6.57a17.36,17.36,0,0,1,2.63.94c-2.8,2.27-6.05,4.09-8.83,6.38a93.59,93.59,0,0,1-14.84-2.63c2.3-2.38,6.29-5,9.21-7.14C263.84,74.77,265.41,75.61,266.26,75.56Z" transform="translate(-19.06 -42.78)"/><path class="cls-2" d="M203,75.75c.24.62-1.37,1.53-2.26,2.25-2.68,2.17-5.6,5.1-8.45,7.14h-2.44c3.42-3.22,7.26-6,10.89-9A9,9,0,0,0,203,75.75Z" transform="translate(-19.06 -42.78)"/><path class="cls-2" d="M207.65,75.93a3.71,3.71,0,0,1,.38,1.7c-3.61,1.83-3.85,7-9.58,6.76C201.49,81.54,204.71,78.88,207.65,75.93Z" transform="translate(-19.06 -42.78)"/><path class="cls-2" d="M153,76.31A13,13,0,0,1,145.47,78,63.77,63.77,0,0,1,153,76.31Z" transform="translate(-19.06 -42.78)"/><path class="cls-2" d="M198.26,76.5c.33.42-.51.93-.75,1.13-1.36,1.09-2.92,2.12-4.51,3.38-2.36,1.87-4.47,4.27-7.7,4.69,3.12-3.26,6.85-5.92,10.14-9A9.6,9.6,0,0,0,198.26,76.5Z" transform="translate(-19.06 -42.78)"/><path class="cls-2" d="M208,78.38a20,20,0,0,1,1.5,3.75A66.54,66.54,0,0,1,203,83.64C204.73,82,206.76,80.55,208,78.38Z" transform="translate(-19.06 -42.78)"/><path class="cls-2" d="M280.73,80.25a89,89,0,0,0-7.33,5.64,16.62,16.62,0,0,0-3.38-.75c2.5-2.45,5.86-4,8.83-6C279.5,79.48,280.12,79.86,280.73,80.25Z" transform="translate(-19.06 -42.78)"/><path class="cls-2" d="M171.21,81.76c-.37,2.5,1.12,4.13,1.5,5.26-3.24.13-6.24.52-9.77.37,1.07-.52,2.06-2,3.2-1.88.3-1.7,2-2,2.44-3.56A8.32,8.32,0,0,0,171.21,81.76Z" transform="translate(-19.06 -42.78)"/><path class="cls-2" d="M258.75,86.64c-1.31,1.76-1.67,3.94-2.82,5.64-1,1.51-3.06,2.32-3.38,4.32,2.27-1.09,3.94-3,5.82-4.51s3.78-3,5.64-4.51c1.26,0,2.27-.41,3.38,0-4.49,3.59-9.28,6.88-13.34,10.9-1.36-.42-4-2.72-5.07-.57.69,1.06,2.26,1.25,3.76,1.51-.06.87-1.07.81-1.13,1.69,1.58-.25,2.72-1.65,3.95-2.63,3.63-2.91,7.68-6.08,11.45-9-.29,2.87-4.44,5.19-6.76,7.14a53,53,0,0,0-6,5.63c-.75-.19-1.7-1-2.63-.37,1,1.54,3.09,1.92,3.76,3.75,3.7,1.75,4.44,6.46,7.51,8.84a29.45,29.45,0,0,1-6.57,3.37c-2.95-5.34-8.61-8.62-9.77-15.59-.23-1.39.05-2.85-.76-3.94,1.76-4.2,2.66-9.25,5.08-12.78C253.43,85.87,255.83,87.24,258.75,86.64Z" transform="translate(-19.06 -42.78)"/><path class="cls-2" d="M262.5,87.39c-1.14,1-2.77,1.61-3.75,2.82C258.9,88.69,259.91,86.09,262.5,87.39Z" transform="translate(-19.06 -42.78)"/><path class="cls-2" d="M165,92.84c-5.88,0-12,.25-16.72-.94A3.09,3.09,0,0,1,149.42,90a39.72,39.72,0,0,0,7,1.13C160.29,91.4,164.61,90.07,165,92.84Z" transform="translate(-19.06 -42.78)"/><path class="cls-2" d="M169.14,90.59c.59-.09.5.5.94.56C169.92,91.54,169,91.09,169.14,90.59Z" transform="translate(-19.06 -42.78)"/><path class="cls-2" d="M171.59,90.59c.54.15,1,.38,1.5.56-.16.27-.28.59-.75.56C172.49,90.94,171.44,91.36,171.59,90.59Z" transform="translate(-19.06 -42.78)"/><path class="cls-2" d="M149.79,93.59c6.91.64,18.43,2,25-.37-1.59.85-3.49,1.39-5.07,2.25C162.59,95.32,155.22,95.44,149.79,93.59Z" transform="translate(-19.06 -42.78)"/><path class="cls-2" d="M265.7,93.78c-.05,2-2,3.65-3.38,4.88-.69-.06-1-.46-1.69-.56C262.17,96.51,264.1,95.31,265.7,93.78Z" transform="translate(-19.06 -42.78)"/><path class="cls-2" d="M267.2,101.86c2-2.8,6.29-4.86,9-7.52.32-.06.35.15.38.38-2.52,1.81-4.79,3.86-7.15,5.82C268.62,100.86,268.05,102.7,267.2,101.86Z" transform="translate(-19.06 -42.78)"/><path class="cls-2" d="M277.72,96.22c.12,1-1,1.68-1.69,2.26-2.15,1.86-4.53,4.09-6.76,6,0-.72-.79-.72-.75-1.5C271.8,101.07,274.6,97.67,277.72,96.22Z" transform="translate(-19.06 -42.78)"/><path class="cls-2" d="M280.54,96.6a.7.7,0,0,1-.75.75Q279.65,96.47,280.54,96.6Z" transform="translate(-19.06 -42.78)"/><path class="cls-2" d="M278.47,98.48c-2.53,2.72-5.68,4.83-7.89,7.89-1.18-1.68,2-3,3.2-4.14,1.51-1.34,3-2.93,4.32-3.94C278.32,98.26,278.43,98.33,278.47,98.48Z" transform="translate(-19.06 -42.78)"/><path class="cls-2" d="M261,99.6c-1.14,1.81-3.1,2.78-4.32,4.51-.79-.4-1.59-.79-1.88-1.69C256.92,101.83,259,97.33,261,99.6Z" transform="translate(-19.06 -42.78)"/><path class="cls-2" d="M154.11,98.85c.87,0,1.28.48,2.26.38v1.12C155.84,100.32,154.22,99.92,154.11,98.85Z" transform="translate(-19.06 -42.78)"/><path class="cls-2" d="M157.12,99.42a62.45,62.45,0,0,0,12,.18c-.78,1.41-3.95.43-5.25,1.32-.39.83,1.1.76.56,1.12a24.76,24.76,0,0,0-.38,8.65,27.47,27.47,0,0,1-6.57-.75C157.6,106.2,157.35,102.82,157.12,99.42Z" transform="translate(-19.06 -42.78)"/><path class="cls-2" d="M154.3,101.11A1.51,1.51,0,0,1,156,103c-.62-.19-1-.6-1.69-.76C154.45,102.1,154.72,101.18,154.3,101.11Z" transform="translate(-19.06 -42.78)"/><path class="cls-2" d="M262.88,101.48c-1.4,1.61-3,3-4.32,4.7-.49-.45-1.13-.75-1.31-1.5C259.15,103.87,260.83,100.32,262.88,101.48Z" transform="translate(-19.06 -42.78)"/><path class="cls-2" d="M169,101.67v1.69a18.62,18.62,0,0,1-3.56.37c.05-.63-.15-1.52.19-1.87A16.33,16.33,0,0,0,169,101.67Z" transform="translate(-19.06 -42.78)"/><path class="cls-2" d="M151.11,102.8c-8.9,1.5-19.42,1-27.43,3.38a37.7,37.7,0,0,0-11.08,5.26c-.87.6-2.12,1.77-3,0a62.68,62.68,0,0,1,7.52-4.7c3.59-2.06,6.19-4.48,11.46-4.51C135.61,102.2,143.68,102.51,151.11,102.8Z" transform="translate(-19.06 -42.78)"/><path class="cls-2" d="M264.38,103.17c-1,2.07-2.73,3.4-4.32,4.89-2.1-1.57,2.87-3.52,3.57-5.26C264.15,102.66,264,103.17,264.38,103.17Z" transform="translate(-19.06 -42.78)"/><path class="cls-2" d="M154.11,103.55c.65-.07,1.18.94,1.7.37.18,0,.14.23.18.38v.38C155.35,104.32,154.24,104.42,154.11,103.55Z" transform="translate(-19.06 -42.78)"/><path class="cls-2" d="M265,104.49a1.7,1.7,0,0,1,.75.75c-1.34,1.6-3,2.88-4.13,4.7-.36-.22-.4-.73-.76-.94C262.08,107.38,263.83,106.25,265,104.49Z" transform="translate(-19.06 -42.78)"/><path class="cls-2" d="M165.39,105.05c1.21.4,2.59-.17,3.56.19-.12,1.43-2.13,1-3.56,1.13Z" transform="translate(-19.06 -42.78)"/><path class="cls-2" d="M154.11,105.61c.72.17,1.2.56,1.88.76v1.12C155.66,106.57,154.07,106.91,154.11,105.61Z" transform="translate(-19.06 -42.78)"/><path class="cls-2" d="M266.07,106.18c.85.09.77,1.11,1.32,1.5-1.09,1.91-2.92,3.09-4.13,4.89C260.84,110.18,265.53,108.54,266.07,106.18Z" transform="translate(-19.06 -42.78)"/><path class="cls-2" d="M168.58,107.49c.19,0,.15.23.19.38a5,5,0,0,1-3.38.56C165.49,107.16,168.09,108.38,168.58,107.49Z" transform="translate(-19.06 -42.78)"/><path class="cls-2" d="M155.81,107.68c.42.26.07,1.31.18,1.88-.69-.31-1.84-.16-1.69-1.32C155,108.39,155.71,108.54,155.81,107.68Z" transform="translate(-19.06 -42.78)"/><path class="cls-2" d="M268,109c.44-.06.21.54.57.56a6.57,6.57,0,0,1-2.45,1.88C266.72,110.65,267.34,109.82,268,109Z" transform="translate(-19.06 -42.78)"/><path class="cls-2" d="M158.81,113.88h4.89v5.45c-1.67-.09-3.71.2-5.08-.19C159.14,117.57,158.64,115.41,158.81,113.88Z" transform="translate(-19.06 -42.78)"/><path class="cls-2" d="M162.38,122.9c-7.29-.28-15.18,0-20.66-2.07,3.89-1.56,9.18-1.71,13.9-2.44.6,1.78,1.35,3.52,3.38,3.94C160,122.54,161.52,121.71,162.38,122.9Z" transform="translate(-19.06 -42.78)"/><path class="cls-2" d="M166.89,118.76c2.48,0,2.5,2.39,3.94,3.38-.25.37-1.15.11-1.5.38C168.55,121.24,167.61,120.11,166.89,118.76Z" transform="translate(-19.06 -42.78)"/><path class="cls-2" d="M169.71,119.14c1.31-.31,1.56,2.07,2.63,2.63C171.27,121.84,170.76,119.72,169.71,119.14Z" transform="translate(-19.06 -42.78)"/><path class="cls-2" d="M171.77,119.14c.41-.57,1.06.18,1.69,0a4.69,4.69,0,0,0,1.32,2.25C173.2,122.58,172.81,119.71,171.77,119.14Z" transform="translate(-19.06 -42.78)"/><path class="cls-2" d="M175,119.33h1.31c.26.68,1.43,1.24,1.13,1.88C175.78,121.39,175.59,120.14,175,119.33Z" transform="translate(-19.06 -42.78)"/><path class="cls-2" d="M178.54,119.51c1-.16,1.38.38,1.5,1.13A1.34,1.34,0,0,1,178.54,119.51Z" transform="translate(-19.06 -42.78)"/><path class="cls-2" d="M166.51,120.27a9.06,9.06,0,0,1,1.32,2.44C166,122.93,166,121.38,166.51,120.27Z" transform="translate(-19.06 -42.78)"/><path class="cls-2" d="M165.58,122.71c-.39.25-2.4.53-2.26-.38C164.42,122.27,165.2,121.56,165.58,122.71Z" transform="translate(-19.06 -42.78)"/><path class="cls-2" d="M181.54,135.86c-1.42.52-2.52,1.35-3.94,1.88-.13-4,.25-8.39-.19-12,1.14-.86,3.15-.85,4.13-1.87C182.08,126.2,181.58,132.26,181.54,135.86Z" transform="translate(-19.06 -42.78)"/><path class="cls-2" d="M141,124.59c1.25.31,2.49.64,3.75.94q-.06,6.08.19,11.83a17,17,0,0,1-4.13-1.88C141,132,141,128.29,141,124.59Z" transform="translate(-19.06 -42.78)"/><path class="cls-2" d="M301,125.15c.55,1.17-.64,2.24-.93,3.19A6.34,6.34,0,0,1,301,125.15Z" transform="translate(-19.06 -42.78)"/><path class="cls-2" d="M175.91,125.34c.82,2.91.14,7,.19,10.71,0,1,.54,2.59-.76,2.63-.63-3.69-.5-9.27-.37-13.15C175.5,125.68,175.46,125.26,175.91,125.34Z" transform="translate(-19.06 -42.78)"/><path class="cls-2" d="M146,125.53c.3-.06.32.17.56.18-.29,1.28,0,3.11-.37,4.32.1.39-.13,1.49-.19.57v-5.07Z" transform="translate(-19.06 -42.78)"/><path class="cls-2" d="M173.28,138.86c-1.64-.11-1.11-2.5-1.13-3.75-.05-3-.1-6.54-.19-9.4.61.16,1.63-.23,1.69,0C173.79,128.87,173.91,135.29,173.28,138.86Z" transform="translate(-19.06 -42.78)"/><path class="cls-2" d="M147.73,125.71a1.21,1.21,0,0,0,.94.19c-.11,2.61.15,6.61-.19,10.15-.06.62.46,2.23-.94,1.88-.35-2.44.48-7.66.19-11.65Z" transform="translate(-19.06 -42.78)"/><path class="cls-2" d="M170.46,125.71h.37c.18,4.34-.39,9.41.38,13.15h-2.07c-.22-4,.46-8.84-.37-12.21-.76,3.28-.37,8.62-.19,12.21-5.82,0-11.76.12-16.91-.56-.06-4.2.48-7.79.38-12,4.1.41,8.93.08,13.34.18.11,4-.34,8.61.56,11.84,1.11-3.09.33-8.06.56-12A17.3,17.3,0,0,0,170.46,125.71Z" transform="translate(-19.06 -42.78)"/><path class="cls-2" d="M149.79,126.09c.66-.15.73.28,1.32.19,0,3.26,0,6.51-.19,9.95,0,.45.44,1.89-.56,1.88-1-.21-.39-1.69-.38-2.44.07-2.85-.3-5.93-.19-9Z" transform="translate(-19.06 -42.78)"/><path class="cls-2" d="M295.94,127.41c.24.81-.84,2.9-1.5,2.81C294.17,130,295.45,128.13,295.94,127.41Z" transform="translate(-19.06 -42.78)"/><path class="cls-2" d="M293.69,128.53a3,3,0,0,1-.38,1.32c-.68.05-.9-.35-1.5-.38A4.39,4.39,0,0,1,293.69,128.53Z" transform="translate(-19.06 -42.78)"/><path class="cls-2" d="M264.2,132.66a4.94,4.94,0,0,0-.57,1.51c-.6.16-.39-.49-.75-.56A2.69,2.69,0,0,1,264.2,132.66Z" transform="translate(-19.06 -42.78)"/><path class="cls-2" d="M285.05,133.61c0,.33-.23.39-.19.74-1-.18-2.18-.2-2.44-1.12C283.56,132.56,284,133.3,285.05,133.61Z" transform="translate(-19.06 -42.78)"/><path class="cls-2" d="M269.27,133.42c.86.68,1,.07,1.69.56-.1,1.16-1.45,1.05-2.44,1.31C268.61,134.51,269.17,134.2,269.27,133.42Z" transform="translate(-19.06 -42.78)"/><path class="cls-2" d="M267.39,134.73c0,1.65-1.83,1.56-3,2.07.34-1.24-.38-1.75.38-2.82C266,133.85,266.34,134.65,267.39,134.73Z" transform="translate(-19.06 -42.78)"/><path class="cls-2" d="M283.73,136.05c-.47,1.15-1.56,1.69-2.07,2.81-2.21-.79-4.32-1.68-6.57-2.44a36.55,36.55,0,0,1,5.07-2.07C281.37,134.9,282.12,135.9,283.73,136.05Z" transform="translate(-19.06 -42.78)"/><path class="cls-3" d="M243.16,134.73c.72,1.72,1.39,3.49,2.25,5.07A9.32,9.32,0,0,1,243.16,134.73Z" transform="translate(-19.06 -42.78)"/><path class="cls-3" d="M260.25,135.48c.82.26,1.18,1,1.88,1.32-.65,1.85-3.15,1.86-4.7,2.82C257.56,138.17,259.49,136.92,260.25,135.48Z" transform="translate(-19.06 -42.78)"/><path class="cls-3" d="M235.27,136.23a15.06,15.06,0,0,0,2.06,7.33C234.61,143.14,234.18,138.76,235.27,136.23Z" transform="translate(-19.06 -42.78)"/><path class="cls-4" d="M140.4,137.93c8.47,3,21.63,2.91,33.82,2.81-3.19,1.26-7.33,1-11.28.94-8.24-.16-16.79-.33-22.16-3.19C140.62,138.34,140.67,138,140.4,137.93Z" transform="translate(-19.06 -42.78)"/><path class="cls-5" d="M175.34,144.13V146c-.83-.14-1.12.25-1.88.19V144.5A7.64,7.64,0,0,1,175.34,144.13Z" transform="translate(-19.06 -42.78)"/><path class="cls-5" d="M172.34,144.69a4.36,4.36,0,0,1-.38,2.06H171a4.88,4.88,0,0,1-.19-1.87C171.54,145,171.73,144.65,172.34,144.69Z" transform="translate(-19.06 -42.78)"/><path class="cls-5" d="M169.9,145.06c.31.39-.25,1.5-.38,2.07-.68-.17-1,.33-1.31,0v-1.69A3.83,3.83,0,0,0,169.9,145.06Z" transform="translate(-19.06 -42.78)"/><path class="cls-5" d="M152.24,145.44c.77-.06,0,1,0,1.31C152.14,148.6,151.85,145.78,152.24,145.44Z" transform="translate(-19.06 -42.78)"/><path class="cls-5" d="M154.3,145.63c.43.32.07,1.43.19,2.06C153.77,147.69,154.13,145.94,154.3,145.63Z" transform="translate(-19.06 -42.78)"/><path class="cls-5" d="M156.18,145.81h.76c0,.78,0,1.54-.38,1.88C155.78,147.72,156.36,146.39,156.18,145.81Z" transform="translate(-19.06 -42.78)"/><path class="cls-5" d="M160.13,145.81c.75.08.33,1.87-.19,1.88A6.76,6.76,0,0,0,160.13,145.81Z" transform="translate(-19.06 -42.78)"/><path class="cls-5" d="M161.82,145.81h1.12c-.29.71.2,2.2-1.12,1.88Z" transform="translate(-19.06 -42.78)"/><path class="cls-5" d="M164.26,145.81h1.13c-.3.53,0,1.59-.76,1.69S164.43,146.33,164.26,145.81Z" transform="translate(-19.06 -42.78)"/><path class="cls-5" d="M167.27,146c-.21.48-.08,1.31-.57,1.5-.42-.08-.07-.92-.19-1.31C166.85,146.21,166.91,146,167.27,146Z" transform="translate(-19.06 -42.78)"/><path class="cls-5" d="M185.11,156.9c-2,.8-4.79.72-7.14,1.12-1.14-2.67-2.17-5.46-4.32-7.13.75,2.7,2.57,4.31,3.2,7.13H175a20,20,0,0,0-3.2-7.7C178.89,148.53,183.34,152.14,185.11,156.9Z" transform="translate(-19.06 -42.78)"/><path class="cls-6" d="M182.48,150.13h.38c1.41.55,2.48,2,3.57,3s2.53,2,2.81,3.38c-1.42.19-1.76-1.36-2.44-2.06C185.4,153,183.49,152,182.48,150.13Z" transform="translate(-19.06 -42.78)"/><path class="cls-6" d="M185.49,150.32c3.24.52,6.5,3.64,8.08,5.83-.57.37-1.78.1-2.63.18C189.8,153.65,187.57,152.06,185.49,150.32Z" transform="translate(-19.06 -42.78)"/><path class="cls-6" d="M194.88,157.84c.69,3,.71,6.67.94,10.14-2.37.83-3.69,2.7-5.82,3.76-.09-3.9,3.68-4,5.07-6.39-2,0-3.61,2.16-5.07,3.38-1.73-4,3.44-4.9,4.69-7.7-2.07.13-3.43,2.58-5.07,3.76-.54-1.41-.3-3.59-.56-5.26.86-.15,1.84-.16,2.63-.38.38.73-1.88,2-2.26,3.19C191.58,161.92,193.26,159.42,194.88,157.84Z" transform="translate(-19.06 -42.78)"/><path class="cls-6" d="M196,171.55a15.09,15.09,0,0,0-5.45,3.94c-1.13-3.64,3.3-4.44,4.88-6.57C196.31,169.12,195.91,170.59,196,171.55Z" transform="translate(-19.06 -42.78)"/><path class="cls-3" d="M195.82,172.49c.44,3.51.06,7.83.19,11.64-2.21,1.43-4,3.27-6.39,4.51-.21-4.84,4.19-5.07,5.82-8.07-2,.09-3.95,2.93-5.44,3.56-.28-4.53,3.9-4.6,5.44-7.32-2.13.49-3.34,1.92-4.88,3C189.67,175.48,193.91,174.66,195.82,172.49Z" transform="translate(-19.06 -42.78)"/><path class="cls-3" d="M190,193a11.58,11.58,0,0,1-.19-3.2,35.85,35.85,0,0,0,5.82-4.32c1.33,1.94-1.24,3.37-2.63,4.7S190.86,192.66,190,193Z" transform="translate(-19.06 -42.78)"/><path class="cls-3" d="M195.82,189c.43.76.07,2.31.19,3.38-2.46,1.3-3.95,3.57-6,5.26C189.43,192.27,193.93,192,195.82,189Z" transform="translate(-19.06 -42.78)"/><path class="cls-3" d="M195.82,193.72c.43.63.07,2.06.19,3a26,26,0,0,0-5.83,5.82C189.31,197.6,193.88,196.48,195.82,193.72Z" transform="translate(-19.06 -42.78)"/><path class="cls-3" d="M195.82,198c1.41,3.38-1,4.27-2.82,6a22.57,22.57,0,0,1-3,2.82C190,202,193.77,200.87,195.82,198Z" transform="translate(-19.06 -42.78)"/><path class="cls-3" d="M196.19,202.92c.48.93-.24,2.08,0,3.38a17.25,17.25,0,0,0-6.38,6.2c-.81-5.32,4-6.65,6-9.77C196,202.7,196.15,202.77,196.19,202.92Z" transform="translate(-19.06 -42.78)"/><path class="cls-3" d="M189.62,218.51V214a84.45,84.45,0,0,1,6.2-6.76,12.38,12.38,0,0,1,.19,4.7c-.33,1.07-2.38,2.19-3.39,3.19C191.31,216.44,190.63,217.66,189.62,218.51Z" transform="translate(-19.06 -42.78)"/><path class="cls-6" d="M195.26,232.22a7.12,7.12,0,0,1,0,3.58c-2.35,2.41-5.15,4.37-7.14,7.13-.44-.63-.07-2.06-.19-3C190.1,237.09,192.81,234.79,195.26,232.22Z" transform="translate(-19.06 -42.78)"/><path class="cls-6" d="M195.07,237.67c.43.38.07,1.56.19,2.26-2.54,2.85-6.1,4.68-7.14,9C186.91,242.42,192.61,241.17,195.07,237.67Z" transform="translate(-19.06 -42.78)"/><path class="cls-6" d="M190.37,265.66a10.4,10.4,0,0,1-2.44.75V249.69c2.2-2.74,4.56-6.32,7.14-8.07.37,3.09-2.18,4.55-3.76,6.38-1.35,1.57-2.79,2.71-2.82,5.26,2.58-1.93,4-6,6.58-7.32.73,4.11-2,5.3-3.76,7.51a12.81,12.81,0,0,0-2.82,5.45c1.61-.37,2.49-2.48,3.38-3.76s1.92-2.86,3-4.13c1.51,6.93-6,9-6,14.84,2.34-2.67,3.82-6.2,6-9,.44,1,.06,2.82.19,4.14q-3.6,4.09-6.95,8.45C187.07,267.11,189.71,266.88,190.37,265.66Z" transform="translate(-19.06 -42.78)"/><path class="cls-6" d="M185.67,261.9c-4.11,1-7,3.3-10.14,5.26-.43-.81-.06-2.43-.19-3.56a102.66,102.66,0,0,0,10-5.83C186.15,258.43,185.44,260.63,185.67,261.9Z" transform="translate(-19.06 -42.78)"/><path class="cls-6" d="M194.88,262.47c.43.57.07,1.94.19,2.82-2.92,2.4-4.92,5.72-6.95,9-.67-1.85,0-3.95,1.69-4.13.33-.5-.83-.36-.19-.56C191.16,267,193.36,265.08,194.88,262.47Z" transform="translate(-19.06 -42.78)"/><path class="cls-6" d="M194.88,266.41c1.29,3.42-1.63,5.34-3.38,7.52-1.48,1.83-2.45,3.66-3.76,4.51C189,273.33,192.46,270.38,194.88,266.41Z" transform="translate(-19.06 -42.78)"/><path class="cls-6" d="M185.67,269v2.26c-3.65,1.54-6.9,3.49-10.33,5.26-.39-2.47,3.43-3.56,5.08-4.51C182.55,270.81,184,269.61,185.67,269Z" transform="translate(-19.06 -42.78)"/><path class="cls-6" d="M195.07,271.48c.42.09.07.93.19,1.32-2.87,2.58-5,5.93-7.71,8.64C189.89,278,192.69,274.93,195.07,271.48Z" transform="translate(-19.06 -42.78)"/><path class="cls-6" d="M195.07,274.3c1,4-1.51,6.13-4.7,6.58C191.78,278.53,193.71,276.7,195.07,274.3Z" transform="translate(-19.06 -42.78)"/><path class="cls-6" d="M185.67,280.13c-3.45,1.43-6,3.8-9.95,4.69-.79.29,0-1-.57-.94h-.75c-.79-.29,0,1-.56.94-1.39.14-2.3-.21-3.57-.18,4.64-3.07,10.11-5.3,15-8.08C186.14,277,185.45,279,185.67,280.13Z" transform="translate(-19.06 -42.78)"/><path class="cls-6" d="M185.3,280.88c.41,0,.08.8.19,1.12-1.05-.11-1.45.43-2.44.38C183.67,281.75,184.64,281.47,185.3,280.88Z" transform="translate(-19.06 -42.78)"/><path class="cls-6" d="M191.31,283.32a32.66,32.66,0,0,1-11.65,4.13c.93-1,1.85-2,2.82-3a19.14,19.14,0,0,0,2.82.19c.77-.09-.08.39.19.93,1.08.28.86-.76,1.31-1.12C188.57,284.34,189.66,283.54,191.31,283.32Z" transform="translate(-19.06 -42.78)"/><path class="cls-6" d="M180.42,283.88c-.63,1.69-2.9,1.74-2.82,4.14-.76.05-1.31.32-2.07.37C177.33,287.06,177.71,284.31,180.42,283.88Z" transform="translate(-19.06 -42.78)"/><path class="cls-6" d="M135.14,284.26c.46-.51,1.29.2,1.88.19.09.85.6,1.28.75,2.06C136.34,286.32,136.05,285,135.14,284.26Z" transform="translate(-19.06 -42.78)"/><path class="cls-6" d="M138.71,285c.06-.26.47-.15.75-.19a4.25,4.25,0,0,1,.38,1.69C139.26,286.22,139.25,285.35,138.71,285Z" transform="translate(-19.06 -42.78)"/><path class="cls-6" d="M141.15,285.39c.43-.54,1.1.26,1.88,0a3.16,3.16,0,0,0,1.32,2.81c-.2.43-1.18.08-1.69.19A15.31,15.31,0,0,1,141.15,285.39Z" transform="translate(-19.06 -42.78)"/><path class="cls-6" d="M144.54,285.57a4.54,4.54,0,0,0,1.88.19c-.09,1.4.56,2.06.93,3A4.9,4.9,0,0,1,144.54,285.57Z" transform="translate(-19.06 -42.78)"/><path class="cls-6" d="M148.1,286a5.07,5.07,0,0,1,1.51.37c.32.56.23,1.53.75,1.88A2.09,2.09,0,0,1,148.1,286Z" transform="translate(-19.06 -42.78)"/><path class="cls-6" d="M172.71,286.14c-1.65,1.29-2.08,3.8-5.26,3.57.89-1.12,2-2,2.63-3.39C171.15,286.46,171.64,286,172.71,286.14Z" transform="translate(-19.06 -42.78)"/><path class="cls-6" d="M151.3,286.32a18.07,18.07,0,0,1,2.63.19c.32,1.09.67,3,2.25,2.26.12-1.12-.73-1.27-.75-2.26h4.32c-.72,1.1-1.22,2.41-2.25,3.2-1.41-.22-3-.29-4.51-.38C152.81,287.94,151.27,287.92,151.3,286.32Z" transform="translate(-19.06 -42.78)"/><path class="cls-6" d="M168.58,286.32c-1.68,1.26-2.06,3.83-5.45,3.39C164.56,288.19,165.11,285.8,168.58,286.32Z" transform="translate(-19.06 -42.78)"/><path class="cls-6" d="M163.89,286.51a22,22,0,0,0-2.45,3.2h-1.69C160.68,288.2,160.9,286,163.89,286.51Z" transform="translate(-19.06 -42.78)"/><path class="cls-6" d="M174,287.27a2.38,2.38,0,0,1-2.44,1.88C172.32,288.53,173,287,174,287.27Z" transform="translate(-19.06 -42.78)"/><path class="cls-2" d="M390.36,63.27c-1.45-6.19-3.27-12.16-3.61-18.51-2.18.49-4.45.76-6.65,1.12-4.17.67-8.34,1.27-12.59,1.69C363,48,358.6,49.09,354,49.64c-2.68.31-5.39.5-8.08.93-6.26,1-13.06,1.52-19.35,2.07a229.19,229.19,0,0,1-31.37.19c-1.8-.1-3.52-.83-5.26-.94-.75,0-1.52.37-2.25.38-3.21,0-6.7-1.39-9.77-1.51-2.46-.09-6.93-.63-10.52-.37-4.86.35-11.06,2.32-15.22,3.94-11,4.28-22.38,5.51-35.5,6.76-.78,2.42-.68,5.71-2.44,7.14-.64-2.34.23-4.77.56-6.76-2.21,1.23-.46,6.42-2.44,7.89-1.89-1.19-.68-4.78-.38-7-10,3.15-21.12,5.17-32.12,8.08a216.59,216.59,0,0,1-22,4.69c-.67,0-.15,1.23-.56,1.51-3.45,2-12.43,6.13-16,1.88.49,3.38,3.51,5.34,6.39,6.94,1.49.83,3.31,1.71,4.7,1.51,2.47-.36,2.88-3.18,5.63-3.57-.63,1.93-2.26,2.88-4.13,3.57,4.91,1.28,5.19-3.7,8.83-4.32-.69,2.32-3.24,2.77-4.32,4.69,4.82.2,6.23-3,8.45-5.44-2.2.13-3.92-.22-6-.19,2.57-1.38,7.68-.22,10.52-1.32-.1-2-1.4-5.34.19-6.76,2.41.59.25,5.07,1.12,6.39,4.56-.76,8.26-2.39,13.72-2.26-2.67,2.72-6.07,4.71-9,7.14.41.47,1.09.66,1.5,1.13,4.22-2.43,7.27-6,11.65-8.27-3,3.34-6.79,5.86-10.33,8.64,3.66-.42,6.11-3.44,8.64-5.44,2.28-1.81,4.25-3.48,6.39-5.08,5.9-.89,11.59-3,17.65-2.63-.23,1.28-2.18.82-3.19,1.32a6.81,6.81,0,0,0,.38,2.07c1.54-.18,1.86-2.49,3.38-2.07-.22,1.79-2.13,1.88-3,3a3,3,0,0,1,.38,1.31c2.09-.8,3.46-4.91,6.38-4.88-.66,2.47-4,3.85-6,5.63a6,6,0,0,0,1.69,2.82c3.24,0,6.62.1,9.58-.19,3.25-3.64,6.61-7.17,10.91-9.76,3,.81,6.32.51,9.5.68,7.71.41,15.17-.72,23,.46,5.53.84,10.57,3.27,16,4.45,1.55,1.71,3.76,3.28,3.91,5.68-1.07.78-1.14-.81-1.88-.94-2.18.53-3.86,4-6.39,4.13,1.13-2.38,3.49-3.52,6-4.51-.41-.52-1-.83-1.5-1.32-3.07,1.37-5.43,3.46-7.89,5.45a51.44,51.44,0,0,1,8.27,7.14,17.86,17.86,0,0,0-.38-5.07c-.76-.33-2.08,1.8-3.19.56.9-1.41,2.73-1.91,4.32-2.63.33,1,1.85,1.62,2.25,3.19.34,1.32-.24,2.79.57,3.76,0,4.19-3.24,6.45-5.07,9.58-.38.64-.41,1.47-.76,2.07-3.56,6.05-13.67,10.76-20.28,14.09-8.33,4.18-16,7.83-22.74,11.64a12.82,12.82,0,0,0-3.56,3c0,.15-.19.19-.19.37,3-2.11,6.23-4.89,10.9-4.69.34,4.79,2.47,7.79,4.13,11.27,0,.95-1,.71-1.32.94,2.49.25,6.51-1.09,9.21-1.88.87-1.82,2.19-3.19,3.19-4.88-1.29.63-2.95,1.08-4.51,1.69-1.31.51-2.92,1.87-4.13.75,2-2.15,5.7-2.57,8.45-3.94,0-1.52-1.61-3.35-1.88-5.08-.21-1.38-.45-3.6,1.13-3.94,1.07,2.74,1.49,6.14,3.57,7.89.43-.26,1.07-.31,1.5-.57-.67-1.65-1.81-3.57-2.63-5.63-.69-1.75-2.06-4.34-.19-6,1,1.51,1.37,3.4,2.07,5.07a49.07,49.07,0,0,0,2.25,4.88c1.13-.28,1.16-2.56,2.45-2.06-.22,1.35-1,2.12-1.51,3.19a7.34,7.34,0,0,0,2.07,2.26c2.33-3.89-2.94-7.33-1.69-11.28,2.4.93,3,3.64,4.13,5.83.6-.08.47-1.51,1.13-.94a6.28,6.28,0,0,0,.19,4.51c1.16-1.34,1.39-3.62,2.44-5.08-.51-.54-1.36.91-1.88.38,0-1.86,1.28-2.73,2.7-3.4a1.26,1.26,0,0,0,1.9.38,22.17,22.17,0,0,1,5.51-2.63,17.49,17.49,0,0,0,3.42-1.87,2.11,2.11,0,0,0,.71,0,2.21,2.21,0,0,0,1.52-1,1.55,1.55,0,0,0,1-1,1.46,1.46,0,0,1,.05-.2c1.19-.93,2.17-2,3.4-3,.31-.26.6-.48.87-.7.12,0,.24,0,.37,0-.13,1.51-1.8,1.46-2.44,2.44a37,37,0,0,1-3,10.33c1,0,1.42-.71,2.44-.75,1.26-4,2.06-8.58,3.76-12.21.42,3.51-1.66,7.73-2.26,11.46,2.16-1.07,4.27-.83,6-1.87,3.06-1.83,2.61-8.87,3.69-13.09l1.1-.43c-.35,4.87-.87,9.58-2.72,13,2.11-.7,4.34-1.3,6.39-2.06,1.65-4,2.21-9.19,3.57-13.53.51,4.23-.91,9.72-2.45,13.15a22.06,22.06,0,0,0,2.64-.75A72.42,72.42,0,0,0,313,109c.13-1.07-.17-2.44.5-3.3l.26-.08c.51,5.13-.41,10.37-2.45,13.52,10.76-2.91,21.37-5.12,31.18-8.64s18.14-8.72,26.11-13.71c.5.1,1.17-.56,1.5,0,6.43-4.71,13.21-9.06,22-11.36A72.25,72.25,0,0,0,390.36,63.27Zm-181.77,7.4c-.23-.82-1.12-4,.94-3.94C210.1,67.81,209.92,70.36,208.59,70.67ZM215,81.38c.56-1.58,2-2.8,3.19-3.94a25.78,25.78,0,0,1,4.51-3.38.88.88,0,0,0,.57.18C220.35,76.48,218,79.24,215,81.38Zm9-4.32c-1.87,1.71-3.1,4.25-5.64,5.26,3-4.39,6.5-8.28,11.46-10.71a.53.53,0,0,1,.38.57C228.12,73.87,226,75.28,224,77.06Zm70.81,46.21c1.64-3.52,2.41-7.91,3.48-12l.62-.2C298.71,115.72,298.19,121.35,294.81,123.27Zm11.09-6.76c-.54,1.87-1.26,4.34-3.19,4.51,2-3.51,3-8,3.63-12.77L307,108A34.37,34.37,0,0,1,305.9,116.51ZM316,111.62c-.49,2.31-.1,6.11-2.63,6,1.8-2.4,1.52-6.88,2.63-10,.22,0,.34,0,.38.19A10.23,10.23,0,0,1,316,111.62Zm7.92-9,.67-.2c-1.16,4.09-1.2,9.29-2.95,12.78A58.52,58.52,0,0,1,324,102.61Zm3.17,6.57c-.55,2.39-1.06,5.21-2.64,6.2.4-4.47,2.27-8.77,2.85-13.78l.88-.26C328.45,103.65,327.71,106.63,327.13,109.18Zm2.06,4.32a105.46,105.46,0,0,1,3.05-13.35l.49-.14C332.11,104.38,331.58,110.33,329.19,113.5Zm7.52-8.26c-.74,2.66-1,5.74-3,7.33.7-5.22,2.46-9.38,3.83-13.92l1-.29C338.34,100.65,337.32,103,336.71,105.24Zm3,4.32c-.39-4.36,2.45-8.19,3.5-12.53l.68-.2C343,101.62,341.19,105.4,339.71,109.56Zm8.27-7.89c-.65,2.12-1,4.48-2.45,5.82,1.31-4.08,1.92-8.86,4.14-12C349.84,97.52,348.6,99.62,348,101.67Z" transform="translate(-19.06 -42.78)"/><path class="cls-2" d="M183.05,79.32c-1.48,1.66-4.42,3.47-6.58,5.07-1.44-.56-2.89-1.12-3.19-2.82.6,0,2.54-1,2.25-.19C177.38,80,181,80.43,183.05,79.32Z" transform="translate(-19.06 -42.78)"/><path class="cls-2" d="M277.34,101.11c-1.24,2.26-4.18,4.45-6.19,6.57.16-1.41,1.73-2.35,2.81-3.38S276.31,102.12,277.34,101.11Z" transform="translate(-19.06 -42.78)"/><path class="cls-2" d="M151.3,106c-9.74.45-22.29-1.17-29.87,2.44-1.74.83-3.38,1.56-4.88,2.44s-2.82,2.29-4.51,2.07c-.3-.44,1.06-1.07,1.88-1.5a53.29,53.29,0,0,1,22.16-6,90.51,90.51,0,0,1,13.34-.19C150.11,105.31,151.19,104.92,151.3,106Z" transform="translate(-19.06 -42.78)"/><path class="cls-2" d="M290.49,116.7A47.69,47.69,0,0,1,286.93,127c-2,.86-3.78,1.86-5.83,2.63.86-2.33,2.45-4.94,2.26-7.7-2.46,3.05-1.83,9.19-6.76,9.77.73-2.59,2.41-5.23,2.62-7.71,2.12-1.38,4.55-2.46,6.39-4.13-.32,1.56-1,4.4-1.32,6.57,1.21-1.36,1.24-3.89,2.07-5.63.11-.61-.13-.87-.19-1.32A34.83,34.83,0,0,0,290.49,116.7Z" transform="translate(-19.06 -42.78)"/><path class="cls-2" d="M274.9,125.9c1.27-.61,2.62-1.14,4-1.69-1.24,2.64-2.31,5.46-3.38,8.27-1.3.71-2.59,1.42-4,2.06C272.46,132.34,274.54,128.69,274.9,125.9Z" transform="translate(-19.06 -42.78)"/><path class="cls-2" d="M298.76,126.28c-.5,1.57-.87,3.26-2.07,4.13C297.08,129.47,297.59,127.05,298.76,126.28Z" transform="translate(-19.06 -42.78)"/><path class="cls-2" d="M242.22,132.1c-.81,2.94.55,6.62,1.88,8.64a15.87,15.87,0,0,1-5.08,2.44c-1.78-1.65-2.42-4.46-2.25-8.07C237.73,133.25,240.71,133.41,242.22,132.1Z" transform="translate(-19.06 -42.78)"/><path class="cls-6" d="M126.88,280.88c1.39.8,4.55,1.45,4.88,3.94C130.07,283.58,127.85,282.85,126.88,280.88Z" transform="translate(-19.06 -42.78)"/><path class="cls-6" d="M132.51,283.51c.38-.55.7.54,1.32.37-.28,1.2.8,1.55,1.31,2.44C134,286.39,133.34,284.38,132.51,283.51Z" transform="translate(-19.06 -42.78)"/><path class="cls-5" d="M173.09,158c-4.21.43-9.4-.8-12,.38-4.91-.85-11.38-.15-16.91-.38-.43.57-.07,1.94-.19,2.82,14.5,0,31.31,1,42.83-.75.56,19.42.47,41.08.57,60.11,0,1.19-.39,2.27,0,2.82,1.1-1.15.59-3.91.75-6a19.45,19.45,0,0,1,.75,5.45c1-.48.46-1.7.75-2.45,1-2.48,4.62-4.62,6.2-6.76-.1,2.91.7,5.95,0,8.27-.42,1.37-2.82,2.71-3.95,3.94-1.39,1.53-2.69,2.81-3,4.7,2.75-1.63,4.58-5.19,6.95-6.58.13,1.2-.32,1.81-.19,3-2.62,2.45-5.84,4.3-7.14,8.08,2.58-1.18,4.66-5.49,7.14-6.77v2.82c-2.69,2.13-5.49,5.16-7.7,7.14-.38-3,.08-6.84-.56-9.58-1.33,1.61-.73,5.16-.94,7.89-2.38,1.38-4.75,2.76-6.39,4.88,2.44.18,4.34-2.78,6.2-3.19v3.19a47.82,47.82,0,0,0-6.2,4.89c2.41-.11,4.47-3.16,6.2-3.95v4.89c-1.64,1.18-3.69,1.94-4.51,3.94,1.66,0,2.87-2,4.51-2.63.35,3.61-.68,5.83-.57,9.21-4,1.19-7.09,3.29-10.52,5.07V260.4c3.18-1.6,6.44-4.06,9.59-5.07-3-.79-6.67,2.42-9.21,3.76-.7.2-.37-.64-.75-.76-.34.23-.15,1-.38,1.32-3.49,2.4-7.48,4.29-10.33,7.33,1.93-.26,3.6-1.71,5.26-2.82A45.21,45.21,0,0,1,174.4,261V263c-3.07,2.26-6.81,3.83-9.2,6.77,1.65-.23,3.22-1.46,4.7-2.45s2.93-2.06,4.32-3c.29.74-.19,2.31,0,3.57-2.85,2.28-6.39,3.88-8.64,6.76,3-.75,5.47-3.66,8.45-5.07-.26.94.31,1.06,1.12.94.43-.32.08-1.44.19-2.07,3.57-2,6.93-4.21,10.33-6.39.19,1.83-.08,3.46,0,5.64-3.59,1.79-6.76,4-10.33,5.82.13-.81,0-1.38-.94-1.12-.79,0-.18,1.44-.37,2.06-3.12,2.15-6.85,3.68-9.4,6.39,3.38-.52,6.41-4,9.4-4.89.41,1.47-1,2.12-1.88,2.63-1.91,1.17-3.57,2.24-5.45,3.38-.86.54-2.12.81-2.44,1.88,2,.25,3.55-1.47,5.26-2.44,5.15-2.93,10.89-5.8,16-8.83.43.57.07,1.94.18,2.82a79.92,79.92,0,0,0-10.14,5.07c-.54-.08.17-1.42-.38-1.5a1.19,1.19,0,0,1-.93.19c-.25.19-.55,2,.37,1.69-2,.57-4,3.29-6.38,3.76a8.45,8.45,0,0,1-2.07-.19c-8.57-.51-20-.35-27.62-2.07-.53-.16-.73-.64-1.12-.94a10.58,10.58,0,0,1-5.26-.94c-2.29-3.32-2.18-9.67-1.88-16.15.83-18.19.8-40-.94-56.55-1.53,14.56.58,32.33-.75,48.09-.55,6.48.19,13.38.56,19.16.11,1.65-.19,3.1.75,4.51a36.92,36.92,0,0,1-3.94-2.25c-.83-2.74-.21-6.93-1.32-9.39.68-18.34.8-37.45.76-56.36,0-9,.39-18.11,0-26.86-.13-2.66-.47-5.48-.38-8.08.08-2.43.64-4.93.75-7.32.17-3.68-.13-7.27.75-10.71a13.89,13.89,0,0,1,2.63,1.13c-.77,5.42-.23,12.7,0,17.65,1.39-.21,1.24-3.16,1.32-4.88.25-5.48-.44-11.77,1.69-15.59,1-1.88,2.5-2.2,3.57-4a37.19,37.19,0,0,0-5.64,3.57c-1.15-.16-1.22-1.41-2.44-1.5,2.21-4.45,10.66-4.71,17.47-5.26,4-.33,5.67,1.07,9,1.31,2.25.17,4.7.16,7.33.19.74-.3.39.49.75.56,1-.12,5.48-1.4,6.76-1.12C170.86,151.11,172.8,155.34,173.09,158Zm-37.38-.37c-.32,1.06-1.23,1.53-1.32,2.81,1.82-.06,3.18.34,5.07.19,0-1.11.49-1.76.57-2.81A27.12,27.12,0,0,1,135.71,157.65Zm37.19,6.57c.52,5,.34,10.69.75,15.78a2.21,2.21,0,0,1,1.69-.37c.27-5.42-.86-10.4-.37-15.41ZM178.35,183c.76,17.65.75,36.85,2.82,52.22-.74-23.19-.73-48.74-3.2-70.82C177.08,169.11,178.08,176.78,178.35,183Zm-4.89-.94c.13,1.07-.24,2.63.19,3.38,1.08-.86,2.16-1.72,1.69-4.13C174.48,181.33,174.12,181.85,173.46,182.07Zm-44.14,18.22c1.07-.24,1-1.58,1.13-2.44.39-4-.25-9.87-.57-13.53,0-.14-.15-.22-.37-.19C129,189.05,129.58,196.27,129.32,200.29Zm44.33-8.83c.69,15.23-.43,36.43.75,50.72-1.81,2-5.29,3.21-6,5.63,2.37-.88,4-3.49,6-4.13v1.51c-1.81,1.94-5.13,3.37-5.82,5.82,2.25-1.13,3.59-3.17,5.82-4.32,1.5,4.65-5.7,5.18-6,8.64,2.26-.51,3.76-3.37,6.2-4.32,0,.55-.79,2.1,0,2.25.68-.45.58-1.67.56-2.81.78-1.42,2.57-1.82,3.2-3.39-1.48-.09-2,1.74-3,1.51-.64-3.08,1.24-3.65,2.26-5.08-.83-.56-1.57,1.39-2.26.95-.45-2.21.95-2.56,1.51-3.76-.6-.08-1,1-1.32.56-.22-18.25.47-37.41-.38-55C173.24,187.45,173.53,188.74,173.65,191.46Zm21.42,26.3c-2.62,2.46-5.85,4.3-7.33,7.89.44.13.5.62.94.75,1.24-3.89,5-5.28,6.95-8.45A.86.86,0,0,1,195.07,217.76Zm-13.15,30.81a4.85,4.85,0,0,0,2.82-2.44C183.53,246.58,181.8,247.42,181.92,248.57Zm-1.5,4.51a46,46,0,0,0-7.14,3.94c-2.19,1.44-4.59,2.83-6,4.88a64.88,64.88,0,0,0,6.95-4.13c2.26-1.44,4.73-2.76,6.57-4.69Z" transform="translate(-19.06 -42.78)"/><path class="cls-1" d="M246.68,209.68c-2-2-3.66-4.28-5.45-6.38-3.72-4.38-7.59-8.35-11.46-12.4-1.08-1.14-1.72-2.77-3-3.76-.92-.71-2.26-.85-3.19-1.5s-1.31-1.52-2.06-2.07-1.75-1-2.64-1.5a167.06,167.06,0,0,0-28-13.9c-4-1.53-8.12-3.59-12.2-4.7-5.12-1.39-10.45-2.1-15.78-3.75-.61-.09-.67-.72-1.32-.75-4.57-1.36-8.91-1.32-13.34-1.32-5.55,0-9.15-1.27-13.33-2.82-2.4-.88-5.11-1.68-6.58-2.44-2.11-1.1-4.19-3.25-6.57-4.7s-5.15-2.37-7.52-3.75c-1.67-1-3-2.63-4.69-3.76C104.4,136.69,98.11,134.43,93,131c-1.64-1.11-3.06-2.63-4.69-3.75s-3.7-2-5.45-3.2a44.31,44.31,0,0,0-5.26-3.38c-3-1.48-7.63-4.81-11.46-2.63a36.6,36.6,0,0,0-4.32-7.7c-.6-.8-1.17-1.87-1.69-2.44-1.78-2-3.82-2.46-6.57-3.19-5.87-1.58-8.52,2.86-7.33,9.58-2.54-3.89-6.12-10.57-10.71-12.21-3.58-1.29-7,.85-9.39,2.82-1,9.6,2.37,16.54,4.14,24-1.55-2.74-6-4.12-9.77-2.45-3.62,9.6.63,21.9.94,31.56,1.43,5.37,4.76,9.66,7.32,14.1a101.8,101.8,0,0,0,8.45,13.14v1.13c1.62.7,1.63,2.75,2.45,4.13,3.06,5.24,9.22,6.83,15,9.77,7.57,3.84,14.87,7.32,22.35,11.46,3.7,2.05,8.43,4.12,12.59,4.51,2.29.21,4.68-.17,6.94,0,4.59.33,9.42,1.52,14.09,2.25,5,.78,10,1,14.66,1.88,2.81.57,5.45,1.79,8.26,2.25,8.37,1.39,16.81,1.55,24.24,4.89-.37.36-1.44.69-1,1.31,2.64-1.61,5.54.06,8.46,1.13,6.23,2.29,12.72,3.77,17.47,6.76a215.66,215.66,0,0,0,20.85,11.46c1.08-.59,2,.79,2.44-.37a19.92,19.92,0,0,0-3-2.51,1.83,1.83,0,0,1,.15-.45.94.94,0,0,1,.31-1.43c3-1.64,6.37-.68,9.63-1.42,2.21-.5,5.34-1,8.21-1.83h0c1.75-.82,3.49-1.66,5.23-2.49.12-.11.27-.19.38-.3a1,1,0,0,1,.82-.28l1.7-.81a1,1,0,0,1,.68-.9,26,26,0,0,0,8.9-5.9,24.88,24.88,0,0,1,3-5,.82.82,0,0,1-.22-1c0-.09.08-.16.11-.25h0v0a28.29,28.29,0,0,1,2.15-4.3,19.42,19.42,0,0,1,2.76-4,.94.94,0,0,1,1.6.29c1.39.71,2.81,1.25,4.14.23C251.52,212.81,248.67,211.64,246.68,209.68Z" transform="translate(-19.06 -42.78)"/><path class="cls-2" d="M66.72,129.85H64.84c-.85,1.34-2.48,1.9-3,3.57,2.49-.52,4.87-2.29,7.33,0,.83.77,1.47,2.24,2.44,3.38,2.34,2.73,6.1,6.31,7.7,9.2,2.43,1.21,3.46,3.8,5.26,5.64,1.54,1.58,4.14,2.12,4.89,4.51-1.77.86-5,.29-6,1.87,4.85.79,9.44-.14,13.14,1.51.64.28,1.15,1,1.88,1.31,2.47,1.08,5.57,1,7.14,3.38-3.86,5.54-14.32,1.63-21.6,1.13-2-.13-4.34.22-5.64-.19-1.89-.59-5.26-5.7-6.57-7.32-2.27-2.81-4.7-5.21-6.39-7.52-3.08-8.37-7.85-15.07-11.83-22.54-.28-.41-.85-.53-1.13-.94-1.38-5.6-5.21-11.58-3-18.41.74-.69,2.39-.48,3.19-1.12,3.79,2.11,6.56,6.66,8.64,11.08C63.1,122.27,65.46,126,66.72,129.85Zm10.33,31.56a3.77,3.77,0,0,0,4.13-1.13C80.6,158.88,76.42,159.22,77.05,161.41Z" transform="translate(-19.06 -42.78)"/><path class="cls-2" d="M67.84,122.9c10,.43,15.49,4.93,21,10.14-1,.76-2.94,1.49-2.25,3.38,2.07-.06,2.67-1.59,4.13-2.25,7.11,2.72,14,5.63,18.6,10.89-1.72,1.17-3.34,2.42-5.07,3.57a1.92,1.92,0,0,1-1.51-2.06c-.33-.34-.94,0-.75.75-.39-.17-.55-.57-1.12-.57-.13-1,.89-2.05,0-2.62-.83.05-.45,1.3-.94,1.68-1.32,0-1.74-.89-1.88-2.06-1.14,1-2.74-.05-3.38-1.13-1,1-3.28,4.23-1.32,5.83,1-1.18,1.2-3.19,1.69-4.89.71.29,1.17.84,1.88,1.13-.36,1.92-2.54,3.92-1.31,6.2,1,.1.89-.87.93-1.69a11.41,11.41,0,0,0,1.51-3.57c.69.12.93.69,1.31,1.12-.37,1.68-2.48,3.48-1.31,5.45,1-1.26,1.42-3.21,2.25-4.7.56,0,.64.5,1.13.57-.43,1.84-2.23,3.26-1.88,5.26,1.66-.78,1.77-3.11,2.82-4.51a7,7,0,0,1,1.31.75c-.72,2-3.39,4-2.44,6.39a54.16,54.16,0,0,0,3.2-5.64c.82,0,1.15.47,1.69.75-1,2.32-2.58,4.07-3.57,6.39-2.71-2.19-5.61-4.2-8.46-6.39s-5.36-4.68-8.26-6.57c-2.65-1.72-5.71-3.2-8.08-5.26-2.1-1.83-3.65-4.79-5.45-7.33A29.66,29.66,0,0,1,67.84,122.9Zm20.1,19.35c-.85-.2-3.14-.63-3.19.56,1,1.32,3-.34,4.51.37a3.56,3.56,0,0,0,.19-2.44C88.33,140.62,88.54,141.84,87.94,142.25Zm3,2.81c.8-1,2-2.46,1.5-4.13H91.7C91.6,142.33,89,144,91,145.06Z" transform="translate(-19.06 -42.78)"/><path class="cls-2" d="M41.17,177.91a1.58,1.58,0,0,0-.11-1,9.27,9.27,0,0,1-.6-2.16c0-.57,0-1.15,0-1.71l.17-.52.11.16c.82-3.88,4.55-4.85,7.89-6.2-3.3-6.15-7.43-11.48-11.27-17.1-1,.1-1.89-.13-2.63,0-2.49.44-3.56,2.79-5.63,2.82,1.55-2.89,3.45-5.43,7.7-5.63-2.2-5.63-5.46-10.19-8.64-14.84-1.32-.16-3.69-.5-4.7.18-.74,9.75.64,17,2.26,24.05.82,3.59,1.5,7.52,3,10.14,1,1.79,2.65,3.36,3.76,5.07,3.59,5.56,6.25,11.56,10.71,16.16a8.07,8.07,0,0,0,2.81-2.82C43.45,183.06,42.51,180.4,41.17,177.91Z" transform="translate(-19.06 -42.78)"/><path class="cls-2" d="M125.7,155.4c.59.09.74-.41,1.13,0a59.06,59.06,0,0,1-6,3c-3.1-2-6.35-3.79-9.58-5.63,0-.61.33-.8.19-1.51-.69,0-.85.54-1.32.75a11.73,11.73,0,0,1-2.44-1.5c.29-2,3.12-1.38,4.32-2.44,5.23,1.47,10.1,3.3,13.71,6.39C125.72,154.92,126.05,155,125.7,155.4Z" transform="translate(-19.06 -42.78)"/><path class="cls-2" d="M107.11,151.83c.91.08,1.17.82,2.06.94-1.24,2.33-3.23,3.9-4.13,6.57C100.94,158.4,107.08,154.28,107.11,151.83Z" transform="translate(-19.06 -42.78)"/><path class="cls-2" d="M110.49,153.7c1,.44,1.81,1.07,2.81,1.51-.74,1.51-2.19,2.31-2.44,4.32,1.76-.62,2.34-2.42,3.38-3.76,1.69,1,3.75,1.64,5.45,2.63-1.58.57-3.35.89-5.26,1.69-1.68.71-3.43,2.28-4.7,2.25s-2.25-1.53-3.56-2.25C107.36,157.72,109.16,156,110.49,153.7Z" transform="translate(-19.06 -42.78)"/><path class="cls-2" d="M58.26,156.71a3.64,3.64,0,0,1-1.5,1.69c-.49-.44-1.13-.75-1.31-1.5A8.88,8.88,0,0,1,58.26,156.71Z" transform="translate(-19.06 -42.78)"/><path class="cls-2" d="M139.79,159.34c-11.2,1.94-21.37,4.93-32.12,7.33a5,5,0,0,1,5.07-1.51c.21-.83-.58-.67-.94-.94,3.63-2.13,8.43-3.08,12.59-4.69.59.09.14-.86.56-.94C129.25,155.73,135.12,158.67,139.79,159.34Z" transform="translate(-19.06 -42.78)"/><path class="cls-2" d="M57,173.62c0,2.85.07,5.68,1.13,7.51a14,14,0,0,1-10.71-.75,21.67,21.67,0,0,1,0-8.64A41.72,41.72,0,0,1,57,173.62Z" transform="translate(-19.06 -42.78)"/><path class="cls-2" d="M244.42,214c-.33-1.17-1.46-1.87-2.25-2.63-3.91-3.7-7.52-8.43-11.08-12.77-1.42-1.72-2.57-3.7-4.14-5.26a84.61,84.61,0,0,0-9.58-7.51c-3.3-2.43-7.53-4.12-11.27-5.83-3.91-1.78-7.6-3.84-11.46-5.63s-7.52-4-11.45-5.45c-1.9-.68-4.25-.9-6.39-1.5-9.41-2.63-21.27-6.11-33.44-3.38-3.22.72-6.36.54-9.2,1.12-5.33,1.1-10.78,3.41-16.72,4.51-6.09,1.13-12.67,2.39-19,2.26-2.37-.05-5-.63-7.51-.94-12-1.51-24.37-4.68-37.95-1.88,2,.87,4.29,1.47,6.39,2.25-.57,3.52-1,8.35.38,11.27-2.27-.25-3.61,1.85-6.2,1.88,10.85,2.08,21.76,3.64,32.12,4.7a55.81,55.81,0,0,1,21.23,6.39c2.09,1.09,4.32,1.87,6.2,3,1.7,1,2.58,2,5.07,2.82.71.22,2.56.09,2.25,1.31,0,.8-1.73.46-2.82.38a27.58,27.58,0,0,1-8.64-1.69,46.11,46.11,0,0,1-4.5-2.45c-2.52-1.38-5.16-2-7.71-3.19-1,.74-.44,3.06-2.06,3.19.32-1.4,0-2.39,0-3.94a4.13,4.13,0,0,0-2.07-.75,39.48,39.48,0,0,0-2.06,5.11l-.78-.31a14.77,14.77,0,0,1,1-5.36c-2.54.14-2.19,3.16-3.71,4.32l-1.34-.46a17.32,17.32,0,0,1,1.48-4.05c-6.36-.68-12.71-.95-18.6-1.85a1.46,1.46,0,0,0-.74-.42,19.47,19.47,0,0,0-4.1-.51c-.78-.19-1.55-.38-2.29-.6-2.54-.76-4.93-1.76-7.33-2.26-2.74-.57-5.11-.8-7-2.44a16.62,16.62,0,0,0-2.25,3.19c1.63,2,2.67-1.84,4.69-1.12a32.19,32.19,0,0,1-2.06,2.81,19.08,19.08,0,0,0,5.82,4.32c8.35,3.93,17,7.56,25.36,12.22,2.32,1.29,6,4.2,7.89,4.5a29.67,29.67,0,0,0,3-.18c5.76.26,11.1,2.08,17.65,1.87.73.17.31-.82,1.13-.56,6.77,1.37,14,2.29,20.47,3.95,5.05-3.44,9.86-7.16,15-10.71,1.63-1.11,3.42-2.72,5.64-2.44-6.56,4.27-12.73,8.93-19.35,13.15,1.16.72,3.09.66,4.51,1.12,3.42-2.11,6.49-4.74,9.77-7.13s6.38-5.25,10.52-6c-1.21,1.57-3.11,2.33-4.7,3.38-4.63,3.09-9.3,6.61-13.9,10,2.84.79,6,1.23,8.83,2.07,4.39-3.33,9-7.18,14.09-10.34,1.45-.9,3.38-2.84,5.26-1.69-.41.87-1.38.81-2.07,1.13-5.92,2.76-10.59,7.53-15.59,11.27,1.51.23,3,1.14,4.32.94s3-2.15,4.32-3.19c2.78-2.25,5.36-4.38,8.27-6.39,1.3-.9,3.18-2.48,4.88-1.31-6,2.91-10.53,7.38-15.59,11.27,1,.51,2.49.52,3.57.94,3.85-2.54,7.68-6.26,12-8.83,1.13-.67,3.11-2.39,4.51-.75-5.54,1.88-10,6.38-14.66,9.76,1.53-.09,2.85.79,4.14.57,1.55-.27,4.68-3.35,6.2-4.32,2.24-1.44,4.37-3.17,7.32-2.44a38.65,38.65,0,0,0-11.83,7.14c3.92,2,5.75-.6,8.64-2.63,2.36-1.67,3.87-3.19,7.14-3.57a123.36,123.36,0,0,0-10.52,6.94,18.73,18.73,0,0,0,3.19,1.51c3.62-2.08,6.42-6,11.09-6.39-3.64,2-6.69,4.46-10,6.76,4,2.62,8.25,5,12.21,7.71s8.48,4.47,12.21,7.51c-.25.53-.84-.14-1.13-.19,1.52,1.34,3.75,2.63,5.81,4.07a1.43,1.43,0,0,1,1.41-1.23c5.27-.14,10.23-1.55,15.21-3.13l1.18-.38.94-.3a48.56,48.56,0,0,0,6.3-2.42c1.41-.6,2.81-1.23,4.19-1.85a15,15,0,0,0,6.49-5.83c.42-.36.86-.7,1.27-1.08.69-1.1,1.43-2.19,2.14-3.29a20.28,20.28,0,0,1,2.62-5.61,1.19,1.19,0,0,1,.25-1c1-1.38,2-2.76,2.91-4.21C246.74,214.32,245.53,213.67,244.42,214ZM73.85,184.89c-4.31-1.33-5.19-9.56-3.19-14.28.71.14.9-.23,1.51-.19,1.4,2.86-.21,7,0,9.77C72.32,182.26,74.33,183.13,73.85,184.89Zm.76-3.57c-.24-1.93-1.12-6.86,0-9.77,1-.44,1.08-1,2.63-1.13-.95,1.82-1,5.54-1.51,8.46C75.59,179.78,75.5,181,74.61,181.32Zm2.63,5.26c.58-1.25,1-4.05-.38-4.7,2.29-1.28.47-6.67,2.26-8.45.3-.06.32.18.56.19.57,2.21-.16,4.71,0,7.14l.29,0a9.11,9.11,0,0,0-.28,1.56l-.06.4C79,184.23,78.75,186,77.24,186.58ZM105.79,189c-3.94-1.26-4.74-11.82-.38-13.34-.45,2.25-1.39,5.11-.93,8.27C104.78,186.1,107,187.71,105.79,189Zm26.49,12.59a51.54,51.54,0,0,0-6.58,1.5C124.14,199.57,130.79,199.86,132.28,201.61Zm1.31,1.5a84.14,84.14,0,0,1-12.58,9.2C124.92,209,128.7,205.48,133.59,203.11Zm-9.77,9.95c4.63-3.54,10.1-7.78,15-11.08.27.1,1-.22.94.19a18,18,0,0,1-4.13,3.38c-4.32,3-8.67,6.24-13.15,9.21C122,213.88,123.39,213.4,123.82,213.06Zm2.26,2.45c-.24-.88,1-1.24,1.5-1.7a183.25,183.25,0,0,1,15.22-11.45,1.19,1.19,0,0,1,.93.19A177.64,177.64,0,0,1,126.08,215.51Zm16.34,3c.25-1.48,2-2.25,3.19-3.19,2.52-1.95,4.73-3.74,7.71-5.83,1.74-1.22,3.38-2.8,5.44-2.44C153,210.55,148.2,215,142.42,218.51Zm37.76,9.21c.29-.94,2.3-1,3-.94C182.33,227.15,181.13,228.05,180.18,227.72Z" transform="translate(-19.06 -42.78)"/><path class="cls-2" d="M64.28,156.52c-1.9.8-5,.43-5.83,2.26-.5,0-.62-.55-1-.3l-.3-.21a0,0,0,0,0,0,0,13.31,13.31,0,0,0-1.59-2.33c.89-1.19,3.33-1.76,5.52-1.83a216.8,216.8,0,0,0-12-24.23c-.08-.42-1,0-1.13-.38-.09-.59.58-.42.38-1.13-1.42.1-3,1-4.32.57-1-.63-.43-2.12-.19-3,1-.51,2.2-.8,3.19-1.31-2.65-3.43-3.86-8.18-6.2-12.4-.91-1.65-4.48-6.81-6.19-7.32-4.23-1.28-5.24,1.75-5.26,5.44-.05,7.17,3,13,5.26,20.1,1,3.13,1.94,6.33,3.19,9.58,1,2.62,2.58,6.86,4.13,8.64.55.63,1.43.88,2.07,1.5,4.32,4.28,7.26,10.61,10.52,15,1.92-.34,4.78.47,6.57-.37l-.6-.49a17.85,17.85,0,0,0,2.58.41l.19,0a2.41,2.41,0,0,0,.65.28c2.42.61,4.93-.43,8.08,0C70,162.34,66.59,159.47,64.28,156.52Z" transform="translate(-19.06 -42.78)"/><path class="cls-2" d="M85.69,147.88c.52-.07,3.6,2.47,1.13,1.13A3.8,3.8,0,0,0,85.69,147.88Z" transform="translate(-19.06 -42.78)"/><path class="cls-2" d="M44.93,172.49c-.59,2.42.08,5.16.56,7.14C43.81,179.41,43.3,173.88,44.93,172.49Z" transform="translate(-19.06 -42.78)"/></svg>