<svg id="Layer_1" data-name="Layer 1" xmlns="http://www.w3.org/2000/svg" viewBox="0 0 300.59 128.99"><defs><style>.cls-1{fill:#fff;}.cls-1,.cls-2,.cls-3{fill-rule:evenodd;}.cls-3{fill:#ccf8ff;}</style></defs><title>hand wash 2</title><path class="cls-1" d="M256.12,125.56c-.07,2.57,5.75,5,7.62,2.13a7.56,7.56,0,0,0,.82-3.59C262.33,121.12,256.23,121.45,256.12,125.56Z" transform="translate(-56.56 -109.23)"/><path class="cls-1" d="M201.51,114.46c-2.52-1.22-2.69,2-1.22,2.33C201.28,117,202.23,115.54,201.51,114.46Z" transform="translate(-56.56 -109.23)"/><path class="cls-1" d="M205.4,122.43c1.12-.08,2.35,1.48,3.59.81.12-.41.23-.82.35-1.23C208.68,120.36,205.75,120.4,205.4,122.43Z" transform="translate(-56.56 -109.23)"/><path class="cls-1" d="M213.35,125.42a1.36,1.36,0,0,0,1.61-1.65C213.63,122.39,212.64,124.41,213.35,125.42Z" transform="translate(-56.56 -109.23)"/><path class="cls-1" d="M194.79,123.47c-2.06,0-3.46,1.36-3.22,3.3s4.14,3.93,6,3C201.41,128,197.48,123.47,194.79,123.47Z" transform="translate(-56.56 -109.23)"/><path class="cls-1" d="M199.75,129.64c1.06,1.67,3.65.14,2.49-1.41A1.6,1.6,0,0,0,199.75,129.64Z" transform="translate(-56.56 -109.23)"/><path class="cls-1" d="M175.86,126.2c.91-.24,2.16-.23,2.4-1C179.15,122.13,172.52,123.67,175.86,126.2Z" transform="translate(-56.56 -109.23)"/><path class="cls-1" d="M187.26,129.2c-.87,1.74.62,2.49,1.85,2.24a2.84,2.84,0,0,0,.55-1.95A2.32,2.32,0,0,0,187.26,129.2Z" transform="translate(-56.56 -109.23)"/><path class="cls-1" d="M178.82,129.31a2.23,2.23,0,0,0,.28,2.38c1.48.13,4.07,1.32,4.58-.63a2.2,2.2,0,0,0-.8-1.94C181.14,128,180,129.39,178.82,129.31Z" transform="translate(-56.56 -109.23)"/><path class="cls-1" d="M154.31,132.2c1.25,2.89,6.89,2.76,6.21-1.7C158.79,128.11,154.5,128.05,154.31,132.2Z" transform="translate(-56.56 -109.23)"/><path class="cls-2" d="M347,225.18l0-.1a1,1,0,0,1-.87-1.25c.1-.29.19-.52.26-.73a1,1,0,0,1-1-1.25c2.92-9.68,4.69-19.65,7.35-29.39a.92.92,0,0,1,.84-.71,6.93,6.93,0,0,0-.37-2,.86.86,0,0,1,.61-1.16v-.06l1.08-.12c.77-.15,2.08.68,2.25-.52-1.2-1.35-3.36-.9-4.88-1-12.66-.7-24.59.73-37.52-1.15,4.21-2.42,8.28-5.09,10.79-10.54a40.53,40.53,0,0,1,12.74-8.66c1.87-.85,4.05-1.45,5.45-3.06a2.79,2.79,0,0,0-2.3.29v-.11c-.63,0-1.28-.54-1-1.25a10.2,10.2,0,0,0,.69-3.32.86.86,0,0,1-.74-.72l-.18-1.05a.92.92,0,0,1-.83-.95c0-3.45-.61-6.84-.95-10.26a1,1,0,0,1,.1-.52c-.17-1.11-.3-2.22-.42-3.34-1.32-7.1-3.12-14.15-2.88-21.44a.29.29,0,0,1,0-.09c-.42-.94-.86-1.86-1.31-2.74a1,1,0,0,1,.27-1.24c-.11-.4-.23-.8-.34-1.2a.9.9,0,0,1,.56-1.12c1-.77,1.93-1.58,2.89-2.43.61-.54,2.83-1.35,1.73-2.76a28,28,0,0,0-3.63,2,119.78,119.78,0,0,1-11.95,5.83c-2.67,1.13-5.17,2.9-7.84,4.1s-5.68,2.12-8.4,3.39c-5.45,2.54-11.48,3.69-17.39,5.44a104.82,104.82,0,0,1-18.28,3.87c-1.92,1.1-4.57.89-6.87,1.32-.33-.17.43-.42-.43-.5A36.71,36.71,0,0,1,255.4,137c1.93-5.53-6.79-6.46-9.46-5.13,1-7.24-12.41-7.93-12.74-.9-5.47-1.93-9.36-1.07-12,2-2-1.85-7.68-4.73-10.83-3.61-2.2.77-2.81,3.72-3,6.43a8.82,8.82,0,0,0-3.64.7c-1.23-4.62-11.43-6.06-12.67-.49-3-3.5-9.53-3.22-11.47,0-1.36-3.05-4.25-8-9.07-7.88a10.49,10.49,0,0,0-3.15,1c-2.58,1.12-4,3.07-4.08,7.08-2.72-.66-4.15.95-5.15,3.33-3.33-2.68-6.6-.63-7.72,3-3-1.31-5.68-2.51-7.79-.84-1.76,1.4-3.36,6.16-2.18,7.79a8.49,8.49,0,0,0-6.55,4.28c-4-3.63-9.39-8.15-16.95-8.38-2.13-1.84-4.15.42-6,.82-1.45-1.29-3.25-3-5.23-4.53s-3.84-3.43-5.91-4.14a44.33,44.33,0,0,0-5.59-1.18,19.81,19.81,0,0,0-5.59.16c-1.17.57-2.05,1.65-3.27,2.13-10-3.63-24.69-9.49-26.58,2.11,1.79,3.38,6.43,5.94,8,8.94-1.39-1.25-2.59-.1-4.3-1-1.11.68-2.92.86-3.9,2.35a19,19,0,0,0-2.07,5.34c0,1,2.3,3.3,3,4.11,2.62,2.8,6.77,5.59,8.81,7.43,1.45,2.73,4.24,4,6.3,6.17,6.08,6.28,11.57,13.2,19.71,18.32.26.11,0,.47,0,.76,2,.81,3.19,2.37,4.54,3.56s3.07,2.33,4.5,3.75c1.13,1.13,1.63,2.3,2.54,3.2,1.15,1.12,2.26,1.42,4.08,2.48,3.63,2.1,6.63,5.15,9.7,7.68a25,25,0,0,1,4.39,4.1c2.32,3.09,4.33,6.9,9.05,8.65,3.11,1.15,4.47.49,7,.24,3.66-.36,8,.56,12.17.93,12.73,1.1,25.48,5,38.37,5.59,16.67.75,34.21,1.5,51.26,4.61.41.19.13-.83.68-.38,12.21,1.85,23.38-1,33.79-2.58,3.69-.57,7.34-.66,11-1.12,2.29-.28,4.72-1.41,7.15-1.62,3.94-.36,8.08-.13,12.11-.24,8.23-.23,15.91-1.07,23.8-1.74,4.07-.36,8.38.09,12-.65,2.83-.57,6.43-2.08,7.89-4.28A16.89,16.89,0,0,0,347,225.18Z" transform="translate(-56.56 -109.23)"/><path class="cls-3" d="M262.44,124.84c.74,3.64-4.61,2.36-4.65.23C258.66,123.79,260.47,124.17,262.44,124.84Z" transform="translate(-56.56 -109.23)"/><path class="cls-3" d="M243.91,129.59c.17.9.64,1.63.14,2.9.22.71.83,1.87.69,2.3.87-.09.9-1,2-1.55,2.93-1.41,8.47.44,7,4.26-6.85,2.2-14.7,2.5-23,2.92a84.26,84.26,0,0,1-9.65.36c-8.67-.44-14.9,4.17-21.22,8.2-4.29,1.12-7.75,3.74-12.31,4.38,1-6.07-9.36-5.4-11.19-2.37-3.29-2.11-8.65-2.45-8.38,2.62l-3.19-.89c.54-2.32-.65-4.46.45-6.37s4.36-1.26,7.25-.65c.65.48.66,1.33,1.2,1.87,6.8,4.74,8.32-7.17,1.84-5.22-1,.29-1.42.85-2.11,2.08-3.74-1.79-7.39-1.35-9.52.59a17.54,17.54,0,0,0-.94,4.7c-2.09-1.82-5.88-2-7.87-1.25-.36-2.25-3.07-5.17-.32-7.73,2.26-.08,1.78,2.66,3.58,2.91,1.32.19,1.92-1.11,2.46-3.32,2.21-1.55,5,0,5.88,2.22a15.17,15.17,0,0,0,1.84-.44c.93-3.47-4.69-4.52-1.92-9.52,1.94-.8,3.24-2.59,6.11-1.35s5.79,7.48,6.27,10.36c1.86.19,1.11-2.17,1.48-3.22,1.18-3.34,5.06-3.87,7.87-2.19,1.59.95,1.56,2.66,3.13,3.17,1.34.09,1.22-2.44,1.8-3.7,1.72-.79,5.05,0,7.34,1.1,1.1,1.47-.66,4.55.41,6,2.74.69,2.31-2.91,4.25-3.59,2.49-.87,4.42,1.72,6.78,1.71,1.46-2.6-5.13-5.07-1.26-9.14,3.35-.64,6.32,2.28,8.52,3.72a6,6,0,0,0-.22,2.81l1.24.35c1.31-.39.77-1.89,1.15-2.74.79-1.74,3.91-4.31,6.2-4.38,1.76,0,3.31,1.08,5.32,1.49,1,1.07,1.06,4.26,3.3,3.22.87-2.51-1.15-4.14-.14-6.35C237.3,127.48,241.41,127.77,243.91,129.59Zm-13.31,7.93a1.64,1.64,0,0,0-2.46-1.46C226.8,138.93,230.29,139.56,230.6,137.52ZM199.9,140c-1.1-1.36-3.17-3-5.07-2.37-1.46.46-1.86,2.47-2.78,3.8.52,1.1,1,2.22,2.69,2.67a1.28,1.28,0,0,0-.8,1.49,2.67,2.67,0,0,0,2.25.83c.08-.13.11-.35.28-.31.65-1.31-.56-1.58-1.1-2.22C198.3,145.25,199.72,142.66,199.9,140Zm-27.67-2.21c0,.18-.2.17-.27.31a1.85,1.85,0,0,0,1.52,1.38c.36-.34.88-.39.93-1.27-.12-.08-.16-.2-.08-.4C173.78,137.38,172.48,136.91,172.23,137.79Zm11.06,6.92c1.71,2.31,6.85,2.55,6.21-1.7C187.76,140.45,183.6,140.84,183.29,144.71Z" transform="translate(-56.56 -109.23)"/><path class="cls-3" d="M196.93,128.09a4.07,4.07,0,0,1-3.75-1.63C193.58,124.09,198.32,125.93,196.93,128.09Z" transform="translate(-56.56 -109.23)"/><path class="cls-1" d="M197.78,140.74c-.21,1.57-1.26,1.66-2.62,1.18C194.63,139.89,196.8,139.35,197.78,140.74Z" transform="translate(-56.56 -109.23)"/><path class="cls-1" d="M158.8,131.16c0,1.83-1.86,1.47-2.88.73C156.33,130.66,157.39,130.6,158.8,131.16Z" transform="translate(-56.56 -109.23)"/><path class="cls-1" d="M251,157.56c-2,2.48-4.13,7.17-7.47,8.23C245.37,163,247.08,157.61,251,157.56Z" transform="translate(-56.56 -109.23)"/><path class="cls-1" d="M246.36,158.37c.33,0,.31.27.12.23-1.89,2.64-3.7,5.45-5.67,8a9.36,9.36,0,0,1-2.42.47c1.77-2.77,3.65-5.37,5.36-8.24A14.51,14.51,0,0,0,246.36,158.37Z" transform="translate(-56.56 -109.23)"/><path class="cls-1" d="M187.74,143.86c0,.54-.38.38-.43.83l-2.3-.64C185.29,143,187,143.17,187.74,143.86Z" transform="translate(-56.56 -109.23)"/><path class="cls-1" d="M242.19,158.92c.32,0,.29.23.25.45-2.49,2.12-4.24,5.56-6.35,8.35a11.89,11.89,0,0,1-2.2.34,90.92,90.92,0,0,0,5.52-8.77A7.74,7.74,0,0,0,242.19,158.92Z" transform="translate(-56.56 -109.23)"/><path class="cls-1" d="M230.36,168.41a38.93,38.93,0,0,0,6-8.63c.53-.12,1.21,0,1.62-.31.21,0,.3.13.3.28-2.11,2.87-4.17,5.84-6.4,8.52A13.11,13.11,0,0,1,230.36,168.41Z" transform="translate(-56.56 -109.23)"/><path class="cls-1" d="M235.37,160.07c-3.18,3-4.64,9.1-9.71,8.74a80.16,80.16,0,0,0,6.93-8.38C233.54,160.36,234.28,159.9,235.37,160.07Z" transform="translate(-56.56 -109.23)"/><path class="cls-1" d="M177.05,144.49c.34.21.47.54.73.78a2.37,2.37,0,0,1-.92,1.27l-2-.55C175.6,145.46,176.37,145.06,177.05,144.49Z" transform="translate(-56.56 -109.23)"/><path class="cls-1" d="M230.21,160.73c.32,0,.3.23.26.45-1.26,1.35-2.59,2.91-3.92,4.44-1.19,1.38-2.36,3.63-4.56,3.31,1.53-2.41,3.15-4.66,4.54-7.33A30.85,30.85,0,0,0,230.21,160.73Z" transform="translate(-56.56 -109.23)"/><path class="cls-1" d="M186.35,153.59c-1,.73-2.45.62-3.56,1.11.19-1.16,1.86-2,2.59-3.1-2.69-.07-4,4.56-7.44,4a34.78,34.78,0,0,1,2.61-2.52c1.45-1.38,2.1-3.33,5.1-1.82A2.32,2.32,0,0,1,186.35,153.59Z" transform="translate(-56.56 -109.23)"/><path class="cls-1" d="M173.8,152a19.56,19.56,0,0,0-3.32,3.66c-.27-1.46,1.16-2.18,1.65-3.17,0-.25-.23-.37-.2-.63a1.9,1.9,0,0,0-1.46,1.12c-.39-.13.13-.77.12-1.12A4.92,4.92,0,0,1,173.8,152Z" transform="translate(-56.56 -109.23)"/><path class="cls-1" d="M174.64,152.42c1,2.27-1.85,4.39-3.67,4.9A51.68,51.68,0,0,0,174.64,152.42Z" transform="translate(-56.56 -109.23)"/><path class="cls-1" d="M151.19,154.26c-2.85-1.1-5.2.06-5.53,2.65-.12,1,.57,1.61.29,2.38-3.21-.4-5.8.3-9.22-.49.52-1.08-.18-1.35-.52-2.24,1.43-2.94,4.33-3.28,6.78-4.41,3.59,1.25,5.64-1.4,1.55-2.81a7.27,7.27,0,0,1-1-3.92c3-.15,8.75,1.25,9,4.05C151.6,150.36,151.06,153,151.19,154.26Z" transform="translate(-56.56 -109.23)"/><path class="cls-1" d="M119.44,159.12c-3.07.29-6.41.12-9.35.63-.61-.3-.52-1-1.17-1.28-2.65-1.1-4.42-2.85-6.57-4.52-1.57-1.22-3.42-2.28-4.6-3.39-3.13-2.93-4.89-7.14-8.84-9.35,3.19-1.16,8-2.21,11.83.06,3.53,2.1,6.07,5.94,8.77,8.95.9,1,1.63,2.37,2.54,3.2C114.56,155.69,117.17,156.77,119.44,159.12Z" transform="translate(-56.56 -109.23)"/><path class="cls-1" d="M195.39,176.58a4.19,4.19,0,0,1-1.7-.1,15.76,15.76,0,0,0,2.78-5.14c-1.2.06-1.5,1.74-2.08,2.66s-1.36,1.89-1.91,2.72a1.62,1.62,0,0,0-1.34,0c-1.24-2.25,1.85-3.28,2.48-5.43a15.76,15.76,0,0,0,5.25-1C198.83,172.28,196.47,174.68,195.39,176.58Z" transform="translate(-56.56 -109.23)"/><path class="cls-1" d="M133.42,155.59a6.79,6.79,0,0,0-.33,3.92,45.72,45.72,0,0,0-6.34.13c-4.37-3.77-9.13-7.31-13.31-11.18a15,15,0,0,1,9,.79C126.55,150.74,130,154,133.42,155.59Z" transform="translate(-56.56 -109.23)"/><path class="cls-1" d="M264.28,189.19c-1.51,1.21-2.56,3.23-4.48,3.72a4.18,4.18,0,0,1-6.21,1.7c.67-.7,1.46-.54,2.22-1.1,1.89-1.39,2.95-4.33,5.36-4.81-1.35,2-4,4-5.88,6,3.12.32,4.94-3.95,7.35-5.78C263.3,189.21,263.59,188.85,264.28,189.19Z" transform="translate(-56.56 -109.23)"/><path class="cls-1" d="M258.72,188.59c-2,1.6-3.91,4.73-6,5.18,0-.47,1.43-1.55,2.21-2.43s1.75-2.14,2.54-2.92C258,188.66,258.14,188.27,258.72,188.59Z" transform="translate(-56.56 -109.23)"/><path class="cls-1" d="M255.69,188.5c-1.3,1.5-2.58,3-3.92,4.44-.57-.23-.64-.73-1-1.05C252.3,190.63,253.05,187.88,255.69,188.5Z" transform="translate(-56.56 -109.23)"/><path class="cls-1" d="M192.18,171.66c-.45,1-1,1.7-1.51,2.64a3.73,3.73,0,0,1-.64-2.47A5.18,5.18,0,0,1,192.18,171.66Z" transform="translate(-56.56 -109.23)"/><path class="cls-1" d="M188.12,173.2c.48,1.35-.65,3.84-1.86,3.88-.51.79.33.81.19,1.39-1.5.7-3.22,1-4.69,1.74-.08-1.49,2.08-2.62,1.94-4.23-1.94,2-3.19,5.3-6.26,5.31C178.26,175.82,184.51,175.49,188.12,173.2Z" transform="translate(-56.56 -109.23)"/><path class="cls-1" d="M192.88,180.08c-.44.55-1.22.48-1.77.84C190.89,180.24,192.21,180.05,192.88,180.08Z" transform="translate(-56.56 -109.23)"/><path class="cls-1" d="M210.61,186.38a2.21,2.21,0,0,1-2.2.34C209,185.9,209.85,185.5,210.61,186.38Z" transform="translate(-56.56 -109.23)"/><path class="cls-1" d="M178.4,177.17c-1.05,1.85-2.83,4.69-5.36,4.81C174,179.9,175.85,177.23,178.4,177.17Z" transform="translate(-56.56 -109.23)"/><path class="cls-1" d="M174,178.43c-1.31,1.65-2.19,4.08-4.53,3.89.42-1.28,1.91-2.07,1.75-3.52A7.74,7.74,0,0,1,174,178.43Z" transform="translate(-56.56 -109.23)"/><path class="cls-1" d="M231.16,196.92c-.06.6-.35.79-.53,1.19l-1.41-.4C229.84,197.4,230.05,196.37,231.16,196.92Z" transform="translate(-56.56 -109.23)"/><path class="cls-1" d="M78.43,158.14a5.77,5.77,0,0,0-1.79,5c1.52-.14,2.93-2.74,4.48-3.71,4.95,2.76,7.84,7.08,12.21,10.3,2.34,1.72,5.07,2.23,7,4.26-.25.34-.95-.1-1.21.24.35,5.82,4.25,9.65,9.65,12.64-1.1,1.42-3.63,2.56-5,4.32-8-7.27-15.81-14-24-21.26.78,2.42,3.35,3.88,5.28,5.68C90.7,181,96.69,187,102.47,192.4c-.16.95-.71,1.22-1,2-7.51-5.61-13.15-12.84-19.64-19.27s-13.84-12-20.82-18.44a5.51,5.51,0,0,1,.47-2.36c1.54-.76,3.13-2.15,5-2C70.84,152.56,75.13,156.8,78.43,158.14Z" transform="translate(-56.56 -109.23)"/><path class="cls-1" d="M106.4,160.63A33,33,0,0,1,98.89,156c-2.79-2.12-3.83-5-6.27-6.92-1-.76-2.26-1.41-3.38-2.28s-2.21-1.7-3.32-2.46c-2.25-1.54-4.52-3.78-6.7-4.74a34.62,34.62,0,0,0-5.49-1.54c-5.38-1.28-9.71-2.68-10.55,3.54,4.77,4.43,9,9.2,15.59,12.59.38-1.2,1.87-2.58,2.67-1.36-.44.91-1.28,1.09-1.71,2,1.09.53,1.53,1.43,2.94,1.78a7.74,7.74,0,0,1,1-1.6c.18.2.38.4.57.6a5,5,0,0,0-.55,1.29c.4.83.71,1.7,1.91,2.07a2.17,2.17,0,0,1,.9-1.17,3.08,3.08,0,0,1,.27.24l.49.42-.92,1.29a15.91,15.91,0,0,1,2,1.71,3.68,3.68,0,0,1,.69-1.46l.86.72a4.37,4.37,0,0,1-.63,1.57,2.62,2.62,0,0,0,1.09.87,10.6,10.6,0,0,1,.93-1.31l1,.83a7.61,7.61,0,0,1-.9,1.54c.65.28.83.83,1.62,1,.24-.46.49-.9.72-1.39L95,165a5.85,5.85,0,0,0-.72,1.46,3.25,3.25,0,0,0,1.14.7c.06-.66.4-.83.56-1.31.29.26.59.51.87.77a1.14,1.14,0,0,0,.23.15c-.13.52-.42.77-.57,1.27.35.25.48.62,1.15.7.42-.31.45-1.31.85-1.67l-.06,0a1.92,1.92,0,0,0,.43-.17,7.18,7.18,0,0,0,1.38.27,1.39,1.39,0,0,0,1.6-1.19,2.25,2.25,0,0,0,.56.12c-.75-1-.28-1.92.23-3.57C103.76,161.6,105.23,161.39,106.4,160.63Z" transform="translate(-56.56 -109.23)"/><path class="cls-1" d="M99.81,167.77c1,.42,1.62,1.08,2.64,1.5A10.55,10.55,0,0,1,101.2,171a14.13,14.13,0,0,1-2.11-1.35C99.33,169,99.38,168.06,99.81,167.77Z" transform="translate(-56.56 -109.23)"/><path class="cls-1" d="M132.17,177.79c.74,0-2.37,1.67-3.17,1.78a4.81,4.81,0,0,1-2.71-.57C128.26,178.62,130.28,178.32,132.17,177.79Z" transform="translate(-56.56 -109.23)"/><path class="cls-1" d="M103.72,170.2c.92.18,1.12.76,1.57,1.2a5,5,0,0,1-2.65.6C102.94,171.3,103.47,171,103.72,170.2Z" transform="translate(-56.56 -109.23)"/><path class="cls-1" d="M265.43,216.46c.36.15-.16.79.11,1,.77.12,1.15-.43,2.1,0-.11,1.4-1.37.75-2.43.47C265,217.59,265.31,217,265.43,216.46Z" transform="translate(-56.56 -109.23)"/><path class="cls-1" d="M121.92,180.27a4.45,4.45,0,0,1,.88,2.34c-1.27,1.11-2.21,2.81-4.06,2.88C119.29,183.91,121.14,182.32,121.92,180.27Z" transform="translate(-56.56 -109.23)"/><path class="cls-1" d="M117.83,179.88c-.62,1.56-2.47,3.23-3.62,4.72l-1.6-.44C114.49,183,115.32,180,117.83,179.88Z" transform="translate(-56.56 -109.23)"/><path class="cls-1" d="M114.29,180.23c-.34,1.27-1.94,2.57-2.92,3.58a10.76,10.76,0,0,0-1.19-.52c.56-1.13,1.4-1.77,1.83-3.12A7.07,7.07,0,0,0,114.29,180.23Z" transform="translate(-56.56 -109.23)"/><path class="cls-1" d="M109.43,179.82c.25-.36,1,.21,1.47.23-.6,1-1.36,1.65-1.91,2.71-.58,0-.59-.36-1-.47C108.29,181.36,110.15,180.87,109.43,179.82Z" transform="translate(-56.56 -109.23)"/><path class="cls-1" d="M239.51,218.94a3.64,3.64,0,0,1-1.22,2.34c-.74-.29-1.88-.34-2.26-.83C236.22,218,238.34,217.31,239.51,218.94Z" transform="translate(-56.56 -109.23)"/><path class="cls-1" d="M253.42,224.56a4.46,4.46,0,0,1-1,2.2,11.26,11.26,0,0,1-3-1C250.2,224.33,251.39,223.7,253.42,224.56Z" transform="translate(-56.56 -109.23)"/><path class="cls-1" d="M116.07,193a45.81,45.81,0,0,0,1.38,6.69c-2.17.67-4.51,1-6.74,1.56-2.12-2-2.23-5-2.32-8.11A60.85,60.85,0,0,1,116.07,193Z" transform="translate(-56.56 -109.23)"/><path class="cls-1" d="M106.66,195.87a38.44,38.44,0,0,0,1.93,6.08A5.2,5.2,0,0,1,106.66,195.87Z" transform="translate(-56.56 -109.23)"/><path class="cls-1" d="M122.39,207.92a10.47,10.47,0,0,0-2.77,1.71c-1.29-.92-2.26-2-3.58-2.92A45.84,45.84,0,0,0,122.39,207.92Z" transform="translate(-56.56 -109.23)"/><path class="cls-1" d="M130.93,215.66a32.44,32.44,0,0,1-3.66,1.46,3.38,3.38,0,0,0-1.22-1.11C127.4,215.06,129.62,213.7,130.93,215.66Z" transform="translate(-56.56 -109.23)"/><path class="cls-1" d="M132.37,216.64a11.69,11.69,0,0,0,2.23,1.58c-1.63.54-3.25,1.12-4.86,1.69a6.06,6.06,0,0,0-1.48-1.56C129.47,217.49,131,217.26,132.37,216.64Z" transform="translate(-56.56 -109.23)"/><path class="cls-1" d="M163.36,226.08a2.9,2.9,0,0,1-1.87-.14A3,3,0,0,1,163.36,226.08Z" transform="translate(-56.56 -109.23)"/><path class="cls-1" d="M140,221.45c-2.27.38-3.8,2.07-6.69,1.38a27.15,27.15,0,0,1,3.76-1.82c-1.76-.74-3.33,1.16-5,1.47-.66-.42-1.31-.85-1.24-1.69,1.57-.48,3-1.2,4.51-1.79C137,219.78,138.32,220.71,140,221.45Z" transform="translate(-56.56 -109.23)"/><path class="cls-1" d="M341.22,153.25c-.63-4.23-.54-8.47-.84-12.73-.63-9-4.52-17.21-6.07-26a31.43,31.43,0,0,1-6,3.74c-2.17,1-4.54,1.78-6.73,2.89s-4.16,2.53-6.3,3.39a226.05,226.05,0,0,1-27.91,9.58c-11.32,1.89-22.45,6-34.42,7.55-9.08,1.2-18.28,1.56-27.49,2.62-3.49.41-6.58,1.29-10.27,1.9-8.49,3.69-17.11,7.85-25.4,12.19a43.3,43.3,0,0,1-8.75,3.28c-12.14,3.4-23.84,8.16-35.5,12.8.46.27,1.82-.13,2.8.21-1.84,1.14-3.78,2.13-5.67,3.19s-3.66,2.46-6,2.33c1.2-2.92,3.79-3.35,5.89-4.66-5.37,1.16-9.06,5.32-14.55,6.25a9.74,9.74,0,0,0,8.45,6c2.75.31,6.68-.73,9.9-1.23a63,63,0,0,0,9.52-1.92c-.35-1.7-.62-4.22.17-6.07,1.54,1.28.83,3.81,2,5.32a2.28,2.28,0,0,0,1.78-1.6c.48.23.48.73.42,1.26,2.75-.23,5.38-.69,8.1-1,.9-1.24,1.77-2.53,2.61-3.85-3.63,0-7.35,1.26-11.25-.09,4.55-1.2,10.35-.31,14.66-1.82.47-.17,1-.18,1.18-.82.56-.2.47.63,1.11.12,4.2-1.21,8-3.22,12-4.66.24-.53-.14-.71.17-1.29,4.46,0,8.45-.9,12.89-1,.26.57-1.23.29-1.54.72-.33,2.34-2.07,4.44-3.13,6.39,3.3-.08,4.45-6.26,6.86-8.79.8,1.4-.54,3.1-1.24,4.43s-1.59,2.85-2.26,4c3.58.26,3.86-5.35,6-7.69.44-.75-.29-.83,0-1.52,14.32-5.86,30.17-10.43,47.53-10-.31.88-1.24.63-1.87,1.2-1.86,1.69-2.76,5-4.74,6.69,3.15.12,4.79-4.74,7.75-5.85a21.34,21.34,0,0,1-1.9,2.71,109.8,109.8,0,0,1,12.35-5.9c2.43-.95,4.19-2.13,7.83-.67.1.61-.74.84-1.05,1-3.45,2.22-7.61,3.86-11.42,6-2.21,1.22-4.2,2.74-6.41,3.75s-4.76,1.45-7.16,2.38c-2.08.81-4,2.17-6.71,2.14,1.67,2.29,4.44,4.76,3.7,7.91-2.28-2.3-3.08-6.21-6.31-7.5.54,1.7,4.62,3.73,3.3,6.66-2.68-1.52-3.14-5-6.22-5.76a20.55,20.55,0,0,0-3.31.22c-1.08.06-2.28.16-3.31.22a73.07,73.07,0,0,0-10.61,1c.54,2.17,1.92,6.82,4.46,7.94A2.91,2.91,0,0,0,226,180c-1.46-1.45-4.15-4.32-2.29-6.18a8.57,8.57,0,0,0,2.73,4.59c.33-2-2.43-3.51-2.6-5.7,3.84.86,4,4.07,5.39,6.67.58,1.11,2.31,2.15,1,3.33-1.21.19-1.89-1.1-2.36-1.8-2.13,1.53-5.08,3-8.09,1.55s-4.58-5.92-3.89-9.3c-1.53-.07-2.19,1.4-3.27,2.14.47,4.46,2.92,7.81,7.76,9.81-5.48-.18-7.75-4.27-8.21-8.22-4,5.74,5.44,12.13,11.59,11.85.74,0,1.5-.54,2.07-.57,1.16-.06,2.32.33,3.34.36,5.91.19,11.28-2.33,16.61-3.37,2.67-.52,5.49-.79,8.44-1.46a16.83,16.83,0,0,1,7.78-.49c.71.14.48.82,1.27.92,6,1.73,11.7,3.37,17.11,4.42,1.29.25,2.7.77,3.77.86,2.35.2,5.29-1,7.5-1.53,2.62-.62,5.29-1,7.5-1.53,8.33-1.92,16.73-2,22.18-8.88,1.37-1.74,1.83-4.21,3.15-5.81,3.42-4.12,10.78-6.22,16.07-7.54a7.32,7.32,0,0,0,.93-.33C341.29,160.26,341.74,156.75,341.22,153.25Zm-76.84.8c.12-.85,1.69-.85,1.52,0C265.23,153.78,265.06,154.37,264.38,154.05Zm-20.33,18c.1-.44.21-.86.48-1a6.57,6.57,0,0,1,3.2,4.91A8.77,8.77,0,0,1,244.05,172.05Z" transform="translate(-56.56 -109.23)"/><path class="cls-1" d="M353.82,188.52c-6.46.75-13.31.93-20.3,1.15-7.25.23-15-1.2-22,0-5.36.6-10.25-.34-15.42.46-4.71.73-8.76,3.25-14.73,1.41a19.85,19.85,0,0,1,4.14,8.43c1.45.8,4.6,2.17,5.95,1.28,1-2.14.52-4.16,1.18-5.59,2.49.11,3.3,3.6,6.44,4.29,2.66.57,5.31-.85,5.79-4.31.25-1.76-.7-2.77-1.26-4.36,8.49,3.86-1.6,16.53-9.13,8.72-.83,5.6-6.92,4.11-10.58,1.62-1.44,5.92-8.93,7.17-14.14,2.72-.28,6.86-10.09,4.84-9.28-.3-.63-.49-1.48.66-2.68,0-.22,6-5,8.15-10.59,6.4-1.55,5.81-9.9,6.82-11.59,1.15-2.27,2.75-5,6.2-8.71,6.54-7.07.64-12.4-5.58-12.19-11.06a22.06,22.06,0,0,1,.61-2.89c-1.16.28-4.52.89-6-.93a10.2,10.2,0,0,1-3.32,5c-1.52,1-4.52,2.25-5.95,2.16-4.64-.3-7.78-3-8.8-6.1-2.38,2.64-7.07,2.84-10.67-.12-2.35-1.94-3.81-3.48-3-7.14-.7.92-3.56.55-4.08-1.14-2.07,3.28-8.62,4.41-12,.46a8.33,8.33,0,0,1,.52-2.53c-.32-.3-1.79-.36-2.66-.74a4.71,4.71,0,0,1-1-5.26c-3.41,1.05-6.93,3.33-11.45,4.06-2.08.33-4.27-.31-6.43-.27-1.76,0-3.49.63-5.28.43a25.07,25.07,0,0,1-10.86-4.19c-3.07.74-6.54.76-9.35,2,2,.43,2.7,1.34,4,.73-.64,1.21.62,1.35,1,2,0,1-1.16.05-1.48.54-.45,3.23,1.12,5.33,2.23,7.69-2.32,1.18-5.39,1-7.82,2,5.59.1,11.36,1.38,16.79,1.46,1.66,0,3.57-.78,5.74.65.16-2.7-1.15-8.74,2-11.28.86.56,0,2.06.09,3.08,0,.43,1-.34,1.24.35-.3,3.4,1.41,6.47.76,9.58,3.84,1.53,8,1.14,11.63,2.11.86.23,1.57.83,2.39,1.05,2.71.74,5,.48,7.46,1.33,4.83,1.68,10.45,5.21,15.2,7.12,10,4,21.2,5.34,30.16,5.59,1.92.05,4.2-.8,5.93.36-5,.41-10,.2-15,.17a89.29,89.29,0,0,1-18.39-1.68,91.14,91.14,0,0,1-9.66-3.24c-.8-.39-1.6-.8-2.38-1.24a1.4,1.4,0,0,0-1-.18c-.43-.19-.87-.36-1.29-.55-3.72-1.68-6.33-4.17-10.84-5-3.49-.6-7.38-.61-11.08-1.38-1.94-.41-3.78-1.27-5.67-1.59-3.93-.67-8-.15-11.89-1.23a35.59,35.59,0,0,0-4.49,2.37c1.89,2.15,4.59-1.18,6.88,0-.68,1.09-3.16,1.28-4.69,1.74.39.87,1.43,1.38,2.08,2.11,1.19-.18,2-1,3.2-1.2-.18-.5-.86-.71-.53-1.49,1.13.45,2,1.35,3.26,1.3,0,.72.49,1,.95,1.41,4.08,3.35,9.91,6,17.15,7.67,5.29,1.24,10.72,1.79,15.64,2.85.23.37.87.5.4,1.27,9.36,1.49,18,2.95,26.62,3.25a251.21,251.21,0,0,1,25.84,1.88c7.56,1,15,1.33,22.84,2.39,10.35,1.41,19.37.34,28.51-.81a51.61,51.61,0,0,0,6-1c8.14-2,16.59-2,24.53-3.64,8.45-1.76,17.29-.71,25.92-1.14,4.3-.21,8.53-.62,12.71-1,3-.28,6-1,9-1.09C350.17,213.09,354.14,201.06,353.82,188.52ZM142,204.81c-1.55-1.83-1.38-5.2-.22-8.09l.54.15C142.45,199.2,143.8,202.83,142,204.81Zm3.51-7.05c.35-1.2-.58-3.88,1.65-3.16A2.74,2.74,0,0,1,145.5,197.76ZM238.37,223c-1.66-.41-3.3-.83-3.88-1.85-.25-4.34,4.52-6.59,6.56-2.94C241.45,220.25,240,222.81,238.37,223Zm6.16-6.3c1.18-.22,1.85-1.31,3.59-.53C250,220,242.62,221.57,244.53,216.72Zm8.1,12c-2.21-.54-4.32-1.15-5-2.55-.43-5.06,5.58-5.61,8.21-2.67C255.55,225.67,254.35,228.29,252.63,228.73Zm14.44-8.56c-3.62-.08-4.56-3.11-2.4-5.07.86.16,1.52.44,1.17,1.28C269.36,214,270.93,219.19,267.07,220.17Z" transform="translate(-56.56 -109.23)"/><path class="cls-1" d="M225.32,161.84c-1,2.5-3.42,4.72-4.9,7.23-1,.06-1.93.27-2.95.31,1.2-2.11,3.42-3.81,4-6.13-2.47,1.53-4,4.73-6.13,6.88-3.48-.52-4.32,3.64-7.39,3.85,1-1.79,2.52-4.65,2.34-7-2.21,2.52-2.55,8.37-6.3,8.17,1.24-2.58,2.73-4.71,3.57-8C213.39,165.24,219.39,163.59,225.32,161.84Zm-11.47,7.49c1-.86,2.36-.94,3-2.42C215.69,166.27,213.9,168.05,213.85,169.33Z" transform="translate(-56.56 -109.23)"/><path class="cls-1" d="M181.88,150.43c-1.94,1.68-4.54,4.49-7,6.06C177.38,154.83,178.41,150.46,181.88,150.43Z" transform="translate(-56.56 -109.23)"/><path class="cls-1" d="M165.8,155.29l1.6.45c-.46.78-1.24,1-1.79,1.6,1.87,1.37,2.79-1.23,4.37-1.26.26.32-.66.77-.63,1.55-6.39,1.29-13.59,1.12-20.49,1.52-.89-.78-1.68-1.53-1.18-2.63,1-2.16,4.1.39,5.32,1.49a4.72,4.72,0,0,0,1-.28c.76-2.72-2.07-3.41-.43-6.62,2.24-1.2,7.7-1.15,9.23,1.82-1.88.83-3.53,3.58-2.12,5.52,2.18.42.95-4.12,3.32-3.65,0,1.1-2,2-1.75,3.52C164.21,158.65,164.75,156.52,165.8,155.29Z" transform="translate(-56.56 -109.23)"/><path class="cls-1" d="M172.58,160.44c-11,3.79-22.53,11.25-35.47,13.38a108.81,108.81,0,0,0-13,2.67c-.72.11-.85-.27-1.47-.22a3.29,3.29,0,0,0-.52,2.53c-.76,1.2-1.92,2.3-2.91,3.58-.8,1-1.48,3.32-3.38,2.49a57.83,57.83,0,0,1,5.83-7.16c-2.14-.79-2.06,2.36-4.24,1.49-.81-.22.17-.62.12-1.11-1.09-.36-1.29.88-2.17.92-1.21-.26-2.87-.16-4.45-.48s-3.46-1.56-4.63-.53c-.12,1.16,1.85,1.15,3,1.6-.87.13-1.16,1.29-1.45,2.46-1.93-1-3.46-4.55-2.46-6.23.43-.73,3.48-1.22,4.65-1.57,4.52-1.37,10.44-2.53,14-4.29,1.13.94,3,2.51,4.41,2-.21-1.23-1.54-1.82-2.51-2.62,10-3.49,21.63-4,31.81-7.14.7,1.28.79,3.32,2.54,3.2.63-1.59-.69-2.1-.34-3.54A89.15,89.15,0,0,1,172.58,160.44Z" transform="translate(-56.56 -109.23)"/><path class="cls-3" d="M192,187.29c.71-.08,1.56.1,2.28.06-1.29,1.86-2.56,3.76-3.86,5.61-2.22-1.1-3.3,1.91-2.69,3.45,1,.45,2.34.59,3-.32.45-.68,0-1.75.29-2.4.72-2,3.72-4.25,4.46-6.4.72.31,1.08,0,1.7.1-2,3-4.3,5.44-6,9,3-1.7,4.8-5.62,6.9-9,.57-.05,1.3.19,1.87.14-2.66,3.77-5,8-7.7,11.79,4.29-1.57,5.88-7.95,9-11.62.78.33,1.2,0,2,.37q-4.46,5.61-8.76,11.5c2.39.27,3.73-2.79,5.18-4.86s3.44-4.35,4.11-6.49c.93-.13,2.4,0,2.26.82,2.45.37,3.9-1,5.68-1.85,5.89,4,19.12,6.83,25.19,4.19a4.16,4.16,0,0,0,1.69-1.24l.89.25c3.49-1.59,8-1.31,12.15-1.76-.44.82-1.15,1.15-1.53,2.05a8.16,8.16,0,0,0-2.64-1.5c0,1.54.15,3,.05,4.6.81.37.89-.53,1.1-1.22,1.33,1.28,4,4.72,7.41,4.94a4.82,4.82,0,0,0,3.81-2c.82,1.74,2.87,5,5.53,3.46-.16-1.4-2.72-1.46-3.05-2.76a36.08,36.08,0,0,0,6.62-5.22c-3.25-1.17-4.54,3.43-7.13,4.31-1-2.65,2.78-4.09,4.14-5.91,3.13.79,7.08.38,10.09,1.49a9,9,0,0,1,5.88,7c-1.14,3.16-2.17,6.5-5,6.42-3.68-.1-6.3-2.63-7.86-4.69-.9.35-2.07.21-2.75.95.53,1.53,2.11,3.15.61,5.33a4.5,4.5,0,0,1-3.31.22c-1.64-1.52-.83-4.41-1.88-6.26-1.28.39-1.3,2-2.57,2.34s-2.23-.38-4-.74c-1.16-.09-.39,2-1.56,1.48,1.43,4.56-4.42,8.19-7,3.95a4.07,4.07,0,0,0-1.66.49,4.83,4.83,0,0,1-3.41,5.35c-4-.5-3.64-3.42-4.53-5.66l-1.24-.35c-.86.76-.33,1.72-.69,2.48-.95,2-6.57,6.25-8.8,6.14-8-.42-10.92-7.64-6.67-15.06,1.68-.82,3.8-.85,4.94-2.63,0-.25-.23-.36-.21-.63-2.43-.26-3.71,1.53-6.62.44-.75-1.12.66-3.46-.5-4.35-2.63.44-5.08,3.33-8.23,2.09-1.82-.71-1.63-2.3-3-3.52-1.65-.07-.72,1.58-1,2.38-.89,2.21-4,3.49-5.15,5.44,1.66-.07,3.53-2,4.71-3.84,0,4.3-3.71,4.2-6.43,4.51,2.49-2.77,5.52-5.95,7.06-9.5-3.36,2.34-5.53,6.81-8.62,9.63,4,1.78,9.6,2.4,10.29-4,2.64,1.87,6.34,1.73,8.12.36.31,1.12.48,2.32,1.43,3.08a6.74,6.74,0,0,1-2.44,2.57c-3.05-.53-3-2.34-5-3.14-2.16,4.87-6.86,10.5-12.84,6.92-1.51-.91-2.16-2.69-2.09-4.79-2.52-1.12-5,2.72-8.11,2.31s-4.46-2.88-5.69-5.6a21.93,21.93,0,0,0,1-5.06c-2.51-.65-3,2.29-5.07,2.4-.7-.8-.48-2.12-1.08-3-3.51.83-5.42,5.93-10.57,3,0-2.08,2.48-3.28,1.11-4.65-1.65-.29-2.51.83-4.3.32a2.62,2.62,0,0,1-.24-2.55c1-.54,2-.11,3.24-.62-.11.35-.55.09-.56.6,2.89-.07,4.55-2.35,7.14-3-1.67,1.19-3.62,1.88-5,3.56,3.17.6,5.39-2.8,8.4-3.38-1.15,1-2.73,1.17-3.6,2.63.3,1.22,1.57-.22,2.12.59-.74.54-2.19-.19-2.82.54,5.89.93,11.74-.52,17.18-1.3a23.37,23.37,0,0,1-5.93,7.52c3.88-.19,5.4-4.56,7.55-7.83a12.16,12.16,0,0,0,2.29-.69c-1.86,4-5.55,7.12-8.16,10.71C186.71,195.92,189.44,191.75,192,187.29Zm75.28,8.28a1,1,0,0,1,.38.68C271.92,197.23,268.67,191.39,267.28,195.57Zm-26.11,7.21a25,25,0,0,0,5-2.05c.77-1.54,2.13-4.36.66-5.74l-.36-.1c-1.09,2.53-1.52,5.91-4.27,5.69-3.32-.27-3.57-3.58-6.34-4.65-.51.6-.09,1.4,0,2.1-.82,1.28-.67,2.49-1.35,3.45-.9,1.27-2.4,1-3.4,1.91,2.51,1,5.12-.09,5.72-3.36A7,7,0,0,0,241.17,202.78Zm-7.86-6c-.44-1.82-3.41-1.56-5-2-1.93,1.51-.65,3.76-1.59,5.68.13.89,2,2.77,3.17,1.65.1-1.16-2.3-1.69-1.53-2.73C230.85,201.13,233.86,199.06,233.31,196.76Zm-53-4.71c1.31.35,2.65-1.45,3.47-2.85l-.53-.15C182.43,190.25,181.17,190.77,180.35,192.05Zm44.37,16.25a1.65,1.65,0,0,0,.85-3,2.49,2.49,0,0,1-2.13-.6C222,205.89,223.31,208.21,224.72,208.3ZM186,201.85c1.49.58,2.15-1.33,2.09-2.66C186.46,197.47,184.81,200.86,186,201.85Z" transform="translate(-56.56 -109.23)"/><path class="cls-1" d="M200,179.21c-2.82,1.71-5.25,4.11-8.36,5.3C194.48,182.85,197,180.64,200,179.21Z" transform="translate(-56.56 -109.23)"/><path class="cls-1" d="M138.59,162.39c-4.53,1.49-10.47,2.79-15.27,4.7-.56.18.06.79-.6.79-4.21.84-8,2.49-12.83,2.13-1.29-1.85-4-2.92-4.68-5.13.73-.91,1.87-1.09,2.65-1.93A195.05,195.05,0,0,1,138.59,162.39Z" transform="translate(-56.56 -109.23)"/><path class="cls-1" d="M188.71,180.63c.33-.09-1.21.77-1.64,1.07C187,181.29,188.2,180.88,188.71,180.63Z" transform="translate(-56.56 -109.23)"/><path class="cls-1" d="M189.2,182.3a36.48,36.48,0,0,1-7,4.53C184.55,185.35,186.73,183.58,189.2,182.3Z" transform="translate(-56.56 -109.23)"/><path class="cls-1" d="M178.54,184.85c-.15.89-2,1.1-2.77,1.71C175.72,186.34,177.67,185.19,178.54,184.85Z" transform="translate(-56.56 -109.23)"/><path class="cls-1" d="M98.05,163.83c.72.44,1.13,1.06,1.88,1.48-.48.26-1.14-.64-1.9-.72C98.14,164.28,97.92,164.16,98.05,163.83Z" transform="translate(-56.56 -109.23)"/><path class="cls-1" d="M177.4,187.59c.43,1.49-1.58.9-2.27,1.28C175.21,188.3,176.8,188.12,177.4,187.59Z" transform="translate(-56.56 -109.23)"/><path class="cls-1" d="M138.56,206.14c-1.2-1.06-1.18-2.82-1.21-4.54A36.42,36.42,0,0,1,138.56,206.14Z" transform="translate(-56.56 -109.23)"/><path class="cls-1" d="M151.7,224.73c-4.54.07-9.84-1.21-14.39-1.16.64-.81,3-.89,4.11-1.72C144.49,223.19,148.41,223.86,151.7,224.73Z" transform="translate(-56.56 -109.23)"/><path class="cls-1" d="M222.28,180.86A2.91,2.91,0,0,0,226,180c-1.46-1.45-4.15-4.32-2.29-6.18a8.57,8.57,0,0,0,2.73,4.59c.32-1.91-2.22-3.41-2.56-5.49a2.25,2.25,0,0,0-.6,0,5.79,5.79,0,0,1-1.42.12,13,13,0,0,0-3.84.54C218.62,175.91,220,179.84,222.28,180.86Z" transform="translate(-56.56 -109.23)"/></svg>