<svg id="Layer_1" data-name="Layer 1" xmlns="http://www.w3.org/2000/svg" viewBox="0 0 248.84 234.31"><defs><style>.cls-1{fill:#9a604a;}.cls-1,.cls-2,.cls-3,.cls-4{fill-rule:evenodd;}.cls-2{fill:#fff;}.cls-3{fill:#ccf8ff;}</style></defs><title>hand wash 3</title><path class="cls-1" d="M196.35,45.07c-1.93-.29-1.12,3-.58,3.64C197.05,48.35,197.1,45.89,196.35,45.07Z" transform="translate(-90.73 -45.05)"/><path class="cls-2" d="M184.85,59.06c-.66,1,.46,2.72-.38,3.45C185.4,62,185.69,59.69,184.85,59.06Z" transform="translate(-90.73 -45.05)"/><path class="cls-2" d="M183.12,74.78c2.51.12,1.52-4.79,1.15-6.33C182.19,68.93,183.55,73.2,183.12,74.78Z" transform="translate(-90.73 -45.05)"/><path class="cls-3" d="M144.78,242.32c1.12-2.66,2.89-4.66,3.46-7.86a1.61,1.61,0,0,0-1.15-.19A12.59,12.59,0,0,0,144.78,242.32Z" transform="translate(-90.73 -45.05)"/><path class="cls-3" d="M234.31,253.24c2.08-1.39,4.59-2.85,5.94-4.4,2-2.35,3.27-6.42,4.6-9.59.36-.86,1.47-1.64,1-2.68h-.39c-2.77,4.79-3.61,9.74-7.66,12.84-2,1.55-4.61,2.7-6.71,4.41-1.35,1.09-2.62,2.48-4.22,3.64-1.29.93-3.76,2.16-4.6,3.26-1.86,2.44.48,7.78-3.07,8.43-3.7-.51-1.34-7.09-3.45-9.2,0,4.06-1.62,9.63,2.11,10.74-.08.36-.55.35-.38,1a8.13,8.13,0,0,1,4-.58c2.23-1.42,2.58-5.27,2.11-8.82A48.11,48.11,0,0,1,234.31,253.24Z" transform="translate(-90.73 -45.05)"/><path class="cls-2" d="M187.15,250.18c.15-1.38-1.57-1-1.34.19C186.19,250.75,186.72,250.31,187.15,250.18Z" transform="translate(-90.73 -45.05)"/><path class="cls-3" d="M180.63,251.9c.06-.5-.4-.49-.77-.57-5.45.32-9.82,1.07-12.45,4.21-.62.74-1.75,2.08-1.16,3.07,2.14-.86,3.2-3.64,5.75-4.41a17.65,17.65,0,0,1,2.69-.19c3.11-.36,5.94-1.24,8.43-1.72C183,250.59,181.37,251.3,180.63,251.9Z" transform="translate(-90.73 -45.05)"/><path class="cls-3" d="M208.62,255.16c1.44.54,2.09,1.87,4,1.92.41-1.82-2.06-2.24-2.49-3.84-4.65-.4-8.69,2.69-11.5,5.37-.25-.26-.83-.19-1.34-.19-3.78,2.23-1.4,10.38-1.73,15.53-.11,1.81-.89,4.28-3.06,3.64-2-5.65,3.79-14-1.73-17.06-1.55-2-3.18-4.86-5-5.94-.17,5.19,6.15,6.44,5.94,11.11-.17,3.9-3.41,9.19-.57,13.42,10.44,2.37,3.69-13.94,7.09-19.36C202.14,258.65,204.85,256.38,208.62,255.16Z" transform="translate(-90.73 -45.05)"/><path class="cls-3" d="M150.54,257.84c1.15-.28,2.52,1.26,3.64.39C154.54,256.25,150.42,255.71,150.54,257.84Z" transform="translate(-90.73 -45.05)"/><path class="cls-3" d="M164.53,259.76c-2.46.42-5.22.54-6.71,1.92C159.78,262.14,164.07,262.4,164.53,259.76Z" transform="translate(-90.73 -45.05)"/><path class="cls-4" d="M339.54,193.24a57.77,57.77,0,0,0-6,.81l0-.14a1,1,0,0,1-1-1.53c.21-.33.39-.67.59-1a13.48,13.48,0,0,0,.3-5.49,40.48,40.48,0,0,1-.94-10.7c.17-6.61-.8-13.32.66-19.82a.92.92,0,0,1,.34-.52,137.36,137.36,0,0,0-3.8-18.15,1,1,0,0,1,0-.38c-1.23-3.49-2.48-7-3.62-10.48-2-4.46-3.9-8.94-5.86-13.4a11.81,11.81,0,0,0-2-1.7,1,1,0,0,1-.35-1.33.89.89,0,0,1-.13-1.2s0-.08,0-.11l.15-.06a1,1,0,0,1,1-.3c1.24-.33,2.55-.62,3.3-1.7-1.07-1.48-2.72-.15-3.83.19-1.47.44-3.16.77-4.6,1.15-10.1,2.61-20.08,6-30.87,7.28-2.79-1.39-6.44-1.7-10.16-2.3a28.41,28.41,0,0,1-5.94-1.92c-.76-.26-2.21-.16-3.26-.38a32.84,32.84,0,0,0-4.6-1c-10.83-.67-24.72,3.24-34.69,4-2.72.21-4.61.07-6.52.38-2.06.34-5.57,4.41-6.9,5.94-2.06,2.37-3.68,4.8-5.75,6.33v-.19c.11,0,.22,0,.19-.19-.48-5.7-.86-13.12-1.73-18.21-1-6-.1-13-.38-19.37-.18-4,0-8.14-.77-11.88-.9-4.27-.54-10.75-.76-15.72-.11-2.44-.07-5.19-1.15-7.28a152.55,152.55,0,0,0-.67,15.29v0c-.82.52-1.68,1-2.54,1.51,0,.73,0,1.47,0,2.19,0-2.81.44-5.81-.77-8.24,0,2.19-.12,4.41-.21,6.64-.29.17-.58.34-.86.52,0-6-.17-12-.46-17.51-.25,0-.27-.25-.58-.19a151.38,151.38,0,0,0-.64,18.81h0v0a12.16,12.16,0,0,0-3.29,3.34l-.26.4v0c0-1.21,0-2.43,0-3.62-.26,0-.18-.34-.39-.39-.25,1.63-.45,3.54-.6,5.58h0c-.25.39-.51.77-.77,1.13-.16-6.43-.4-12.8-.54-19,0-.11,0-.22-.2-.19,0-.11,0-.22-.19-.19,0,.25-.24.27-.19.58a100.8,100.8,0,0,0-.38,10.16c0,3.46-.05,7-.1,10.49a9.32,9.32,0,0,1-2.27,1.6v0a8.37,8.37,0,0,0-.32-1.19c-.6-.1-.85.53-.77-.38-1.13,4-.76,8.39-.95,12.84-.64,14.56.22,29.53-.39,43.52-5-.1-8.23-1.35-12.46-2.69a90.72,90.72,0,0,1-9-3.45c-2.85-1.24-5.87-2.24-8.81-3.45-3.23-1.32-6.12-2.67-9.78-2.68-5.3,0-11.8,2-11.69,6.51,0,1.16.87,1.56.95,2.88.47.37.94-.21,1.54.19,3.83,2.94,8.94,5.62,12.46,8.25-7.65-1.7-12.88-8-22.43-8.82-2.24-.19-3.3-.73-5.18-.77-5.54-.13-9.68,4.13-8.81,9,8.16,3.53,15,8.38,22.42,12.65,8,5.57,17.39,9.84,26.65,14.19-2.47-.15-4.4-.84-7.09-.77-8.36-6-22-6.63-30.1-12.84-2.18-2.45-5.35-3.81-8.24-5.56a28.26,28.26,0,0,0-13.8-4.41,8.56,8.56,0,0,1-2.88,1.15c-1.51,1.68-2.81,3.57-4.41,5.17a18.82,18.82,0,0,1-.57,2.88c.86,1.38,2,2.51,2.49,4.22.25.26.83.19,1.34.19,7.81,8.2,19.39,13.76,28.76,19.74-2.62-.75-5.15-2.6-7.67-3.64a40.35,40.35,0,0,0-5-1.53c-4.7-1.26-8.3-3.72-13.8-2.88-3.44.53-5.54,6-5.36,10.35.49.72,1.23,1.19,1.72,1.92,3.94,1.12,6.71,4,9.78,6.33,4.28,3.2,9.33,5.23,13.61,8.62,6.66,2.74,13.81,6,19.74,8.82-.62,3.85-3.62,8.62-4.22,13.8-.42,3.7-1,8,.39,10.74.45.86,2.73,3.74,3.45,4,2.86,1.12,6.35-2.8,7.67-4.41,4.08-5,7.69-11.39,11.31-16.67,2.2,1.17,6.73,0,8.24,1.91-2.9,7.71-6,15.21-8.05,23.77.35,4.38,0,10,4,11.31,2.71.9,6.41-.15,9.2-1.15a5.27,5.27,0,0,1,1.73.58c8.36-2.19,15.32-5.77,23.77-7.86-1.85,3.11-4.71,9.91-.77,12.46a10,10,0,0,0,5.94.76c4.88-1.36,10.3-6.4,13.81-7.85-1.7,5.81,2.27,9.81,8.24,8.81,2.07-.35,5-2,7.09-3.26,4.93-3.13,8-7.14,11.31-11.5a38.45,38.45,0,0,0,4.6-7.67c5.85-3.52,11-8,17.06-11.5,3.06-1.73,6-3.69,9.2-5.17a65.07,65.07,0,0,0,9.4-5c1.66-2,5-4.27,7.86-3.83,1.93-1.18,4.5-2.59,7.28-2.3,7.46-2.53,16.21-2.67,24-5,6.43-1.92,13.79-3.66,19-6.52C338.34,194.49,339.8,194.23,339.54,193.24Z" transform="translate(-90.73 -45.05)"/><path class="cls-2" d="M182,147.54s0-.09-.05-.13v-7.26c-2-1.16-2.09,2.1-3.64.76-.49.72-.66,1.77-1.34,2.3a3.75,3.75,0,0,1-.19-4c-5.9-1.2-10.79-3.4-16.68-4.6-1.11,2.91-3.88.48-2.49-1.54-3.57-1.24-8.77-4-13.42-4.6-3.34-.41-8.28-.62-9.78,1.73,6.9,5.15,15.47,9.2,23,13.61,2.55,1.49,5.25,3.53,7.86,4.41s5.71,1.1,8.43,1.72,5.34,1.47,8.24,2.11v-2.91A1.65,1.65,0,0,0,182,147.54Z" transform="translate(-90.73 -45.05)"/><path class="cls-2" d="M228.94,130.75a20.63,20.63,0,0,0-3.64,2.3,12.92,12.92,0,0,0,.76-2.3A2.33,2.33,0,0,1,228.94,130.75Z" transform="translate(-90.73 -45.05)"/><path class="cls-2" d="M231.24,131.9c-1.53,1-3.28,2.85-5,3.07C227.44,133.57,229.33,131.37,231.24,131.9Z" transform="translate(-90.73 -45.05)"/><path class="cls-2" d="M233.73,133.05c-1.67,1.17-3.32,3.09-5.75,2.88C229.85,135,231.38,132.29,233.73,133.05Z" transform="translate(-90.73 -45.05)"/><path class="cls-2" d="M234.88,133.63a9.75,9.75,0,0,0,1.73.57c-1.63,1.23-3.69,4.29-6.14,2.88C231.53,135.52,233.49,134.86,234.88,133.63Z" transform="translate(-90.73 -45.05)"/><path class="cls-2" d="M139.8,144c-.49,1,.1,2.05,0,3.26.88.18.37-1,.77-1.34.4.3.06,1.34.38,1.72,1.6.13,1.83-1.11,2.11-2.3,7.28,2.24,15.91,3.13,22,6.52-1.8,2.27-4.5,4.5-4,8.43,3-1.61,3.92-5.27,6.71-7.09a81.56,81.56,0,0,0,14.18,4c-.15.85.26,1.15.2,1.91-4.06.74-6.17,4.23-5.56,9,1-.13,1.17,1.08,2.49,1.15a21.77,21.77,0,0,1-2.88,2.88,10.07,10.07,0,0,0-3.45-1.34c-1.05-3.15.16-7.85,2.69-9.2-3.55-.82-5.16,4.51-4.6,8.43-10.71-3.77-19.93-9.33-29.14-14.76s-18.52-10.37-27.8-15.91a10.09,10.09,0,0,1,1.15-2.3C126.55,135.39,132.62,140.74,139.8,144Z" transform="translate(-90.73 -45.05)"/><path class="cls-2" d="M264.4,136.89c-.92.76-1.85,2.14-3.26,1.34C262.15,137.7,262.7,136.72,264.4,136.89Z" transform="translate(-90.73 -45.05)"/><path class="cls-2" d="M201.72,137.27c-1,1.34-2.37,4.65-4,6.71-1,1.22-2.91,2.91-5,2.3,2.61-3.14,6.17-5.33,8-9.2C201.22,137,201.18,137.43,201.72,137.27Z" transform="translate(-90.73 -45.05)"/><path class="cls-2" d="M285.68,137.27c-1.19.76-2.51,1.86-4,2.88-2.24,1.5-3.9,3.37-6.9,2.11C277.88,140.08,281.08,138,285.68,137.27Z" transform="translate(-90.73 -45.05)"/><path class="cls-2" d="M277.63,138.8c-2,1-3.63,3.21-6.52,2.69C272.46,139.77,274.58,138.83,277.63,138.8Z" transform="translate(-90.73 -45.05)"/><path class="cls-2" d="M191.94,148.39c1.66.72,3.78-.21,5.18.77a9.27,9.27,0,0,0,.19,2.87C194.93,151.4,193,150.35,191.94,148.39Z" transform="translate(-90.73 -45.05)"/><path class="cls-2" d="M186.57,148.58H187c1.09,0,.35,1.82,1.15,2.11-.29,3.43-.18,8.39-.38,12.08-.09,1.42.28,3.06-1.16,3.64C186.17,160.52,187.19,155,186.57,148.58Z" transform="translate(-90.73 -45.05)"/><path class="cls-2" d="M202.48,151.26c-.45.32-1.1.44-1.53.77-.67-.54-.51-1.91-.77-2.87C202.06,148.1,202.27,149.71,202.48,151.26Z" transform="translate(-90.73 -45.05)"/><path class="cls-2" d="M199.22,149.35c-.4,1,.16,2.3,0,2.87C198.26,152.35,198.37,149.24,199.22,149.35Z" transform="translate(-90.73 -45.05)"/><path class="cls-2" d="M174.69,175.42c-6.89-2.26-15.15-3.13-23-4.41a2.39,2.39,0,0,1-1.54,1c-.12.26-.28.49-.42.73-.87.47-1.62,1.2-2.64,1.69a4.83,4.83,0,0,0-2,2.07l-.24-.13c.53-2.19.61-4.83,1.88-6.28-2.44-2.26-7.65-3.72-11.5-5-1.36-.45-2.61-1.32-3.83-1.73-1-.31-1.74-.07-2.5-.38-1.33-.55-2.37-2.1-3.83-1.92-2,.24-3.62,4-4.6,5.37-1.16-2.94.8-5.59,2.49-6.9-5.52-1.91-10.7-8.95-18-9.59-3.46-.3-10.54.61-10.16,4.79A210.37,210.37,0,0,0,119.67,172c4.39,2.68,8.42,5.72,13,8.05,6.53,3.28,13.91,5,22,6.52,1.58-5,6.7-6.11,11.7-7.48,1.2-.33,2.35-1.15,3.45-.77-2.24,2.11-6.91,1.79-9.4,3.64,2.2.15,3.83-.26,5.95-.19,2.64-2,6.32-3,8.62-5.36C174.79,176.21,174.79,175.76,174.69,175.42Zm-12.08,1.91c-3.39,1.33-6.56,3.62-8.05,7.29-.16,0-.18-.08-.19-.19,1.66-6.59,8-8.53,15.14-9.59C168.27,176.59,165,176.41,162.61,177.33Z" transform="translate(-90.73 -45.05)"/><path class="cls-2" d="M183.51,162.38c.52,2.05,1,6.56-.39,7.67a14.83,14.83,0,0,0-.38-4.22c-1.38-.16-1.27,1.16-1.73,1.92-4.73-.06-1.27-4.87,1.16-5,.68-.3.11.65.57.57C183.45,163.48,183.22,162.67,183.51,162.38Z" transform="translate(-90.73 -45.05)"/><path class="cls-2" d="M233.73,165.26c.16,0,.18.07.19.19,2.18,2.67,3.47,6.82,3.07,11.69-.21,2.52-1.21,4.84-1.34,6.9,0,.54.31,1.45.19,1.92-.19.76-1.68,2.25-2.11,1.92,1.65-4.49-.59-12.75,1.15-16.68-1.77-.59-1.95-2.77-3.07-4C232.2,166.28,233.24,166,233.73,165.26Z" transform="translate(-90.73 -45.05)"/><path class="cls-2" d="M159.74,201.68a45.88,45.88,0,0,0-6.14-1.15c-1-.09-2.61.44-3.06-.77,2.85-.88,6.61-.18,9.2.39-.49-2.52-.07-5.67.19-8.06-8.51-.86-16.19-4.43-24-6.9-6.23-2-12.32-3.08-17.83-5.17-1.75-.67-3.17-2-5-2.88-3-1.47-6.4-1.93-9.4-3.26-.84-.24-.78.92-1.34.39-3.7-1.37-7.3.59-7.86,3.64,1.51,2.89,4.38,3.75,7.09,5.75a137.36,137.36,0,0,0,16.87,10.54,184.48,184.48,0,0,0,25.69,10.74c.48-2.49,1.11-.63,1.15-2.11.79.42.62,1.8,1,2.68,5.81,2.44,12.23,4.25,18.4,6.33C163.57,208,160.63,205.84,159.74,201.68Z" transform="translate(-90.73 -45.05)"/><path class="cls-2" d="M174.11,181.74h-4c1.1-1.07,2.78-1.56,3.83-2.68C174.79,179.34,173.76,180.73,174.11,181.74Z" transform="translate(-90.73 -45.05)"/><path class="cls-2" d="M227.6,190.75c.57,1.48-.18,3.27-.39,4.6-3,5.43-6.93,9-12.46,12.46-2.76,1.75-5.2,3.52-8.81,3.84a49.07,49.07,0,0,1-8.63-.39c-3-.3-5.79-1.24-7.09-3.64,1.9,0,3.83,0,5-.76,2.44,2.24,8.06.82,13,.19,1.35-.18,2.65,0,3.65-.19,1.65-.4,2.81-1.81,4-1.54C220.61,201.27,225.35,197.26,227.6,190.75Z" transform="translate(-90.73 -45.05)"/><path class="cls-2" d="M161.46,202.45c4.13,1.55,8.67,2.71,12.46,4.6.7-.72,1.42,0,2.49,0,1.27,3.14,3.91,5.93,5.56,8-6,.38-10-1.29-14.37-2.49a8.71,8.71,0,0,0-1.73-3.84c-.6-.09-.61.41-.57,1C164,207.36,162.28,205.34,161.46,202.45Z" transform="translate(-90.73 -45.05)"/><path class="cls-2" d="M184.85,203.21c2.4,0,5.08,1.31,7.47,1.92A8.21,8.21,0,0,1,184.85,203.21Z" transform="translate(-90.73 -45.05)"/><path class="cls-2" d="M140.38,207.62H141c.46,1.66,0,4.25.38,5.94,0,.48-.23.33-.19,0-.17-1.87-.71-3.37-.76-5.36Z" transform="translate(-90.73 -45.05)"/><path class="cls-2" d="M139.23,207.81c.52,5.33,1.14,10.87,1.72,16.49.13,1.25.77,2.65,0,3.64C140.25,221.6,137.23,214.41,139.23,207.81Z" transform="translate(-90.73 -45.05)"/><path class="cls-2" d="M142.29,208.39a11,11,0,0,1,1.92.76,57,57,0,0,0,.77,14.38c-.5.22-.91,1.51-1.34,1.15C143.61,218.83,142.46,214.1,142.29,208.39Z" transform="translate(-90.73 -45.05)"/><path class="cls-2" d="M145.36,209.73c.34,0,.4.23.77.19.33,2.94-.25,7.39.76,10.16,1.59-2,.12-6.1.58-9.39.59.05.86.42,1.34.57-.18,1.67-.51,6.21.19,6.33-.32,1.4-1.85,3.26-3.07,4.41C146.05,217.6,145.26,214.12,145.36,209.73Z" transform="translate(-90.73 -45.05)"/><path class="cls-2" d="M165.49,210.5c.51.25.32,1.21.76,1.53C165.48,212.79,165.37,211.26,165.49,210.5Z" transform="translate(-90.73 -45.05)"/><path class="cls-2" d="M149.77,211.84a4.32,4.32,0,0,1,1.15.38c-.15,2.08-.1,3.44-1.15,4.79C149.63,215.92,149.86,213.53,149.77,211.84Z" transform="translate(-90.73 -45.05)"/><path class="cls-2" d="M137.31,215.48c.16,0,.18.08.19.19.39,3.54,1,7.74,1.73,11.5.18,1,.69,2.43-.2,2.88C138.29,225.51,136,220.24,137.31,215.48Z" transform="translate(-90.73 -45.05)"/><path class="cls-2" d="M169.71,217.59c.61,0,.84.43,1.53.38-.31,3.09.91,8.71-1.34,9.2C169.6,224.21,169.73,220.83,169.71,217.59Z" transform="translate(-90.73 -45.05)"/><path class="cls-2" d="M172.58,218.36c.83,0,1.22.44,2.11.38-.57,2.06.09,5.33-2.11,5.75Z" transform="translate(-90.73 -45.05)"/><path class="cls-2" d="M175.65,218.93c.34,0,.4.24.76.19-.15,1.26.54,3.35-.95,3.26A14,14,0,0,1,175.65,218.93Z" transform="translate(-90.73 -45.05)"/><path class="cls-2" d="M177.37,219.51a8.16,8.16,0,0,1,2.3.57,5.37,5.37,0,0,1-2.3,1.34Z" transform="translate(-90.73 -45.05)"/><path class="cls-2" d="M135.58,221.62c1.07,2.51,1.16,6,1.73,9C136.78,227.64,134.73,224.8,135.58,221.62Z" transform="translate(-90.73 -45.05)"/><path class="cls-2" d="M163.38,223.34a106.05,106.05,0,0,1,1.34,11.5C164,231.4,162.94,227.33,163.38,223.34Z" transform="translate(-90.73 -45.05)"/><path class="cls-2" d="M162.23,226.6c.3,4,1.91,8.22,1,12.27-.9-2.24-.77-5.49-1.54-7.86-.93,5.18,1,11.76,1.15,16.48C161.26,241.12,159.34,232.68,162.23,226.6Z" transform="translate(-90.73 -45.05)"/><path class="cls-2" d="M136.35,230.24c.62.34.48.86.38,1.54.51.05.63-.27.58-.77.33.24.24.91.77,1,.09.6-.88.14-1,.57A1.85,1.85,0,0,1,136.35,230.24Z" transform="translate(-90.73 -45.05)"/><path class="cls-2" d="M176.41,236.18c0,2.9-.28,6,1.35,7.29-1.43.5-3.07,2-4.41,1.72-1.92-.43-2.49-4.24-2.49-6.9A14.14,14.14,0,0,1,176.41,236.18Z" transform="translate(-90.73 -45.05)"/><path class="cls-2" d="M236,237.53c-.56,1.35-1.18,2.65-1.72,4-.72-.5-.26-2.17-.39-3.26A6.93,6.93,0,0,1,236,237.53Z" transform="translate(-90.73 -45.05)"/><path class="cls-2" d="M178.52,238.1c.75,1.44,2.33,3,2.49,4.41C179.32,241.91,178.76,240.16,178.52,238.1Z" transform="translate(-90.73 -45.05)"/><path class="cls-2" d="M233.16,238.68c-.22,2.53.26,5.76-1.73,6.51-.45-1.66-.07-4.15-.19-6.13C232.05,239.11,232.27,238.56,233.16,238.68Z" transform="translate(-90.73 -45.05)"/><path class="cls-2" d="M160.5,245.38a14.51,14.51,0,0,1-.95-4.4c-.12-1.71-.15-2.25.19-.77C159.93,241.06,160.28,244,160.5,245.38Z" transform="translate(-90.73 -45.05)"/><path class="cls-2" d="M227.79,239.06c-.64,4.41.67,10.77-3.26,11.88a41.24,41.24,0,0,0,1.15-11.69C226.55,239.36,226.87,238.91,227.79,239.06Z" transform="translate(-90.73 -45.05)"/><path class="cls-2" d="M228.94,239.25h1.53c-.6,2.59.54,6.93-1.53,8.05C228.36,244.81,229.2,242.07,228.94,239.25Z" transform="translate(-90.73 -45.05)"/><path class="cls-2" d="M210,239.44c.45,1.15.07,3.13.19,4.6-.48.41-1.07.72-1.53,1.15-.45-1.4-.07-3.64-.19-5.36C208.78,239.55,209.7,239.82,210,239.44Z" transform="translate(-90.73 -45.05)"/><path class="cls-2" d="M211.11,239.44a5,5,0,0,1,1.92.19c.31,2.17-.34,3.37-1.92,3.65Z" transform="translate(-90.73 -45.05)"/><path class="cls-2" d="M224.72,239.44c-.22,2.63-.33,6.11-.77,8.82-.23,1.46-.35,3.6-1.72,3.83a15.45,15.45,0,0,1,.38-3.45,63,63,0,0,0,.77-9C224,239.79,224.12,239.35,224.72,239.44Z" transform="translate(-90.73 -45.05)"/><path class="cls-2" d="M216.09,239.83c-.46.62-1.26.91-1.72,1.53-.44-.2-.4-.88-.38-1.53C214.32,239.59,215.26,240,216.09,239.83Z" transform="translate(-90.73 -45.05)"/><path class="cls-2" d="M220.12,239.83h2.3c-.34,4.32-.5,8.83-1.53,12.46-1.7.31-3.92.73-4.8-.58.46-3.32.47-7.07,2.11-9.2.14,2.66.67,7.16-.19,9C220.78,250.45,218.6,242.78,220.12,239.83Z" transform="translate(-90.73 -45.05)"/><path class="cls-2" d="M206.89,240c0,1.84,1.22,6.58-1.15,6.71.11-2.28-.34-4-.19-6.33C205.71,240,206.77,240.47,206.89,240Z" transform="translate(-90.73 -45.05)"/><path class="cls-2" d="M204.4,240.59c-.59,3,1.46,7.45-1.34,8,0-2.65-.23-6-.38-7.86C203.31,240.78,203.63,240.46,204.4,240.59Z" transform="translate(-90.73 -45.05)"/><path class="cls-2" d="M202.1,241c-1.3,2.69,1.05,8.82-1.53,9.77a79.57,79.57,0,0,1-.39-9.58C201,241.23,201.25,240.83,202.1,241Z" transform="translate(-90.73 -45.05)"/><path class="cls-2" d="M198.65,241.36c1.13,2.45-.42,7.58,1,9.78a2.8,2.8,0,0,1-2.69.57c-.08-.79.41.08,1-.19C198.4,248.6,197.06,243.65,198.65,241.36Z" transform="translate(-90.73 -45.05)"/><path class="cls-3" d="M184.66,88.39c.86,19.64-.1,40.94,2.3,59.62,1,0,.08-1.18.38-2.11,6.81-3.8,10-11.21,14.76-17.06-1.54-5.29-.43-12.15-.77-18.79-.25-5.07-1.09-10.4-1.34-15.91-.21-4.65.2-9.45,0-14-.17-4-.28-8-.28-12-.82.52-1.68,1-2.54,1.51,0,.73,0,1.47,0,2.19,0,2.93.14,6,0,9-.28,5.84-1.3,12-.58,17.26.11.76.77,1.76.77,2.49s-.76,1.33-1,2.3c-.44,2.13.26,4.91-.77,6.32-.27-.08,0-.16,0-.38-1.2-12.4,0-25.77.56-38.6-.29.17-.58.34-.86.52,0,8.37-.26,16.81-.85,24.28-.2-7-.68-15.1-.83-23.17a12.16,12.16,0,0,0-3.29,3.34l-.26.4c.15,18.27-.06,37.47-.41,55.66-1.58-13.25-1-29.65-1-44.67,0-3.1.14-6.38.36-9.38-.25.39-.51.77-.77,1.13.19,7.45.29,15,0,22.44-.48,13.77.22,27.83-1.34,40.45-1.7-18.79-.64-40.27-.29-61a9.32,9.32,0,0,1-2.27,1.6C184.84,84,184.56,86.22,184.66,88.39Zm11.88,17.06c.66,6,.9,14.72,1.54,21.66.17,1.9,1.27,4.58-.58,5.75C196,124.58,196.49,114.91,196.54,105.45Zm-3.83,21.66h-.39c-.28-.27-.6-.93-.19-1.34h.77C193.31,126.18,193,126.84,192.71,127.11Zm-.19,4.79c-.67.11-.82-1.28-.2-1.34C193.19,130.41,193,131.76,192.52,131.9ZM191.94,106c.19,4.58,1.08,10.36.19,14.76A89.67,89.67,0,0,1,191.94,106Zm1.15,30.47c0,1.24-.16,2.27-1.34,2.3C191.42,138,191.76,135.16,193.09,136.5Z" transform="translate(-90.73 -45.05)"/><path class="cls-2" d="M333.45,172.94c.06-6,.66-12,.9-18-.05-.58-.09-1.15-.13-1.73a1.38,1.38,0,0,1-.12-.39c-1.32-9.07-4.19-17.79-7.16-26.43-2-5.76-4-13.07-8.82-17.23a1.29,1.29,0,0,1-.49-1l-.13,0c-8.6,3.64-18.85,6.54-27.8,9.78,2.69,1.46,5.75,2.57,6.9,5.56-2.45.67-3.73-1.63-5.36-2.3-1.32-.55-2.85-.6-4.22-1.15-1.21-.49-2.37-1.21-3.64-1.73-2.7-1.09-5.67-1.15-8.63-1.91-1.89-.49-4-1.61-6.32-2.11-1.28-.28-2.38-.42-3.45-.77-1.26-.41-2.58-1.44-3.65-1.53-2.3-.19-5.34.63-8,1-8.95,1.08-17.22,2.48-26.26,3.64-.48.5,1,1.48.19,2.3-1.25-.09-1.27-1.42-1.91-2.11h-2.69c.54,1.7,3.67,2.46,3.45,5.56-2.78-1.95-5.21-4.24-8.62-5.56-.9.07-.83,1.09-1.35,1.53,1.63,2.42,5.7,3.36,5.95,6.52-2.88-.34-4.74-3.3-7.09-4.79-5.43,4-9.13,9.65-12.85,15.33,4.31,1.63-1.37,9.2-2.11,11.7,5.15,0,9.73-3.18,14-4-.63,1.6-2.73,2.59-4.61,3.45a37.81,37.81,0,0,1-6.32,2.11,20.91,20.91,0,0,0,.57,2.11,37.87,37.87,0,0,0,13-8.63,25.51,25.51,0,0,0,6.32-10c.21-.59.82-1,1-1.54.28-1-.27-2.33.77-3.07,1,.06,1,1.15,1,2.3.9-.12.91-1.13,1.92-1.14,4.61.57,7,4.36,11.88,4,1.93,2,7.78,0,9.59,2.11-.29,1-1.78.36-2.69.38a30.05,30.05,0,0,1-4.41.19,10.55,10.55,0,0,0-1.34,1.15c5.1-.62,11.2-1,16.1.2,1.85.45,3.21,1.55,4.79,0-1.12-.38-3.12-.94-4.21-.2.52-1-.88-.77-1.73-1.34,2.72-2,6.85.78,10.16,1,1.05.06,1.75-.75,2.69-.19-.9,1.66-3.44,1.67-4.8,2.87,2.91,2.3,5.1-1.94,8.63-1.91-.85,1.9-3.55,1.94-5,3.26,1.82,1.37,3.5-.33,5-1,.1-.63-.95-.41-.38-1,4.45-.79,9-.61,12.84-2.68,3.74.69,6.87-3.08,11.12-2.5-6.2,2.75-11.34,6.56-16.49,10.35.19.46,1.11.18,1.34.58,5.71-2.93,10.22-8.06,17.26-9-1.19,1-2.73,1.39-4,2.11a104.93,104.93,0,0,0-10.73,7.28c1.74.94,3-.7,4.21-1.53s2.76-1.68,4-2.49c2.65-1.69,5.06-3.89,8.05-4.41-3.88,3.46-8.63,6.07-12.84,9.2,2,1.93,3.7.27,5.56-1.15,2.84-2.18,6.23-5.41,9.58-6.52-3.4,3.31-7.44,6-10.93,9.2,4,2.12,6.1-2.16,9.21-3.26-.25,2.06-3.42,2.85-4.61,4.61,3.33.8,7.09,2.15,10.74,2.87,1,.2,2.93-.21,3.07,1.34-9.73.86-18.19-2.21-25.88-4.6-.8-.16-.91.37-1.54.39-.33-1.31-1.8-.79-3.25-1.15-1.8-.46-3.58-1.27-5.75-1.73-7.89-1.65-14.16-5.4-22.82-6.13-5.19-.44-9.72,1.06-15.14,1.34-2,.1-4.7.58-7.09,1-2.56.4-5.09.53-6.71,1.34-2.58,1.29-3.73,3.77-6.33,5.17,1.09,1.67.35,4,1,5.56.91,2.27,3.6,2.76,5,4.41a38.16,38.16,0,0,1,14.19-10c-.78,1.19-2.16,1.86-3.26,2.69a58.31,58.31,0,0,0-9.39,8.43c1.93,2.6,4.19,4.88,5.17,8.44.91-.18,1.33-.85,1.92-1.35-.84-1.65-2.58-2.39-2.87-4.6a38.87,38.87,0,0,1,3.64,3.84c1.16-.87,2.85-1.4,1.72-3.07.85-.14.79.62,1.35.77,3.9-3.13,6.81-7.25,10.15-10.93s6.06-8,10.93-10c-.21,2.05-2,2.65-3.26,3.84-2.49,2.4-4.52,5.48-6.9,8.24-3.16,3.66-5.73,7.51-9.39,10.54,4.11,4.24,4.16,13.19,2.3,19.94,5.85-4.67,11.48-13.48,19.17-18,2.62-1.55,5.86-3.43,9.2-3.26,1.62.08,1.93.62,3.45.19-2.39,2.74-5.95,3.3-8.82,5s-6.25,5.33-8.82,7.66a97.14,97.14,0,0,0-8.43,8.06c-1.33,1.58-2.37,3.45-3.83,5-2.87,3-4.91,6.46-7.86,9.58-1.47,1.55-2.5,3.33-3.84,4.8-1.69,1.84-4.14,3.19-6.13,4.79a43.26,43.26,0,0,1-6.33,4.6c-3.05.33-5.71,1.4-9.2,2.3-2.76.71-6,.71-8.43,1.53s-5.58,2.72-8.63,4c-5.75,2.46-11.68,4.76-15.72,9.39-1.32,1.51-4.8,5-5.36,7.09-1,3.76.47,8,3.06,9.4-.09-1.68-1.81-3.52-2.11-5.56a8.79,8.79,0,0,1,0-3.07c1-2.59,7.5-4.51,11.12-3.83a13.08,13.08,0,0,0,4.41,7.28c-1-1.92-4.93-5.89-2.49-9.39,1.54.46.9,2.06,1.15,3.26.46,2.18,2.2,3.75,3.07,5.36,2.6-.78,5.21-1.55,7.85-2.3-1.74-3.29-6.69-7.31-4.79-12.26,1,.08.19.91.58,1.34,2.11,3.83,4.52,7.36,8.05,9.77,11.82-2.33,26.22,0,36.42-3.64a12.76,12.76,0,0,1-2.3-2.11c-.38-.58-.24-2-1.34-1.91,1-1.11,0-3.82.76-5,1,1.38,1.33,3.12,2.11,4.6a9.15,9.15,0,0,0,2.88,3.64c4.85-1.18,8.73-4.45,12.84-6.9,8.18-4.86,15.51-10.39,23.2-15.91,3.83-2.75,8.05-5,11.69-7.86,3.44-2.68,6.08-6.23,9.2-9.2a13.68,13.68,0,0,1,1.73-3.26c-.85-1.06-.61-2.53-1.15-3.64-.46-.91-1.57-1.39-1.54-2.49-2.07-2-5.46-2.71-6.9-5.37.58.2.34-.42.38-.76,2.2.16,2.95,1.78,5.37,1.72,1.23.44,1.93,1.4,2.88,2.11,3.8.57,9,.85,13,1.34,1.25.15,3-.44,3.64.77-.42.89-1.59.28-2.49.38-3.58.39-8,1.72-12.46,1.34-.31.9.21,2.3-.38,3.26.49.48.42-1.23,1.34-1-.17,1.59-1,1.89-.19,3.07.64.87,1.19-1,1.72-.19-.1,4.88-4.32,7.3-5.55,11.69a12.09,12.09,0,0,0,2.3-.57c3.05-5,4.49-11.62,8.05-16.1-1.52,5.63-3.89,10.42-5.95,15.52,1.77-1.21,2.51-3.65,3.46-5.75.45-1,.89-2.23,1.34-3.26s.58-2.4,1.72-2.68c-.91,4.13-2.67,7.43-4,11.12,1.58.29,2.14-1.62,2.68-2.69,1.8-3.58,3.17-8.49,5.37-11.69.34,2.29-1.11,4.74-1.92,7.09a69,69,0,0,1-2.87,6.9c2.49-.54,2.65-3.56,3.45-5.75s1.53-4.64,3.06-5.94c-1.11,4-2.18,8-4,11.31,2,.13,3.75-.18,5,.38,8.2-1.48,15.64-4.39,23.73-5.9a1.48,1.48,0,0,1-.05-.94C335.12,186.5,333.39,179.63,333.45,172.94Zm-104.7-47.75c-1.23-.11-2.56-3.47-.2-3.25C229.17,122.52,229.84,124.61,228.75,125.19Zm-10,23.77c.22.8.24,1.81.38,2.69,1,.31,2.56.13,2.69,1.34C218.91,155.88,214.84,150.06,218.78,149Zm5.94,1c-1.53.07-2.42-.51-2.3-2.11C223.89,146.19,226.46,148.42,224.72,149.92Zm3.64-3.06c-.08-.18-.17-.35-.38-.39-.41-1.38,1.6-1.8,1.92-.76C229.92,146.62,229.26,146.86,228.36,146.86ZM232.2,161c-1.61-.95-2.27-2.85-3.45-4.22C230.44,154.56,233.62,159.56,232.2,161Zm7.66-15.91c.39-1.78,1.86-2.49,3.45-3.07C243.18,143.35,241.56,144.76,239.86,145.13Zm-2.3,18.79a.91.91,0,0,1-.19-.58c2.62,1.17,6.32,3.9,6.14,7.86A72.29,72.29,0,0,0,237.56,163.92Zm6.71-2.3a11.31,11.31,0,0,1-1.15-3.07c1.8.16,2.79,3.7,2.69,5.75C244.86,163.82,244.69,162.57,244.27,161.62Zm-51.56,66.13c.31-.05.33.18.57.19.65,3.32,3.68,5.27,3.64,8.63C195.17,234.2,191.42,231.89,192.71,227.75Zm2.87.19H196a13.59,13.59,0,0,1,2.49,7.86C196.47,235.09,195.49,230.74,195.58,227.94Zm110.61-28.75c1.41-2.17,2.77-6.05,4.41-8.63C310.24,193.78,308.92,197.7,306.19,199.19Zm5-2.3c-.18-.83.95-2,1.35-2.88C312.81,195,311.51,195.94,311.17,196.89Zm6.33-6.14c.22-3.29.71-6.31,1.15-9.39h.57C320.85,183.94,319.44,189.27,317.5,190.75Z" transform="translate(-90.73 -45.05)"/><path class="cls-2" d="M240.44,135.16c-.66,2-3.23,2-5.56,2.3C235.9,136.55,237.73,133.9,240.44,135.16Z" transform="translate(-90.73 -45.05)"/><path class="cls-3" d="M224.34,188.45c-1.11,1.84-.56,4.11-1.35,5.75-1.06,2.25-3.72,3.14-4.6,5.37-2.18.65-4.3,2.33-6.9,2.68-5.16.71-10.33-1.65-14.76-.76,5.56,1.54,14.11,3.79,19.75.76-3.92,3.63-11.45,3.63-18.79,3.84a25.38,25.38,0,0,0-12.27-4.22c.78-1,.87-3.7.58-5.17-2.13.15-1.88,4.16-1.15,5-1.41.1-2.18-.23-3.26,0-3.93-2.78-3.25-10.17-3.83-16.29-1.55,2.24-1.14,6.53-1.35,9.58-.26,4,2.16,8.21,5.18,10.54,1.22.94,2.95,1.36,4.22,2.3,1.65,1.23,2.3,3.51,3.45,4.41,1.47,1.16,4.9.92,6.9,1-3.56.72-6.22,2.34-10.93,1.92a20.27,20.27,0,0,1-6.71-7.67c1,.09,1.83-.46,2.69,0-1.68-1.39-4.62-1.51-5.18-4-.94-.1-.52,1.27-.38,1.73-5.08-1.25-9.46-3.19-14.57-4.41a22.38,22.38,0,0,1,.38-8.43c4.25-.29,6.92,1,10.54,1.34a15.56,15.56,0,0,0,1.35,7.09c2.81-1.8,1.32-8.23,1.53-12.46.07-1.34.89-2.36.19-3.26-1.94.1-1.74,2.35-2.68,3.45-3.71,1-6-.65-9.59-.76.86-2.28,2.92-3.35,4.8-4.6a55.12,55.12,0,0,0,10.54-.58c-.79-.29-1.82-.35-2.68-.58a45.28,45.28,0,0,0,1.53-5c2-1.16,3.11-3.28,4.6-5,.79,1.37-1,6,.77,7.28,1.2-1.48.28-5.08,1.34-6.71-.3,3.09-.32,8.12-1.34,11.12,1.56-1,2.22-4.12,2.68-6.52.24-1.22.38-2.65.58-4,.35-2.52,0-4.7,1.91-5.37.35,1.72-.83,2.83-.38,4,3.22-4.32,2.33-12.74,2.49-20.12,2,1.87,5.8,2,7.48,4.21a40.23,40.23,0,0,0,8.24-1.15c.51,1.78.55,3.76,1.15,5.37.43,1.16,1.5,1.84,1.34,2.88.55,0,.35-.8.38-1.34,1,1.36,1.8,2.93,3.26,3.83-.21-4.45-3.19-7.8-3.45-12.84a42.18,42.18,0,0,0,3.84-2.5c-.52,5.38,3.94,6.82,6.32,9.4.31.33.29.86.58,1.15.52.52,1.33.67,1.91,1.15a31.1,31.1,0,0,1,2.88,3.45c1.49,1.66,3.25,2.88,4,5.56a22.2,22.2,0,0,1,3.06-3.07c1.05.81,1.35,2.36,1.92,3.64a21.87,21.87,0,0,1-1.53,2.88c.82.64.78-.92,1.91-.58-.16,7.32,1,16-3.06,19.36-.94-6.61,1.42-15.74-2.11-20.32-.72,6,.93,15.65-2.88,19.17C224.69,191.41,225.39,188.72,224.34,188.45ZM223,171.39c-.1-3.5-2.7-7.61-5-9.77-1.18-1.13-3.37-2.93-4.6-1A18.34,18.34,0,0,1,221.65,172a8,8,0,0,1-2.87,2.11c-.66-2.15-1.29-6.18-4-5,.57,2.25,2,3.61,2.11,6.33-4.55,3.88-11.53,5.34-13.61,11.69,1.71,0,2.22-1.86,3.45-2.87,3.14-2.57,7.37-4.66,10.54-6.52.54.74-.32,2.88,1,2.87,1.46-.27.49-3,.77-4.41a29.64,29.64,0,0,0,5.18-4C223.83,171.83,222.94,172.08,223,171.39Zm-17.82-3.07c1-3.29-1.81-5.79-4.22-6.9C202.17,163.92,204.61,165.18,205.17,168.32ZM194.05,167a6,6,0,0,0,.58,2.69C196.65,169.42,195.56,164.48,194.05,167Zm5.94-.19c1.28,2.36,3.58,3.71,3.26,7.67h.58C205,170.68,203.24,167.33,200,166.79Zm-9.58,16.3c-.19,2-2.07,2.27-2.11,4.4,2.66-1,4-3.57,6.33-5.17s5.1-2.63,7.47-4.22,4.39-3.45,6.52-5.17,4.68-3.05,5.94-5.37c-.22-.42-.64-.64-.77-1.15C207,172.92,198.64,178,190.41,183.09Zm-3.26-7.29c.73-.47,1-2.29.58-3.26C185.79,172.09,185.27,175.77,187.15,175.8Zm5-1.92c-.13-2.19-2.81-.49-1.34,1.54C191.77,175.21,192.18,174.7,192.13,173.88Zm20.32,22.43c4.31-1.94,5.28-7.28,7.29-11.88.83-1.91,1.49-3.83,2.3-5.56s2.25-3.26,2.68-5.18c-.46.08.11-.87-.57-.57C219.17,179.65,217,190,212.45,196.31Zm.77-8.82c1.84,0,2.25-1.44,2.3-3.25C213.7,182.35,212,185.71,213.22,187.49ZM210,192.67c1.25-.3,1.25-3.41-.77-2.68C207.36,190.64,208.51,193,210,192.67Zm-23,.57c0,1,.93.38.95-.19C187.37,192.89,187.42,193.32,187,193.24ZM200.38,199c4.28,0-.81-5.08-.58-.58A1,1,0,0,1,200.38,199Z" transform="translate(-90.73 -45.05)"/><path class="cls-2" d="M182.36,202.64c.93-.49,1.31,1.24,2.3,1.34C183.8,204.39,183.06,203,182.36,202.64Z" transform="translate(-90.73 -45.05)"/><path class="cls-2" d="M166.64,216.82c.8-.1,1.07.34,1.72.39.08,2.62-.09,6.65,0,9.39,0,1.47.54,3.14-1,3.26-.57-3.78,0-8.7-1-12.08-1.56,4.11-.08,10.22-.39,14.57C165,227.58,163.28,220.21,166.64,216.82Z" transform="translate(-90.73 -45.05)"/><path class="cls-2" d="M195.77,246.15c.51,1.35-.14,3.85.58,5C195.2,250.53,194.26,247.58,195.77,246.15Z" transform="translate(-90.73 -45.05)"/><path class="cls-2" d="M164.34,182.89c-1.34,1.35-2.91,2.46-3.65,4.41-1.7-.08-3-.53-4.79-.57C156.46,182.9,159.77,182.31,164.34,182.89Z" transform="translate(-90.73 -45.05)"/></svg>