<svg id="Layer_1" data-name="Layer 1" xmlns="http://www.w3.org/2000/svg" viewBox="0 0 216.32 158.14"><defs><style>.cls-1{fill:#3fbcf9;}.cls-2{fill:#fbd2bb;}.cls-3{fill:#09a0db;}</style></defs><title>glows</title><path class="cls-1" d="M127.27,138.62c-1.81,17.84-3.74,36.1-5.54,53.93-.66,6.53-1.71,13.4-2.37,19.93-.57,5.61-.6,11.68-2.71,16.91-1.69,4.22-4.28,7.48-4.56,12-.2,3.18-.12,6.55-1,9.46a9.55,9.55,0,0,1-2.55,4.27c-1.45,1.36-3.5,1.85-5.45,2.23a81.51,81.51,0,0,1-31.5-.3,11.8,11.8,0,0,1-5-1.93c-1.66-1.32-3.35-.49-3.71-2.52,0,0,0-.07,0-.1s0-.2,0-.31a2.45,2.45,0,0,1,0-.27.57.57,0,0,1,0-.13c0-.18,0-.38,0-.59v0c0-1.58,0-3.75.09-4.71.2-3.39-.84-5.86-2.19-9-2.06-4.77-7.78-5.27-11.16-9.09-3.77-4.26-6.65-12-9.48-16.92-3.63-6.34-6-12.91-9.64-19.42-1.39-2.5-6.79-11.7-6.55-17,.08-1.82.84-3.18,2.67-3.63,4.54-1.14,11.92,2.9,15.39,5.69s5,5.11,8,8.71c1.92,2.39,3.68,3.92,6.08,2-2.2-23.11-2.3-44.17-3-67.5a26.53,26.53,0,0,1,1.54-8.87c.66-1.59,3.19-2.56,5.45-2.9a10.26,10.26,0,0,1,2.48-.11c3.88.37,5.46,5.87,5.92,9.71,1.8,15,3.76,28.11,5.55,43.11.75-.46,1-.71,1-1.07a.18.18,0,0,1,0,0c0-.36-.07-.81,0-1.63.91-15.48,0-30.74.87-46.23.14-2.33.48-6.07,1.46-8.2s4.3-3.46,6.66-3.51a4,4,0,0,1,1.31.21A10.86,10.86,0,0,1,91.05,106c1,2.32,0,5.37,0,7.87-.09,15.78-.57,45,.38,45.22h0c.1-1.06.18-2.11.27-3.12,1-12.73,1.24-22.49,2.45-35.73.26-3,.42-8,2.39-10.27,1.62-1.84,5.76-1.68,8.45-.34a5.66,5.66,0,0,1,1.67,1.17c2.63,2.79,2.47,9.84,2.36,13.29-.46,14.32-1.11,26.88-1.58,41.2,0,.88-.77,3.59,0,3.83l.09,0,.12-.66c.21-1.05.39-2.1.56-3.17,1.6-9.74,2.31-19.88,4.2-29.49a22.68,22.68,0,0,1,2.87-6.37,5.45,5.45,0,0,1,5.11-2.34,4.87,4.87,0,0,1,1.7.54c2.09,1,4.54,3.26,5,4.86C127.78,134.54,127.48,136.47,127.27,138.62Z" transform="translate(-23.84 -100.61)"/><path class="cls-2" d="M104,205.52" transform="translate(-23.84 -100.61)"/><rect class="cls-3" x="36.84" y="150.06" width="53.26" height="8.08" rx="4.02" ry="4.02"/><path class="cls-3" d="M65.08,252l-2.19.6s0-.07,0-.1a48.53,48.53,0,0,1,0-6c.2-3.39-.84-5.86-2.19-9-2.06-4.77-7.78-5.27-11.16-9.09-3.77-4.26-6.65-12-9.48-16.92-3.63-6.34-6-12.91-9.64-19.42-1.39-2.5-6.79-11.7-6.55-17,1.63.69,4.64,3,7.41,10.77C35.31,197.24,45.46,215,45.46,215s4.26,8.54,9,11.73,9.62,5.52,10.64,8S65.08,252,65.08,252Z" transform="translate(-23.84 -100.61)"/><path class="cls-3" d="M58,150.67l.18,32.5s-1.09,4-2.21,4.69c-2.2-23.11-2.3-44.17-3-67.5a26.53,26.53,0,0,1,1.54-8.87c.66-1.59,3.19-2.56,5.45-2.9a19.77,19.77,0,0,0-2.76,9.76C57.13,126.56,58,150.67,58,150.67Z" transform="translate(-23.84 -100.61)"/><path class="cls-3" d="M80,109.93c-2,8.42-1.69,21.16-1.69,21.16s0,8.54-1,13.23c-1,4.51-2.13,15.07-2.37,15.86,0-.36-.07-.81,0-1.63.91-15.48,0-30.74.87-46.23.14-2.33.48-6.07,1.46-8.2s4.3-3.46,6.66-3.51a4,4,0,0,1,1.31.21A19.54,19.54,0,0,0,80,109.93Z" transform="translate(-23.84 -100.61)"/><path class="cls-3" d="M105,109.59a14.86,14.86,0,0,0-5.61,8.76c-1.35,7.88-2.53,18.16-2.53,18.16s-1.18,14-1.69,15.68-3.73,6.86-3.73,6.86c.1-1.06.18-2.11.27-3.12,1-12.73,1.24-22.49,2.45-35.73.26-3,.42-8,2.39-10.27C98.18,108.09,102.32,108.25,105,109.59Z" transform="translate(-23.84 -100.61)"/><path class="cls-3" d="M122.11,127.61a9.38,9.38,0,0,0-3.43,4.86c-1.35,5-4.9,17.38-4.9,17.38s-.62,7.55-1.33,10.59c-.47,2-4.9,8.66-4.9,8.66l.12-.66c.21-1.05.39-2.1.56-3.17,1.6-9.74,2.31-19.88,4.2-29.49a22.68,22.68,0,0,1,2.87-6.37,5.45,5.45,0,0,1,5.11-2.34A4.87,4.87,0,0,1,122.11,127.61Z" transform="translate(-23.84 -100.61)"/><path class="cls-1" d="M136.73,138.62c1.81,17.84,3.74,36.1,5.54,53.93.66,6.53,1.71,13.4,2.37,19.93.57,5.61.6,11.68,2.71,16.91,1.69,4.22,4.28,7.48,4.56,12,.2,3.18.12,6.55,1,9.46a9.55,9.55,0,0,0,2.55,4.27c1.45,1.36,3.5,1.85,5.45,2.23a81.51,81.51,0,0,0,31.5-.3,11.8,11.8,0,0,0,5-1.93c1.66-1.32,3.35-.49,3.71-2.52,0,0,0-.07,0-.1s0-.2,0-.31a2.45,2.45,0,0,0,0-.27.57.57,0,0,0,0-.13c0-.18,0-.38,0-.59v0c0-1.58,0-3.75-.09-4.71-.2-3.39.84-5.86,2.19-9,2.06-4.77,7.78-5.27,11.16-9.09,3.77-4.26,6.65-12,9.48-16.92,3.63-6.34,6-12.91,9.64-19.42,1.39-2.5,6.79-11.7,6.55-17-.08-1.82-.84-3.18-2.67-3.63-4.54-1.14-11.92,2.9-15.39,5.69s-5,5.11-8,8.71c-1.92,2.39-3.68,3.92-6.08,2,2.2-23.11,2.3-44.17,3-67.5a26.53,26.53,0,0,0-1.54-8.87c-.66-1.59-3.19-2.56-5.45-2.9a10.26,10.26,0,0,0-2.48-.11c-3.88.37-5.46,5.87-5.92,9.71-1.8,15-2.76,28.11-4.55,43.11-.75-.46-1-.71-1-1.07a.18.18,0,0,0,0,0c0-.36.07-.81,0-1.63-.91-15.48-.95-30.74-1.87-46.23-.14-2.33-.48-6.07-1.46-8.2s-4.3-3.46-6.66-3.51a4,4,0,0,0-1.31.21A10.86,10.86,0,0,0,173,106c-1,2.32,0,5.37,0,7.87.09,15.78.57,45-.38,45.22h0c-.1-1.06-.18-2.11-.27-3.12-1.05-12.73-1.24-22.49-2.45-35.73-.26-3-.42-8-2.39-10.27-1.62-1.84-5.76-1.68-8.45-.34a5.66,5.66,0,0,0-1.67,1.17c-2.63,2.79-2.47,9.84-2.36,13.29.46,14.32,1.11,26.88,1.58,41.2,0,.88.77,3.59,0,3.83l-.09,0-.12-.66c-.21-1.05-.39-2.1-.56-3.17-1.6-9.74-2.31-19.88-4.2-29.49a22.68,22.68,0,0,0-2.87-6.37,5.45,5.45,0,0,0-5.11-2.34,4.87,4.87,0,0,0-1.7.54c-2.09,1-4.54,3.26-5,4.86C136.22,134.54,136.52,136.47,136.73,138.62Z" transform="translate(-23.84 -100.61)"/><path class="cls-2" d="M160,205.52" transform="translate(-23.84 -100.61)"/><rect class="cls-3" x="150.07" y="250.66" width="53.26" height="8.08" rx="4.02" ry="4.02" transform="translate(329.55 408.8) rotate(180)"/><path class="cls-3" d="M198.92,252l2.19.6s0-.07,0-.1a48.53,48.53,0,0,0,0-6c-.2-3.39.84-5.86,2.19-9,2.06-4.77,7.78-5.27,11.16-9.09,3.77-4.26,6.65-12,9.48-16.92,3.63-6.34,6-12.91,9.64-19.42,1.39-2.5,6.79-11.7,6.55-17-1.63.69-4.64,3-7.41,10.77-4.05,11.39-14.2,29.14-14.2,29.14s-4.26,8.54-9,11.73-9.62,5.52-10.64,8S198.92,252,198.92,252Z" transform="translate(-23.84 -100.61)"/><path class="cls-3" d="M206,150.67l-.18,32.5s1.09,4,2.21,4.69c2.2-23.11,2.3-44.17,3-67.5a26.53,26.53,0,0,0-1.54-8.87c-.66-1.59-3.19-2.56-5.45-2.9a19.77,19.77,0,0,1,2.76,9.76C206.87,126.56,206,150.67,206,150.67Z" transform="translate(-23.84 -100.61)"/><path class="cls-3" d="M184,109.93c2,8.42,1.69,21.16,1.69,21.16s0,8.54,1,13.23c1,4.51,3.13,15.07,3.37,15.86,0-.36.07-.81,0-1.63-.91-15.48-.95-30.74-1.87-46.23-.14-2.33-.48-6.07-1.46-8.2s-4.3-3.46-6.66-3.51a4,4,0,0,0-1.31.21A19.54,19.54,0,0,1,184,109.93Z" transform="translate(-23.84 -100.61)"/><path class="cls-3" d="M159,109.59a14.86,14.86,0,0,1,5.61,8.76c1.35,7.88,2.53,18.16,2.53,18.16s1.18,14,1.69,15.68,3.73,6.86,3.73,6.86c-.1-1.06-.18-2.11-.27-3.12-1.05-12.73-1.24-22.49-2.45-35.73-.26-3-.42-8-2.39-10.27C165.82,108.09,161.68,108.25,159,109.59Z" transform="translate(-23.84 -100.61)"/><path class="cls-3" d="M141.89,127.61a9.38,9.38,0,0,1,3.43,4.86c1.35,5,4.9,17.38,4.9,17.38a98.24,98.24,0,0,0,1.4,10.84c.5,2,4.83,8.41,4.83,8.41l-.12-.66c-.21-1.05-.39-2.1-.56-3.17-1.6-9.74-2.31-19.88-4.2-29.49a22.68,22.68,0,0,0-2.87-6.37,5.45,5.45,0,0,0-5.11-2.34A4.87,4.87,0,0,0,141.89,127.61Z" transform="translate(-23.84 -100.61)"/></svg>