<?xml version="1.0" encoding="utf-8"?>
<!-- Generator: Adobe Illustrator 22.1.0, SVG Export Plug-In . SVG Version: 6.00 Build 0)  -->
<svg version="1.1" id="Layer_1" xmlns="http://www.w3.org/2000/svg" xmlns:xlink="http://www.w3.org/1999/xlink" x="0px" y="0px"
	 viewBox="0 0 254 222" style="enable-background:new 0 0 254 222;" xml:space="preserve">
<style type="text/css">
	.st0{fill:#3FBCF9;}
	.st1{fill:#FBD2BB;}
	.st2{fill:#09A0DB;}
</style>
<g>
	<g>
		<g>
			<g>
				<g>
					<g>
						<path class="st0" d="M129.4,68.3c0,1.3,0.1,2.6,0.2,3.8c1.7,21.3,3.5,42.7,5.2,64c0.7,8.3,1.4,16.7,4.4,24.4
							c1.6,4.1,3.8,8,4.5,12.3c0.8,4.7-0.1,10.2,3.2,13.6c2,2,5.1,2.6,7.9,3c12.6,1.8,25.5,1.9,37.7-2.2c1.3-0.4,2.7-1,3.5-2.2
							c0.7-1.1,0.7-2.5,0.7-3.8c-0.1-5,2.2-10.3,5.7-13.8c2-2,2.5-3.3,4.8-4.8c5-3.2,7.9-8.7,10.7-14c6.3-12,12.5-24,18.8-36.1
							c0.8-1.6,1.7-3.3,1.9-5.1s-0.3-3.8-1.8-4.9c-1.1-0.8-2.5-1-3.9-1c-7.7-0.1-15.4,3.4-20.3,9.4c-2.4,3-4.5,6.8-8.3,7.8
							c0.4-23.1,0.6-46.3,0.6-69.4c0-4.3-0.5-9.3-4.1-11.4c-3.5-2-8.2,0.1-10.5,3.5c-2.2,3.4-2.6,7.6-3,11.7
							c-0.9,10.6-1.8,21.3-2.6,31.9c-0.3-12.8-0.5-25.6-0.7-38.4c-0.1-3.9-0.2-8-1.9-11.5c-1.7-3.5-5.6-6.3-9.5-5.5
							c-3.2,0.7-5.5,3.7-6.3,6.9c-0.8,3.2-0.5,6.5-0.3,9.8c1,12.2,1,24.6,0,36.8c-0.8-11.7-1.5-23.4-2.3-35.1
							c-0.2-3.4-0.7-7.2-3.4-9.2c-3.6-2.8-9.3-0.3-11.4,3.6c-2.2,4-1.9,8.8-1.6,13.3c0.8,12.2,1.7,24.5,2.5,36.7
							c-1.4-8.2-2.8-16.3-4.2-24.5c-0.9-4.9-2.8-11-7.8-11.5c-3.4-0.4-6.5,2.4-7.7,5.6C129.5,64.1,129.4,66.2,129.4,68.3z"/>
						<path class="st1" d="M152.5,136.5"/>
					</g>
				</g>
			</g>
		</g>
		<path class="st2" d="M145.9,190.8H195c2.2,0,4-1.8,4-4v-0.2c0-2.2-1.8-4-4-4h-49.1c-2.2,0-4,1.8-4,4v0.2
			C141.9,189,143.7,190.8,145.9,190.8z"/>
		<path class="st2" d="M194.3,183.9c2.3,1.3,5.2-6.7,6.7-8.6c2.8-3.7,6.2-6.9,8.9-10.6c2.8-3.8,4.9-8.1,7-12.3
			c4-8,7.9-16.1,11.9-24.1c2-4.1,4-8.2,6.1-12.3c1.7-3.4,3.8-6.5,3.7-10.4c0-0.6-4.6,4.2-4.8,4.6c-1.5,2.6-2.7,5.3-3.9,8
			c-4.2,9.7-9,19-14.5,28c0,0-2.5,8.8-7.5,13.7c-4.3,4.2-4.7,4.5-7.3,8.9C197.9,173.4,195.7,178.7,194.3,183.9z"/>
		<path class="st2" d="M201.9,80.6c0,0-1.3,24.9-0.2,33.1c0.2,1.3,1.2,4.1,2.4,4.8c2.4-23.6,0.5-45,1.3-68.8c0.1-2.5-0.7-6.8-1.7-9
			c-0.7-1.6-3.4-2.6-5.8-3c1.5,2.5,3,6,3,10C200.8,56.1,201.9,80.6,201.9,80.6z"/>
		<path class="st2" d="M178.3,39.1c2.2,8.6,1.8,21.6,1.8,21.6s0,8.7,1.1,13.5c1,4.6,3.4,10.4,3.6,11.2c0-0.4,0.1-0.8,0-1.7
			c-1-15.8,0-26.4-1-42.2c-0.2-2.4-1.5-6.1-2.6-8.3c-1.1-2.2-4.6-3.5-7.1-3.6c-0.4,0-0.9,0.1-1.4,0.2
			C174.9,31.9,177.3,35,178.3,39.1z"/>
		<path class="st2" d="M152.4,38.8c2.6,2,5.3,5,6,8.9c1.4,8,0.9,13.9,1.7,18.5c0.4,2.1,2.2,6.6,2.7,8.3c0.9,2.7,2.1,5.4,3.2,8
			c0.2-7.6-0.4-15.3-1.1-22.9c-0.4-3.8-0.8-7.6-1.2-11.4c-0.3-3-0.1-6.7-2.3-9.1C159.8,37.2,155.3,37.4,152.4,38.8z"/>
		<path class="st2" d="M135.1,57.1c5.1,1.6,8,13.6,8.3,15.3c0.9,4.7,2.8,14.9,6,19.2c0.8-4.7-1.5-10.4-2.1-15.1
			c-0.8-6-1.5-12.4-4.9-17.5c-1.1-1.7-3.3-2.5-5.5-2.4C136.4,56.6,135.8,56.8,135.1,57.1z"/>
	</g>
	<g>
		<g>
			<g>
				<g>
					<g>
						<path class="st0" d="M124.7,68.3c0,1.3-0.1,2.6-0.2,3.8c-1.7,21.3-3.5,42.7-5.2,64c-0.7,8.3-1.4,16.7-4.4,24.4
							c-1.6,4.1-3.8,8-4.5,12.3c-0.8,4.7,0.1,10.2-3.2,13.6c-2,2-5.1,2.6-7.9,3c-12.6,1.8-25.5,1.9-37.7-2.2c-1.3-0.4-2.7-1-3.5-2.2
							c-0.7-1.1-0.7-2.5-0.7-3.8c0.1-5-2.5-8.9-5.9-12.4c-2-2-2.2-4.7-4.6-6.3c-5-3.2-7.9-8.7-10.7-14c-6.3-12-12.5-24-18.8-36.1
							c-0.8-1.6-1.7-3.3-1.9-5.1c-0.2-1.8,0.3-3.8,1.8-4.9c1.1-0.8,2.5-1,3.9-1c7.7-0.1,15.4,3.4,20.3,9.4c2.4,3,4.5,6.8,8.3,7.8
							C49.2,95.8,49,72.6,49,49.5c0-4.3,0.5-9.3,4.1-11.4c3.5-2,8.2,0.1,10.5,3.5c2.2,3.4,2.6,7.6,3,11.7
							c0.9,10.6,1.8,21.3,2.6,31.9c0.3-12.8,0.5-25.6,0.7-38.4c0.1-3.9,0.2-8,1.9-11.5c1.7-3.5,5.6-6.3,9.5-5.5
							c3.2,0.7,5.5,3.7,6.3,6.9c0.8,3.2,0.5,6.5,0.3,9.8c-1,12.2-1,24.6,0,36.8c0.8-11.7,1.5-23.4,2.3-35.1c0.2-3.4,0.7-7.2,3.4-9.2
							c3.6-2.8,9.3-0.3,11.4,3.6s1.9,8.8,1.6,13.3c-0.8,12.2-1.7,24.5-2.5,36.7c1.4-8.2,2.8-16.3,4.2-24.5c0.9-4.9,2.8-11,7.8-11.5
							c3.4-0.4,6.5,2.4,7.7,5.6C124.6,64.1,124.8,66.2,124.7,68.3z"/>
						<path class="st1" d="M101.6,136.5"/>
					</g>
				</g>
			</g>
		</g>
		<path class="st2" d="M108.2,190.8H59.1c-2.2,0-4-1.8-4-4v-0.2c0-2.2,1.8-4,4-4h49.1c2.2,0,4,1.8,4,4v0.2
			C112.3,189,110.5,190.8,108.2,190.8z"/>
		<path class="st2" d="M59.8,183.9c-2.3,1.3-5.2-6.7-6.7-8.6c-2.8-3.7-6.2-6.9-8.9-10.6c-2.8-3.8-4.9-8.1-7-12.3
			c-4-8-7.9-16.1-11.9-24.1c-2-4.1-4-8.2-6.1-12.3c-1.7-3.4-3.8-6.5-3.7-10.4c0-0.6,4.6,4.2,4.8,4.6c1.5,2.6,2.7,5.3,3.9,8
			c4.2,9.7,9,19,14.5,28c0,0,2.5,8.8,7.5,13.7c4.3,4.2,5.2,5.6,7.8,10C56.7,174.5,58.5,178.7,59.8,183.9z"/>
		<path class="st2" d="M52.2,80.6c0,0,1.3,24.9,0.2,33.1c-0.2,1.3-1.2,4.1-2.4,4.8c-2.4-23.6-0.5-45-1.3-68.8
			c-0.1-2.5,0.7-6.8,1.7-9c0.7-1.6,3.4-2.6,5.8-3c-1.5,2.5-3,6-3,10C53.3,56.1,52.2,80.6,52.2,80.6z"/>
		<path class="st2" d="M75.8,39.1C73.6,47.7,74,60.7,74,60.7s0,8.7-1.1,13.5c-1,4.6-3.4,10.4-3.6,11.2c0-0.4-0.1-0.8,0-1.7
			c1-15.8,0-26.4,1-42.2c0.2-2.4,1.5-6.1,2.6-8.3c1.1-2.2,4.6-3.5,7.1-3.6c0.4,0,0.9,0.1,1.4,0.2C79.2,31.9,76.9,35,75.8,39.1z"/>
		<path class="st2" d="M101.5,38.9c-2.6,2-5.1,4.8-5.9,8.8c-1.4,8-0.9,13.9-1.7,18.5c-0.4,2.1-2.2,6.6-2.7,8.3
			c-0.9,2.7-2.1,5.4-3.2,8c-0.2-7.6,0.4-15.3,1.1-22.9c0.4-3.8,0.8-7.6,1.2-11.4c0.3-3,0.1-6.7,2.3-9.1
			C94.3,37.2,98.8,37.1,101.5,38.9z"/>
		<path class="st2" d="M119,57.1c-5.1,0-7.9,16.1-8.2,17.8c-0.9,4.7-1.6,10.8-6.1,16.7c-0.8-4.7,1.5-10.4,2.1-15.1
			c0.8-6,1.5-12.4,4.9-17.5c1.1-1.7,3.3-2.5,5.5-2.4C117.7,56.6,118.4,56.8,119,57.1z"/>
	</g>
</g>
</svg>
