<svg id="Layer_1" data-name="Layer 1" xmlns="http://www.w3.org/2000/svg" viewBox="0 0 212.84 176.47"><defs><style>.cls-1{fill:#3fbcf9;}.cls-2{fill:#fbd2bb;}.cls-3{fill:#f9c3a1;}.cls-4{fill:#09a0db;}</style></defs><title>hand</title><path class="cls-1" d="M59.16,242.32s-9.13,1-9.13,23.41h75.63s3.33-12.52-9-20.41S59.16,242.32,59.16,242.32Z" transform="translate(-25.58 -89.26)"/><path class="cls-2" d="M65.15,236.2,65,221.45l-10-8.24a23.79,23.79,0,0,1-5.07-5.75s-3.2-9.34-9.72-15.86c-2.85-2.85-3.42-7.1-4.43-9.89h0a39,39,0,0,0-4.52-8.77l-5.11-7.39a3,3,0,0,1,1.16-4.43h0a10.82,10.82,0,0,1,10.71.73h0a46.15,46.15,0,0,1,12.23,12l1.45,2.08a5,5,0,0,0,6.42,1.56h0L57.63,157l-1.75-52.85a7.22,7.22,0,0,1,3-6.09h0a5.45,5.45,0,0,1,5.53-.49h0A5.44,5.44,0,0,1,67.47,102l5.7,47.57a.76.76,0,0,0,1,.65h0a.77.77,0,0,0,.58-.69l2.44-35.73,1-19.41a6.14,6.14,0,0,1,3.71-4.69h0a6.13,6.13,0,0,1,6.08.78l.49.37a6.14,6.14,0,0,1,2.43,4.9l-.2,53.43a.77.77,0,0,0,.61.76l.65.14,4.23-45.82c.75-6.1,4.32-7.31,6.63-7,3.9.46,5.42,2.75,5.53,6.83.32,12-1.17,46.41-1.36,50.9a.74.74,0,0,0,.41.71l.73.39,7.58-37.79a5.38,5.38,0,0,1,7.63-2.28h0c2.13,1.3,2.36,3.08,2.32,6.27,0,0-4.07,35.53-5.13,42.47l-3.22,45.95a17,17,0,0,1-3.68,8.25l-2.3,2.81-.13,14a7.27,7.27,0,0,1-5.7,7.83h0a76.85,76.85,0,0,1-29.65.53l-4.71-.84A7.26,7.26,0,0,1,65.15,236.2Z" transform="translate(-25.58 -89.26)"/><path class="cls-3" d="M79.07,226.49a25.09,25.09,0,0,1-14.1-5l.09,7.6C67.12,227,74.8,227,79.07,226.49Z" transform="translate(-25.58 -89.26)"/><path class="cls-3" d="M99.94,226.43c4.11.28,10.78-2.23,11.34.2l0-4.87S108,225.21,99.94,226.43Z" transform="translate(-25.58 -89.26)"/><path class="cls-3" d="M91,198.18c1.52,2.72,1.69-17.55-13-24.78-4.83-2.37-16.71-4.17-20.2-9l.29,13.05a4.88,4.88,0,0,1-2.59.57C59.38,177.57,80.49,179.25,91,198.18Z" transform="translate(-25.58 -89.26)"/><path class="cls-3" d="M120.6,164.31c.2-1.41.5-3.67.85-6.44-3.39,8.55-12.11-.8-12.86-4.07l-.46,2.28-.73-.39A.75.75,0,0,1,107,155c0-.67.09-2,.16-3.83-2.68,6.55-13.64,1.84-14.89-4.29l-.3,3.25-.65-.14a.77.77,0,0,1-.61-.76v-2.58a6.24,6.24,0,0,1-3.13,3.29c-3.54,1.62-10,2-12.72-2.74l-.16,2.38a.77.77,0,0,1-.58.69h0a.76.76,0,0,1-1-.65l-.3-2.52c-.82,4.53-12.46,6.43-15.43,4l.07,2.1c8.88-1.73,23.1-3.07,34.21-.7A92.11,92.11,0,0,1,120.6,164.31Z" transform="translate(-25.58 -89.26)"/><path class="cls-2" d="M104.73,192.33" transform="translate(-25.58 -89.26)"/><path class="cls-4" d="M59.16,242.32s-2.3-15.51,11-15,31.72-3.59,41.19-3.13,5.37,21.12,5.37,21.12S73.77,253.61,59.16,242.32Z" transform="translate(-25.58 -89.26)"/><path class="cls-1" d="M204.84,242.32s9.13,1,9.13,23.41H138.34s-3.33-12.52,9-20.41S204.84,242.32,204.84,242.32Z" transform="translate(-25.58 -89.26)"/><path class="cls-2" d="M198.85,236.2l.18-14.75,10-8.24a23.79,23.79,0,0,0,5.07-5.75s3.2-9.34,9.72-15.86c2.85-2.85,3.42-7.1,4.43-9.89h0a39,39,0,0,1,4.52-8.77l5.11-7.39a3,3,0,0,0-1.16-4.43h0a10.82,10.82,0,0,0-10.71.73h0a46.15,46.15,0,0,0-12.23,12l-1.45,2.08a5,5,0,0,1-6.42,1.56h0l.46-20.5,1.75-52.85a7.22,7.22,0,0,0-3-6.09h0a5.45,5.45,0,0,0-5.53-.49h0a5.44,5.44,0,0,0-3.07,4.49l-5.7,47.57a.76.76,0,0,1-1,.65h0a.77.77,0,0,1-.58-.69l-2.44-35.73-1.05-19.41a6.14,6.14,0,0,0-3.71-4.69h0a6.13,6.13,0,0,0-6.08.78l-.49.37a6.14,6.14,0,0,0-2.43,4.9l.2,53.43a.77.77,0,0,1-.61.76l-.65.14-4.23-45.82c-.75-6.1-4.32-7.31-6.63-7-3.9.46-5.42,2.75-5.53,6.83-.32,12,1.17,46.41,1.36,50.9a.74.74,0,0,1-.41.71l-.73.39-7.58-37.79a5.38,5.38,0,0,0-7.63-2.28h0c-2.13,1.3-2.36,3.08-2.32,6.27,0,0,4.07,35.53,5.13,42.47l3.22,45.95a17,17,0,0,0,3.68,8.25l2.3,2.81.13,14a7.27,7.27,0,0,0,5.7,7.83h0a76.85,76.85,0,0,0,29.65.53l4.71-.84A7.26,7.26,0,0,0,198.85,236.2Z" transform="translate(-25.58 -89.26)"/><path class="cls-3" d="M184.93,226.49a25.09,25.09,0,0,0,14.1-5l-.09,7.6C196.88,227,189.2,227,184.93,226.49Z" transform="translate(-25.58 -89.26)"/><path class="cls-3" d="M164.06,226.43c-4.11.28-10.78-2.23-11.34.2l-.05-4.87S156,225.21,164.06,226.43Z" transform="translate(-25.58 -89.26)"/><path class="cls-3" d="M173,198.18c-1.52,2.72-1.69-17.55,13-24.78,4.83-2.37,16.71-4.17,20.2-9l-.29,13.05a4.88,4.88,0,0,0,2.59.57C204.62,177.57,183.51,179.25,173,198.18Z" transform="translate(-25.58 -89.26)"/><path class="cls-3" d="M143.4,164.31c-.2-1.41-.5-3.67-.85-6.44,3.39,8.55,12.11-.8,12.86-4.07l.46,2.28.73-.39A.75.75,0,0,0,157,155c0-.67-.09-2-.16-3.83,2.68,6.55,13.64,1.84,14.89-4.29l.3,3.25.65-.14a.77.77,0,0,0,.61-.76v-2.58a6.24,6.24,0,0,0,3.13,3.29c3.54,1.62,10,2,12.72-2.74l.16,2.38a.77.77,0,0,0,.58.69h0a.76.76,0,0,0,1-.65l.3-2.52c.82,4.53,12.46,6.43,15.43,4l-.07,2.1c-8.88-1.73-23.1-3.07-34.21-.7A92.11,92.11,0,0,0,143.4,164.31Z" transform="translate(-25.58 -89.26)"/><path class="cls-2" d="M159.27,192.33" transform="translate(-25.58 -89.26)"/><path class="cls-4" d="M204.84,242.32s2.3-15.51-11-15-31.72-3.59-41.19-3.13-5.37,21.12-5.37,21.12S190.23,253.61,204.84,242.32Z" transform="translate(-25.58 -89.26)"/></svg>