<svg id="Layer_1" data-name="Layer 1" xmlns="http://www.w3.org/2000/svg" viewBox="0 0 288 230.03"><defs><style>.cls-1{fill:#52b9ea;}.cls-2{fill:#13a0db;}</style></defs><path class="cls-1" d="M13.94,128.09l9.51-8.91c1.15-1.08,2.49-3.06,3.64-4.14,1-.92,2-2.28,3.23-2.88A9,9,0,0,0,32.68,110a22.14,22.14,0,0,1,2.65-2.31c.34-.22,1.27,1.54,1.7,1.53s-.19,1,.26,1.31A24,24,0,0,1,43.61,116c.33.36,1.58.29,1.73.74s1.84,1.77,1.6,2.21c0,0,.71,2.35-1.06.6,0,0,.25,1.34.23,1.36s-.64-.62-.65-.61,0-.45,0-.44,0,.58,0,.62l0,.42c-.25.29.46.11.29.27-.56.58-.37-.63-.59.17-.32,1.23-1.67,2.4-1.58,3.68.1,1.43-.53,3.34-.72,4.72-.25,1.79-.79,3.4-1.07,5.21-.11.7-.45,3.31-1.32,4.24a.85.85,0,0,1-1.11.2c-1.09-.57-2-2.58-2.22-3.68a12.69,12.69,0,0,1-.26-3c0-.77-.14-1.35-.92-1.41-3.15,4.6-6.41,8.47-9.9,12.86a5.69,5.69,0,0,1-1.69,1.35c-.38.18-1-.08-1.55-.4a3.48,3.48,0,0,1-.52-.41c-.72-.73-.19-2,.32-2.79,2-3.06,3.61-5.79,5.58-8.84-.22,0-.31,0-.37,0h0a2,2,0,0,1-.25.3c-2.59,2.68-4.78,5.62-7.37,8.31A5.89,5.89,0,0,1,18.66,143a2.19,2.19,0,0,1-1.89-.5,1.13,1.13,0,0,1-.23-.26,2.82,2.82,0,0,1-.36-1.93c.16-.6.84-1,1.23-1.44,2.47-2.87,7.11-8.13,7-8.33h0c-.19.17-.37.35-.54.52-2.19,2.16-3.75,3.9-6.06,6.11-.52.51-1.33,1.39-2.08,1.47s-1.42-.68-1.76-1.39a1.52,1.52,0,0,1-.15-.5c-.1-1,1-2.23,1.59-2.84,2.32-2.54,4.4-4.72,6.72-7.26.14-.16.72-.52.6-.7l0,0-.13.1-.6.49c-1.84,1.5-3.56,3.24-5.44,4.67a5.24,5.24,0,0,1-1.57.67,1.53,1.53,0,0,1-1.4-.45,2,2,0,0,1-.26-.39,2.71,2.71,0,0,1-.25-1.75A3,3,0,0,1,13.94,128.09Z"/><path class="cls-2" d="M45.56,119l-.44-2.58.44-.08c-.29.39,4.72.94,4.38,1.28-.57.59-3.08,3.06-3.91,3.7-.33,1.23-2,2.36-2.42,3.67.1,1.43-.52,3.34-.71,4.73-.25,1.78-.8,3.39-1.07,5.2-.11.7-.45,3.31-1.32,4.24-.23-.41-.48-1.35.17-3.24a55,55,0,0,0,1.67-7.77,9.15,9.15,0,0,0,0-3.7c-.46-1.4.14-1.41.32-2A24.65,24.65,0,0,1,45.56,119Z"/><path class="cls-2" d="M29.81,137.79l5-6s.84-.54,1.18-.48c-3.15,4.61-6.41,8.47-9.9,12.86a5.89,5.89,0,0,1-1.69,1.36c-.38.18-1-.08-1.55-.41A4.46,4.46,0,0,0,25,143.84C26.24,142.35,29.81,137.79,29.81,137.79Z"/><path class="cls-2" d="M19,141.46a22.8,22.8,0,0,0,3.63-3.58,18.84,18.84,0,0,1,2.26-2.25c.9-.65,2.78-2.39,2.95-2.49a2.27,2.27,0,0,1-.26.3c-2.59,2.67-4.78,5.62-7.36,8.3A5.74,5.74,0,0,1,18.68,143a2.22,2.22,0,0,1-1.9-.5,1.38,1.38,0,0,1-.23-.26A4.63,4.63,0,0,0,19,141.46Z"/><path class="cls-2" d="M13.92,137.22a3.55,3.55,0,0,0,2.5-.63c1.5-1.21,3.34-2.89,3.34-2.89s2.41-2.36,2.78-2.58a14.15,14.15,0,0,1,1.82-.61l-.54.53c-2.19,2.15-3.75,3.9-6.06,6.11-.52.5-1.33,1.39-2.08,1.47S14.26,137.93,13.92,137.22Z"/><path class="cls-2" d="M13.27,131a2.32,2.32,0,0,0,1.45-.3c1-.68,3.69-2.34,3.69-2.34a23.45,23.45,0,0,1,1.92-1.7,12.77,12.77,0,0,1,2.33-.75l-.12.1-.61.49c-1.84,1.5-3.56,3.24-5.43,4.67a5.42,5.42,0,0,1-1.58.67,1.48,1.48,0,0,1-1.39-.45A1.4,1.4,0,0,1,13.27,131Z"/><path class="cls-1" d="M272.3,128.51a2.69,2.69,0,0,1-.26,1.74,1.16,1.16,0,0,1-.26.39,1.51,1.51,0,0,1-1.39.46,5,5,0,0,1-1.57-.68c-1.88-1.43-3.6-3.16-5.44-4.67l-.61-.48-.12-.1,0,0c-.12.17.46.53.6.7,2.32,2.53,4.4,4.72,6.72,7.26.56.61,1.69,1.87,1.59,2.83a1.5,1.5,0,0,1-.15.51c-.34.7-1.15,1.44-1.76,1.39s-1.56-1-2.08-1.47c-2.31-2.21-3.87-4-6.06-6.11l-.54-.53h0c-.15.21,4.49,5.47,7,8.34.39.45,1.07.84,1.23,1.44a2.8,2.8,0,0,1-.36,1.92,1.18,1.18,0,0,1-.23.27,2.22,2.22,0,0,1-1.89.5,5.93,5.93,0,0,1-1.57-1.25c-2.59-2.68-4.78-5.63-7.37-8.3a2.69,2.69,0,0,1-.25-.3h0c-.06-.07-.15-.07-.37,0,2,3.06,3.61,5.79,5.58,8.84.51.78,1,2.06.32,2.8a2.88,2.88,0,0,1-.52.4c-.51.33-1.17.59-1.55.41a5.89,5.89,0,0,1-1.69-1.36c-3.49-4.39-6.75-8.25-9.9-12.86-.78.06-.9.65-.92,1.41a12.64,12.64,0,0,1-.26,3c-.27,1.11-1.13,3.12-2.22,3.69a.86.86,0,0,1-1.11-.21c-.87-.93-1.21-3.54-1.32-4.23-.28-1.82-.82-3.43-1.07-5.21-.19-1.39-.82-3.3-.72-4.72s-1.26-2.45-1.58-3.68c-.22-.81,0,.41-.59-.18-.17-.16.54,0,.29-.27l0-.41s0-.59,0-.62,0,.45,0,.44-.64.63-.65.61.24-1.37.23-1.36c-1.77,1.74-1.06-.61-1.06-.61-.24-.43,1.47-1.68,1.6-2.21s1.4-.38,1.73-.73c1.76-2.18,3.11-4.47,5.52-5.91.45-.27.55-.87,1.06-.87s1.34-2.4,1.68-2.18a28.19,28.19,0,0,1,2.67,3,7.94,7.94,0,0,0,2.54,1.6c1.24.59,2.39,2.07,3.38,3,1.15,1.08,2.59,3,3.73,4.12,3.14,3,5.95,6.41,9.09,9.36A3,3,0,0,1,272.3,128.51Z"/><path class="cls-2" d="M242.64,121.72c.18.63.78.64.32,2a9.1,9.1,0,0,0,0,3.69,55,55,0,0,0,1.67,7.77c.65,1.9.4,2.84.17,3.24-.87-.92-1.21-3.53-1.32-4.23-.27-1.82-.82-3.43-1.07-5.21a26.92,26.92,0,0,1-.72-4.72c-.43-1.31-2.08-2.45-2.41-3.67-.83-.65-3.34-3.12-3.91-3.7-.34-.35,4.67-.9,4.38-1.28,0,0,.44.07.44.07l-.44,2.59A24.49,24.49,0,0,1,242.64,121.72Z"/><path class="cls-2" d="M260.37,143.11a4.46,4.46,0,0,0,2.08,1.31c-.51.32-1.17.58-1.55.4a5.69,5.69,0,0,1-1.69-1.35c-3.49-4.39-6.75-8.26-9.9-12.86.34-.07,1.18.47,1.18.47l5,6S259.08,141.62,260.37,143.11Z"/><path class="cls-2" d="M268.77,141.49a1.49,1.49,0,0,1-.23.27,2.25,2.25,0,0,1-1.9.5,5.93,5.93,0,0,1-1.57-1.25c-2.58-2.68-4.77-5.63-7.36-8.3a3.2,3.2,0,0,1-.26-.3c.17.1,2,1.84,2.95,2.49a18.84,18.84,0,0,1,2.26,2.25,22.8,22.8,0,0,0,3.63,3.58A4.62,4.62,0,0,0,268.77,141.49Z"/><path class="cls-2" d="M269.64,137.88c-.76-.08-1.57-1-2.08-1.47-2.31-2.21-3.88-3.95-6.06-6.11-.17-.17-.35-.35-.54-.52a12.72,12.72,0,0,1,1.82.61c.37.22,2.78,2.58,2.78,2.58s1.84,1.67,3.34,2.88a3.56,3.56,0,0,0,2.5.64C271.06,137.2,270.25,137.94,269.64,137.88Z"/><path class="cls-2" d="M271.79,130.64a1.52,1.52,0,0,1-1.39.46,5.18,5.18,0,0,1-1.58-.68c-1.87-1.43-3.59-3.16-5.43-4.67l-.61-.48-.13-.1a13.47,13.47,0,0,1,2.34.74,23,23,0,0,1,1.92,1.71s2.64,1.65,3.69,2.33a2.19,2.19,0,0,0,1.45.3A1.16,1.16,0,0,1,271.79,130.64Z"/><path class="cls-1" d="M250.14,106.79l-12,13.2-6.5-5.7c-5.7,2.8-52.2-38.9-52-46.4l1.8,8c-1.8,13.6,2.5,41.5,5.3,55.1s9.7,81.9,9.7,81.9c-1.8,1.2-5.2,2.2-9.5,3.1-18.9,3.8-55.7,5-55.7,5s-19.3-1.1-31.8-5a29.59,29.59,0,0,1-7.1-3.1s7-68.3,9.8-81.9,7.1-41.4,5.3-55.1l-.7-5.1c-18.9,16.9-42.5,45.6-52.1,42.6l-7.1,5.4-12.7-11.6s6.7-5.8,6.5-6.1c-3.9-7.7,43.5-57.4,59.7-66.7a50.25,50.25,0,0,1,17.8-5.8l7.3-2.1c3.1,2.1,11,3.5,19.7,3.5s16.8-2.5,19.9-4.6l4.3,2.5a62.81,62.81,0,0,1,17.7,6.4s28.9,27.7,34.8,31.5c2.6,1.6,25.7,32.3,22.2,34.8Z"/><polygon class="cls-2" points="231.64 114.29 244.84 100.69 250.64 106.39 238.04 120.69 231.64 114.29"/><path class="cls-2" d="M164.74,22.49c-4.5,2.6-20.9,10-37.5,1.3-1-.5-.7,1.2-1.2,2.3l-.2.4s21.6,14.5,39.9-1l-.2-.5C165.24,24.09,165.54,22,164.74,22.49Z"/><path class="cls-2" d="M105.64,143.79c-1,8.6,1.4,26.3-1,31s-6.2,16.1-6.6,22.8,1.4,18.4,1.4,18.4a29.59,29.59,0,0,1-7.1-3.1s7-68.3,9.8-81.9,7.1-41.4,5.3-55.1l-.7-5.1c2.3,1.7,10.1,32.3,6.9,41.4S106.64,135.19,105.64,143.79Z"/><path class="cls-2" d="M188.24,208.29c.7-2.8-.3-8.4,0-12.3s-3.7-10.6-3-14.8.8-13.2-1.7-18.5-2-14.6-1.3-28.8-5-12.3-6.6-18.8-1-15.1.1-24.5a114.9,114.9,0,0,0,1.2-12c.6-6.5,2.1-14.4,2.1-14.4l1.6,3.4.7,8.3c-1.8,13.6,2.5,41.5,5.3,55.1s9.7,81.9,9.7,81.9c-1.8,1.2-5.2,2.2-9.5,3.1C186.94,216,187.64,211.09,188.24,208.29Z"/><polygon class="cls-2" points="41.34 101.09 54.54 113.39 47.44 119.99 33.81 107.67 41.34 101.09"/></svg>