<svg id="Layer_1" data-name="Layer 1" xmlns="http://www.w3.org/2000/svg" viewBox="0 0 209.26 198.51"><defs><style>.cls-1{fill:#3fbcf9;}.cls-2{fill:#09a0db;}</style></defs><title>gown</title><path class="cls-1" d="M237.13,160.73l-10.53,8.6-6.52-5.71c-3,3.21-44.75-30.26-48-36.11l-1.46,9.5c-1.76,13.65,2.52,41.52,5.31,55.09S185.71,274,185.71,274c-1.81,1.17-5.21,2.19-9.53,3.08-18.92,3.84-55.71,5-55.71,5s-19.34-1.13-31.8-5A30.42,30.42,0,0,1,81.53,274s7-68.34,9.76-81.91,7.06-41.44,5.28-55.09l-.74-5.08c-18.94,16.86-40.35,34.62-49.92,31.66L38.8,169,28.37,159.6s6.68-5.83,6.53-6.11c-3.86-7.73,39.15-48.73,55.35-58a50.63,50.63,0,0,1,17.83-5.77l7.27-2.09c3.06,2.1,11.05,3.52,19.69,3.52S151.88,88.7,155,86.6l4.34,2.46A61,61,0,0,1,177,95.5s27.45,28.2,33.38,32c2.56,1.62,24.88,24.6,21.47,27.16Z" transform="translate(-28.37 -83.55)"/><polygon class="cls-2" points="191.71 80.07 203.48 71.11 209.26 76.77 198.13 86.53 191.71 80.07"/><path class="cls-2" d="M153.94,83.63c-4.52,2.64-20.91,10-37.46,1.28-1-.54-.72,1.24-1.22,2.25l-.22.46s21.61,14.51,39.93-1l-.18-.55C154.49,85.17,154.78,83.13,153.94,83.63Z" transform="translate(-28.37 -83.55)"/><path class="cls-2" d="M94.87,204.93c-1,8.58,1.41,26.33-1,31S87.63,252,87.23,258.7s1.44,18.39,1.44,18.39A30.42,30.42,0,0,1,81.53,274s7-68.34,9.76-81.91,7.06-41.44,5.28-55.09l-.74-5.08c2.26,1.66,10.1,32.28,6.88,41.44S95.88,196.33,94.87,204.93Z" transform="translate(-28.37 -83.55)"/><path class="cls-2" d="M177.45,269.44c.66-2.8-.35-8.41,0-12.33s-3.67-10.64-2.95-14.84.79-13.17-1.72-18.49-2-14.56-1.26-28.85-5-12.32-6.64-18.76-1-15.13.11-24.54-.56-14.67,0-21.16,3.33-5.19,3.33-5.19l3.81,2.23-1.46,9.5c-1.76,13.65,2.52,41.52,5.31,55.09S185.71,274,185.71,274c-1.81,1.17-5.21,2.19-9.53,3.08C176.18,277.09,176.8,272.24,177.45,269.44Z" transform="translate(-28.37 -83.55)"/><polygon class="cls-2" points="6.54 69.94 17.54 80.04 10.44 86.65 0 76.05 6.54 69.94"/></svg>